<svg width="165" height="36" viewBox="0 0 165 36" fill="none" xmlns="http://www.w3.org/2000/svg">
<path d="M163.981 33.5167C163.976 26.2852 164.015 19.0512 163.959 11.8196C163.915 6.21043 159.457 1.13718 153.911 0.201099C149.808 -0.490046 146.24 0.613363 143.126 3.31004C140.212 6.2371 139.184 9.78983 139.262 13.8688C139.391 20.5838 139.31 27.3037 139.281 34.0211C139.276 35.0663 139.6 35.7526 140.657 36C141.712 35.7623 142.101 35.0979 142.04 34.0381C141.977 32.9541 142.004 31.8604 142.03 30.774C142.055 29.8088 142.575 29.2607 143.404 29.2559C144.232 29.251 144.743 29.8064 144.77 30.7667C144.784 31.2784 144.755 31.7925 144.774 32.3042C144.811 33.2378 145.365 33.8465 146.145 33.8417C146.928 33.8368 147.502 33.2306 147.548 32.3139C147.579 31.6761 147.54 31.031 147.584 30.3957C147.628 29.77 148.056 29.4232 148.622 29.2874C149.208 29.1467 149.699 29.365 150.041 29.8646C150.292 30.2283 150.25 30.6527 150.28 31.0698C150.355 32.1272 151.245 32.7383 152.156 32.3551C152.793 32.0884 153.009 31.5718 153.012 30.8904C153.014 29.8573 153.544 29.2583 154.363 29.2559C155.236 29.2535 155.734 29.8597 155.753 30.9486C155.763 31.4603 155.746 31.9744 155.782 32.4836C155.838 33.3057 156.307 33.7859 157.124 33.8441C157.863 33.895 158.451 33.2718 158.505 32.4206C158.539 31.8774 158.507 31.3317 158.527 30.7885C158.565 29.8088 159.054 29.2632 159.873 29.2583C160.68 29.2535 161.21 29.8209 161.232 30.7812C161.258 31.9016 161.261 33.022 161.239 34.1424C161.224 34.9499 161.397 35.6411 162.27 35.8715C163.147 36.1043 163.653 35.5877 164.003 34.8626C163.995 34.4116 163.981 33.9654 163.981 33.5167ZM147.149 14.0968C145.919 14.1331 144.845 12.9545 144.83 11.5456C144.813 10.0517 145.822 8.82223 147.071 8.8101C148.274 8.79798 149.322 9.99839 149.349 11.4195C149.375 12.8454 148.377 14.0604 147.149 14.0968ZM153.634 16.483C153.277 17.2954 152.552 17.4894 151.76 17.5622C150.977 17.4773 150.226 17.3512 149.859 16.5267C149.621 15.9932 149.747 15.5833 150.382 15.6634C151.305 15.7798 152.212 15.7507 153.133 15.6658C153.704 15.6124 153.85 15.9907 153.634 16.483ZM156.205 14.0992C154.924 14.104 153.891 12.8794 153.928 11.4001C153.964 9.95716 154.997 8.79555 156.222 8.81495C157.477 8.83435 158.463 10.059 158.437 11.5626C158.412 12.9497 157.404 14.0943 156.205 14.0992Z" fill="url(#paint0_linear)"/>
<path d="M109.975 4.61916C112.271 4.64584 114.566 4.63129 116.863 4.63129C120.295 4.63129 123.727 4.63614 127.161 4.62887C128.578 4.62644 129.563 3.61034 129.477 2.26685C129.405 1.12221 128.386 0.27829 127.059 0.275865C120.472 0.27344 113.885 0.273438 107.299 0.273438C105.517 0.273438 104.608 1.18284 104.605 2.96284C104.605 7.98274 104.605 13.0051 104.605 18.025C104.605 23.0449 104.605 28.0672 104.605 33.0871C104.605 34.7313 105.502 35.6383 107.121 35.6383C113.637 35.6383 120.154 35.6383 126.673 35.6383C126.974 35.6383 127.278 35.6455 127.577 35.6116C129.169 35.4297 129.998 33.6448 129.12 32.3159C128.593 31.5181 127.817 31.2707 126.903 31.2707C121.291 31.278 115.679 31.2634 110.065 31.2877C109.411 31.2901 109.26 31.0961 109.265 30.4729C109.294 27.279 109.299 24.0876 109.258 20.8938C109.248 20.1978 109.474 20.0644 110.123 20.0717C112.952 20.1057 115.781 20.0863 118.61 20.0863C120.883 20.0863 123.156 20.0984 125.428 20.0814C126.852 20.0717 127.873 18.8907 127.633 17.5787C127.426 16.4608 126.553 15.789 125.26 15.7866C120.183 15.7818 115.103 15.7745 110.026 15.8012C109.401 15.8036 109.253 15.629 109.258 15.0251C109.287 11.7853 109.287 8.54778 109.262 5.30789C109.26 4.75497 109.437 4.61189 109.975 4.61916Z" fill="url(#paint1_linear)"/>
<path d="M31.5091 29.7845C27.7272 20.6178 23.9428 11.451 20.1657 2.2818C19.9299 1.7119 19.5921 1.22689 19.1278 0.82918C18.0802 -0.0705212 16.8261 -0.0802243 15.567 0.0798304C14.2108 0.254436 13.3163 1.04986 12.7986 2.3109C11.0535 6.5669 9.28647 10.8156 7.54618 15.074C7.37361 15.4936 7.12813 15.5954 6.70521 15.5857C5.54583 15.5591 4.38645 15.5542 3.22707 15.5833C1.91943 15.6173 0.918032 16.6479 0.932615 17.8944C0.947199 19.1239 1.91942 20.0745 3.22464 20.1206C3.75693 20.14 4.29165 20.1449 4.82395 20.1133C5.32951 20.0842 5.35381 20.2661 5.17881 20.676C4.31596 22.7179 3.46769 24.7671 2.62186 26.8162C1.80276 28.8024 0.973936 30.7861 0.181572 32.7843C-0.197597 33.7374 0.0308749 34.6274 0.738169 35.3428C1.38956 36.0048 2.22324 36.063 3.06908 35.7817C3.85172 35.5222 4.29895 34.916 4.59548 34.1763C6.36736 29.7676 8.15869 25.3661 9.90383 20.9476C10.1469 20.3292 10.4531 20.1012 11.1143 20.14C12.1084 20.1958 13.1097 20.1885 14.1038 20.1376C15.5986 20.0576 16.4907 19.1336 16.4639 17.7731C16.4372 16.4563 15.4455 15.5712 13.9629 15.5494C13.3771 15.5421 12.7913 15.5469 12.1059 15.5469C13.5643 11.9142 14.9691 8.41965 16.4469 4.74325C16.6243 5.12156 16.7191 5.30343 16.7969 5.49501C19.366 11.8851 21.9351 18.2751 24.5018 24.6652C25.7851 27.8614 27.0588 31.0625 28.3494 34.2564C28.9011 35.6265 30.2647 36.2667 31.5018 35.7623C32.705 35.2725 33.1911 33.9072 32.6393 32.5418C32.2699 31.6227 31.8883 30.7036 31.5091 29.7845Z" fill="url(#paint2_linear)"/>
<path d="M98.8659 0.346965C97.5728 -0.390256 96.0343 0.220861 95.4242 1.72198C95.0402 2.66291 94.6635 3.60626 94.2843 4.54961C91.1513 12.3656 88.0183 20.1816 84.8829 27.9976C84.4721 29.021 84.0443 30.0395 83.5704 31.1987C83.4513 30.9732 83.4051 30.8956 83.371 30.8156C80.8214 24.4667 78.2717 18.1155 75.7196 11.7666C74.3585 8.3788 72.9998 4.98855 71.6144 1.61043C71.0578 0.257239 69.7283 -0.310228 68.5009 0.211162C67.2637 0.734977 66.8262 2.07119 67.4484 3.57716C69.597 8.78864 71.7651 13.9928 73.9186 19.2019C75.9044 24.0084 77.9071 28.8076 79.8564 33.6286C80.8117 35.9882 84.387 36.8006 86.2877 35.0813C87.1627 34.2907 87.3985 33.2018 87.8117 32.2173C90.8426 24.993 93.8152 17.742 96.8048 10.5007C97.7843 8.12902 98.7711 5.76215 99.7385 3.38558C100.239 2.15364 99.8722 0.921707 98.8659 0.346965Z" fill="url(#paint3_linear)"/>
<path d="M57.5392 2.13739C57.0944 1.06551 56.3264 0.279786 55.0625 0.182783C55.0212 0.156108 54.9871 0.16338 54.958 0.202181C54.8851 0.175505 54.8121 0.14883 54.7392 0.119729C54.3479 0.0930535 53.9541 0.0324273 53.5628 0.0445527C52.0948 0.0954791 50.9718 0.740548 50.3739 2.10586C49.6934 3.66033 49.0711 5.24391 48.427 6.81293C47.3114 9.52658 46.1861 12.2354 45.0947 14.9587C44.9003 15.4462 44.6402 15.6135 44.1201 15.5965C43.0093 15.5577 41.8937 15.565 40.7829 15.5893C39.3975 15.6208 38.4301 16.6005 38.4471 17.9052C38.4642 19.1929 39.4291 20.0902 40.8121 20.1023C41.2763 20.1072 41.7406 20.1266 42.2024 20.0926C42.8124 20.0465 42.8465 20.2551 42.6326 20.7668C41.0041 24.6687 39.3951 28.5779 37.786 32.4872C37.2221 33.8597 37.6864 35.2566 38.853 35.7368C40.134 36.263 41.4854 35.6252 42.0517 34.2211C43.8649 29.7226 45.6854 25.2241 47.4816 20.7183C47.6566 20.2793 47.8753 20.1266 48.342 20.1266C49.5451 20.129 50.7555 20.2308 51.9538 20.0756C53.2177 19.9132 53.9882 18.9165 53.9055 17.636C53.8326 16.5011 52.8823 15.6038 51.6889 15.5626C51.1784 15.5456 50.668 15.5335 50.16 15.565C49.6277 15.599 49.5961 15.4147 49.776 14.9733C51.0423 11.8716 52.2868 8.76026 53.5555 5.65859C53.6673 5.38456 53.7038 5.0499 53.9979 4.82194C54.168 5.17843 54.3139 5.48884 54.4621 5.79682C54.591 6.16543 54.7076 6.54132 54.8535 6.90265C57.9621 14.6411 61.0757 22.3795 64.1844 30.1203C64.7361 31.4929 65.266 32.8727 65.8275 34.2405C66.2795 35.3463 67.1667 35.9502 68.2264 35.9114C69.2448 35.875 69.9497 35.3342 70.2608 34.3205C70.55 33.3796 70.1344 32.5575 69.7917 31.7257C65.7035 21.8678 61.6347 11.9977 57.5392 2.13739Z" fill="url(#paint4_linear)"/>
<defs>
<linearGradient id="paint0_linear" x1="4.09128" y1="47.1159" x2="145.931" y2="19.8777" gradientUnits="userSpaceOnUse">
<stop stop-color="#30B8C6"/>
<stop offset="1" stop-color="#B3529F"/>
</linearGradient>
<linearGradient id="paint1_linear" x1="2.69303" y1="39.8412" x2="144.532" y2="12.603" gradientUnits="userSpaceOnUse">
<stop stop-color="#30B8C6"/>
<stop offset="1" stop-color="#B3529F"/>
</linearGradient>
<linearGradient id="paint2_linear" x1="-0.627393" y1="22.5613" x2="141.212" y2="-4.6769" gradientUnits="userSpaceOnUse">
<stop stop-color="#30B8C6"/>
<stop offset="1" stop-color="#B3529F"/>
</linearGradient>
<linearGradient id="paint3_linear" x1="1.26573" y1="32.4276" x2="143.105" y2="5.18941" gradientUnits="userSpaceOnUse">
<stop stop-color="#30B8C6"/>
<stop offset="1" stop-color="#B3529F"/>
</linearGradient>
<linearGradient id="paint4_linear" x1="0.703862" y1="29.4759" x2="142.543" y2="2.23775" gradientUnits="userSpaceOnUse">
<stop stop-color="#30B8C6"/>
<stop offset="1" stop-color="#B3529F"/>
</linearGradient>
</defs>
</svg>
