<svg width="158" height="37" viewBox="0 0 158 37" xmlns="http://www.w3.org/2000/svg">
<path d="M25.26 19.6969C25.2184 15.1847 29.0494 12.9895 29.2246 12.8873C27.0549 9.80312 23.692 9.38172 22.5103 9.34812C19.6859 9.05832 16.9462 10.9959 15.5074 10.9959C14.0399 10.9959 11.8244 9.37612 9.43645 9.42372C6.36363 9.46992 3.48897 11.2045 1.91235 13.8981C-1.34139 19.3903 1.08527 27.4613 4.20261 31.9007C5.76199 34.0749 7.58415 36.5025 9.96917 36.4171C12.3025 36.3233 13.1741 34.9667 15.9899 34.9667C18.7798 34.9667 19.5983 36.4171 22.0307 36.3625C24.5349 36.3233 26.1115 34.1785 27.6164 31.9847C29.4184 29.4927 30.1421 27.0385 30.1708 26.9125C30.1119 26.8929 25.3074 25.1051 25.26 19.6969Z"/>
<path d="M20.6652 6.42772C21.9201 4.89752 22.7788 2.81572 22.5405 0.703125C20.724 0.781525 18.4525 1.92813 17.1444 3.42473C15.987 4.74353 14.9532 6.90512 15.2202 8.93792C17.2607 9.08632 19.3556 7.93412 20.6652 6.42772Z"/>
<path d="M59.0288 27.0599H55.7679L53.9816 21.5873H47.7728L46.0713 27.0599H42.8965L49.0479 8.42871H52.8473L59.0288 27.0599ZM53.4431 19.2913L51.8278 14.4263C51.6569 13.9293 51.3367 12.7589 50.8643 10.9165H50.8068C50.6187 11.7089 50.3158 12.8793 49.8994 14.4263L48.3127 19.2913H53.4431Z"/>
<path d="M74.8473 20.1745C74.8473 22.4593 74.214 24.2653 72.9476 25.5911C71.8132 26.7713 70.4046 27.3607 68.7231 27.3607C66.9082 27.3607 65.6044 26.7251 64.8103 25.4539H64.7529V32.5309H61.6916V18.0451C61.6916 16.6087 61.6528 15.1345 61.5781 13.6225H64.2704L64.4413 15.7519H64.4987C65.5197 14.1475 67.069 13.3467 69.1482 13.3467C70.7736 13.3467 72.1305 13.9725 73.2161 15.2255C74.3045 16.4799 74.8473 18.1291 74.8473 20.1745ZM71.7285 20.2837C71.7285 18.9761 71.4269 17.8981 70.821 17.0497C70.159 16.1649 69.2702 15.7225 68.156 15.7225C67.4007 15.7225 66.7143 15.9689 66.1012 16.4547C65.4866 16.9447 65.0846 17.5845 64.8965 18.3769C64.8017 18.7465 64.7543 19.0489 64.7543 19.2869V21.5269C64.7543 22.5041 65.0616 23.3287 65.6762 24.0021C66.2907 24.6755 67.0891 25.0115 68.0713 25.0115C69.2243 25.0115 70.1217 24.5775 70.7636 23.7123C71.4068 22.8457 71.7285 21.7033 71.7285 20.2837Z"/>
<path d="M90.6954 20.1745C90.6954 22.4593 90.0622 24.2653 88.7943 25.5911C87.6614 26.7713 86.2528 27.3607 84.5713 27.3607C82.7563 27.3607 81.4526 26.7251 80.6599 25.4539H80.6025V32.5309H77.5412V18.0451C77.5412 16.6087 77.5024 15.1345 77.4277 13.6225H80.12L80.2909 15.7519H80.3483C81.3678 14.1475 82.9172 13.3467 84.9978 13.3467C86.6218 13.3467 87.9787 13.9725 89.0671 15.2255C90.1512 16.4799 90.6954 18.1291 90.6954 20.1745ZM87.5767 20.2837C87.5767 18.9761 87.2737 17.8981 86.6677 17.0497C86.0058 16.1649 85.1198 15.7225 84.0041 15.7225C83.2474 15.7225 82.5625 15.9689 81.9479 16.4547C81.3334 16.9447 80.9328 17.5845 80.7447 18.3769C80.6513 18.7465 80.6025 19.0489 80.6025 19.2869V21.5269C80.6025 22.5041 80.9098 23.3287 81.5215 24.0021C82.136 24.6741 82.9344 25.0115 83.9194 25.0115C85.0725 25.0115 85.9699 24.5775 86.6117 23.7123C87.255 22.8457 87.5767 21.7033 87.5767 20.2837Z"/>
<path d="M108.415 21.8337C108.415 23.4185 107.851 24.7079 106.718 25.7033C105.473 26.7911 103.74 27.3343 101.513 27.3343C99.4568 27.3343 97.8083 26.9479 96.5605 26.1737L97.2699 23.6859C98.6139 24.4783 100.089 24.8759 101.695 24.8759C102.848 24.8759 103.746 24.6211 104.39 24.1143C105.032 23.6075 105.353 22.9271 105.353 22.0787C105.353 21.3227 105.088 20.6857 104.558 20.1691C104.032 19.6525 103.151 19.1723 101.922 18.7285C98.5765 17.5119 96.9052 15.7297 96.9052 13.3861C96.9052 11.8545 97.491 10.5987 98.6641 9.6215C99.833 8.6429 101.392 8.1543 103.342 8.1543C105.081 8.1543 106.526 8.4497 107.679 9.0391L106.913 11.4723C105.836 10.9011 104.619 10.6155 103.256 10.6155C102.179 10.6155 101.338 10.8745 100.735 11.3897C100.225 11.8503 99.9694 12.4117 99.9694 13.0767C99.9694 13.8131 100.261 14.4221 100.847 14.9009C101.356 15.3433 102.283 15.8221 103.627 16.3387C105.271 16.9841 106.478 17.7387 107.255 18.6039C108.029 19.4663 108.415 20.5457 108.415 21.8337Z"/>
<path d="M118.536 15.8647H115.162V22.3873C115.162 24.0463 115.756 24.8751 116.948 24.8751C117.495 24.8751 117.949 24.8289 118.308 24.7365L118.392 27.0031C117.789 27.2229 116.995 27.3335 116.012 27.3335C114.803 27.3335 113.858 26.9737 113.176 26.2555C112.497 25.5359 112.155 24.3291 112.155 22.6337V15.8619H110.145V13.6219H112.155V11.1621L115.162 10.2773V13.6219H118.536V15.8647Z"/>
<path d="M133.762 20.2296C133.762 22.2946 133.156 23.99 131.947 25.3158C130.679 26.6808 128.996 27.3612 126.898 27.3612C124.876 27.3612 123.267 26.7074 122.066 25.3998C120.866 24.0922 120.266 22.4416 120.266 20.4522C120.266 18.3704 120.883 16.6652 122.122 15.3394C123.359 14.0122 125.027 13.3486 127.125 13.3486C129.147 13.3486 130.774 14.0024 132.001 15.3114C133.176 16.5812 133.762 18.2206 133.762 20.2296ZM130.585 20.3262C130.585 19.0872 130.314 18.0246 129.764 17.1384C129.122 16.066 128.205 15.5312 127.016 15.5312C125.785 15.5312 124.85 16.0674 124.209 17.1384C123.659 18.026 123.387 19.1054 123.387 20.3822C123.387 21.6212 123.659 22.6838 124.209 23.5686C124.871 24.641 125.795 25.1758 126.988 25.1758C128.157 25.1758 129.075 24.6298 129.737 23.5406C130.301 22.6376 130.585 21.5638 130.585 20.3262Z"/>
<path d="M143.712 16.2475C143.409 16.1929 143.086 16.1649 142.747 16.1649C141.67 16.1649 140.837 16.5611 140.251 17.3549C139.741 18.0549 139.486 18.9397 139.486 20.0079V27.0569H136.426L136.455 17.8533C136.455 16.3049 136.416 14.8951 136.34 13.6239H139.006L139.118 16.1943H139.203C139.526 15.3109 140.036 14.5997 140.734 14.0663C141.416 13.5861 142.152 13.3467 142.946 13.3467C143.229 13.3467 143.485 13.3663 143.712 13.4013V16.2475Z"/>
<path d="M157.404 19.7049C157.404 20.2397 157.368 20.6905 157.292 21.0587H148.108C148.143 22.3859 148.587 23.4009 149.44 24.1009C150.214 24.7267 151.215 25.0403 152.444 25.0403C153.804 25.0403 155.044 24.8289 156.16 24.4047L156.64 26.4767C155.336 27.0311 153.797 27.3069 152.02 27.3069C149.884 27.3069 148.207 26.6937 146.986 25.4687C145.768 24.2437 145.158 22.5987 145.158 20.5351C145.158 18.5093 145.725 16.8223 146.861 15.4769C148.05 14.0405 149.657 13.3223 151.679 13.3223C153.664 13.3223 155.168 14.0405 156.189 15.4769C156.997 16.6179 157.404 18.0291 157.404 19.7049ZM154.484 18.9307C154.504 18.0459 154.305 17.2815 153.89 16.6361C153.36 15.8059 152.546 15.3915 151.45 15.3915C150.449 15.3915 149.635 15.7961 149.014 16.6081C148.504 17.2535 148.201 18.0277 148.108 18.9293H154.484V18.9307Z"/>
</svg>
