<svg width="272" height="37" viewBox="0 0 272 37" fill="none" xmlns="http://www.w3.org/2000/svg">
<path d="M57.3297 25.0404C57.6996 25.1456 58.1751 25.2247 58.7564 25.2772C59.3377 25.3036 59.8925 25.3167 60.4209 25.3167C61.4778 25.3167 62.3497 25.1062 63.0366 24.6852C63.75 24.2378 64.1067 23.5538 64.1067 22.6328C64.1067 21.7644 63.816 21.146 63.2348 20.7777C62.6535 20.4093 61.7684 20.2252 60.5795 20.2252H57.3297V25.0404ZM57.3297 15.4099H60.2228C61.3589 15.4099 62.1779 15.1994 62.6799 14.7784C63.2083 14.3573 63.4726 13.739 63.4726 12.9233C63.4726 12.2128 63.1687 11.6471 62.561 11.2261C61.9798 10.8051 61.0947 10.5946 59.9057 10.5946C59.5094 10.5946 59.047 10.6077 58.5186 10.6341C58.0166 10.6604 57.6203 10.6998 57.3297 10.7525V15.4099ZM59.9057 30.6056C59.4566 30.6056 58.9281 30.5925 58.3205 30.5662C57.7128 30.5398 57.0786 30.4873 56.4181 30.4082C55.784 30.3293 55.1499 30.2241 54.5158 30.0925C53.8817 29.9872 53.3005 29.8294 52.772 29.6189C51.3189 29.0663 50.5923 28.1058 50.5923 26.7376V8.30536C50.5923 7.75278 50.7376 7.33177 51.0282 7.04233C51.3453 6.72657 51.768 6.47659 52.2964 6.29241C53.1948 5.97665 54.3177 5.753 55.6651 5.62143C57.0126 5.46354 58.3997 5.38461 59.8265 5.38461C63.2083 5.38461 65.8109 5.95033 67.6339 7.08179C69.4569 8.21325 70.3684 9.96307 70.3684 12.3312C70.3684 13.5153 70.0249 14.5415 69.3381 15.4099C68.6511 16.2519 67.7264 16.8702 66.5638 17.2649C67.8849 17.6333 68.9813 18.3043 69.8532 19.2779C70.7515 20.2515 71.2007 21.475 71.2007 22.9485C71.2007 25.5535 70.2231 27.4876 68.268 28.7506C66.3393 29.9872 63.5518 30.6056 59.9057 30.6056ZM82.858 25.7115C83.3072 25.7115 83.796 25.6719 84.3244 25.593C84.8793 25.4877 85.2887 25.3561 85.553 25.1983V22.0407L82.6994 22.2776C81.9597 22.3301 81.352 22.4881 80.8764 22.7513C80.4008 23.0143 80.1631 23.409 80.1631 23.9354C80.1631 24.4616 80.3611 24.8957 80.7576 25.2378C81.1803 25.5535 81.8804 25.7115 82.858 25.7115ZM82.541 10.1999C83.9676 10.1999 85.2624 10.3446 86.4249 10.6341C87.6138 10.9235 88.6179 11.3708 89.4368 11.976C90.2823 12.5549 90.9297 13.3048 91.3787 14.2258C91.8279 15.1204 92.0526 16.1861 92.0526 17.4228V26.2639C92.0526 26.9481 91.8543 27.5138 91.4581 27.9611C91.0881 28.3821 90.6389 28.7506 90.1105 29.0663C88.3932 30.0925 85.9757 30.6056 82.858 30.6056C81.4577 30.6056 80.1894 30.474 79.0534 30.211C77.9436 29.9478 76.9794 29.5531 76.1602 29.0269C75.3675 28.5006 74.7468 27.8295 74.2976 27.0139C73.8749 26.1983 73.6635 25.2509 73.6635 24.172C73.6635 22.3565 74.205 20.9619 75.2883 19.9883C76.3716 19.0147 78.0493 18.4095 80.3215 18.1727L85.5134 17.6202V17.3439C85.5134 16.5808 85.1698 16.0414 84.4828 15.7256C83.8223 15.3836 82.858 15.2125 81.5897 15.2125C80.5858 15.2125 79.6082 15.3178 78.6571 15.5283C77.7058 15.7388 76.8472 16.0019 76.081 16.3177C75.7375 16.0808 75.4469 15.7256 75.2091 15.252C74.9713 14.752 74.8524 14.2389 74.8524 13.7127C74.8524 13.0285 75.0109 12.4891 75.3279 12.0944C75.6714 11.6734 76.1867 11.3182 76.8737 11.0287C77.6397 10.7393 78.5381 10.5288 79.5686 10.3972C80.6254 10.2657 81.6162 10.1999 82.541 10.1999ZM114.997 26.5008C114.865 27.7376 114.495 28.6848 113.887 29.3426C113.306 30.0005 112.447 30.3293 111.311 30.3293C110.466 30.3293 109.713 30.1321 109.052 29.7373C108.392 29.3163 107.678 28.619 106.912 27.6454L102.989 22.7513V29.9347C102.698 29.9872 102.262 30.053 101.681 30.1321C101.126 30.2373 100.558 30.2899 99.9766 30.2899C99.3954 30.2899 98.867 30.2504 98.3914 30.1715C97.9422 30.0925 97.5591 29.9347 97.242 29.6978C96.925 29.461 96.674 29.1452 96.4891 28.7506C96.3305 28.3296 96.2513 27.7901 96.2513 27.1323V4.27946C96.5419 4.20052 96.9646 4.12158 97.5195 4.04264C98.1008 3.93739 98.682 3.88477 99.2633 3.88477C99.8446 3.88477 100.36 3.92423 100.809 4.00317C101.285 4.08211 101.681 4.23999 101.998 4.47681C102.315 4.71362 102.553 5.04254 102.711 5.46354C102.896 5.85824 102.989 6.3845 102.989 7.04233V17.4623L109.805 10.5157C111.179 10.5157 112.276 10.8183 113.095 11.4234C113.94 12.0286 114.363 12.7917 114.363 13.7127C114.363 14.1074 114.297 14.4758 114.165 14.8178C114.033 15.1336 113.821 15.4625 113.531 15.8046C113.267 16.1466 112.91 16.515 112.461 16.9097C112.038 17.2781 111.536 17.7123 110.955 18.2122L108.656 20.1857L114.997 26.5008ZM127.45 30.6056C125.892 30.6056 124.438 30.3951 123.091 29.9741C121.77 29.5268 120.607 28.8689 119.603 28.0006C118.626 27.1323 117.846 26.0403 117.265 24.7246C116.71 23.409 116.433 21.8697 116.433 20.1068C116.433 18.3701 116.71 16.8834 117.265 15.6467C117.846 14.3837 118.599 13.3575 119.524 12.5681C120.449 11.7524 121.506 11.1603 122.695 10.7919C123.883 10.3972 125.099 10.1999 126.341 10.1999C127.741 10.1999 129.009 10.4104 130.145 10.8314C131.308 11.2524 132.299 11.8313 133.118 12.5681C133.963 13.3048 134.61 14.1863 135.06 15.2125C135.535 16.2387 135.773 17.357 135.773 18.5674C135.773 19.4621 135.522 20.1463 135.02 20.6198C134.518 21.0935 133.818 21.3961 132.92 21.5276L123.131 22.988C123.421 23.8563 124.016 24.5141 124.914 24.9615C125.812 25.3825 126.843 25.593 128.005 25.593C129.088 25.593 130.106 25.4614 131.057 25.1983C132.034 24.9089 132.827 24.5799 133.435 24.2115C133.857 24.4747 134.214 24.8431 134.505 25.3167C134.795 25.7904 134.941 26.2903 134.941 26.8165C134.941 28.0006 134.386 28.8822 133.276 29.461C132.431 29.9083 131.479 30.211 130.423 30.3688C129.366 30.5267 128.375 30.6056 127.45 30.6056ZM126.341 15.0941C125.707 15.0941 125.152 15.1994 124.676 15.4099C124.227 15.6204 123.857 15.8967 123.566 16.2387C123.276 16.5545 123.051 16.9229 122.893 17.3439C122.761 17.7386 122.681 18.1464 122.655 18.5674L129.432 17.4623C129.353 16.936 129.062 16.4098 128.56 15.8835C128.058 15.3572 127.318 15.0941 126.341 15.0941ZM145.753 29.9347C145.489 30.0136 145.066 30.0925 144.485 30.1715C143.93 30.2504 143.349 30.2899 142.741 30.2899C142.16 30.2899 141.632 30.2504 141.156 30.1715C140.707 30.0925 140.324 29.9347 140.007 29.6978C139.69 29.461 139.439 29.1452 139.254 28.7506C139.095 28.3296 139.016 27.7901 139.016 27.1323V15.2914C139.016 14.6863 139.122 14.1732 139.333 13.7521C139.571 13.3048 139.901 12.9101 140.324 12.5681C140.747 12.226 141.262 11.9234 141.869 11.6603C142.504 11.3708 143.177 11.1208 143.891 10.9103C144.604 10.6998 145.344 10.542 146.11 10.4367C146.876 10.3051 147.642 10.2394 148.409 10.2394C149.677 10.2394 150.681 10.4893 151.421 10.9893C152.16 11.4629 152.53 12.2523 152.53 13.3575C152.53 13.7258 152.477 14.0942 152.372 14.4626C152.266 14.8047 152.134 15.1204 151.976 15.4099C151.421 15.4099 150.853 15.4362 150.271 15.4888C149.69 15.5414 149.122 15.6204 148.567 15.7256C148.012 15.8309 147.484 15.9493 146.982 16.0808C146.506 16.1861 146.097 16.3177 145.753 16.4756V29.9347ZM158.941 25.0798C158.651 24.4222 158.333 23.6853 157.99 22.8696C157.673 22.0538 157.329 21.1198 156.959 20.0672C156.616 19.0147 156.246 17.8175 155.85 16.4756C155.48 15.1073 155.084 13.5416 154.661 11.7787C155.031 11.4103 155.52 11.0945 156.127 10.8314C156.761 10.542 157.448 10.3972 158.188 10.3972C159.113 10.3972 159.879 10.5946 160.487 10.9893C161.094 11.3577 161.544 12.0681 161.834 13.1206L164.965 23.9748H165.124C165.441 23.0801 165.744 22.1065 166.035 21.054C166.352 20.0015 166.656 18.9227 166.947 17.8175C167.237 16.686 167.502 15.5677 167.739 14.4626C168.003 13.3311 168.228 12.226 168.413 11.1472C169.364 10.6472 170.408 10.3972 171.544 10.3972C172.469 10.3972 173.235 10.5946 173.843 10.9893C174.45 11.384 174.754 12.0681 174.754 13.0417C174.754 13.7521 174.662 14.581 174.477 15.5283C174.292 16.4492 174.041 17.436 173.724 18.4885C173.433 19.541 173.076 20.6331 172.654 21.7644C172.257 22.8696 171.835 23.9615 171.385 25.0404C170.936 26.1192 170.474 27.1455 169.998 28.1191C169.523 29.0663 169.06 29.9214 168.611 30.6845C167.871 31.9738 167.184 33.0265 166.55 33.8421C165.916 34.6579 165.309 35.2894 164.727 35.7368C164.146 36.2103 163.565 36.526 162.983 36.684C162.402 36.8681 161.794 36.9603 161.16 36.9603C160.051 36.9603 159.152 36.6313 158.465 35.9734C157.779 35.3156 157.369 34.4605 157.237 33.408C158.082 32.7502 158.928 32.0134 159.773 31.1977C160.619 30.4082 161.385 29.5926 162.072 28.7506C161.623 28.619 161.134 28.3163 160.606 27.8428C160.104 27.3427 159.549 26.4219 158.941 25.0798ZM185.089 20.462C183.927 20.0672 182.87 19.6726 181.919 19.2779C180.968 18.8569 180.149 18.3569 179.462 17.778C178.775 17.1991 178.233 16.515 177.837 15.7256C177.467 14.9099 177.282 13.9232 177.282 12.7654C177.282 10.5288 178.14 8.73951 179.858 7.39755C181.602 6.05558 184.032 5.38461 187.15 5.38461C188.286 5.38461 189.343 5.46354 190.321 5.62143C191.298 5.7793 192.13 6.02928 192.817 6.37134C193.531 6.6871 194.086 7.10811 194.482 7.63437C194.878 8.13432 195.076 8.72637 195.076 9.41049C195.076 10.0946 194.918 10.6867 194.601 11.1866C194.284 11.6603 193.901 12.0681 193.451 12.4102C192.87 12.0418 192.091 11.726 191.113 11.4629C190.136 11.1735 189.066 11.0287 187.903 11.0287C186.714 11.0287 185.842 11.1998 185.287 11.5418C184.733 11.8576 184.455 12.2655 184.455 12.7654C184.455 13.1601 184.627 13.489 184.97 13.7521C185.314 13.989 185.829 14.2126 186.516 14.4231L188.616 15.0941C191.1 15.8835 193.002 16.8966 194.323 18.1333C195.671 19.3437 196.345 21.0013 196.345 23.1065C196.345 25.343 195.46 27.1586 193.689 28.5532C191.919 29.9214 189.317 30.6056 185.882 30.6056C184.667 30.6056 183.53 30.5004 182.474 30.2899C181.443 30.1057 180.532 29.8294 179.739 29.461C178.973 29.0663 178.365 28.5926 177.916 28.04C177.493 27.4613 177.282 26.8034 177.282 26.0667C177.282 25.3036 177.506 24.6588 177.956 24.1326C178.405 23.58 178.894 23.159 179.422 22.8696C180.162 23.4486 181.06 23.9485 182.117 24.3694C183.2 24.7904 184.376 25.0009 185.644 25.0009C186.939 25.0009 187.85 24.8035 188.379 24.4089C188.907 24.0143 189.171 23.5538 189.171 23.0274C189.171 22.5012 188.96 22.1065 188.537 21.8433C188.115 21.5539 187.52 21.2776 186.754 21.0146L185.089 20.462ZM210.177 29.3821C209.807 29.6978 209.305 29.9478 208.671 30.1321C208.037 30.3426 207.284 30.4478 206.412 30.4478C205.328 30.4478 204.39 30.2899 203.598 29.9741C202.805 29.6847 202.277 29.2637 202.013 28.7111C201.722 28.0797 201.379 27.0797 200.982 25.7115C200.612 24.3431 200.242 22.8433 199.873 21.2118C199.503 19.5805 199.146 17.9228 198.802 16.2387C198.485 14.5547 198.234 13.068 198.049 11.7787C198.419 11.4103 198.908 11.0945 199.516 10.8314C200.15 10.542 200.837 10.3972 201.577 10.3972C202.501 10.3972 203.254 10.6077 203.836 11.0287C204.443 11.4234 204.813 12.1207 204.945 13.1206C205.209 15.1204 205.434 16.7781 205.619 18.0938C205.804 19.3831 205.949 20.4487 206.055 21.2909C206.187 22.1065 206.28 22.738 206.332 23.1854C206.412 23.6064 206.478 23.9485 206.531 24.2115H206.689C206.768 23.7905 206.901 23.1854 207.085 22.3959C207.297 21.5803 207.535 20.6592 207.799 19.6331C208.063 18.6069 208.34 17.5017 208.631 16.3177C208.922 15.1073 209.212 13.91 209.503 12.7259C210.031 12.4365 210.547 12.2128 211.049 12.055C211.577 11.8971 212.224 11.8181 212.991 11.8181C213.915 11.8181 214.708 11.9629 215.368 12.2523C216.029 12.5418 216.452 12.9891 216.637 13.5943C216.953 14.752 217.258 15.8835 217.549 16.9886C217.838 18.0675 218.103 19.0805 218.341 20.0278C218.579 20.9488 218.79 21.7777 218.975 22.5144C219.16 23.2248 219.291 23.7905 219.371 24.2115H219.569C219.86 22.1854 220.137 20.0805 220.401 17.8965C220.693 15.7125 220.957 13.489 221.194 11.2261C221.669 10.9367 222.172 10.7261 222.7 10.5946C223.229 10.463 223.756 10.3972 224.286 10.3972C225.211 10.3972 225.977 10.5946 226.584 10.9893C227.191 11.384 227.496 12.0681 227.496 13.0417C227.496 13.4627 227.429 14.0942 227.298 14.9362C227.165 15.7782 226.993 16.7255 226.782 17.778C226.571 18.8306 226.319 19.9357 226.03 21.0935C225.765 22.2512 225.487 23.3695 225.198 24.4483C224.933 25.5272 224.668 26.5008 224.404 27.3691C224.166 28.2374 223.955 28.9084 223.77 29.3821C223.4 29.6978 222.833 29.9478 222.066 30.1321C221.3 30.3426 220.481 30.4478 219.609 30.4478C217.389 30.4478 216.083 29.8952 215.685 28.79C215.527 28.3163 215.329 27.7243 215.091 27.0139C214.853 26.2772 214.602 25.4746 214.338 24.6063C214.074 23.738 213.823 22.8433 213.585 21.9224C213.347 20.9752 213.149 20.0672 212.991 19.1989C212.806 20.1199 212.581 21.0804 212.317 22.0802C212.053 23.0538 211.775 24.0143 211.485 24.9615C211.22 25.8824 210.969 26.7376 210.731 27.5271C210.494 28.2901 210.309 28.9084 210.177 29.3821ZM238.791 25.7115C239.241 25.7115 239.73 25.6719 240.258 25.593C240.812 25.4877 241.223 25.3561 241.486 25.1983V22.0407L238.633 22.2776C237.893 22.3301 237.285 22.4881 236.809 22.7513C236.335 23.0143 236.097 23.409 236.097 23.9354C236.097 24.4616 236.295 24.8957 236.691 25.2378C237.114 25.5535 237.814 25.7115 238.791 25.7115ZM238.473 10.1999C239.901 10.1999 241.196 10.3446 242.358 10.6341C243.548 10.9235 244.551 11.3708 245.37 11.976C246.216 12.5549 246.863 13.3048 247.312 14.2258C247.762 15.1204 247.986 16.1861 247.986 17.4228V26.2639C247.986 26.9481 247.788 27.5138 247.391 27.9611C247.021 28.3821 246.572 28.7506 246.044 29.0663C244.327 30.0925 241.909 30.6056 238.791 30.6056C237.392 30.6056 236.124 30.474 234.987 30.211C233.877 29.9478 232.913 29.5531 232.094 29.0269C231.301 28.5006 230.68 27.8295 230.23 27.0139C229.808 26.1983 229.596 25.2509 229.596 24.172C229.596 22.3565 230.139 20.9619 231.222 19.9883C232.306 19.0147 233.983 18.4095 236.255 18.1727L241.446 17.6202V17.3439C241.446 16.5808 241.103 16.0414 240.416 15.7256C239.755 15.3836 238.791 15.2125 237.523 15.2125C236.52 15.2125 235.541 15.3178 234.591 15.5283C233.639 15.7388 232.78 16.0019 232.015 16.3177C231.672 16.0808 231.38 15.7256 231.142 15.252C230.904 14.752 230.786 14.2389 230.786 13.7127C230.786 13.0285 230.944 12.4891 231.261 12.0944C231.605 11.6734 232.119 11.3182 232.807 11.0287C233.574 10.7393 234.471 10.5288 235.501 10.3972C236.558 10.2657 237.55 10.1999 238.473 10.1999ZM260.943 10.1999C262.529 10.1999 263.995 10.4104 265.343 10.8314C266.716 11.2261 267.893 11.8444 268.87 12.6865C269.846 13.5285 270.614 14.5942 271.168 15.8835C271.724 17.1465 272 18.6595 272 20.4226C272 22.1065 271.762 23.58 271.288 24.8431C270.812 26.1061 270.138 27.1719 269.266 28.04C268.394 28.8822 267.337 29.5137 266.095 29.9347C264.88 30.3557 263.519 30.5662 262.013 30.5662C260.878 30.5662 259.821 30.3951 258.842 30.053V36.6049C258.578 36.684 258.155 36.7629 257.574 36.8418C256.993 36.947 256.399 36.9997 255.792 36.9997C255.209 36.9997 254.682 36.9603 254.206 36.8812C253.756 36.8023 253.374 36.6445 253.056 36.4077C252.74 36.1708 252.502 35.842 252.343 35.4208C252.185 35.0262 252.105 34.5 252.105 33.8421V14.8968C252.105 14.1863 252.25 13.6074 252.541 13.1601C252.858 12.7128 253.28 12.3049 253.81 11.9366C254.628 11.4103 255.645 10.9893 256.862 10.6735C258.077 10.3578 259.436 10.1999 260.943 10.1999ZM261.023 25.2772C263.744 25.2772 265.105 23.6591 265.105 20.4226C265.105 18.7385 264.76 17.4886 264.075 16.6729C263.414 15.8572 262.449 15.4493 261.181 15.4493C260.68 15.4493 260.23 15.5151 259.834 15.6467C259.436 15.7519 259.094 15.8835 258.802 16.0414V24.7246C259.12 24.8826 259.463 25.0142 259.834 25.1194C260.204 25.2247 260.6 25.2772 261.023 25.2772Z" fill="#722F0D"/>
<path fill-rule="evenodd" clip-rule="evenodd" d="M20.3691 9.9839C18.5833 9.62451 16.6784 9.86411 15.0117 10.9423C17.3927 10.1037 20.131 10.7027 22.0359 12.6194C24.6551 15.3747 24.6551 19.8071 22.0359 22.4427C21.6787 22.802 21.3215 23.0416 20.9644 23.2812C21.9168 22.9218 22.8692 22.4427 23.5836 21.6041C25.4884 19.6874 25.9647 16.9321 25.2503 14.5361C23.2264 13.8174 21.4406 12.1402 20.3691 9.9839Z" fill="#FFAE54"/>
<path d="M31.6792 25.5581C27.3933 33.5844 17.3927 36.5793 9.53513 32.1469C1.55849 27.8342 -1.29882 17.6516 2.98714 9.62529C5.84444 4.35428 11.0828 1.23959 16.6784 1C17.3927 1 17.988 1.35939 18.3452 2.07816C18.7023 2.79694 18.9404 3.7553 18.8214 4.71367C18.8214 5.07306 18.8214 5.43244 18.8214 5.79183C18.8214 7.46897 19.2976 9.14611 20.0119 10.5837C16.5593 9.26591 12.6305 10.7035 10.8447 14.0577C8.8208 17.7714 10.2495 22.3236 13.8211 24.3602C17.3927 26.3967 22.0358 24.9591 23.9407 21.3653C25.0122 19.3287 25.1313 16.9328 24.2979 14.8963C25.7265 15.6151 27.2742 15.9745 28.941 15.9745C29.8934 15.9745 30.7268 15.8547 31.6792 15.6151C32.1555 15.4953 32.7507 15.4953 33.1079 15.7349C33.4651 15.9745 33.7032 16.2141 33.7032 16.5734C33.8222 19.5683 33.1079 22.683 31.6792 25.5581Z" fill="url(#paint0_radial)" stroke="#AC562A" stroke-width="1.0716"/>
<path d="M27.3932 22.3236L27.9885 22.0841C28.4647 23.282 27.8694 24.3602 27.5123 25.1987C27.5123 25.1987 27.5123 25.1987 27.5123 25.3185C27.2742 25.7977 27.0361 26.1571 27.0361 26.5165C26.917 27.1155 26.917 27.7145 27.0361 28.0738C27.1551 28.4332 27.5123 28.7926 27.9885 28.9124C28.3457 29.0322 28.9409 28.9124 29.6553 28.4332C32.5126 25.0789 33.8222 20.7663 33.584 16.6932C33.584 16.3339 33.3459 15.9745 32.9888 15.7349C32.6316 15.4953 32.0363 15.4953 31.5601 15.6151C30.7267 15.8547 29.7743 15.9745 28.9409 15.9745C27.2742 15.9745 25.7265 15.6151 24.2978 14.7765C25.1312 16.813 25.0121 19.0892 24.0597 21.1257C23.9406 21.4851 23.7025 21.7247 23.4644 22.0841C23.9406 21.9643 24.4169 21.7247 25.1312 21.2455C25.9646 20.6465 27.0361 21.2455 27.3932 22.3236ZM27.3932 22.3236C27.7504 23.282 27.2742 24.1206 26.917 24.9591C26.6789 25.4383 26.4408 25.9175 26.3217 26.3967L27.3932 22.3236ZM15.964 10.1045C14.2972 10.5837 12.9876 10.3441 12.0352 9.86489C11.0828 9.26591 10.2494 8.42734 9.89223 7.46897C9.41602 6.39081 9.29696 5.31265 9.53507 4.35428C9.77318 3.39591 10.2494 2.67714 10.9637 2.31775C12.9876 1.47918 15.1306 1 17.1545 1C17.7498 1 18.226 1.35939 18.5832 1.95837C18.9404 2.55734 19.0594 3.39591 18.9404 4.11469C18.8213 4.59387 18.8213 5.19285 18.8213 5.79183C18.8213 7.46897 19.2975 9.14611 20.0119 10.5837C18.7023 9.98468 17.2736 9.86489 15.964 10.1045Z" fill="#AC562A"/>
<path d="M27.3932 22.3236L27.9885 22.0841C28.4647 23.282 27.8694 24.3602 27.5123 25.1987C27.5123 25.1987 27.5123 25.1987 27.5123 25.3185C27.2742 25.7977 27.0361 26.1571 27.0361 26.5165C26.917 27.1155 26.917 27.7145 27.0361 28.0738C27.1551 28.4332 27.5123 28.7926 27.9885 28.9124C28.3457 29.0322 28.9409 28.9124 29.6553 28.4332C32.5126 25.0789 33.8222 20.7663 33.584 16.6932C33.584 16.3339 33.3459 15.9745 32.9888 15.7349C32.6316 15.4953 32.0363 15.4953 31.5601 15.6151C30.7267 15.8547 29.7743 15.9745 28.9409 15.9745C27.2742 15.9745 25.7265 15.6151 24.2978 14.7765C25.1312 16.813 25.0121 19.0892 24.0597 21.1257C23.9406 21.4851 23.7025 21.7247 23.4644 22.0841C23.9406 21.9643 24.4169 21.7247 25.1312 21.2455C25.9646 20.6465 27.0361 21.2455 27.3932 22.3236ZM27.3932 22.3236C27.7504 23.282 27.2742 24.1206 26.917 24.9591C26.6789 25.4383 26.4408 25.9175 26.3217 26.3967L27.3932 22.3236ZM15.964 10.1045C14.2972 10.5837 12.9876 10.3441 12.0352 9.86489C11.0828 9.26591 10.2494 8.42734 9.89223 7.46897C9.41602 6.39081 9.29696 5.31265 9.53507 4.35428C9.77318 3.39591 10.2494 2.67714 10.9637 2.31775C12.9876 1.47918 15.1306 1 17.1545 1C17.7498 1 18.226 1.35939 18.5832 1.95837C18.9404 2.55734 19.0594 3.39591 18.9404 4.11469C18.8213 4.59387 18.8213 5.19285 18.8213 5.79183C18.8213 7.46897 19.2975 9.14611 20.0119 10.5837C18.7023 9.98468 17.2736 9.86489 15.964 10.1045Z" stroke="#AC562A" stroke-width="1.0716"/>
<path d="M4.89204 14.6576C5.3523 14.6576 5.72542 14.2822 5.72542 13.819C5.72542 13.3559 5.3523 12.9805 4.89204 12.9805C4.43177 12.9805 4.05865 13.3559 4.05865 13.819C4.05865 14.2822 4.43177 14.6576 4.89204 14.6576Z" fill="#AC562A"/>
<path d="M17.2737 29.6303C17.734 29.6303 18.1071 29.2548 18.1071 28.7917C18.1071 28.3286 17.734 27.9531 17.2737 27.9531C16.8134 27.9531 16.4403 28.3286 16.4403 28.7917C16.4403 29.2548 16.8134 29.6303 17.2737 29.6303Z" fill="#AC562A"/>
<path d="M12.0353 30.9493C12.8243 30.9493 13.4639 30.3057 13.4639 29.5118C13.4639 28.7178 12.8243 28.0742 12.0353 28.0742C11.2463 28.0742 10.6066 28.7178 10.6066 29.5118C10.6066 30.3057 11.2463 30.9493 12.0353 30.9493Z" fill="#AC562A"/>
<defs>
<radialGradient id="paint0_radial" cx="0" cy="0" r="1" gradientUnits="userSpaceOnUse" gradientTransform="translate(17.3168 17.6275) rotate(90) scale(17.2241 16.9451)">
<stop offset="0.3335" stop-color="#F7B450"/>
<stop offset="0.6477" stop-color="#FFC977"/>
<stop offset="1" stop-color="#FF9900"/>
</radialGradient>
</defs>
</svg>
