<svg width="208" height="36" viewBox="0 0 208 36" fill="none" xmlns="http://www.w3.org/2000/svg">
<path d="M27.5973 35.6281C22.7194 36.1944 17.7823 36.1304 12.9398 35.3272C10.949 34.9979 8.9817 34.5501 7.04518 33.9128C5.21507 33.3086 3.39205 32.4651 1.80784 31.3776C-0.570829 29.7476 -0.615754 27.357 1.75346 25.7601C5.70216 23.0947 10.0835 21.5594 14.9355 22.1494C19.9789 22.763 24.9704 22.4906 30.0233 22.0807C34.6979 21.7016 39.1715 23.1516 42.8837 26.1937C44.7635 27.7337 44.5909 30.0509 42.3233 31.3611C39.9187 32.7518 37.2681 33.9601 34.5725 34.5477C32.279 35.0453 29.9429 35.3556 27.5973 35.6281Z" fill="black"/>
<path d="M22.1302 21.0788C17.4958 21.1096 12.8945 20.7826 8.54386 19.0104C7.40891 18.5484 6.2976 17.8803 5.37782 17.0771C4.09863 15.9612 4.127 14.5112 5.40619 13.3976C6.25031 12.6632 7.25522 12.0211 8.29796 11.6231C11.7146 10.3152 15.1904 9.47651 18.9476 9.91719C21.2955 10.192 23.7144 9.97642 26.0931 9.84138C30.2262 9.60445 34.0992 10.519 37.6578 12.5447C40.4526 14.1345 40.3959 16.3805 37.6058 18.039C33.903 20.2424 29.7273 20.7044 25.5493 21.0646C24.4143 21.1617 23.2675 21.0788 22.1302 21.0788Z" fill="black"/>
<path d="M68.767 16.1214C69.4504 16.7753 70.2259 17.3297 70.7579 18.0618C72.5266 20.5021 72.8765 23.177 71.569 25.9277C70.2803 28.6405 68.1121 30.2516 65.069 30.4009C62.7943 30.5122 60.5103 30.453 58.2285 30.4483C56.7034 30.4459 55.9042 29.6498 55.9019 28.124C55.89 21.2082 55.8759 14.2899 55.9019 7.37406C55.909 5.68951 56.6349 4.99532 58.2971 4.95031C59.7631 4.91003 61.2291 4.91714 62.695 4.9432C68.4549 5.04745 71.5855 10.1058 69.117 15.3063C69.0082 15.5433 68.9113 15.7897 68.767 16.1214ZM60.035 26.3566C61.8438 26.3566 63.5202 26.4963 65.1636 26.3187C66.9558 26.1244 68.1404 24.6152 68.2208 22.8358C68.3036 21.0281 67.2561 19.3317 65.5182 19.0971C63.7401 18.8579 61.9077 19.045 60.035 19.045C60.035 21.4925 60.035 23.8143 60.035 26.3566ZM60.0752 14.8159C61.9999 14.6169 64.1256 15.5527 65.3433 13.5365C65.828 12.7333 65.8895 11.198 65.4355 10.3972C64.2343 8.272 62.0472 9.17943 60.0752 9.00884C60.0752 10.9659 60.0752 12.7286 60.0752 14.8159Z" fill="black"/>
<path d="M88.5724 29.1973C83.9262 31.3178 79.9444 30.6449 77.237 27.2806C74.6456 24.0607 74.5935 19.0427 77.1164 15.7304C79.8758 12.1078 83.51 11.4302 88.1208 13.3801C89.4047 12.956 90.3268 12.3566 91.1851 12.4395C92.4147 12.558 92.6086 13.7213 92.6038 14.8349C92.592 19.1351 92.5897 23.4353 92.6038 27.7331C92.6086 28.8135 92.5802 30.0337 91.3578 30.2516C90.5113 30.4033 89.5466 29.8749 88.6339 29.6498C88.6149 29.5006 88.5937 29.3489 88.5724 29.1973ZM79.1665 21.2508C79.1073 24.255 81.0155 26.4821 83.7086 26.5508C86.5626 26.6219 88.6599 24.5109 88.7119 21.5138C88.7639 18.5167 86.721 16.228 83.9735 16.2043C81.2283 16.1759 79.2256 18.2821 79.1665 21.2508Z" fill="black"/>
<path d="M120.192 13.1874C121.136 12.9292 122.14 12.3298 123.006 12.4909C124.294 12.7302 124.276 14.0404 124.271 15.1658C124.257 19.357 124.257 23.5482 124.273 27.7394C124.278 28.8245 124.231 30.0376 123.015 30.2532C122.171 30.4025 121.204 29.8694 120.336 29.4453C114.803 31.2222 110.975 30.4238 108.514 26.7372C106.104 23.1312 106.431 18.2813 109.299 15.0828C112.077 11.9838 115.945 11.4531 120.119 13.5949C120.142 13.4623 120.168 13.3248 120.192 13.1874ZM120.369 21.4846C120.405 18.4756 118.374 16.2201 115.612 16.194C112.9 16.1703 110.881 18.3169 110.838 21.2713C110.796 24.2898 112.701 26.4956 115.397 26.5477C118.256 26.6022 120.334 24.4864 120.369 21.4846Z" fill="black"/>
<path d="M177.72 22.6895C178.342 26.1297 182.411 27.8024 185.518 26.0752C186.722 25.4071 187.875 24.6773 188.949 26.0799C189.696 27.0561 189.032 28.1578 187.216 29.2145C183.442 31.4108 178.604 30.7071 175.739 27.5441C172.854 24.3598 172.544 19.6071 174.989 16.0817C177.427 12.5704 181.839 11.2673 185.816 13.0182C189.043 14.4398 190.663 17.0957 190.987 20.5501C191.12 21.9479 190.346 22.6516 188.746 22.6706C185.707 22.7061 182.669 22.6848 179.63 22.6871C179.044 22.6919 178.455 22.6895 177.72 22.6895ZM187.438 19.5123C186.516 17.0531 183.924 15.4609 181.6 15.7594C179.451 16.0366 177.744 17.6217 177.609 19.5123C180.839 19.5123 184.064 19.5123 187.438 19.5123Z" fill="black"/>
<path d="M32.1373 7.29139C25.5309 8.91907 18.6195 8.90012 12.0155 7.2677C11.9351 7.24875 11.8571 7.22743 11.7767 7.20847C10.4336 6.87204 8.90619 6.12572 8.92747 4.45776C8.95111 2.79928 10.5069 2.16669 11.8287 1.72127C18.6384 -0.574546 25.4907 -0.569806 32.3028 1.71179C33.6056 2.1501 35.178 2.73768 35.1969 4.44117C35.2158 6.22997 33.6127 6.92653 32.2389 7.2677C32.2035 7.27481 32.1704 7.28429 32.1373 7.29139Z" fill="black"/>
<path d="M131.406 21.2547C131.406 19.0774 131.377 16.9 131.413 14.7227C131.453 12.4695 132.761 11.7729 134.752 12.8178C135.135 13.0192 135.764 12.9836 136.191 12.8225C141.095 10.9674 146.252 14.1422 146.572 19.3806C146.754 22.3635 146.638 25.3654 146.617 28.3578C146.609 29.5353 146.07 30.3977 144.791 30.4119C143.453 30.4285 142.829 29.5684 142.81 28.3151C142.769 25.6497 142.81 22.9819 142.788 20.3141C142.769 17.8146 141.348 16.2177 139.154 16.1703C136.887 16.1229 135.371 17.7435 135.345 20.3046C135.319 22.8634 135.359 25.4222 135.333 27.9787C135.317 29.6087 134.607 30.4759 133.354 30.4166C131.794 30.3432 131.403 29.2912 131.406 27.9455C131.408 25.716 131.406 23.4866 131.406 21.2547Z" fill="black"/>
<path d="M161.933 30.7244C157.738 30.4046 154.255 27.9643 152.981 24.2398C151.784 20.7451 152.974 16.6842 155.865 14.3813C159.083 11.8178 163.394 11.5714 166.808 13.7582C168.225 14.6656 168.714 15.8502 167.981 16.8287C167.066 18.0536 165.988 17.7764 164.824 17.1083C161.162 15.0044 156.896 16.869 156.447 20.7475C156.206 22.8301 156.993 24.4791 158.712 25.6519C160.545 26.9028 162.472 26.9099 164.418 25.9362C166.42 24.934 167.461 24.9695 168.078 26.121C168.716 27.3127 168.045 28.5518 166.056 29.4095C164.739 29.9805 163.311 30.2956 161.933 30.7244Z" fill="black"/>
<path d="M200.719 13.7088C202.594 13.2018 204.221 12.6403 205.893 12.356C207.039 12.1617 207.938 12.8156 207.997 14.0832C208.054 15.3128 207.314 15.9099 206.117 16.1113C203.251 16.5899 200.84 19.4496 200.783 22.4135C200.747 24.2615 200.771 26.1119 200.776 27.9623C200.778 29.3175 200.355 30.3505 198.809 30.4216C197.558 30.4785 196.851 29.6137 196.844 27.9884C196.822 23.6905 196.841 19.3927 196.829 15.0949C196.827 13.9671 196.837 12.8251 198.17 12.4413C199.49 12.0598 200.353 12.7161 200.719 13.7088Z" fill="black"/>
<path d="M100.011 17.7606C100.011 14.3868 100.002 11.013 100.016 7.63917C100.023 5.92857 100.737 4.98797 101.971 4.96902C103.279 4.95007 104.05 5.93094 104.052 7.70077C104.062 14.3939 104.062 21.0871 104.05 27.7779C104.047 29.5335 103.381 30.3983 102.092 30.4196C100.747 30.4409 100.023 29.524 100.016 27.7163C100.002 24.3993 100.011 21.08 100.011 17.7606Z" fill="black"/>
</svg>
