<svg width="119" height="36" viewBox="0 0 119 36" fill="none" xmlns="http://www.w3.org/2000/svg">
<path d="M4.06057 28.2897C3.24551 28.625 2.45713 28.9498 1.67171 29.2747C-1.56481 22.21 -0.571921 10.7934 8.84421 4.00489C17.8113 -2.46024 29.6178 -0.63795 36.196 6.1816C35.5899 6.7841 34.9853 7.38661 34.3436 8.02456C30.547 4.39032 25.9545 2.52521 20.6018 2.68617C16.5902 2.80726 12.9891 4.14075 9.81487 6.59508C3.80568 11.2409 0.681785 19.7764 4.06057 28.2897Z" fill="black"/>
<path d="M21.2327 33.3901C21.2327 34.2643 21.2327 35.1001 21.2327 35.9995C18.7964 36.0128 16.5217 35.4575 14.3877 34.3396C11.1956 32.665 8.88385 30.1634 7.49974 26.8437C4.71076 20.1556 7.22113 12.419 13.3993 8.59428C19.5433 4.79022 27.2493 6.08975 31.6832 10.6528C31.0712 11.2642 30.4606 11.8756 29.8486 12.4869C25.0501 7.82195 18.2911 8.41117 14.361 11.1313C10.1568 14.0405 8.1666 19.1987 9.41882 24.1915C10.6296 29.0175 15.0457 33.2498 21.2327 33.3901Z" fill="black"/>
<path d="M94.9341 32.6615C95.592 32.0014 96.1477 31.4417 96.7361 30.8496C97.5541 31.5496 98.4892 32.0856 99.5858 32.1993C100.229 32.2658 100.905 32.2628 101.539 32.1432C102.56 31.9512 103.277 31.2985 103.529 30.2855C103.711 29.5501 103.749 28.7792 103.854 28.0054C103.704 28.0054 103.657 27.9921 103.646 28.0069C102.032 30.1156 97.6786 30.1112 95.8351 27.0529C94.4495 24.7551 94.8036 21.5181 96.6635 19.7401C98.1143 18.352 100.457 17.9326 102.252 18.826C102.849 19.1229 103.342 19.6279 103.879 20.0325C103.879 19.6678 103.879 19.21 103.879 18.7168C104.749 18.7168 105.562 18.7168 106.41 18.7168C106.42 18.8526 106.438 18.9811 106.438 19.1096C106.438 22.2683 106.444 25.427 106.425 28.5843C106.422 29.1513 106.355 29.7258 106.241 30.2825C105.74 32.7354 104.158 34.1796 101.668 34.5089C99.8629 34.7481 98.135 34.4823 96.5049 33.6864C95.9551 33.4206 95.472 33.0189 94.9341 32.6615ZM97.7097 23.8543C97.6934 25.4211 98.6181 26.7782 99.9489 27.1459C101.604 27.6022 103.258 26.6438 103.756 24.9412C104.291 23.1115 103.356 21.1726 101.702 20.6808C99.5725 20.0488 97.7334 21.5107 97.7097 23.8543Z" fill="black"/>
<path d="M25.3595 25.3675C25.976 25.9833 26.5895 26.5991 27.206 27.2149C24.6704 30.0192 19.2644 30.8787 15.5077 27.4763C11.8177 24.1344 11.7777 18.3708 15.4262 14.9772C19.1458 11.5172 24.586 12.2999 27.1971 15.147C26.5821 15.7614 25.9671 16.3757 25.3284 17.0122C23.9888 15.7835 22.369 15.1854 20.4766 15.4306C19.0288 15.6181 17.824 16.2723 16.8637 17.3607C14.8898 19.5964 14.9431 22.925 16.9526 25.1268C18.7694 27.1174 22.4061 28.0064 25.3595 25.3675Z" fill="black"/>
<path d="M118.999 24.8441C116.219 24.8441 113.562 24.8441 110.856 24.8441C110.985 25.9634 111.578 26.6752 112.523 27.1212C113.836 27.74 115.17 27.4741 116.489 26.3695C117.01 26.8908 117.529 27.4092 118.07 27.9497C117.495 28.6186 116.741 29.0779 115.869 29.3304C114.543 29.7143 113.203 29.7173 111.881 29.3068C109.495 28.5669 108.111 26.5571 108.178 23.9152C108.288 19.5426 112.144 17.6568 115.457 18.6064C117.525 19.1985 118.526 20.7402 118.855 22.7648C118.96 23.419 118.95 24.0924 118.999 24.8441ZM110.896 22.8815C112.685 22.8815 114.473 22.8815 116.26 22.8815C116.25 21.3339 115.321 20.3888 113.827 20.3755C112.219 20.3593 110.926 21.4565 110.896 22.8815Z" fill="black"/>
<path d="M39.1686 24.8194C36.4197 24.8194 33.7626 24.8194 31.1129 24.8194C31.0136 25.6863 31.636 26.5974 32.62 27.0862C33.9508 27.7463 35.4505 27.4731 36.6331 26.3774C37.1458 26.8987 37.6571 27.4185 38.2158 27.9855C37.7356 28.5467 37.0584 28.9912 36.27 29.2526C34.7644 29.7502 33.2484 29.7488 31.759 29.2009C29.505 28.3725 28.2498 26.3862 28.358 23.8005C28.5477 19.2817 32.7104 17.5657 35.9336 18.7043C37.8542 19.3821 38.7478 20.909 39.0412 22.8288C39.136 23.4667 39.1257 24.1209 39.1686 24.8194ZM31.0774 22.8864C32.8542 22.8864 34.6325 22.8864 36.4078 22.8864C36.5204 21.4791 35.5468 20.4276 34.1123 20.3774C32.4481 20.3198 31.0759 21.4422 31.0774 22.8864Z" fill="black"/>
<path d="M83.4023 18.707C84.2263 18.707 85.0635 18.707 85.966 18.707C85.9734 18.8754 85.9898 19.0511 85.9898 19.2283C85.9912 20.9413 85.9853 22.6543 85.9942 24.3673C85.9957 24.769 86.0194 25.1736 86.0757 25.5709C86.1928 26.4097 86.5647 27.0875 87.4435 27.3208C88.3756 27.5674 89.3582 27.1849 89.8961 26.4097C90.3021 25.8234 90.4577 25.1618 90.4577 24.4559C90.4563 22.7429 90.4577 21.0299 90.4577 19.3169C90.4577 19.1338 90.4577 18.9492 90.4577 18.7233C91.3321 18.7233 92.1827 18.7233 93.0807 18.7233C93.0807 22.2128 93.0807 25.7245 93.0807 29.2612C92.2612 29.2612 91.458 29.2612 90.5956 29.2612C90.5956 28.7606 90.5956 28.2836 90.5956 27.7313C90.4874 27.8185 90.4459 27.8391 90.4237 27.8731C89.3789 29.3676 87.8644 29.9258 86.0935 29.468C84.5893 29.0781 83.4646 27.8022 83.3934 26.0744C83.2941 23.6615 83.3549 21.2411 83.349 18.8237C83.3475 18.7927 83.3742 18.7631 83.4023 18.707Z" fill="black"/>
<path d="M43.6275 29.2635C42.7205 29.2635 41.8818 29.2635 41.003 29.2635C41.003 25.7578 41.003 22.2564 41.003 18.7182C41.8077 18.7182 42.6227 18.7182 43.4985 18.7182C43.4985 19.2129 43.4985 19.7032 43.4985 20.3204C43.623 20.1639 43.663 20.1196 43.6971 20.0709C44.7019 18.6296 46.2016 18.0729 47.9443 18.4908C49.4025 18.8408 50.4488 20.0576 50.6829 21.7012C50.7422 22.1147 50.7718 22.537 50.7733 22.9549C50.7822 25.0356 50.7777 27.1149 50.7777 29.2414C49.8812 29.2414 49.0172 29.2414 48.0866 29.2414C48.0866 29.0583 48.0866 28.8796 48.0866 28.7009C48.0866 26.9539 48.0925 25.2084 48.0821 23.4614C48.0792 23.0598 48.0673 22.6507 47.9873 22.2609C47.6435 20.5892 45.8533 20.0148 44.567 21.1592C43.8779 21.7721 43.6393 22.5857 43.6319 23.4703C43.6186 25.1996 43.6275 26.9303 43.6275 28.6595C43.6275 28.8397 43.6275 29.0213 43.6275 29.2635Z" fill="black"/>
<path d="M78.9265 29.2603C78.0255 29.2603 77.1882 29.2603 76.2887 29.2603C76.2887 26.4663 76.2887 23.6723 76.2887 20.8326C75.5952 20.8326 74.9609 20.8326 74.2852 20.8326C74.2852 20.109 74.2852 19.4311 74.2852 18.6883C74.9224 18.6883 75.57 18.6883 76.2131 18.6883C76.2695 17.9264 76.2783 17.222 76.3821 16.5308C76.7051 14.3837 78.0863 13.1772 80.2692 13.1166C80.7997 13.1019 81.3332 13.1595 81.92 13.186C81.8563 14.0027 81.7985 14.7307 81.7392 15.4883C81.4814 15.4454 81.2695 15.4026 81.0561 15.376C79.9328 15.2313 79.1948 15.7762 79.0051 16.8897C78.968 17.1038 78.9369 17.3224 78.928 17.5395C78.9147 17.8909 78.9251 18.2424 78.9251 18.681C79.3415 18.681 79.7371 18.681 80.1313 18.681C80.5166 18.681 80.9019 18.681 81.3332 18.681C81.3332 19.3868 81.3332 20.0617 81.3332 20.7971C80.5522 20.7971 79.7697 20.7971 78.9251 20.7971C78.9265 23.6487 78.9265 26.4427 78.9265 29.2603Z" fill="black"/>
<path d="M53.9122 20.8056C53.2602 20.8056 52.6911 20.8056 52.082 20.8056C52.082 20.0938 52.082 19.419 52.082 18.6924C52.6778 18.6924 53.2602 18.6924 53.8929 18.6924C53.8929 17.6617 53.8929 16.6796 53.8929 15.6562C54.7895 15.6562 55.6342 15.6562 56.5337 15.6562C56.5337 16.659 56.5337 17.641 56.5337 18.6776C57.4362 18.6776 58.2868 18.6776 59.1641 18.6776C59.1641 19.3968 59.1641 20.0613 59.1641 20.7849C58.315 20.7849 57.4659 20.7849 56.59 20.7849C56.5678 20.9503 56.5396 21.0596 56.5396 21.1704C56.5367 22.6988 56.5263 24.2257 56.5411 25.7541C56.553 27.098 57.0939 27.5351 58.4306 27.3195C58.6262 27.2885 58.8188 27.2353 59.1345 27.1674C59.1345 27.8186 59.1508 28.4211 59.1197 29.0192C59.1137 29.1285 58.927 29.3145 58.8159 29.3205C57.949 29.3677 57.0598 29.5095 56.2166 29.3751C54.7806 29.1462 53.9907 28.0475 53.9374 26.3552C53.8855 24.7116 53.9181 23.065 53.9122 21.4199C53.9122 21.2383 53.9122 21.0567 53.9122 20.8056Z" fill="black"/>
<path d="M61.2536 18.7071C62.0968 18.7071 62.9148 18.7071 63.7818 18.7071C63.7818 19.2225 63.7818 19.7201 63.7818 20.2193C64.7213 18.9094 65.8787 18.1637 67.5547 18.4324C67.5547 19.2594 67.5547 20.0421 67.5547 20.8498C67.414 20.8306 67.3013 20.8129 67.1872 20.7996C65.2815 20.5766 63.9359 21.7433 63.9166 23.6615C63.9003 25.3243 63.9137 26.9871 63.9122 28.6499C63.9122 28.8316 63.9122 29.0147 63.9122 29.2406C63.0112 29.2406 62.1487 29.2406 61.2536 29.2406C61.2536 25.7349 61.2536 22.235 61.2536 18.7071Z" fill="black"/>
<path d="M72.1804 29.2562C71.3194 29.2562 70.4688 29.2562 69.5781 29.2562C69.5781 25.746 69.5781 22.2506 69.5781 18.7168C70.4347 18.7168 71.2838 18.7168 72.1804 18.7168C72.1804 22.2107 72.1804 25.7195 72.1804 29.2562Z" fill="black"/>
<path d="M70.8588 16.677C69.9015 16.6741 69.1857 16.0021 69.1798 15.1013C69.1739 14.1799 69.906 13.4932 70.8855 13.502C71.871 13.5094 72.6119 14.2005 72.6016 15.1043C72.5927 16.0095 71.8517 16.6785 70.8588 16.677Z" fill="black"/>
</svg>
