<svg width="80" height="80" viewBox="0 0 80 80" fill="none" xmlns="http://www.w3.org/2000/svg">
<path d="M40 80C62.0914 80 80 62.0914 80 40C80 17.9086 62.0914 0 40 0C17.9086 0 0 17.9086 0 40C0 62.0914 17.9086 80 40 80Z" fill="#3258D8"/>
<path d="M65.2964 40.2424C65.2964 44.8278 65.2816 49.4131 65.3127 53.9969C65.3176 54.6449 65.1245 55.0066 64.56 55.3322C56.5806 59.9536 48.6127 64.5946 40.6496 69.2454C40.2029 69.5072 39.8805 69.5121 39.4256 69.2487C31.4233 64.6109 23.4112 59.9896 15.3892 55.3829C14.8868 55.0949 14.6856 54.7873 14.6856 54.1932C14.7052 44.9391 14.7068 35.6832 14.6856 26.4291C14.6839 25.8072 14.8885 25.4799 15.4203 25.1722C23.349 20.5771 31.2694 15.9672 39.1768 11.336C39.7938 10.9743 40.2389 10.9874 40.8575 11.3458C48.7583 15.9328 56.6739 20.4952 64.5976 25.043C65.1393 25.3539 65.3111 25.7074 65.3078 26.3194C65.2849 30.9588 65.2964 35.5998 65.2964 40.2424ZM25.5124 40.303C25.5124 42.8493 25.5287 45.3956 25.4993 47.942C25.4927 48.4902 25.6498 48.7978 26.1408 49.076C30.5641 51.5945 34.976 54.1343 39.3748 56.6954C39.8756 56.9867 40.234 56.9981 40.7413 56.7003C45.1041 54.1327 49.4783 51.5864 53.8673 49.0646C54.4057 48.7553 54.6005 48.4149 54.5972 47.798C54.5726 42.7331 54.5726 37.6683 54.5988 32.6034C54.6021 31.9832 54.4041 31.6461 53.869 31.3401C49.4472 28.8199 45.037 26.2769 40.6382 23.7158C40.1849 23.4507 39.869 23.4491 39.4207 23.7125C35.0071 26.3063 30.5838 28.8821 26.1522 31.4415C25.6793 31.7148 25.4911 32.0176 25.4976 32.5789C25.532 35.1514 25.5124 37.7272 25.5124 40.303Z" fill="#FDFDFE"/>
</svg>
