<svg width="31" height="42" viewBox="0 0 31 42" fill="none" xmlns="http://www.w3.org/2000/svg">
<path d="M15.6586 6.35216L15.7854 6.53996L15.9848 6.43208L18.2408 5.211L18.4833 5.07973L18.3289 4.8512C16.4791 2.11258 13.3461 0.751842 10.2275 0.750002C7.10888 0.748162 3.974 2.10519 2.12021 4.84009L1.96544 5.06841L2.20784 5.20005L4.46175 6.42412L4.66086 6.53226L4.788 6.34471C6.021 4.52577 8.11639 3.60827 10.2261 3.60992C12.3358 3.61157 14.4293 4.53234 15.6586 6.35216Z" fill="white" stroke="white" stroke-width="0.5"/>
<path d="M26.0455 15.9713C25.676 15.9713 25.3172 16.0144 24.975 16.0956C24.9011 14.0401 23.019 12.4314 20.7727 12.4314C20.4033 12.4314 20.0444 12.4746 19.7023 12.5558C19.6283 10.5003 17.7463 8.89163 15.5 8.89163C15.1306 8.89163 14.7717 8.9348 14.4296 9.01598C14.3556 6.96044 12.4735 5.35181 10.2273 5.35181C7.93543 5.35181 6.02273 7.02637 6.02273 9.14163V17.1512H5.83333C3.05693 17.1512 0.75 19.1787 0.75 21.7277V28.414C0.75 30.8846 1.81918 33.2081 3.74875 34.9563L3.91661 34.771L3.74876 34.9563C5.2211 36.2902 6.02273 38.018 6.02273 39.8201V41V41.25H6.27273H24.7273H24.9773V41V39.8201C24.9773 38.018 25.7788 36.2902 27.2512 34.9563C29.1808 33.2081 30.25 30.8847 30.25 28.414V19.7611C30.25 17.6458 28.3373 15.9713 26.0455 15.9713ZM25.0401 32.9271L25.208 33.1123L25.0401 32.9271C23.3676 34.4423 22.2998 36.3436 21.9591 38.3901H9.04099C8.70033 36.3436 7.63251 34.4424 5.95988 32.9271C4.61861 31.7119 3.88636 30.1092 3.88636 28.414V21.7277C3.88636 20.8067 4.73323 20.0111 5.83333 20.0111H6.02273V25.6608V25.9108H6.27273H8.90909H9.15909V25.6608V25.6581V25.6551V25.6518V25.6481V25.6441V25.6397V25.6351V25.6301V25.6247V25.619V25.6131V25.6067V25.6001V25.5931V25.5858V25.5782V25.5703V25.5621V25.5535V25.5446V25.5354V25.5259V25.5161V25.506V25.4956V25.4849V25.4738V25.4625V25.4508V25.4389V25.4266V25.4141V25.4012V25.3881V25.3746V25.3609V25.3469V25.3325V25.3179V25.303V25.2879V25.2724V25.2566V25.2406V25.2243V25.2077V25.1908V25.1736V25.1562V25.1385V25.1205V25.1022V25.0837V25.0649V25.0458V25.0265V25.0069V24.987V24.9669V24.9465V24.9258V24.9049V24.8837V24.8623V24.8406V24.8186V24.7964V24.774V24.7513V24.7283V24.7051V24.6817V24.658V24.6341V24.6099V24.5855V24.5608V24.5359V24.5108V24.4854V24.4598V24.434V24.4079V24.3816V24.355V24.3283V24.3013V24.2741V24.2466V24.219V24.1911V24.163V24.1346V24.1061V24.0773V24.0484V24.0192V23.9898V23.9602V23.9303V23.9003V23.8701V23.8396V23.809V23.7781V23.747V23.7158V23.6843V23.6527V23.6208V23.5888V23.5565V23.5241V23.4915V23.4586V23.4256V23.3924V23.3591V23.3255V23.2917V23.2578V23.2237V23.1894V23.1549V23.1203V23.0854V23.0504V23.0152V22.9799V22.9444V22.9087V22.8728V22.8368V22.8006V22.7643V22.7277V22.6911V22.6542V22.6172V22.5801V22.5428V22.5053V22.4677V22.4299V22.392V22.3539V22.3157V22.2773V22.2388V22.2001V22.1613V22.1224V22.0833V22.044V22.0047V21.9652V21.9255V21.8858V21.8459V21.8058V21.7657V21.7254V21.6849V21.6444V21.6037V21.5629V21.522V21.481V21.4398V21.3985V21.3571V21.3156V21.274V21.2322V21.1904V21.1484V21.1063V21.0642V21.0219V20.9795V20.937V20.8944V20.8517V20.8089V20.766V20.723V20.6799V20.6367V20.5934V20.5501V20.5066V20.463V20.4194V20.3757V20.3318V20.2879V20.244V20.1999V20.1557V20.1115V20.0672V20.0228V19.9784V19.9339V19.8893V19.8446V19.7998V19.755V19.7102V19.6652V19.6202V19.5751V19.53V19.4848V19.4395V19.3942V19.3489V19.3034V19.258V19.2124V19.1668V19.1212V19.0755V19.0298V18.984V18.9382V18.8923V18.8464V18.8005V18.7545V18.7084V18.6624V18.6163V18.5701V18.524V18.4778V18.4315V18.3853V18.339V18.2926V18.2463V18.1999V18.1535V18.1071V18.0607V18.0143V17.9678V17.9213V17.8748V17.8283V17.7818V17.7352V17.6887V17.6421V17.5956V17.549V17.5024V17.4558V17.4093V17.3627V17.3161V17.2695V17.223V17.1764V17.1298V17.0833V17.0367V16.9902V16.9437V16.8972V16.8507V16.8042V16.7577V16.7113V16.6648V16.6184V16.572V16.5257V16.4793V16.433V16.3867V16.3405V16.2942V16.2481V16.2019V16.1558V16.1097V16.0636V16.0176V15.9716V15.9256V15.8797V15.8339V15.788V15.7423V15.6965V15.6509V15.6052V15.5597V15.5141V15.4687V15.4232V15.3779V15.3326V15.2873V15.2421V15.197V15.1519V15.1069V15.062V15.0171V14.9723V14.9276V14.8829V14.8383V14.7938V14.7494V14.705V14.6607V14.6165V14.5723V14.5283V14.4843V14.4404V14.3966V14.3529V14.3093V14.2657V14.2223V14.1789V14.1356V14.0925V14.0494V14.0064V13.9635V13.9207V13.878V13.8354V13.7929V13.7506V13.7083V13.6661V13.6241V13.5821V13.5403V13.4985V13.4569V13.4154V13.374V13.3328V13.2916V13.2506V13.2097V13.1689V13.1282V13.0877V13.0473V13.007V12.9669V12.9268V12.887V12.8472V12.8076V12.7681V12.7287V12.6895V12.6505V12.6115V12.5727V12.5341V12.4956V12.4572V12.419V12.381V12.3431V12.3053V12.2677V12.2302V12.193V12.1558V12.1188V12.082V12.0454V12.0089V11.9725V11.9363V11.9003V11.8645V11.8288V11.7933V11.758V11.7228V11.6879V11.653V11.6184V11.584V11.5497V11.5156V11.4817V11.4479V11.4144V11.381V11.3479V11.3149V11.2821V11.2495V11.217V11.1848V11.1528V11.121V11.0893V11.0579V11.0267V10.9956V10.9648V10.9342V10.9037V10.8735V10.8435V10.8137V10.7841V10.7547V10.7256V10.6966V10.6679V10.6394V10.6111V10.583V10.5551V10.5275V10.5001V10.4729V10.4459V10.4192V10.3927V10.3664V10.3403V10.3145V10.2889V10.2636V10.2385V10.2136V10.189V10.1646V10.1404V10.1165V10.0929V10.0694V10.0463V10.0234V10.0007V9.97826V9.95609V9.93418V9.91251V9.89111V9.86996V9.84907V9.82844V9.80808V9.78797V9.76813V9.74855V9.72925V9.7102V9.69143V9.67293V9.6547V9.63675V9.61906V9.60166V9.58453V9.56768V9.55111V9.53482V9.51881V9.50309V9.48765V9.4725V9.45763V9.44305V9.42877V9.41477V9.40107V9.38767V9.37455V9.36174V9.34922V9.337V9.32509V9.31347V9.30216V9.29115V9.28045V9.27006V9.25997V9.25019V9.24073V9.23158V9.22274V9.21421V9.20601V9.19812V9.19055V9.1833V9.17637V9.16976V9.16348V9.15753V9.1519V9.1466V9.14163C9.15909 8.65441 9.61173 8.21169 10.2273 8.21169C10.8428 8.21169 11.2955 8.65441 11.2955 9.14163V20.941V21.191H11.5455H14.1818H14.4318V20.941V12.6814C14.4318 12.1942 14.8845 11.7515 15.5 11.7515C16.1155 11.7515 16.5682 12.1942 16.5682 12.6814V20.941V21.191H16.8182H19.4545H19.7045V20.941V16.2213C19.7045 15.734 20.1572 15.2913 20.7727 15.2913C21.3883 15.2913 21.8409 15.734 21.8409 16.2213V20.941V21.191H22.0909H24.7273H24.9773V20.941V19.7611C24.9773 19.2739 25.4299 18.8311 26.0455 18.8311C26.661 18.8311 27.1136 19.2739 27.1136 19.7611V28.414C27.1136 30.1093 26.3815 31.712 25.0401 32.9271Z" fill="white" stroke="white" stroke-width="0.5"/>
</svg>
