<svg width="162" height="36" viewBox="0 0 162 36" fill="none" xmlns="http://www.w3.org/2000/svg">
<path d="M28.189 18.7706C28.189 21.6512 28.1683 24.53 28.2021 27.4106C28.2115 28.2261 27.9956 28.8143 27.1937 29.1037C27.1073 29.1356 27.0341 29.1995 26.9514 29.2446C24.9496 30.3382 24.9496 30.3382 24.9496 28.0082C24.9496 24.7837 24.9327 21.5591 24.9571 18.3365C24.9683 16.9817 24.4125 16.0309 23.2463 15.3488C19.5937 13.2066 15.9637 11.0288 12.3167 8.8772C11.9468 8.65923 11.8153 8.39804 11.821 7.97149C11.8398 5.84249 11.8172 3.71349 11.8341 1.58636C11.8454 0.143226 12.7374 -0.399831 13.9975 0.310462C17.1167 2.07116 20.2134 3.87321 23.3195 5.65834C24.3993 6.27843 25.4716 6.91732 26.5627 7.51487C27.6819 8.12745 28.2228 9.0125 28.2021 10.3185C28.1589 13.1352 28.189 15.9538 28.189 18.7706Z" fill="#02D395"/>
<path d="M18.9408 33.9737C18.9408 31.7394 18.9164 29.6462 18.9502 27.5529C18.9709 26.2957 18.4413 25.4088 17.384 24.7793C13.9061 22.7123 10.4395 20.6284 6.95215 18.5746C6.3268 18.2063 6.03572 17.7966 6.06013 17.0225C6.12398 14.9592 6.07703 12.8922 6.08455 10.8271C6.09018 9.16977 7.00661 8.60605 8.42069 9.42908C12.6967 11.9245 16.9634 14.4406 21.2263 16.9567C22.0469 17.4415 22.4432 18.2288 22.4488 19.144C22.4751 23.1502 22.4563 27.1545 22.4638 31.1607C22.4657 31.7564 22.214 32.1679 21.6995 32.4479C20.83 32.9233 19.9662 33.4081 18.9408 33.9737Z" fill="#02D395"/>
<path d="M73.0305 15.2491C74.6662 13.2103 78.5854 12.9622 80.484 15.4201C81.9526 13.836 83.7985 13.37 85.8568 13.7421C87.8173 14.0953 89.1844 15.6193 89.3779 17.6073C89.6671 20.5631 89.4361 23.5302 89.5225 26.4917C89.5356 26.9464 89.3065 26.984 88.9478 26.9765C88.1666 26.9595 87.3816 26.9408 86.6023 26.9821C86.1028 27.0084 85.9769 26.8449 85.9807 26.3564C86.0051 24.1334 85.9957 21.9123 85.9882 19.6894C85.9863 19.2854 85.9769 18.872 85.8962 18.4792C85.6389 17.224 85.0849 16.7242 83.9788 16.6866C82.7469 16.6453 81.8699 17.2071 81.515 18.2857C81.3685 18.7292 81.3065 19.1877 81.3084 19.6631C81.3216 21.8221 81.2915 23.9831 81.3291 26.1421C81.3403 26.7566 81.2483 27.0497 80.5422 26.9859C79.6727 26.9088 78.4972 27.279 77.9976 26.8393C77.4192 26.3282 77.8418 25.1312 77.8192 24.233C77.7779 22.4817 77.8267 20.7285 77.7516 18.9791C77.6821 17.3668 76.9742 16.6603 75.6446 16.6866C74.2211 16.7148 73.269 17.6243 73.2352 19.1294C73.1826 21.4444 73.1732 23.7613 73.2202 26.0764C73.2352 26.8299 73.0174 27.0497 72.2906 26.984C71.4568 26.9069 70.3526 27.2395 69.8493 26.8167C69.3216 26.3733 69.6953 25.2327 69.6897 24.4002C69.6709 21.1757 69.701 17.9512 69.6672 14.7286C69.6596 14.0672 69.8493 13.8154 70.5066 13.898C70.8146 13.9375 71.1319 13.9056 71.4437 13.9056C72.8052 13.9056 72.8052 13.9055 73.0305 15.2491Z" fill="#040404"/>
<path d="M16.3625 31.4558C16.3625 32.4254 16.3775 33.395 16.3587 34.3646C16.3324 35.7232 15.2207 36.4166 14.0451 35.7326C11.8386 34.451 9.67144 33.1019 7.49868 31.7677C5.56066 30.5782 3.64517 29.3512 1.70152 28.173C0.55786 27.4796 -0.00927494 26.5044 0.000114694 25.1684C0.0132602 23.449 -0.00739724 21.7296 0.00574824 20.0084C0.0188937 18.5446 0.989782 17.9921 2.24987 18.725C6.44328 21.1678 10.6329 23.6181 14.8245 26.0628C15.8892 26.6829 16.4357 27.5661 16.37 28.8307C16.3268 29.7045 16.3625 30.582 16.3625 31.4558Z" fill="#02D395"/>
<path d="M53.5045 15.8632C52.9355 15.8632 52.466 15.8331 52.0003 15.8688C50.6444 15.9703 49.6529 15.897 48.8792 14.3035C47.9271 12.3361 45.8107 12.1445 43.7825 12.5071C41.9102 12.8416 40.7271 14.0442 40.2276 15.8256C39.7468 17.5412 39.7825 19.2906 40.4886 20.963C41.3356 22.9699 43.005 23.776 45.052 23.7516C46.9825 23.7271 48.5919 22.9511 49.3618 21.04C49.6041 20.4406 49.882 20.232 50.5092 20.2771C51.3186 20.3335 52.1355 20.3128 52.9487 20.2828C53.4313 20.2659 53.5064 20.3936 53.3937 20.869C52.7008 23.7929 50.9224 25.7904 48.1074 26.6848C45.0182 27.6657 41.9741 27.4571 39.3468 25.3262C36.3854 22.9248 35.683 19.6439 36.3177 16.1018C37.7168 8.29421 46.8041 7.20998 51.0557 11.141C52.4266 12.4056 53.1327 13.9822 53.5045 15.8632Z" fill="#040404"/>
<path d="M158.425 15.2767C158.425 13.4972 158.466 11.9338 158.408 10.3741C158.376 9.50787 158.645 9.02683 159.531 8.87274C160.29 8.74121 161.347 8.12487 161.704 8.418C162.239 8.85583 161.884 9.92315 161.888 10.7199C161.903 15.8197 161.875 20.9195 161.918 26.0175C161.926 26.8293 161.683 27.0698 160.932 26.9514C160.688 26.9119 160.433 26.9458 160.183 26.9458C158.741 26.9458 158.741 26.9458 158.605 25.4594C157.58 26.5831 156.371 27.1487 154.891 27.1863C151.839 27.2615 149.614 25.6417 148.885 22.6577C148.343 20.4329 148.47 18.2719 149.706 16.25C151.452 13.3957 155.435 12.7531 158.003 14.9328C158.089 15.0061 158.179 15.0756 158.425 15.2767ZM158.498 20.5268C158.487 20.2788 158.493 20.027 158.463 19.7808C158.258 18.1498 157.255 17.0261 155.83 16.8175C154.277 16.592 153.03 17.2553 152.45 18.6834C151.92 19.9875 151.967 21.2972 152.628 22.5544C152.987 23.2383 153.518 23.7438 154.282 23.9655C156.587 24.6383 158.476 23.0974 158.498 20.5268Z" fill="#040404"/>
<path d="M95.0374 15.3936C96.4909 13.8377 98.2167 13.4431 100.078 13.7062C102.619 14.0651 104.1 15.6811 104.769 18.0731C105.407 20.3619 105.234 22.5754 103.969 24.6556C102.095 27.7392 97.6646 27.912 95.7153 26.0329C95.6345 25.9559 95.5331 25.8976 95.3003 25.7285C95.3003 27.3633 95.2589 28.8779 95.3153 30.3868C95.3491 31.2681 95.0374 31.7172 94.1641 31.8713C93.4017 32.0065 92.6561 32.2452 91.9068 32.4369C91.7134 32.1137 91.8036 31.7961 91.8017 31.4936C91.796 25.9578 91.8205 20.4239 91.7716 14.8881C91.7641 14.0162 92.0289 13.7851 92.8158 13.8997C93.1219 13.9429 93.4392 13.9072 93.7528 13.9072C95.0129 13.9053 95.0129 13.9053 95.0374 15.3936ZM101.593 20.4445C101.58 18.4151 100.517 17.0133 98.8345 16.8085C97.0467 16.5887 95.7228 17.5771 95.2702 19.4655C94.812 21.3803 95.7923 23.4868 97.3603 23.9641C99.6702 24.6631 101.61 23.0508 101.593 20.4445Z" fill="#040404"/>
<path d="M68.0154 20.5141C68.0398 24.2723 65.144 27.2018 61.3469 27.2619C57.3469 27.3258 54.4361 24.4583 54.4042 20.422C54.3741 16.5154 57.2549 13.6385 61.2023 13.6348C65.1835 13.6291 67.991 16.4647 68.0154 20.5141ZM57.961 21.1699C58.0229 22.9738 59.7055 24.5072 61.8051 24.0712C63.2567 23.7706 64.1243 22.8724 64.376 21.4593C64.6633 19.8527 64.4717 18.3156 63.0088 17.284C61.9891 16.5643 60.8323 16.5342 59.7356 17.0942C58.3628 17.7969 57.9103 19.0484 57.961 21.1699Z" fill="#040404"/>
<path d="M112.666 13.6352C116.583 13.592 119.532 16.5008 119.577 20.4563C119.62 24.222 116.7 27.1684 112.828 27.2624C108.875 27.3582 105.945 24.4475 105.896 20.3736C105.851 16.576 108.76 13.6785 112.666 13.6352ZM116.018 20.445C116.011 18.5622 114.968 17.104 113.429 16.8184C111.969 16.5497 110.69 17.0909 109.975 18.2841C109.179 19.6107 109.301 21.8487 110.229 22.9555C111.169 24.0792 112.595 24.4193 114.037 23.8631C115.241 23.399 116.026 22.046 116.018 20.445Z" fill="#040404"/>
<path d="M138.353 15.3714C140.623 13.2818 143.617 13.0939 145.485 14.7099C146.496 15.5837 146.967 16.7394 146.999 18.0171C147.07 20.832 147.038 23.6506 147.07 26.4674C147.076 26.8958 146.918 26.9916 146.526 26.9785C145.745 26.9522 144.96 26.9334 144.18 26.9841C143.641 27.0179 143.579 26.7812 143.581 26.334C143.598 24.017 143.628 21.7001 143.577 19.3851C143.531 17.211 142.139 16.1794 140.289 16.8577C139.283 17.2279 138.744 18.0679 138.734 19.3907C138.717 21.6757 138.71 23.9607 138.744 26.2456C138.751 26.8112 138.627 27.0405 138.028 26.9804C137.106 26.8845 135.872 27.3693 135.339 26.7925C134.883 26.2964 135.193 25.0787 135.191 24.1786C135.185 21.0293 135.209 17.8781 135.179 14.7287C135.174 14.1105 135.345 13.8831 135.959 13.9546C136.329 13.9978 136.71 13.9809 137.084 13.9583C137.938 13.9095 138.791 13.8399 138.353 15.3714Z" fill="#040404"/>
<path d="M132.756 18.5803C132.756 19.9238 132.818 21.2693 132.743 22.6072C132.61 24.9541 131.304 26.4687 129.027 27.0286C127.703 27.3537 126.347 27.3406 125.036 27.0756C122.581 26.5814 121.201 24.894 121.12 22.2952C121.042 19.7115 121.09 17.1259 121.066 14.5403C121.062 14.0761 121.184 13.8619 121.699 13.8939C122.384 13.9371 123.077 13.9446 123.761 13.892C124.405 13.8431 124.621 14.0348 124.608 14.7113C124.565 16.9943 124.557 19.2774 124.602 21.5605C124.642 23.5561 125.729 24.3754 127.659 23.9808C128.619 23.7853 129.089 23.1652 129.233 22.2483C129.447 20.8859 129.297 19.5123 129.331 18.1425C129.359 16.9605 129.363 15.7748 129.329 14.5929C129.314 14.0874 129.421 13.8581 129.982 13.8939C130.73 13.9408 131.483 13.9333 132.232 13.8957C132.741 13.8694 132.871 14.0705 132.861 14.5478C132.835 15.8913 132.852 17.2367 132.852 18.5822C132.82 18.5803 132.788 18.5803 132.756 18.5803Z" fill="#040404"/>
</svg>
