<?xml version="1.0" encoding="utf-8"?>
<!-- Generator: Adobe Illustrator 24.1.2, SVG Export Plug-In . SVG Version: 6.00 Build 0)  -->
<svg version="1.1" id="Layer_1" xmlns="http://www.w3.org/2000/svg" xmlns:xlink="http://www.w3.org/1999/xlink" x="0px" y="0px"
	 viewBox="0 0 14 17" style="enable-background:new 0 0 14 17;" xml:space="preserve">
<style type="text/css">
	.st0{clip-path:url(#SVGID_2_);}
	.st1{clip-path:url(#SVGID_4_);}
	.st2{fill-rule:evenodd;clip-rule:evenodd;fill:#FFFFFF;}
	.st3{fill-rule:evenodd;clip-rule:evenodd;fill:#00D395;}
</style>
<g>
	<defs>
		<rect id="SVGID_1_" x="0.3" y="0.5" width="12.7" height="16.5"/>
	</defs>
	<clipPath id="SVGID_2_">
		<use xlink:href="#SVGID_1_"  style="overflow:visible;"/>
	</clipPath>
	<g class="st0">
		<defs>
			<rect id="SVGID_3_" x="0.3" y="0.5" width="72.8" height="16.5"/>
		</defs>
		<clipPath id="SVGID_4_">
			<use xlink:href="#SVGID_3_"  style="overflow:visible;"/>
		</clipPath>
		<g class="st1">
			<path class="st2" d="M71.8,9.9c0-1-0.6-1.7-1.4-1.7s-1.4,0.7-1.4,1.7c0,1,0.6,1.7,1.4,1.7C71.2,11.6,71.8,10.8,71.8,9.9z
				 M71.7,7.5V5c0-0.2,0.1-0.3,0.3-0.4l1.3-0.4v8.6h-1.5v-0.7c-0.4,0.5-1,0.9-1.9,0.9c-1.7,0-2.7-1.4-2.7-3.1c0-1.7,1-3.1,2.7-3.1
				C70.8,6.7,71.4,7.1,71.7,7.5z M62.7,6.9v0.7c0.3-0.5,0.9-0.9,1.7-0.9c1.4,0,2.2,1,2.2,2.4v3.7H65V9.3c0-0.7-0.3-1.2-1-1.2
				c-0.8,0-1.2,0.5-1.2,1.3v3.4h-1.6v-6H62.7z M57.5,13c-1.7,0-2.7-0.8-2.7-2.7V6.9h1.6v3.4c0,0.8,0.4,1.2,1.1,1.2s1.1-0.4,1.1-1.2
				V6.9h1.6v3.4C60.2,12.2,59.3,13,57.5,13z M49.6,9.9c0,1.1,0.6,1.7,1.5,1.7c0.8,0,1.5-0.6,1.5-1.7c0-1.1-0.6-1.7-1.5-1.7
				C50.3,8.2,49.6,8.8,49.6,9.9z M51.1,13c-1.9,0-3.1-1.4-3.1-3.1s1.2-3.1,3.1-3.1c1.9,0,3.1,1.4,3.1,3.1C54.2,11.6,53,13,51.1,13z
				 M43.2,9.9c0,1,0.6,1.7,1.4,1.7c0.9,0,1.4-0.7,1.4-1.7c0-1-0.6-1.7-1.4-1.7C43.8,8.2,43.2,8.9,43.2,9.9z M43.3,12.2v2.5
				c0,0.2-0.1,0.3-0.3,0.4l-1.3,0.4V6.9h1.5v0.7c0.4-0.5,1-0.9,1.9-0.9c1.7,0,2.7,1.4,2.7,3.1c0,1.7-1,3.1-2.7,3.1
				C44.2,13,43.6,12.6,43.3,12.2z M36.9,9.5v3.4h-1.6V9.3c0-0.7-0.2-1.2-0.9-1.2c-0.7,0-1.1,0.5-1.1,1.3v3.4h-1.6v-6h1.5v0.7
				c0.3-0.5,0.9-0.9,1.7-0.9c0.8,0,1.4,0.3,1.7,0.8c0.5-0.6,1.1-0.8,1.9-0.8c1.4,0,2.1,1,2.1,2.4v3.7H39V9.3c0-0.7-0.2-1.2-0.9-1.2
				C37.3,8.1,36.9,8.6,36.9,9.5z M26.4,9.9c0,1.1,0.6,1.7,1.5,1.7c0.8,0,1.5-0.6,1.5-1.7c0-1.1-0.6-1.7-1.5-1.7
				C27,8.2,26.4,8.8,26.4,9.9z M27.9,13c-1.9,0-3.1-1.4-3.1-3.1s1.2-3.1,3.1-3.1c1.9,0,3.1,1.4,3.1,3.1S29.8,13,27.9,13z M16.6,8.8
				c0-2.5,1.7-4.2,4-4.2c2,0,3.5,1.2,3.8,3.2h-1.7c-0.2-1-1-1.6-2.1-1.6c-1.5,0-2.3,1-2.3,2.6s0.8,2.6,2.3,2.6
				c1.1,0,1.9-0.6,2.1-1.6h1.7c-0.3,2-1.9,3.2-3.8,3.2C18.3,13,16.6,11.3,16.6,8.8z"/>
			<path class="st3" d="M0.9,13.4c-0.4-0.3-0.7-0.7-0.7-1.2V9.5c0-0.1,0-0.2,0.1-0.3C0.5,8.9,0.9,8.8,1.1,9l6,3.5
				c0.3,0.2,0.6,0.6,0.6,1v2.8c0,0.1,0,0.3-0.1,0.4c-0.2,0.3-0.6,0.4-0.9,0.2L0.9,13.4z M9.8,8.2c0.3,0.2,0.6,0.6,0.6,1v5.7
				c0,0.2-0.1,0.3-0.2,0.4L8.8,16c0,0,0,0-0.1,0v-3.1c0-0.4-0.2-0.8-0.6-1L3,8.7V5.2C3,5.1,3,5,3.1,4.9c0.2-0.3,0.5-0.4,0.8-0.2
				L9.8,8.2z M12.4,4.1c0.4,0.2,0.6,0.6,0.6,1v8.3c0,0.2-0.1,0.3-0.2,0.4l-1.2,0.7V8.7c0-0.4-0.2-0.8-0.6-1L5.6,4.4V1
				c0-0.1,0-0.2,0.1-0.3c0.2-0.3,0.5-0.4,0.8-0.2L12.4,4.1z"/>
		</g>
	</g>
</g>
</svg>
