<svg width="33" height="32" viewBox="0 0 33 32" fill="none" xmlns="http://www.w3.org/2000/svg">
<path d="M33 6.93966C32.3774 7.43388 31.7804 7.90857 31.1834 8.38223C25.5806 1.33479 15.6398 0.888867 9.36913 5.2957C3.14675 9.66863 0.572924 17.872 3.86084 25.3427C3.15908 25.6664 2.45628 25.9911 1.75452 26.3147C-1.33407 20.4222 -0.932325 9.71487 7.77038 3.48838C16.3272 -2.63331 27.501 -0.204364 33 6.93966Z" fill="black"/>
<path d="M18.4221 29.4825C18.3861 30.2705 18.3522 31.0175 18.3193 31.7593C13.9197 31.9361 8.01274 28.9451 5.98348 22.659C3.90285 16.2147 6.90102 9.53611 12.7597 6.66843C19.1187 3.55518 25.5959 6.14442 28.8828 10.2625C28.293 10.7434 27.7012 11.2253 27.1217 11.6979C22.8392 7.37636 18.0214 6.30881 12.7196 9.49912C8.83164 11.8377 7.07466 16.4346 7.97678 20.7941C8.8152 24.8444 12.4093 29.1619 18.4221 29.4825Z" fill="black"/>
<path d="M24.6919 13.6625C24.0456 14.1875 23.4261 14.692 22.7592 15.2335C21.3999 13.7498 19.7477 13.0398 17.7462 13.3542C16.4834 13.5525 15.4303 14.1731 14.6001 15.1441C12.8513 17.1877 12.9078 20.1284 14.7244 22.1309C15.421 22.8995 16.282 23.4152 17.2787 23.6803C18.2589 23.9423 19.2771 23.9906 20.2049 23.5838C21.1112 23.1861 21.9393 22.6087 22.8538 22.0806C23.2606 22.6056 23.7518 23.2365 24.2367 23.8622C22.9606 25.537 19.9059 26.9415 16.7156 26.1422C13.4164 25.3161 11.0635 22.4607 10.8344 19.0495C10.6083 15.6743 12.5914 12.5785 15.8002 11.2952C18.8384 10.0797 22.4952 11.0342 24.6919 13.6625Z" fill="black"/>
</svg>
