<svg width="80" height="80" viewBox="0 0 80 80" fill="none" xmlns="http://www.w3.org/2000/svg">
<path d="M30.3331 46.7056C29.9816 46.7056 29.8622 46.789 29.8655 47.1617C29.8818 49.5898 29.8851 52.0162 29.8638 54.4443C29.8606 54.853 29.9816 54.9446 30.3723 54.943C33.8763 54.9283 37.3786 54.9348 40.8825 54.9348C42.3148 54.9348 43.734 54.7909 45.1287 54.459C49.0463 53.5221 52.1922 51.4701 54.3406 48.0054C54.5793 47.6212 54.7821 47.2141 55.0453 46.7399C54.8148 46.7268 54.6987 46.7154 54.5826 46.7154C46.4989 46.7121 38.4152 46.7154 30.3331 46.7056Z" fill="#F4B731"/>
<path d="M55.7548 37.7423C47.3228 37.7423 38.8892 37.7423 30.4572 37.7423C30.3656 37.7423 30.2724 37.7489 30.1825 37.7423C29.9389 37.7227 29.862 37.8404 29.8702 38.071C29.8833 38.4111 29.8735 38.7528 29.8735 39.0945C29.8735 40.1818 29.8735 41.2675 29.8735 42.399C30.0484 42.4088 30.1645 42.4219 30.279 42.4219C38.8303 42.4235 47.38 42.4202 55.9314 42.43C56.2682 42.43 56.3712 42.2992 56.3712 42C56.3712 40.7705 56.3892 39.5409 56.3712 38.3113C56.3614 37.744 56.3319 37.7423 55.7548 37.7423Z" fill="#F4B731"/>
<path d="M29.8739 33.0104C29.8739 33.138 29.8854 33.2671 29.8919 33.4208C38.2879 33.4208 46.6365 33.4208 55.0211 33.4208C54.9737 33.3015 54.9475 33.2148 54.9083 33.1363C53.7604 30.8276 52.1009 28.9735 49.9311 27.5837C47.2382 25.8587 44.2526 25.1278 41.0888 25.0984C37.4949 25.0657 33.9011 25.0935 30.3072 25.0853C29.9671 25.0837 29.8641 25.1851 29.8657 25.5333C29.8805 28.0252 29.8739 30.517 29.8739 33.0104Z" fill="#F4B731"/>
<path d="M40 0C17.9088 0 0 17.9088 0 40C0 62.0912 17.9088 80 40 80C62.0912 80 80 62.0912 80 40C80 17.9088 62.0912 0 40 0ZM64.413 37.742C64.1351 37.742 63.8653 37.742 63.5955 37.742C62.7829 37.742 61.9686 37.7534 61.156 37.7371C60.8126 37.7289 60.708 37.7927 60.7162 38.19C60.7439 39.498 60.6949 40.8077 60.6769 42.1158C60.6753 42.1942 60.6769 42.2711 60.6769 42.4084C61.9343 42.4084 63.1507 42.4084 64.4032 42.4084C64.4032 43.8473 64.4032 45.2534 64.4032 46.6923C64.2609 46.6988 64.1203 46.7103 63.9814 46.7103C62.657 46.7119 61.3309 46.7168 60.0065 46.707C59.74 46.7054 59.5929 46.7675 59.4784 47.0422C56.9588 53.0935 52.3676 56.671 46.0808 58.1965C44.3558 58.6151 42.5965 58.7704 40.8208 58.7672C35.9663 58.759 31.1118 58.7639 26.2574 58.7639C26.0889 58.7639 25.9189 58.7639 25.7129 58.7639C25.7014 58.5661 25.6835 58.3993 25.6835 58.2341C25.6818 54.5602 25.6769 50.8878 25.69 47.2139C25.6916 46.828 25.6099 46.6939 25.1946 46.7021C23.7525 46.7299 22.3087 46.7119 20.8649 46.7119C20.7243 46.7119 20.5837 46.7119 20.4202 46.7119C20.4202 45.2698 20.4202 43.8735 20.4202 42.4362C22.155 42.4362 23.8816 42.4362 25.6524 42.4362C25.6638 42.276 25.6802 42.1501 25.6802 42.0258C25.6818 40.7407 25.6687 39.4539 25.69 38.1687C25.6965 37.8058 25.5657 37.7322 25.2354 37.7355C23.7917 37.7502 22.3496 37.742 20.9058 37.742C20.7521 37.742 20.5968 37.742 20.4218 37.742C20.4218 36.2966 20.4218 34.9003 20.4218 33.4516C22.1648 33.4516 23.9012 33.4516 25.6835 33.4516C25.6835 29.3672 25.6835 25.3336 25.6835 21.2443C25.8698 21.2443 26.0072 21.2443 26.1462 21.2443C31.1053 21.2443 36.0644 21.2099 41.0235 21.2541C45.6606 21.295 49.9575 22.482 53.7083 25.3172C56.3882 27.343 58.3355 29.9313 59.5455 33.0657C59.6599 33.36 59.7956 33.4614 60.1112 33.4565C61.3963 33.4369 62.6831 33.4483 63.9683 33.4483C64.1089 33.4483 64.2495 33.4483 64.4146 33.4483C64.413 34.8855 64.413 36.2819 64.413 37.742Z" fill="#F4B731"/>
</svg>
