<svg width="142" height="36" viewBox="0 0 142 36" fill="none" xmlns="http://www.w3.org/2000/svg">
<path d="M12.9619 29.2854C12.826 29.1451 12.672 29.0365 12.4728 29.0063C10.6085 27.9065 8.74425 26.8068 6.7713 25.6437C6.7713 27.7934 6.77583 29.7757 6.76677 31.7564C6.76526 32.0958 6.96452 32.218 7.21661 32.3628C8.95407 33.3615 10.6825 34.3723 12.4139 35.38C12.4139 35.561 12.4139 35.742 12.4139 35.994C10.4108 34.8414 8.44838 33.707 6.47845 32.5861C6.17051 32.4111 6.20372 32.1471 6.20372 31.8771C6.20372 29.8918 6.18712 27.9065 6.2158 25.9213C6.22183 25.4657 6.07088 25.2364 5.68444 25.0191C3.97718 24.0612 2.29708 23.0535 0.588298 22.097C0.177708 21.8677 0.0101513 21.6218 0.0176989 21.1406C0.0463798 19.2021 0.0267559 17.2621 0.0373226 15.3221C0.0388321 15.138 -0.0985343 14.8439 0.144499 14.7835C0.354322 14.7307 0.556598 14.9314 0.660755 15.1546C0.51886 17.1595 0.638113 19.1674 0.594337 21.1723C0.588298 21.4665 0.793593 21.5555 0.989831 21.6686C1.77931 22.1242 2.5703 22.5798 3.35978 23.0354C4.27908 23.5649 5.19838 24.0959 6.17202 24.6586C6.17202 22.4335 6.17202 20.3139 6.17202 18.1944C6.17202 15.9843 6.17202 13.7758 6.17202 11.5295C5.88974 11.5401 5.6935 11.7362 5.4716 11.8629C4.07077 12.6655 2.6654 13.4635 1.27664 14.2872C0.926431 14.4939 0.665284 14.5346 0.396589 14.1409C2.17933 13.1105 3.94397 12.0771 5.7252 11.0724C6.08296 10.8703 6.22032 10.6576 6.21429 10.2352C6.18561 8.36607 6.19768 6.49695 6.20825 4.62784C6.20976 4.44228 6.07994 4.17074 6.31844 4.08023C6.47241 4.0229 6.64299 4.20242 6.77432 4.33065C6.77432 6.32799 6.77432 8.32533 6.77432 10.475C8.57518 9.41 10.2658 8.40831 11.958 7.40662C14.0336 6.23446 16.1092 5.0623 18.3025 3.82377C17.4753 3.34103 16.7583 2.92165 16.0413 2.50528C15.0767 1.9441 14.103 1.3995 13.152 0.817198C12.8169 0.612032 12.5633 0.619574 12.2237 0.820213C10.6372 1.76005 9.02653 2.65916 7.44002 3.59899C7.07924 3.81321 6.82262 3.8298 6.56751 3.44814C8.50574 2.3318 10.4455 1.22904 12.3656 0.0945926C12.7113 -0.109064 12.9196 0.058388 13.1687 0.201702C14.8654 1.17774 16.5711 2.14172 18.2497 3.14642C18.689 3.40891 19.0014 3.44059 19.4619 3.16151C21.1555 2.13418 22.89 1.17322 24.5957 0.165495C24.9112 -0.0200584 25.1497 -0.0366527 25.4667 0.148901C27.3521 1.25468 29.2466 2.34236 31.1576 3.44663C30.8904 3.85243 30.6142 3.79058 30.2519 3.57637C28.685 2.65011 27.1031 1.74647 25.5226 0.841333C25.2946 0.710088 25.0878 0.523025 24.7739 0.707071C23.0319 1.73139 21.2808 2.73911 19.4302 3.8117C20.8521 4.62935 22.1775 5.40324 23.5134 6.15903C24.2455 6.57238 24.9339 7.06266 25.7173 7.38248C27.4276 8.39473 29.1379 9.40698 30.9538 10.4826C30.9538 8.32383 30.9538 6.3295 30.9538 4.33518C31.0912 4.17979 31.2497 4.06514 31.529 4.03648C31.529 6.09567 31.5441 8.13827 31.5169 10.1824C31.5109 10.6274 31.6346 10.8627 32.0316 11.0845C33.7993 12.0741 35.5443 13.106 37.3135 14.1333C37.0538 14.5135 36.7715 14.4818 36.4093 14.2676C34.8258 13.3323 33.2302 12.4181 31.5561 11.4481C31.5561 13.7486 31.5561 15.9662 31.5561 18.1853C31.5561 20.3094 31.5561 22.435 31.5561 24.6601C33.3932 23.5981 35.1397 22.5858 36.8908 21.5811C37.1006 21.4604 37.1489 21.302 37.1474 21.0788C37.1338 19.0543 37.1293 17.0283 37.1217 15.0038C37.2712 14.8695 37.4206 14.7337 37.6999 14.7156C37.6999 16.977 37.6984 19.2247 37.7014 21.4725C37.7014 21.8195 37.4327 21.913 37.1987 22.0473C35.4854 23.0399 33.7812 24.0476 32.0543 25.0161C31.6678 25.2334 31.5093 25.4551 31.5169 25.9107C31.5456 27.8945 31.5244 29.8782 31.5335 31.862C31.535 32.1969 31.5048 32.4519 31.1561 32.648C29.233 33.7281 27.3265 34.8384 25.3218 35.9909C25.3384 35.7134 25.352 35.5082 25.3641 35.3046C27.0864 34.3195 28.8073 33.3344 30.5312 32.3523C30.7757 32.2135 30.981 32.0898 30.978 31.7428C30.9629 29.8481 30.9674 27.9548 30.9735 26.06C30.975 25.7372 30.8784 25.6301 30.575 25.8081C28.8315 26.8385 27.0864 27.8673 25.3414 28.8977C25.1663 28.9897 24.9912 29.0817 24.8176 29.1737C23.0485 30.186 21.2778 31.1967 19.4151 32.2618C21.2552 33.3208 23.0183 34.3361 24.7814 35.3498C24.7814 35.5459 24.7814 35.742 24.7814 36C22.9322 34.9365 21.1329 33.9212 19.3592 32.8622C18.9697 32.6299 18.7026 32.6721 18.3463 32.8818C16.7417 33.8262 15.122 34.7479 13.5068 35.6772C13.3528 35.7662 13.1898 35.8401 13.0222 35.9261C12.9 35.7043 12.9468 35.5112 12.9936 35.3181C14.7129 34.33 16.4307 33.3419 18.2422 32.301C16.5907 31.3431 15.0767 30.4636 13.5596 29.5871C13.3694 29.477 13.1626 29.3864 12.9619 29.2854ZM12.352 21.0727C12.3777 21.5464 12.5165 21.9567 12.9769 22.1876C12.9769 24.1457 12.9739 26.1038 12.9769 28.0619C12.9769 28.3274 12.9332 28.5809 13.2532 28.7604C15.0163 29.747 16.7658 30.7592 18.5214 31.7624C18.535 31.8047 18.5486 31.8469 18.5622 31.8892C18.6377 32.1245 18.532 32.5393 18.8716 32.5318C19.2083 32.5243 19.095 32.1275 19.1358 31.8846C19.1433 31.8409 19.1584 31.7986 19.1705 31.7564C20.8899 30.7653 22.6032 29.7636 24.3316 28.7906C24.6818 28.5944 24.798 28.3666 24.7935 27.9774C24.7739 26.0374 24.7799 24.0959 24.7769 22.1559C25.2162 21.9296 25.3973 21.56 25.3686 21.0773C27.1348 20.0831 28.8979 19.0844 30.6701 18.0993C30.9387 17.95 30.9795 17.7494 30.978 17.4808C30.9674 15.4744 30.9644 13.468 30.9584 11.4616C31.0263 11.4043 31.0867 11.3304 31.1652 11.2912C31.378 11.1871 31.5124 11.0046 31.4127 10.8009C31.2708 10.5128 31.052 10.7285 30.907 10.825C30.6172 11.0196 30.4315 10.7994 30.2308 10.6847C28.7092 9.81278 27.1876 8.93631 25.6766 8.04625C25.358 7.85919 25.109 7.81846 24.7557 8.02211C23.453 8.77489 22.1397 9.50956 20.7978 10.1869C20.203 10.4871 19.6838 11.2354 18.8505 10.6983C18.8203 10.6787 18.7207 10.739 18.6694 10.7813C18.369 11.0317 18.1305 10.8462 17.8678 10.6938C16.3115 9.78864 14.7416 8.90764 13.1973 7.98289C12.8094 7.75057 12.5331 7.7551 12.1497 7.9844C10.604 8.90613 9.03256 9.78714 7.47625 10.6908C7.23472 10.8311 7.02792 11.003 6.74111 10.7752C6.59922 10.6636 6.39241 10.5701 6.27165 10.7964C6.16598 10.997 6.30939 11.1298 6.47996 11.2354C6.59469 11.3063 6.6928 11.4028 6.79696 11.4888C6.78941 13.4967 6.78338 15.5061 6.76979 17.514C6.76828 17.7644 6.82866 17.9409 7.06415 18.0737C8.83029 19.0694 10.5904 20.0725 12.352 21.0727ZM13.2381 7.37192C14.5363 8.12319 15.7152 8.80204 16.8881 9.48844C17.5357 9.86709 18.1712 10.552 18.8188 10.561C19.483 10.5701 20.1562 9.92442 20.8234 9.55783C22.0748 8.87144 23.3232 8.18051 24.6305 7.46093C22.7556 6.37928 20.9623 5.34742 19.172 4.30953C18.9879 4.20242 18.8354 4.13454 18.615 4.26427C16.87 5.28105 15.1174 6.28726 13.2381 7.37192ZM30.975 18.5745C29.1002 19.6396 27.3431 20.6398 25.583 21.6339C25.3686 21.7546 25.346 21.9341 25.346 22.1498C25.3505 23.9737 25.3565 25.7976 25.343 27.6214C25.3399 28.0755 25.4652 28.1313 25.8441 27.9096C27.4351 26.9758 29.0337 26.0525 30.6353 25.1338C30.8799 24.9935 30.9825 24.8215 30.981 24.5334C30.9704 22.5979 30.975 20.6609 30.975 18.5745ZM12.3973 28.2626C12.3973 26.1008 12.3958 24.0567 12.3988 22.0126C12.3988 21.7878 12.2494 21.7063 12.0878 21.6128C10.4862 20.6941 8.88463 19.7769 7.28907 18.8476C6.93886 18.6439 6.76375 18.6243 6.76677 19.1146C6.77885 20.9415 6.7713 22.7668 6.76979 24.5937C6.76979 24.8019 6.76073 25.0056 6.97811 25.1323C8.75028 26.1536 10.5194 27.1764 12.3973 28.2626Z" fill="#102331"/>
<path d="M136.698 18.2766C137.276 17.5978 137.975 17.1603 138.859 17.0834C140.588 16.934 141.851 17.9433 141.949 19.7053C142.044 21.413 141.973 23.1282 141.99 24.8404C141.993 25.1195 141.883 25.1829 141.629 25.1798C140.807 25.1678 139.982 25.1557 139.161 25.1844C138.761 25.198 138.723 25.0139 138.726 24.6926C138.739 23.3681 138.749 22.0435 138.722 20.7205C138.707 19.9496 138.156 19.6374 137.52 19.9828C137.212 20.1503 137.166 20.4098 137.169 20.7311C137.181 22.0088 137.143 23.2896 137.188 24.5659C137.208 25.1044 137.031 25.2206 136.538 25.1874C135.878 25.1452 135.211 25.1436 134.551 25.1874C134.054 25.2206 133.879 25.0999 133.899 24.5628C133.944 23.3319 133.913 22.0978 133.91 20.8653C133.91 20.3479 133.825 19.8757 133.165 19.8621C132.604 19.8516 132.287 20.2438 132.287 20.9091C132.285 22.1416 132.27 23.3756 132.294 24.6066C132.302 25.026 132.229 25.2191 131.748 25.1889C131.019 25.1436 130.285 25.1542 129.555 25.1859C129.153 25.204 129.069 25.0607 129.07 24.685C129.087 22.3799 129.088 20.0733 129.07 17.7683C129.067 17.364 129.147 17.1965 129.591 17.2267C130.205 17.2674 130.827 17.278 131.44 17.2252C132.08 17.1709 132.465 17.2946 132.223 18.2329C133.144 17.3066 134.091 16.8842 135.224 17.1181C135.886 17.2553 136.369 17.6627 136.698 18.2766Z" fill="#022547"/>
<path d="M53.0912 19.7639C53.0912 18.1648 53.1063 16.5672 53.0807 14.9681C53.0746 14.5487 53.1833 14.4326 53.609 14.4356C56.0544 14.4567 58.5014 14.4537 60.9468 14.4386C61.3664 14.4356 61.5778 14.5065 61.54 14.9938C61.4963 15.561 61.4978 16.1373 61.54 16.7045C61.5763 17.1812 61.3831 17.2687 60.9528 17.2612C59.6048 17.237 58.2553 17.2702 56.9073 17.2415C56.4816 17.2325 56.376 17.3532 56.3669 17.7726C56.3563 18.2372 56.5949 18.2161 56.9149 18.2131C57.9202 18.2025 58.9271 18.2221 59.9324 18.2025C60.2796 18.1965 60.4275 18.287 60.4109 18.6581C60.3853 19.2283 60.3822 19.8001 60.4124 20.3703C60.4321 20.7459 60.2826 20.8274 59.9399 20.8214C58.9346 20.8033 57.9278 20.8334 56.9224 20.8063C56.5194 20.7957 56.3654 20.8787 56.3714 21.3237C56.3865 22.3209 56.3579 22.3209 57.3828 22.3209C58.6176 22.3209 59.8524 22.3405 61.0857 22.3103C61.5174 22.2998 61.6382 22.431 61.6155 22.8489C61.5823 23.487 61.5883 24.1281 61.614 24.7663C61.6276 25.1027 61.5099 25.1841 61.1868 25.1841C58.6267 25.1721 56.0665 25.1675 53.5064 25.1872C53.0973 25.1902 53.0837 25.0061 53.0852 24.6954C53.0973 23.0525 53.0912 21.4082 53.0912 19.7639Z" fill="#022547"/>
<path d="M100.627 18.0242C102.112 16.5036 104.472 16.9003 105.58 18.5929C106.523 20.0366 106.532 22.3266 105.604 23.7975C104.639 25.3257 102.413 26.0694 100.665 24.4748C100.763 25.1673 100.384 25.217 99.8706 25.1869C99.1883 25.1476 98.4999 25.1627 97.8161 25.1838C97.5006 25.1929 97.3829 25.116 97.3829 24.7735C97.395 21.4652 97.392 18.1569 97.3859 14.8487C97.3859 14.5741 97.4342 14.4323 97.7558 14.4398C98.5769 14.4594 99.4011 14.461 100.222 14.4398C100.576 14.4308 100.636 14.5847 100.633 14.8894C100.618 15.885 100.627 16.8837 100.627 18.0242ZM100.565 21.2254C100.565 22.3191 100.87 22.6992 101.75 22.6977C102.536 22.6977 103.098 22.0732 103.092 21.2073C103.084 20.3278 102.529 19.7243 101.735 19.7364C100.846 19.7515 100.565 20.109 100.565 21.2254Z" fill="#022547"/>
<path d="M68.021 24.3634C66.4435 26.0485 64.0041 25.4013 63.0033 23.763C62.0599 22.2197 62.1338 19.8422 63.195 18.397C64.2849 16.9126 66.6171 16.5174 67.9847 18.0335C67.8489 17.1163 68.4134 17.2128 68.9508 17.2354C69.4761 17.2566 70.0045 17.2777 70.5253 17.2294C71.0732 17.1796 71.2619 17.3199 71.2559 17.9173C71.2226 21.1577 71.2302 24.3981 71.2513 27.6385C71.2543 28.1122 71.1426 28.2766 70.652 28.2465C69.9697 28.2027 69.2799 28.1997 68.5976 28.248C68.0904 28.2827 67.9953 28.0896 68.0104 27.631C68.0436 26.5855 68.021 25.5416 68.021 24.3634ZM68.0436 21.2196C68.0436 20.0504 67.8066 19.7457 66.8873 19.7382C66.0812 19.7306 65.5453 20.3159 65.5408 21.2075C65.5363 22.0945 66.0812 22.704 66.8707 22.698C67.7598 22.6904 68.0436 22.3329 68.0436 21.2196Z" fill="#022547"/>
<path d="M124.309 24.3289C123.603 24.9067 122.954 25.3366 122.107 25.3653C120.723 25.412 119.79 24.7226 119.487 23.3724C119.408 23.0194 119.367 22.6498 119.364 22.2878C119.351 20.7807 119.373 19.2737 119.349 17.7666C119.343 17.3548 119.44 17.2024 119.878 17.225C120.607 17.2627 121.342 17.2643 122.071 17.225C122.545 17.1994 122.638 17.3804 122.631 17.8104C122.607 19.0881 122.605 20.3674 122.631 21.6451C122.646 22.4296 123.275 22.7675 123.959 22.41C124.248 22.2606 124.306 22.0389 124.303 21.7372C124.291 20.4126 124.314 19.0881 124.288 17.7651C124.281 17.3518 124.38 17.2024 124.817 17.225C125.546 17.2627 126.279 17.2537 127.01 17.2281C127.402 17.2145 127.575 17.2884 127.57 17.7425C127.547 20.0717 127.552 22.3994 127.567 24.7286C127.57 25.0998 127.445 25.1948 127.096 25.1827C126.433 25.1601 125.769 25.1526 125.108 25.1827C124.536 25.2114 124.051 25.2099 124.309 24.3289Z" fill="#052849"/>
<path d="M77.4933 24.3484C76.9197 24.8749 76.3113 25.2943 75.5143 25.3547C74.0108 25.4678 72.85 24.6577 72.7443 23.1597C72.613 21.2981 72.6854 19.423 72.6658 17.5539C72.6628 17.3215 72.7579 17.234 72.9904 17.2355C73.8357 17.2431 74.6795 17.2552 75.5249 17.231C75.9264 17.2205 75.8887 17.4618 75.8887 17.7168C75.8871 18.9945 75.872 20.2708 75.8947 21.5485C75.9098 22.4175 76.4819 22.7735 77.208 22.4311C77.5627 22.2636 77.614 21.9966 77.611 21.6511C77.5989 20.3734 77.6306 19.0956 77.5944 17.8209C77.5808 17.323 77.7484 17.2054 78.2133 17.2295C78.9198 17.2672 79.6293 17.2521 80.3357 17.234C80.6603 17.225 80.8263 17.2702 80.8233 17.6655C80.8052 20.037 80.8112 22.4084 80.8187 24.7814C80.8203 25.056 80.7735 25.1932 80.4504 25.1857C79.6292 25.1646 78.8066 25.1616 77.9854 25.1842C77.3031 25.1993 77.765 24.6245 77.4933 24.3484Z" fill="#022547"/>
<path d="M87.2444 19.0829C87.2444 17.7132 87.2595 16.3434 87.2353 14.9751C87.2278 14.5693 87.3078 14.4079 87.7531 14.432C88.4822 14.4728 89.2158 14.4667 89.9449 14.4335C90.3691 14.4139 90.4868 14.5467 90.4823 14.9691C90.4612 17.2289 90.4672 19.4887 90.4778 21.7486C90.4793 22.1755 90.3344 22.7367 91.1103 22.6643C91.3095 22.6462 91.2612 22.8528 91.2642 22.975C91.2718 23.408 91.2673 23.8425 91.2673 24.2754C91.2673 25.2017 91.2552 25.2228 90.3465 25.3194C90.031 25.3525 89.7079 25.3691 89.3909 25.3525C88.0248 25.2771 87.2912 24.5575 87.258 23.1923C87.2233 21.824 87.2504 20.4542 87.2504 19.0844C87.2504 19.0829 87.2474 19.0829 87.2444 19.0829Z" fill="#052849"/>
<path d="M25.3442 28.8998C27.0892 27.8694 28.8342 26.8406 30.5777 25.8102C30.8796 25.6322 30.9762 25.7393 30.9762 26.0621C30.9702 27.9569 30.9656 29.8501 30.9807 31.7449C30.9838 32.0919 30.7769 32.2156 30.5339 32.3544C28.81 33.3364 27.0892 34.3215 25.3668 35.3066C25.3593 33.1705 25.3517 31.0359 25.3442 28.8998Z" fill="#1891FC"/>
<path d="M37.1246 15.0039C37.1322 17.0284 37.1367 19.0544 37.1503 21.0789C37.1518 21.3022 37.1035 21.4606 36.8937 21.5813C35.1426 22.586 33.3961 23.5982 31.559 24.6602C31.559 22.4351 31.559 20.3095 31.559 18.1855C33.1923 17.2396 34.8256 16.2922 36.4619 15.3479C36.6763 15.2242 36.9027 15.1186 37.1246 15.0039Z" fill="#1891FC"/>
<path d="M12.4161 35.3808C10.6846 34.3731 8.95472 33.3624 7.21877 32.3637C6.96819 32.2189 6.76742 32.0967 6.76893 31.7572C6.7795 29.7765 6.77346 27.7942 6.77346 25.6445C8.7464 26.8076 10.6107 27.9074 12.4749 29.0071C12.4553 31.1312 12.4357 33.2568 12.4161 35.3808Z" fill="#A3D5FB"/>
<path d="M6.17774 18.0398C6.17774 20.1593 6.17774 22.2788 6.17774 24.504C5.2041 23.9428 4.2848 23.4118 3.3655 22.8808C2.57602 22.4252 1.78503 21.9711 0.995552 21.514C0.799314 21.4009 0.594019 21.3118 0.600057 21.0177C0.643833 19.0113 0.523072 17.0049 0.666476 15C1.69144 15.3289 2.53225 16.0002 3.46362 16.5055C4.37537 17.0019 5.27354 17.5268 6.17774 18.0398Z" fill="#A3D5FB"/>
<path d="M110.571 18.3934C111.283 17.6421 111.959 17.099 112.922 17.0643C113.306 17.0507 113.513 17.1035 113.484 17.5682C113.443 18.25 113.457 18.938 113.479 19.6228C113.493 20.0015 113.41 20.178 112.989 20.0679C112.584 19.9608 112.172 20.0151 111.765 20.0935C110.78 20.2866 110.568 20.5431 110.568 21.5493C110.568 22.5992 110.549 23.6507 110.577 24.7007C110.587 25.0959 110.462 25.2015 110.08 25.1879C109.327 25.1593 108.572 25.1668 107.817 25.1849C107.485 25.194 107.327 25.1382 107.33 24.7459C107.348 22.3941 107.345 20.0422 107.331 17.6904C107.33 17.3268 107.45 17.2197 107.805 17.2318C108.49 17.2559 109.179 17.2755 109.861 17.2272C110.409 17.188 110.685 17.3178 110.571 17.9151C110.554 18.0223 110.571 18.1384 110.571 18.3934Z" fill="#052849"/>
<path d="M92.5258 21.1289C92.5258 20.0125 92.5394 18.8962 92.5183 17.7799C92.5108 17.3906 92.5772 17.2006 93.0346 17.2247C93.7848 17.2639 94.5396 17.2488 95.2913 17.2292C95.6219 17.2202 95.7759 17.2775 95.7728 17.6667C95.7547 20.0367 95.7577 22.4051 95.7713 24.7751C95.7728 25.1205 95.6475 25.1899 95.3366 25.1824C94.5622 25.1643 93.7848 25.1552 93.0104 25.1854C92.6119 25.202 92.5108 25.0632 92.5168 24.6831C92.5394 23.4988 92.5258 22.3146 92.5258 21.1289Z" fill="#052849"/>
<path d="M85.6449 21.2015C85.6449 22.3661 85.6282 23.5292 85.6539 24.6939C85.663 25.0846 85.5437 25.2007 85.1573 25.1857C84.404 25.157 83.6493 25.166 82.896 25.1826C82.573 25.1902 82.4115 25.1434 82.4145 24.7482C82.4341 22.3978 82.4311 20.046 82.4175 17.6956C82.416 17.3456 82.5035 17.2159 82.8734 17.2295C83.6493 17.2566 84.4282 17.2581 85.2026 17.2295C85.586 17.2159 85.6554 17.3743 85.6509 17.7092C85.6358 18.8738 85.6449 20.0384 85.6449 21.2015Z" fill="#022547"/>
<path d="M114.664 21.1319C114.664 20.0141 114.679 18.8947 114.656 17.7769C114.649 17.3862 114.712 17.2006 115.168 17.2247C115.92 17.2655 116.676 17.2534 117.429 17.2278C117.794 17.2157 117.893 17.3409 117.891 17.6939C117.877 20.0443 117.874 22.3961 117.894 24.7465C117.897 25.1387 117.736 25.1885 117.411 25.1809C116.658 25.1643 115.903 25.1553 115.15 25.1839C114.762 25.199 114.647 25.0798 114.656 24.6921C114.679 23.5064 114.664 22.3192 114.664 21.1319Z" fill="#022547"/>
<path d="M30.956 4.33594C30.956 6.33026 30.956 8.32459 30.956 10.4833C29.14 9.40774 27.4297 8.39549 25.7194 7.38324C27.4403 6.32423 29.1762 5.29237 30.956 4.33594Z" fill="#1891FC"/>
<path d="M11.9614 7.40605C10.2692 8.40774 8.57706 9.40942 6.77771 10.4745C6.77771 8.32476 6.77771 6.32742 6.77771 4.33008C8.52725 5.31819 10.3085 6.2535 11.9614 7.40605Z" fill="#A3D5FB"/>
<path d="M24.7849 35.3519C23.0217 34.3366 21.2571 33.3213 19.4185 32.2638C21.2828 31.1988 23.0519 30.1865 24.8211 29.1758C24.809 31.235 24.7969 33.2927 24.7849 35.3519Z" fill="#A3D5FB"/>
<path d="M12.9634 29.2852C13.1642 29.3862 13.371 29.4783 13.5657 29.5899C15.0813 30.4649 16.5953 31.3459 18.2482 32.3038C16.4368 33.3447 14.7175 34.3328 12.9996 35.3209C12.897 33.3085 12.9649 31.2961 12.9634 29.2852Z" fill="#1891FC"/>
<path d="M116.256 13.254C117.255 13.242 118.098 14.0581 118.108 15.0477C118.119 16.0615 117.335 16.8671 116.316 16.8897C115.29 16.9123 114.505 16.149 114.479 15.1035C114.454 14.0898 115.246 13.2661 116.256 13.254Z" fill="#052849"/>
<path d="M84.0191 16.8876C83.0001 16.8786 82.2076 16.0745 82.2122 15.0547C82.2167 14.047 83.0303 13.2489 84.0462 13.252C85.0395 13.2565 85.8547 14.0832 85.8531 15.0864C85.8531 16.0896 85.0305 16.8982 84.0191 16.8876Z" fill="#052849"/>
<path d="M92.3452 14.9819C92.3875 13.9832 93.2298 13.2184 94.2487 13.2531C95.1967 13.2848 96.0103 14.1447 95.9877 15.089C95.962 16.1465 95.1273 16.9325 94.0782 16.8872C93.0758 16.842 92.303 15.9926 92.3452 14.9819Z" fill="#052849"/>
<path d="M12.9782 22.188C12.5178 21.9572 12.379 21.5469 12.3533 21.0732C12.3563 19.1136 12.3593 17.1554 12.3608 15.1958C12.3608 14.9484 12.4031 14.6829 12.1284 14.5305C10.3396 13.5394 8.62931 12.4095 6.79977 11.4908C6.6941 11.4063 6.59598 11.3082 6.48277 11.2373C6.31219 11.1317 6.16879 10.9975 6.27445 10.7983C6.39371 10.5721 6.60202 10.6656 6.74392 10.7772C7.03073 11.005 7.23753 10.833 7.47905 10.6927C9.03537 9.78911 10.6068 8.9066 12.1525 7.98637C12.536 7.75707 12.8122 7.75254 13.2001 7.98486C14.7444 8.90961 16.3143 9.79062 17.8706 10.6958C18.1333 10.8496 18.3718 11.0337 18.6722 10.7833C18.7235 10.741 18.8216 10.6807 18.8533 10.7003C19.6866 11.2373 20.2058 10.4891 20.8006 10.1889C22.1426 9.51153 23.4573 8.77686 24.7586 8.02408C25.1118 7.81892 25.3609 7.85965 25.6794 8.04822C27.1919 8.93828 28.712 9.81325 30.2336 10.6867C30.4344 10.8029 30.62 11.0216 30.9099 10.827C31.0548 10.7305 31.2736 10.5147 31.4155 10.8029C31.5152 11.005 31.3808 11.1875 31.168 11.2931C31.0895 11.3309 31.0291 11.4063 30.9612 11.4636C29.189 12.4834 27.4183 13.5062 25.6416 14.5185C25.4107 14.6497 25.3382 14.8187 25.3397 15.0706C25.3548 17.0725 25.3609 19.0758 25.3699 21.0777C25.3971 21.5605 25.2174 21.9301 24.7782 22.1548C22.9939 23.1641 21.2097 24.1733 19.4254 25.1825C19.2352 25.2896 19.119 25.4239 19.122 25.6683C19.1446 27.6973 19.1567 29.7278 19.1733 31.7569C19.1612 31.7991 19.1461 31.8413 19.1386 31.8851C19.0978 32.128 19.2126 32.5247 18.8744 32.5323C18.5348 32.5398 18.6405 32.125 18.565 31.8896C18.5514 31.8474 18.5378 31.8051 18.5242 31.7629C18.5288 30.2136 18.4457 28.6583 18.5635 27.1165C18.6616 25.8357 18.3491 25.0105 17.0932 24.4584C15.6622 23.8309 14.4002 22.8563 12.9782 22.188ZM18.565 11.3656C18.3325 11.5345 18.1121 11.7246 17.8661 11.8679C16.3958 12.7293 14.9195 13.5801 13.4447 14.434C13.2092 14.5698 12.9586 14.6708 12.9616 15.0208C12.9737 17.0197 12.8847 19.0185 13.0099 21.0159C12.939 21.1924 12.8862 21.396 13.0613 21.5152C13.2454 21.6419 13.3934 21.4458 13.5413 21.3613C15.1369 20.4441 16.7385 19.536 18.3174 18.5916C18.6978 18.3638 18.9665 18.3487 19.3545 18.5841C20.947 19.5495 22.5697 20.4652 24.1698 21.4202C24.5804 21.6645 24.8069 21.6917 24.7782 21.12C24.7918 19.2297 24.7827 17.3395 24.831 15.4493C24.8461 14.879 24.6393 14.5743 24.1442 14.3405C23.6113 14.0885 23.1252 13.7385 22.603 13.4625C21.4587 12.8575 20.4217 12.058 19.202 11.5903C19.0677 11.2916 18.8246 11.3067 18.565 11.3656Z" fill="#FEFEFE"/>
<path d="M19.1728 31.7563C19.1577 29.7273 19.1442 27.6968 19.1215 25.6677C19.1185 25.4234 19.2347 25.2891 19.4249 25.182C21.2092 24.1728 22.9934 23.1635 24.7777 22.1543C24.7807 24.0943 24.7747 26.0358 24.7943 27.9759C24.7988 28.3651 24.6811 28.5929 24.3324 28.789C22.6055 29.7635 20.8922 30.7652 19.1728 31.7563Z" fill="#1891FC"/>
<path d="M13.2388 7.37246C15.1182 6.2878 16.8707 5.28158 18.6157 4.2633C18.8361 4.13507 18.9886 4.20296 19.1728 4.30856C20.9631 5.34645 22.7564 6.37831 24.6312 7.45995C23.3239 8.18105 22.0756 8.87197 20.8242 9.55686C20.1585 9.92193 19.4837 10.5676 18.8195 10.5601C18.1719 10.5525 17.5349 9.86611 16.8889 9.48746C15.7144 8.80257 14.537 8.12372 13.2388 7.37246Z" fill="#FEFEFE"/>
<path d="M25.3705 21.077C25.3614 19.0751 25.3554 17.0717 25.3403 15.0699C25.3388 14.8179 25.4112 14.649 25.6422 14.5177C27.4189 13.5055 29.1896 12.4827 30.9618 11.4629C30.9678 13.4693 30.9708 15.4757 30.9814 17.4821C30.9829 17.7491 30.9421 17.9512 30.6734 18.1006C28.8997 19.0842 27.1351 20.0828 25.3705 21.077Z" fill="#1891FC"/>
<path d="M30.9753 18.5742C30.9753 20.6606 30.9708 22.5976 30.9813 24.5346C30.9828 24.8227 30.8802 24.9947 30.6356 25.135C29.0355 26.0537 27.4355 26.9754 25.8444 27.9107C25.4655 28.134 25.3402 28.0767 25.3433 27.6226C25.3568 25.7987 25.3508 23.9749 25.3463 22.151C25.3463 21.9338 25.3689 21.7558 25.5833 21.6351C27.3434 20.6394 29.1005 19.6393 30.9753 18.5742Z" fill="#1891FC"/>
<path d="M12.9791 22.1875C14.4011 22.8558 15.663 23.8303 17.0911 24.4594C18.347 25.0115 18.6594 25.8367 18.5613 27.1175C18.4436 28.6577 18.5266 30.2146 18.5221 31.7639C16.768 30.7607 15.0185 29.7484 13.2554 28.7618C12.9338 28.5823 12.9791 28.3274 12.9791 28.0634C12.9776 26.1037 12.9791 24.1456 12.9791 22.1875Z" fill="#A3D5FB"/>
<path d="M6.79763 11.4922C8.62717 12.4109 10.3375 13.5408 12.1262 14.5319C12.401 14.6843 12.3587 14.9498 12.3587 15.1972C12.3572 17.1569 12.3542 19.115 12.3512 21.0746C10.5895 20.0744 8.82945 19.0712 7.0633 18.0771C6.82782 17.9443 6.76744 17.7663 6.76895 17.5174C6.78404 15.508 6.79008 13.5001 6.79763 11.4922Z" fill="#A3D5FB"/>
<path d="M12.398 28.2611C10.5201 27.1765 8.75096 26.1522 6.98029 25.1309C6.76292 25.0057 6.77198 24.802 6.77198 24.5923C6.77349 22.7654 6.78104 20.9401 6.76896 19.1132C6.76594 18.6229 6.94104 18.6425 7.29125 18.8462C8.88682 19.7755 10.4884 20.6927 12.09 21.6114C12.2515 21.7034 12.401 21.7864 12.401 22.0111C12.3965 24.0553 12.398 26.0994 12.398 28.2611Z" fill="#A3D5FB"/>
<path d="M19.1998 11.5879C20.4195 12.0555 21.4565 12.8551 22.6007 13.46C23.123 13.7361 23.6091 14.0861 24.142 14.338C24.6371 14.5718 24.8439 14.8781 24.8288 15.4468C24.7805 17.3355 24.7896 19.2273 24.776 21.1175C23.0461 20.1038 21.3161 19.0885 19.5832 18.0793C19.3643 17.951 19.1394 17.8605 19.1454 17.5392C19.1832 15.5554 19.0805 13.5717 19.1998 11.5879Z" fill="#A3D5FB"/>
<path d="M13.0062 21.0155C12.8809 19.0182 12.9684 17.0193 12.9578 15.0205C12.9563 14.672 13.2069 14.5694 13.4409 14.4337C14.9157 13.5798 16.392 12.729 17.8623 11.8676C18.1083 11.7228 18.3287 11.5327 18.5612 11.3652C18.5612 13.2962 18.5491 15.2287 18.5718 17.1596C18.5778 17.6198 18.4495 17.8958 18.0283 18.1296C16.3407 19.0695 14.6787 20.0501 13.0062 21.0155Z" fill="#1891FC"/>
<path d="M13.0095 21.0147C14.6806 20.0492 16.3441 19.0686 18.0302 18.1288C18.4514 17.895 18.5797 17.6189 18.5736 17.1588C18.551 15.2278 18.5646 13.2954 18.5631 11.3644C18.8227 11.3056 19.0658 11.2905 19.2001 11.5877C19.0824 13.5714 19.1835 15.5552 19.1458 17.5405C19.1397 17.8618 19.3646 17.9523 19.5835 18.0805C21.3164 19.0898 23.0464 20.105 24.7763 21.1188C24.805 21.6905 24.5785 21.6634 24.1679 21.419C22.5678 20.4656 20.9451 19.5484 19.3526 18.5829C18.9646 18.3475 18.6959 18.3626 18.3155 18.5904C16.7366 19.5348 15.135 20.4429 13.5394 21.3601C13.3915 21.4446 13.2435 21.6407 13.0594 21.514C12.8858 21.3948 12.9386 21.1912 13.0095 21.0147Z" fill="#102331"/>
</svg>
