<svg width="80" height="80" viewBox="0 0 80 80" fill="none" xmlns="http://www.w3.org/2000/svg">
<circle cx="40" cy="40" r="39.85" fill="white" stroke="#8B8B8B" stroke-width="0.3"/>
<path d="M22.2868 40.5128C22.2995 40.507 22.3123 40.507 22.325 40.5128C22.471 40.5035 22.5915 40.4236 22.7189 40.3656C27.7364 38.0857 32.7527 35.8035 37.7713 33.5258C38.5255 33.1841 39.2681 32.8145 40.042 32.5156C40.0489 32.694 40.0617 32.8736 40.0617 33.052C40.064 39.0496 40.0652 45.0483 40.0663 51.0459C39.925 51.0424 39.823 50.9497 39.7107 50.8837C34.012 47.5159 28.3145 44.147 22.6158 40.7792C22.5116 40.7178 22.4154 40.6344 22.2856 40.6263C22.2868 40.5881 22.2868 40.5498 22.2868 40.5128Z" fill="#393939"/>
<path d="M40.0658 51.0457C40.0647 45.0482 40.0635 39.0494 40.0612 33.0519C40.0612 32.8735 40.0485 32.6939 40.0415 32.5155L40.0438 32.5132C40.133 32.5421 40.2269 32.5618 40.3114 32.6012C42.7918 33.7261 45.271 34.8522 47.749 35.9794C50.7507 37.3453 53.7512 38.7146 56.7552 40.0736C57.0703 40.2161 57.3634 40.4211 57.7225 40.4547L57.7191 40.4535C57.7399 40.4732 57.7596 40.4929 57.7805 40.5126C57.7978 40.5115 57.8164 40.5115 57.8338 40.5115C57.8338 40.53 57.8338 40.5497 57.8338 40.5682C56.0995 41.5958 54.3652 42.6246 52.6309 43.651C49.8911 45.2729 47.1512 46.8948 44.4102 48.5156C43.0559 49.3172 41.7028 50.1189 40.3473 50.9183C40.2605 50.9716 40.1608 51.004 40.0658 51.0457Z" fill="#141414"/>
<path d="M40.0776 68.8833C39.9363 68.9146 39.9235 68.7814 39.8737 68.7119C38.6005 66.9243 37.3308 65.1344 36.0599 63.3434C31.5742 57.0203 27.0885 50.6983 22.6028 44.3753C22.524 44.264 22.4441 44.154 22.3618 44.0381C22.473 43.9999 22.5333 44.0775 22.6016 44.1181C23.6315 44.724 24.6603 45.3322 25.6902 45.9404C27.7164 47.1371 29.7415 48.3338 31.7665 49.5306C34.4264 51.1027 37.0864 52.6748 39.7463 54.2468C39.8517 54.3094 39.9537 54.3754 40.0579 54.4403C40.0579 59.1137 40.0579 63.7871 40.0591 68.4605C40.0591 68.6018 40.0707 68.742 40.0776 68.8833Z" fill="#8B8B8B"/>
<path d="M40.0788 68.8847C40.073 68.7433 40.0602 68.6032 40.0602 68.4618C40.0591 63.7884 40.0591 59.115 40.0591 54.4416C42.0065 53.2889 43.9528 52.1339 45.9014 50.9824C49.7013 48.736 53.5012 46.492 57.3022 44.248C57.4157 44.1808 57.5351 44.1252 57.6521 44.0649C57.6648 44.0765 57.6764 44.0893 57.6892 44.1009C57.1261 44.9836 56.4947 45.8189 55.8888 46.6716C50.7057 53.9782 45.5179 61.2826 40.3302 68.5858C40.256 68.6924 40.2004 68.8175 40.0788 68.8847Z" fill="#3C3C3B"/>
<path d="M40.0417 32.5158C39.2678 32.8147 38.5252 33.1842 37.771 33.526C32.7524 35.8036 27.7361 38.0859 22.7186 40.3658C22.5912 40.4237 22.4707 40.5037 22.3247 40.5129C23.7369 38.1635 25.148 35.814 26.5625 33.4658C30.9903 26.1151 35.4204 18.7655 39.8494 11.4149C39.898 11.3338 39.9397 11.2457 40.0034 11.1797C40.0672 11.1148 40.0602 11.2052 40.0799 11.2341C40.0729 11.3743 40.059 11.5156 40.059 11.6558C40.0579 18.4574 40.0579 25.2589 40.0579 32.0605C40.0579 32.2111 40.0498 32.3617 40.0451 32.5123L40.0417 32.5158Z" fill="#8B8B8B"/>
<path d="M40.0439 32.5128C40.0486 32.3622 40.0567 32.2116 40.0567 32.061C40.0578 25.2594 40.0567 18.4579 40.0578 11.6563C40.0578 11.5161 40.0717 11.3748 40.0787 11.2346C40.2166 11.2728 40.249 11.4038 40.3104 11.5045C43.1649 16.2382 46.0172 20.973 48.8706 25.7066C51.7726 30.5213 54.6747 35.3361 57.5755 40.152C57.6335 40.2481 57.7053 40.3385 57.7227 40.4555C57.3635 40.4219 57.0704 40.2168 56.7553 40.0743C53.7502 38.7154 50.7508 37.3461 47.7491 35.9802C45.2699 34.853 42.7908 33.7269 40.3116 32.602C40.227 32.5626 40.1343 32.5418 40.0439 32.5128Z" fill="#343434"/>
</svg>
