<svg width="40" height="34" viewBox="0 0 40 34" fill="none" xmlns="http://www.w3.org/2000/svg">
<path d="M20.1045 7.25079C20.7963 7.25079 21.3571 6.68998 21.3571 5.99824V2.10255C21.3571 1.41081 20.7963 0.85 20.1045 0.85C19.4128 0.85 18.852 1.41081 18.852 2.10255V5.99824C18.852 6.69006 19.4128 7.25079 20.1045 7.25079Z" fill="white" stroke="white" stroke-width="0.3"/>
<path d="M13.9178 9.0791C13.9178 9.0791 13.9178 9.0791 13.9179 9.07911C14.4069 9.56827 15.2001 9.56835 15.6892 9.0791C16.1784 8.58994 16.1784 7.7969 15.6892 7.30774L12.9345 4.55306C12.9345 4.55306 12.9345 4.55306 12.9345 4.55305C12.4454 4.06388 11.6523 4.0639 11.1632 4.55305C10.674 5.04222 10.674 5.83525 11.1632 6.32442L13.9178 9.0791Z" fill="white" stroke="white" stroke-width="0.3"/>
<path d="M25.4061 9.44602C25.7264 9.44602 26.0472 9.32375 26.2917 9.07911C26.2917 9.0791 26.2917 9.07908 26.2917 9.07907L29.0464 6.32442C29.5356 5.83525 29.5356 5.04222 29.0464 4.55305C28.5573 4.06388 27.7642 4.0639 27.275 4.55305L24.5203 7.30774C23.728 8.10004 24.3007 9.44602 25.4061 9.44602Z" fill="white" stroke="white" stroke-width="0.3"/>
<path d="M4.13492 22.31L4.27809 22.3548L4.13492 22.31L1.19478 31.7185C0.943264 32.5232 1.54443 33.3446 2.3903 33.3446H37.819C38.6621 33.3446 39.2667 32.5259 39.0145 31.7185L36.0744 22.31C35.911 21.7871 35.4266 21.4311 34.8789 21.4311H29.8459L27.1804 12.9016C27.017 12.3787 26.5327 12.0226 25.9849 12.0226H14.2244C13.6765 12.0226 13.1923 12.3787 13.0288 12.9016L13.172 12.9463L13.0288 12.9016L10.3633 21.4311H5.33044C4.78257 21.4311 4.29833 21.7871 4.13492 22.31ZM12.9879 21.4311L15.1452 14.5277L25.0641 14.5277L27.2213 21.4311H27.2213H27.2074H27.1933H27.1791H27.1646H27.15H27.1351H27.1201H27.1048H27.0894H27.0738H27.058H27.0419H27.0257H27.0093H26.9928H26.976H26.959H26.9419H26.9245H26.907H26.8893H26.8714H26.8534H26.8351H26.8167H26.7981H26.7793H26.7603H26.7412H26.7219H26.7024H26.6827H26.6628H26.6428H26.6226H26.6023H26.5817H26.561H26.5401H26.5191H26.4979H26.4765H26.455H26.4333H26.4114H26.3893H26.3671H26.3448H26.3223H26.2996H26.2768H26.2538H26.2306H26.2073H26.1838H26.1602H26.1364H26.1125H26.0884H26.0642H26.0398H26.0153H25.9906H25.9658H25.9408H25.9157H25.8904H25.865H25.8394H25.8137H25.7879H25.7619H25.7358H25.7095H25.6831H25.6566H25.6299H25.6031H25.5761H25.549H25.5218H25.4945H25.467H25.4394H25.4116H25.3838H25.3558H25.3276H25.2994H25.271H25.2425H25.2138H25.1851H25.1562H25.1272H25.0981H25.0688H25.0395H25.01H24.9804H24.9507H24.9208H24.8909H24.8608H24.8306H24.8004H24.77H24.7394H24.7088H24.6781H24.6473H24.6163H24.5853H24.5541H24.5228H24.4915H24.46H24.4284H24.3967H24.3649H24.3331H24.3011H24.269H24.2368H24.2046H24.1722H24.1397H24.1072H24.0745H24.0418H24.009H23.976H23.943H23.9099H23.8767H23.8434H23.8101H23.7766H23.7431H23.7095H23.6758H23.642H23.6081H23.5742H23.5401H23.506H23.4718H23.4376H23.4032H23.3688H23.3343H23.2997H23.2651H23.2304H23.1956H23.1608H23.1258H23.0908H23.0558H23.0207H22.9855H22.9502H22.9149H22.8795H22.844H22.8085H22.773H22.7373H22.7016H22.6659H22.6301H22.5942H22.5583H22.5223H22.4862H22.4502H22.414H22.3778H22.3416H22.3053H22.2689H22.2325H22.1961H22.1596H22.1231H22.0865H22.0498H22.0132H21.9765H21.9397H21.9029H21.8661H21.8292H21.7923H21.7553H21.7183H21.6813H21.6443H21.6072H21.57H21.5329H21.4957H21.4584H21.4212H21.3839H21.3466H21.3092H21.2719H21.2345H21.1971H21.1596H21.1221H21.0847H21.0471H21.0096H20.9721H20.9345H20.8969H20.8593H20.8217H20.784H20.7464H20.7087H20.671H20.6333H20.5956H20.5579H20.5201H20.4824H20.4446H20.4069H20.3691H20.3314H20.2936H20.2558H20.218H20.1802H20.1425H20.1047H20.0669H20.0291H19.9913H19.9535H19.9158H19.878H19.8402H19.8025H19.7647H19.7269H19.6892H19.6515H19.6138H19.576H19.5383H19.5007H19.463H19.4253H19.3877H19.3501H19.3125H19.2749H19.2373H19.1997H19.1622H19.1247H19.0872H19.0497H19.0123H18.9749H18.9375H18.9001H18.8628H18.8254H18.7882H18.7509H18.7137H18.6765H18.6393H18.6022H18.5651H18.528H18.491H18.454H18.4171H18.3801H18.3433H18.3064H18.2696H18.2329H18.1962H18.1595H18.1229H18.0863H18.0497H18.0133H17.9768H17.9404H17.9041H17.8678H17.8315H17.7953H17.7592H17.7231H17.6871H17.6511H17.6152H17.5793H17.5435H17.5077H17.472H17.4364H17.4008H17.3653H17.3298H17.2945H17.2591H17.2239H17.1887H17.1536H17.1185H17.0835H17.0486H17.0137H16.9789H16.9442H16.9096H16.875H16.8405H16.8061H16.7718H16.7375H16.7033H16.6692H16.6352H16.6012H16.5674H16.5336H16.4999H16.4663H16.4327H16.3993H16.3659H16.3326H16.2994H16.2663H16.2333H16.2004H16.1675H16.1348H16.1022H16.0696H16.0371H16.0048H15.9725H15.9403H15.9082H15.8763H15.8444H15.8126H15.7809H15.7493H15.7179H15.6865H15.6552H15.6241H15.593H15.5621H15.5312H15.5005H15.4699H15.4394H15.409H15.3787H15.3485H15.3184H15.2885H15.2587H15.2289H15.1993H15.1699H15.1405H15.1113H15.0821H15.0531H15.0242H14.9955H14.9669H14.9383H14.91H14.8817H14.8536H14.8256H14.7977H14.7699H14.7423H14.7149H14.6875H14.6603H14.6332H14.6062H14.5794H14.5528H14.5262H14.4998H14.4735H14.4474H14.4214H14.3956H14.3699H14.3443H14.3189H14.2937H14.2685H14.2436H14.2187H14.194H14.1695H14.1451H14.1209H14.0968H14.0729H14.0491H14.0255H14.002H13.9787H13.9556H13.9326H13.9097H13.887H13.8645H13.8422H13.82H13.7979H13.7761H13.7544H13.7328H13.7114H13.6902H13.6692H13.6483H13.6276H13.6071H13.5867H13.5665H13.5465H13.5266H13.507H13.4875H13.4681H13.449H13.43H13.4112H13.3926H13.3742H13.3559H13.3379H13.32H13.3023H13.2848H13.2674H13.2503H13.2333H13.2165H13.2H13.1836H13.1674H13.1513H13.1355H13.1199H13.1045H13.0892H13.0742H13.0593H13.0447H13.0302H13.016H13.0019H12.988H12.9879ZM21.3411 23.9362L20.1046 27.8928L18.8682 23.9362H21.3411ZM16.2436 23.9362L18.4009 30.8395H4.09402L6.25131 23.9362H16.2436ZM33.9579 23.9362L36.1152 30.8395L21.8084 30.8395L23.9657 23.9362H33.9579Z" fill="white" stroke="white" stroke-width="0.3"/>
</svg>
