<svg width="167" height="36" viewBox="0 0 167 36" xmlns="http://www.w3.org/2000/svg">
<path d="M83.6998 12.7431C80.3319 12.7431 77.5805 15.2456 77.5805 18.6983C77.5805 22.123 80.3319 24.6518 83.6998 24.6518C87.0749 24.6518 89.8262 22.123 89.8262 18.6983C89.8262 15.2456 87.0749 12.7431 83.6998 12.7431ZM83.6998 22.3068C81.8518 22.3068 80.262 20.8175 80.262 18.6983C80.262 16.5511 81.8518 15.0881 83.6998 15.0881C85.5478 15.0881 87.1448 16.5511 87.1448 18.6983C87.1448 20.8175 85.5478 22.3068 83.6998 22.3068ZM70.3482 12.7431C66.9731 12.7431 64.2289 15.2456 64.2289 18.6983C64.2289 22.123 66.9731 24.6518 70.3482 24.6518C73.7215 24.6518 76.4675 22.123 76.4675 18.6983C76.4675 15.2456 73.7215 12.7431 70.3482 12.7431ZM70.3482 22.3068C68.4984 22.3068 66.9032 20.8175 66.9032 18.6983C66.9032 16.5511 68.4984 15.0881 70.3482 15.0881C72.1962 15.0881 73.786 16.5511 73.786 18.6983C73.786 20.8175 72.1962 22.3068 70.3482 22.3068ZM54.4603 14.5683V17.0988H60.6495C60.4685 18.5128 59.9845 19.5523 59.2424 20.2768C58.3391 21.1518 56.932 22.123 54.4603 22.123C50.6515 22.123 47.6689 19.1218 47.6689 15.4031C47.6689 11.6843 50.6515 8.68305 54.4603 8.68305C56.5198 8.68305 58.0182 9.4688 59.1242 10.4873L60.9506 8.70405C59.4038 7.26205 57.3461 6.1543 54.4603 6.1543C49.2373 6.1543 44.8477 10.3036 44.8477 15.4031C44.8477 20.5026 49.2373 24.6518 54.4603 24.6518C57.2834 24.6518 59.4038 23.7488 61.0707 22.0548C62.7789 20.387 63.3112 18.042 63.3112 16.1485C63.3112 15.5605 63.261 15.0198 63.1714 14.5683H54.4603ZM119.428 16.53C118.924 15.1983 117.37 12.7431 114.205 12.7431C111.068 12.7431 108.456 15.1563 108.456 18.6983C108.456 22.0338 111.041 24.6518 114.506 24.6518C117.307 24.6518 118.924 22.984 119.589 22.0128L117.51 20.66C116.816 21.6505 115.872 22.3068 114.506 22.3068C113.149 22.3068 112.176 21.6995 111.552 20.5025L119.709 17.2073L119.428 16.53ZM111.111 18.5128C111.041 16.2168 112.937 15.0408 114.296 15.0408C115.361 15.0408 116.264 15.5606 116.565 16.3043L111.111 18.5128ZM104.481 24.2895H107.162V6.78955H104.481V24.2895ZM100.09 14.0696H99.9999C99.3977 13.373 98.2488 12.7431 96.7933 12.7431C93.7391 12.7431 90.9465 15.3611 90.9465 18.7175C90.9465 22.0548 93.7391 24.6518 96.7933 24.6518C98.2488 24.6518 99.3977 24.0165 99.9999 23.299H100.09V24.153C100.09 26.4298 98.8438 27.653 96.8345 27.653C95.1963 27.653 94.18 26.498 93.7606 25.5268L91.4286 26.477C92.1008 28.0555 93.8807 29.998 96.8345 29.998C99.9784 29.998 102.631 28.192 102.631 23.7978V13.1053H100.09V14.0696ZM97.0227 22.3068C95.1748 22.3068 93.6279 20.7965 93.6279 18.7175C93.6279 16.6193 95.1748 15.0881 97.0227 15.0881C98.8438 15.0881 100.28 16.6193 100.28 18.7175C100.28 20.7965 98.8438 22.3068 97.0227 22.3068ZM131.982 6.78955H125.569V24.2895H128.243V17.6588H131.982C134.952 17.6588 137.864 15.5605 137.864 12.2233C137.864 8.8878 134.945 6.78955 131.982 6.78955ZM132.052 15.2245H128.243V9.2238H132.052C134.048 9.2238 135.188 10.8426 135.188 12.2233C135.188 13.5778 134.048 15.2245 132.052 15.2245ZM148.583 12.7098C146.651 12.7098 144.642 13.5428 143.815 15.389L146.188 16.3603C146.699 15.389 147.638 15.074 148.631 15.074C150.019 15.074 151.426 15.8878 151.447 17.3246V17.5083C150.963 17.2353 149.927 16.8311 148.653 16.8311C146.097 16.8311 143.493 18.2048 143.493 20.7686C143.493 23.1135 145.586 24.6238 147.94 24.6238C149.739 24.6238 150.732 23.831 151.356 22.9088H151.447V24.2615H154.03V17.5486C154.03 14.4458 151.657 12.7098 148.583 12.7098ZM148.26 22.2998C147.386 22.2998 146.167 21.8763 146.167 20.8175C146.167 19.4631 147.687 18.9433 149.002 18.9433C150.18 18.9433 150.732 19.197 151.447 19.5313C151.238 21.1518 149.809 22.2998 148.26 22.2998ZM163.44 13.093L160.366 20.6793H160.275L157.097 13.093H154.213L158.988 23.6945L156.263 29.5938H159.058L166.416 13.093H163.44ZM139.334 24.2895H142.016V6.78955H139.334V24.2895Z"/>
<path d="M0.920093 1.19727C6.70401 7.0735 12.4793 12.939 18.3084 18.8603C17.9863 19.2253 17.7458 19.528 17.4753 19.7986C12.3613 24.8933 7.2472 29.9859 2.12669 35.0742C1.23784 35.9588 0.518611 35.7741 0.142892 34.546C0.0205155 34.1467 0.00763345 33.7023 0.00763345 33.2772C-0.0009544 23.414 -0.000954138 13.5487 0.00119283 3.6856C0.00333979 2.80749 -0.0846859 1.89073 0.920093 1.19727Z"/>
<path d="M24.1986 12.9633C22.3758 14.741 20.7012 16.377 18.917 18.1182C13.3736 12.4781 7.77858 6.78649 2.18359 1.09489C2.2523 0.985398 2.321 0.875903 2.3897 0.768555C9.62068 4.81129 16.8538 8.85402 24.1986 12.9633Z"/>
<path d="M23.6282 24.2943C17.0692 27.8947 10.6477 31.4179 4.22609 34.9432C4.18529 34.8895 4.1445 34.8359 4.10156 34.7843C5.68602 33.1677 7.26404 31.5446 8.85494 29.9322C11.9637 26.7826 15.0983 23.6566 18.1792 20.477C18.8684 19.7642 19.3021 19.7406 19.9633 20.4856C21.0948 21.7544 22.3164 22.9417 23.6282 24.2943Z"/>
<path d="M19.6348 19.144C21.5434 17.2246 23.1665 15.565 24.8347 13.9526C25.0129 13.7787 25.526 13.7443 25.7622 13.871C27.7159 14.9144 29.6632 15.9772 31.5719 17.1065C32.7549 17.8064 32.7527 19.1719 31.5504 19.8804C29.4249 21.132 27.2565 22.3107 25.0816 23.4744C24.8433 23.6032 24.3366 23.5667 24.1455 23.3928C22.6384 22.0273 21.1806 20.6125 19.6348 19.144Z"/>
</svg>
