<svg width="42" height="34" viewBox="0 0 42 34" fill="none" xmlns="http://www.w3.org/2000/svg">
<path d="M4.3552 20.9415C7.12801 20.9423 9.90116 20.9423 12.6745 20.9423C15.4478 20.9423 18.2213 20.9423 20.9947 20.943H20.9948L38.0115 14.576L38.018 14.4262C38.018 14.4262 38.018 14.4261 38.018 14.4261C37.0458 14.3835 36.0703 14.3988 35.1004 14.414C34.9275 14.4167 34.7548 14.4194 34.5823 14.4217L34.5821 14.4217C34.4056 14.4244 34.3144 14.3959 34.2592 14.3511C34.2048 14.3068 34.1559 14.2222 34.1252 14.0385C33.8753 12.5372 33.6191 11.0313 33.2997 9.53905C33.201 9.07764 33.1093 8.61075 33.0173 8.14201C32.7327 6.69167 32.4445 5.22363 31.9322 3.84547C31.3267 2.21608 30.1293 1.19652 28.7406 0.871233C27.3533 0.546287 25.7925 0.918029 24.4639 2.03437L24.5604 2.14921L24.4639 2.03438C24.4276 2.06484 24.3914 2.09529 24.3553 2.12572C23.8807 2.52499 23.4113 2.91985 22.9096 3.26568C22.2363 3.72913 21.6158 3.95319 21.006 3.95487C20.3963 3.95655 19.7779 3.73601 19.1086 3.2743C18.6882 2.98407 18.2958 2.65761 17.8975 2.32619C17.729 2.18599 17.5594 2.04489 17.3862 1.90528L17.3861 1.90524C14.885 -0.108601 11.5108 0.641153 10.1689 3.54918L10.1688 3.5493C9.84846 4.24512 9.60047 4.99327 9.44809 5.74503L9.44808 5.74508C8.90073 8.45037 8.38333 11.1631 7.91163 13.8833L7.91159 13.8835C7.86452 14.1577 7.79065 14.2795 7.70469 14.3415C7.61419 14.4068 7.47478 14.4331 7.22657 14.4261C6.24746 14.3974 5.26744 14.4089 4.29244 14.4203L4.29206 14.4203L4.29192 14.4203C2.29802 14.4455 0.855409 15.8003 0.853907 17.6815C0.853162 18.6322 1.21565 19.4501 1.83987 20.0295C2.46331 20.6083 3.33942 20.9415 4.3552 20.9415ZM4.3552 20.9415L4.35524 20.7915L4.3552 20.9415ZM33.9773 14.0632C34.043 14.4574 34.2087 14.5774 34.5844 14.5717L31.7916 3.89773C32.2993 5.26338 32.5841 6.71442 32.8683 8.16187C32.9607 8.63279 33.0531 9.10334 33.153 9.57043C33.4716 11.059 33.7273 12.5618 33.9773 14.0632ZM29.496 4.85912L29.496 4.85915C29.8919 6.09621 30.1776 7.364 30.4716 8.66867C30.5899 9.19362 30.7096 9.72455 30.8383 10.2618H30.8316H30.7922H30.7528H30.7133H30.6739H30.6345H30.5951H30.5557H30.5163H30.4769H30.4376H30.3982H30.3588H30.3194H30.2801H30.2407H30.2013H30.162H30.1226H30.0833H30.0439H30.0046H29.9653H29.9259H29.8866H29.8473H29.808H29.7687H29.7294H29.6901H29.6508H29.6115H29.5722H29.5329H29.4936H29.4543H29.415H29.3758H29.3365H29.2972H29.258H29.2187H29.1795H29.1402H29.101H29.0617H29.0225H28.9833H28.944H28.9048H28.8656H28.8264H28.7871H28.7479H28.7087H28.6695H28.6303H28.5911H28.5519H28.5127H28.4735H28.4344H28.3952H28.356H28.3168H28.2777H28.2385H28.1993H28.1602H28.121H28.0819H28.0427H28.0036H27.9644H27.9253H27.8862H27.847H27.8079H27.7688H27.7297H27.6906H27.6514H27.6123H27.5732H27.5341H27.495H27.4559H27.4168H27.3777H27.3386H27.2996H27.2605H27.2214H27.1823H27.1432H27.1042H27.0651H27.026H26.987H26.9479H26.9089H26.8698H26.8308H26.7917H26.7527H26.7136H26.6746H26.6356H26.5965H26.5575H26.5185H26.4795H26.4404H26.4014H26.3624H26.3234H26.2844H26.2454H26.2064H26.1674H26.1284H26.0894H26.0504H26.0114H25.9724H25.9334H25.8944H25.8554H25.8165H25.7775H25.7385H25.6995H25.6606H25.6216H25.5826H25.5437H25.5047H25.4658H25.4268H25.3879H25.3489H25.31H25.271H25.2321H25.1931H25.1542H25.1153H25.0763H25.0374H24.9985H24.9596H24.9206H24.8817H24.8428H24.8039H24.765H24.726H24.6871H24.6482H24.6093H24.5704H24.5315H24.4926H24.4537H24.4148H24.3759H24.337H24.2981H24.2592H24.2203H24.1815H24.1426H24.1037H24.0648H24.0259H23.9871H23.9482H23.9093H23.8704H23.8316H23.7927H23.7538H23.715H23.6761H23.6372H23.5984H23.5595H23.5207H23.4818H23.443H23.4041H23.3653H23.3264H23.2876H23.2487H23.2099H23.171H23.1322H23.0934H23.0545H23.0157H22.9769H22.938H22.8992H22.8604H22.8215H22.7827H22.7439H22.705H22.6662H22.6274H22.5886H22.5498H22.5109H22.4721H22.4333H22.3945H22.3557H22.3169H22.278H22.2392H22.2004H22.1616H22.1228H22.084H22.0452H22.0064H21.9676H21.9288H21.89H21.8512H21.8124H21.7736H21.7348H21.696H21.6572H21.6184H21.5796H21.5408H21.502H21.4632H21.4244H21.3856H21.3469H21.3081H21.2693H21.2305H21.1917H21.1529H21.1141H21.0753H21.0366H20.9978H20.959H20.9202H20.8814H20.8427H20.8039H20.7651H20.7263H20.6875H20.6488H20.61H20.5712H20.5324H20.4936H20.4549H20.4161H20.3773H20.3385H20.2998H20.261H20.2222H20.1834H20.1447H20.1059H20.0671H20.0284H19.9896H19.9508H19.912H19.8733H19.8345H19.7957H19.7569H19.7182H19.6794H19.6406H19.6019H19.5631H19.5243H19.4855H19.4468H19.408H19.3692H19.3305H19.2917H19.2529H19.2141H19.1754H19.1366H19.0978H19.0591H19.0203H18.9815H18.9427H18.904H18.8652H18.8264H18.7876H18.7489H18.7101H18.6713H18.6325H18.5938H18.555H18.5162H18.4774H18.4387H18.3999H18.3611H18.3223H18.2836H18.2448H18.206H18.1672H18.1284H18.0897H18.0509H18.0121H17.9733H17.9345H17.8957H17.857H17.8182H17.7794H17.7406H17.7018H17.663H17.6242H17.5855H17.5467H17.5079H17.4691H17.4303H17.3915H17.3527H17.3139H17.2751H17.2363H17.1975H17.1587H17.1199H17.0811H17.0423L17.0035 10.2618H16.9647H16.9259H16.8871H16.8483H16.8095H16.7707H16.7319H16.6931H16.6542H16.6154H16.5766H16.5378H16.499H16.4602H16.4214H16.3825H16.3437H16.3049H16.2661H16.2272H16.1884H16.1496H16.1108H16.0719H16.0331H15.9943H15.9554H15.9166H15.8778H15.8389H15.8001H15.7612H15.7224H15.6835H15.6447H15.6059H15.567H15.5282H15.4893H15.4504H15.4116H15.3727H15.3339H15.295H15.2562H15.2173H15.1784H15.1396H15.1007H15.0618H15.0229H14.9841H14.9452H14.9063H14.8674H14.8286H14.7897H14.7508H14.7119H14.673H14.6341H14.5952H14.5563H14.5174H14.4785H14.4396H14.4007H14.3618H14.3229H14.284H14.2451H14.2062H14.1673H14.1284H14.0894H14.0505H14.0116H13.9727H13.9337H13.8948H13.8559H13.817H13.778H13.7391H13.7001H13.6612H13.6222H13.5833H13.5443H13.5054H13.4664H13.4275H13.3885H13.3496H13.3106H13.2716H13.2327H13.1937H13.1547H13.1157H13.0768H13.0378H12.9988H12.9598H12.9208H12.8818H12.8428H12.8038H12.7648H12.7258H12.6868H12.6478H12.6088H12.5698H12.5308H12.4917H12.4527H12.4137H12.3747H12.3356H12.2966H12.2576H12.2185H12.1795H12.1404H12.1014H12.0623H12.0233H11.9842H11.9452H11.9061H11.867H11.828H11.7889H11.7498H11.7107H11.6717H11.6326H11.5935H11.5544H11.5153H11.4762H11.4371H11.398H11.3589H11.3198H11.2807H11.2659C11.3458 9.83083 11.4163 9.4026 11.4862 8.97819C11.7479 7.39017 12.0008 5.8555 12.6984 4.42786L12.6984 4.42778C13.2255 3.34753 14.5888 3.10762 15.6557 3.91723C15.915 4.11409 16.1654 4.32342 16.4189 4.53533C16.449 4.56049 16.4791 4.58568 16.5093 4.6109C16.7927 4.8475 17.081 5.08525 17.3844 5.30371L17.3845 5.30379C18.5938 6.17288 19.7912 6.61552 20.9989 6.61552C22.2065 6.61552 23.4063 6.17291 24.6205 5.30397C25.0314 5.0102 25.4209 4.68433 25.8051 4.36294C25.9323 4.25651 26.059 4.15057 26.1856 4.04645C26.8405 3.50877 27.548 3.33421 28.143 3.47446C28.7344 3.61387 29.2439 4.07097 29.496 4.85912ZM3.53503 17.7091L3.53507 17.7089C3.5546 17.6136 3.63165 17.5045 3.75995 17.3862C3.88487 17.2711 4.03847 17.165 4.17988 17.0707C4.21024 17.0505 4.26915 17.0394 4.38018 17.0454C4.42213 17.0476 4.46491 17.0517 4.51122 17.0562C4.52262 17.0573 4.53423 17.0584 4.5461 17.0595C4.60389 17.065 4.66688 17.0702 4.72809 17.0702H4.76001H4.79194H4.82386H4.85579H4.88771H4.91964H4.95156H4.98349H5.01541H5.04734H5.07926H5.11118H5.14311H5.17503H5.20696H5.23888H5.27081H5.30273H5.33466H5.36658H5.39851H5.43043H5.46236H5.49428H5.52621H5.55813H5.59006H5.62198H5.65391H5.68583H5.71776H5.74968H5.78161H5.81354H5.84546H5.87739H5.90931H5.94124H5.97316H6.00509H6.03701H6.06894H6.10086H6.13279H6.16472H6.19664H6.22857H6.26049H6.29242H6.32435H6.35627H6.3882H6.42012H6.45205H6.48397H6.5159H6.54783H6.57975H6.61168H6.6436H6.67553H6.70746H6.73938H6.77131H6.80324H6.83516H6.86709H6.89901H6.93094H6.96287H6.99479H7.02672H7.05865H7.09057H7.1225H7.15442H7.18635H7.21828H7.2502H7.28213H7.31406H7.34598H7.37791H7.40984H7.44176H7.47369H7.50562H7.53754H7.56947H7.6014H7.63332H7.66525H7.69718H7.7291H7.76103H7.79296H7.82488H7.85681H7.88874H7.92067H7.95259H7.98452H8.01645H8.04837H8.0803H8.11223H8.14416H8.17608H8.20801H8.23994H8.27186H8.30379H8.33572H8.36764H8.39957H8.4315H8.46343H8.49535H8.52728H8.55921H8.59114H8.62306H8.65499H8.68692H8.71885H8.75077H8.7827H8.81463H8.84656H8.87848H8.91041H8.94234H8.97427H9.00619H9.03812H9.07005H9.10198H9.1339H9.16583H9.19776H9.22969H9.26161H9.29354H9.32547H9.3574H9.38933H9.42125H9.45318H9.48511H9.51704H9.54896H9.58089H9.61282H9.64475H9.67667H9.7086H9.74053H9.77246H9.80439H9.83632H9.86824H9.90017H9.9321H9.96403H9.99595H10.0279H10.0598H10.0917H10.1237H10.1556H10.1875H10.2195H10.2514H10.2833H10.3152H10.3472H10.3791H10.411H10.4429H10.4749H10.5068H10.5387H10.5707H10.6026H10.6345H10.6664H10.6984H10.7303H10.7622H10.7942H10.8261H10.858H10.8899H10.9219H10.9538H10.9857H11.0177H11.0496H11.0815H11.1134H11.1454H11.1773H11.2092H11.2412H11.2731H11.305H11.3369H11.3689H11.4008H11.4327H11.4647H11.4966H11.5285H11.5604H11.5924H11.6243H11.6562H11.6882H11.7201H11.752H11.7839H11.8159H11.8478H11.8797H11.9116H11.9436H11.9755H12.0074H12.0394H12.0713H12.1032H12.1351H12.1671H12.199H12.2309H12.2629H12.2948H12.3267H12.3586H12.3906H12.4225H12.4544H12.4864H12.5183H12.5502H12.5821H12.6141H12.646H12.6779H12.7099H12.7418H12.7737H12.8056H12.8376H12.8695H12.9014H12.9334H12.9653H12.9972H13.0291H13.0611H13.093H13.1249H13.1569H13.1888H13.2207H13.2526H13.2846H13.3165H13.3484H13.3804H13.4123H13.4442H13.4761H13.5081H13.54H13.5719H13.6039H13.6358H13.6677H13.6996H13.7316H13.7635H13.7954H13.8274H13.8593H13.8912H13.9231H13.9551H13.987H14.0189H14.0509H14.0828H14.1147H14.1466H14.1786H14.2105H14.2424H14.2744H14.3063H14.3382H14.3701H14.4021H14.434H14.4659H14.4979H14.5298H14.5617H14.5936H14.6256H14.6575H14.6894H14.7214H14.7533H14.7852H14.8171H14.8491H14.881H14.9129H14.9449H14.9768H15.0087H15.0406H15.0726H15.1045H15.1364H15.1684H15.2003H15.2322H15.2641H15.2961H15.328H15.3599H15.3918H15.4238H15.4557H15.4876H15.5196H15.5515H15.5834H15.6153H15.6473H15.6792H15.7111H15.7431H15.775H15.8069H15.8388H15.8708H15.9027H15.9346H15.9666H15.9985H16.0304H16.0623H16.0943H16.1262H16.1581H16.19H16.222H16.2539H16.2858H16.3178H16.3497H16.3816H16.4135H16.4455H16.4774H16.5093H16.5413H16.5732H16.6051H16.637H16.669H16.7009H16.7328H16.7647H16.7967H16.8286H16.8605H16.8925H16.9244H16.9563H16.9882H17.0202H17.0521H17.084H17.1159H17.1479H17.1798H17.2117H17.2437H17.2756H17.3075H17.3394H17.3714H17.4033H17.4352H17.4671H17.4991H17.531H17.5629H17.5949H17.6268H17.6587H17.6906H17.7226H17.7545H17.7864H17.8183H17.8503H17.8822H17.9141H17.9461H17.978H18.0099H18.0418H18.0738H18.1057H18.1376H18.1695H18.2015H18.2334H18.2653H18.2973H18.3292H18.3611H18.393H18.425H18.4569H18.4888H18.5207H18.5527H18.5846H18.6165H18.6484H18.6804H18.7123H18.7442H18.7761H18.8081H18.84H18.8719H18.9039H18.9358H18.9677H18.9996H19.0316H19.0635H19.0954H19.1273H19.1593H19.1912H19.2231H19.255H19.287H19.3189H19.3508H19.3827H19.4147H19.4466H19.4785H19.5104H19.5424H19.5743H19.6062H19.6382H19.6701H19.702H19.7339H19.7659H19.7978H19.8297H19.8616H19.8936H19.9255H19.9574H19.9893H20.0213H20.0532H20.0851H20.117H20.149H20.1809H20.2128H20.2447H20.2767H20.3086H20.3405H20.3724H20.4044H20.4363H20.4682H20.5001H20.5321H20.564H20.5959H20.6278H20.6598H20.6917H20.7236H20.7555H20.7875H20.8194H20.8513H20.8832H20.9152H20.9471H20.979H21.0109H21.0429H21.0748C22.4321 17.0702 23.7894 17.0701 25.1466 17.07C29.2144 17.0698 33.2818 17.0695 37.35 17.0717H37.35C37.4151 17.0717 37.4827 17.0673 37.5456 17.063L37.5551 17.0624C37.6161 17.0583 37.6729 17.0545 37.7274 17.0536C37.8477 17.0517 37.9219 17.0659 37.9651 17.0949L37.9656 17.0951C38.0801 17.1713 38.2083 17.2777 38.3064 17.3907C38.4096 17.5095 38.4574 17.6101 38.4586 17.6771C38.4598 17.7466 38.4154 17.8481 38.3171 17.9713C38.2234 18.0886 38.0995 18.2024 37.9867 18.2927C37.9618 18.3123 37.9061 18.328 37.7956 18.328C37.7444 18.328 37.69 18.3249 37.6314 18.3215L37.6269 18.3213C37.5714 18.318 37.5113 18.3145 37.4543 18.3145C26.4846 18.3159 15.5164 18.3159 4.54667 18.3159C4.50388 18.3159 4.46325 18.3165 4.42411 18.3171C4.3215 18.3187 4.22908 18.3202 4.13467 18.3097L4.13398 18.3096C3.92246 18.2871 3.75249 18.2125 3.64795 18.1093C3.54868 18.0114 3.49967 17.8804 3.53503 17.7091ZM3.38813 17.6788C3.2967 18.1216 3.64812 18.4088 4.11811 18.4588L3.38813 17.6788ZM38.6086 17.6745C38.6043 17.4302 38.2957 17.1345 38.0486 16.9702L38.08 18.4102C38.3157 18.2216 38.6129 17.9231 38.6086 17.6745ZM31.4008 13.8752L31.4009 13.8753C31.4226 14.0036 31.4312 14.1297 31.4414 14.2782C31.4435 14.308 31.4456 14.3386 31.4478 14.3703H31.4442H31.4027H31.3612H31.3197H31.2782H31.2367H31.1952H31.1537H31.1122H31.0707H31.0292H30.9877H30.9462H30.9047H30.8632H30.8218H30.7803H30.7388H30.6973H30.6558H30.6143H30.5729H30.5314H30.4899H30.4484H30.407H30.3655H30.324H30.2825H30.2411H30.1996H30.1581H30.1167H30.0752H30.0337H29.9923H29.9508H29.9093H29.8679H29.8264H29.785H29.7435H29.7021H29.6606H29.6191H29.5777H29.5362H29.4948H29.4533H29.4119H29.3704H29.329H29.2875H29.2461H29.2046H29.1632H29.1217H29.0803H29.0389H28.9974H28.956H28.9145H28.8731H28.8317H28.7902H28.7488H28.7073H28.6659H28.6245H28.583H28.5416H28.5002H28.4587H28.4173H28.3759H28.3345H28.293H28.2516H28.2102H28.1687H28.1273H28.0859H28.0445H28.003H27.9616H27.9202H27.8788H27.8374H27.7959H27.7545H27.7131H27.6717H27.6303H27.5888H27.5474H27.506H27.4646H27.4232H27.3818H27.3403H27.2989H27.2575H27.2161H27.1747H27.1333H27.0919H27.0505H27.0091H26.9676H26.9262H26.8848H26.8434H26.802H26.7606H26.7192H26.6778H26.6364H26.595H26.5536H26.5122H26.4708H26.4294H26.388H26.3466H26.3052H26.2638H26.2224H26.181H26.1396H26.0982H26.0568H26.0154H25.974H25.9326H25.8912H25.8498H25.8084H25.767H25.7256H25.6842H25.6428H25.6014H25.56H25.5186H25.4772H25.4358H25.3944H25.353H25.3116H25.2702H25.2288H25.1874H25.1461H25.1047H25.0633H25.0219H24.9805H24.9391H24.8977H24.8563H24.8149H24.7735H24.7321H24.6907H24.6493H24.608H24.5666H24.5252H24.4838H24.4424H24.401H24.3596H24.3182H24.2768H24.2354H24.194H24.1527H24.1113H24.0699H24.0285H23.9871H23.9457H23.9043H23.8629H23.8215H23.7801H23.7387H23.6974H23.656H23.6146H23.5732H23.5318H23.4904H23.449H23.4076H23.3662H23.3248H23.2834H23.2421H23.2007H23.1593H23.1179H23.0765H23.0351H22.9937H22.9523H22.9109H22.8695H22.8281H22.7867H22.7453H22.704H22.6626H22.6212H22.5798H22.5384H22.497H22.4556H22.4142H22.3728H22.3314H22.29H22.2486H22.2072H22.1658H22.1244H22.083H22.0416H22.0002H21.9588H21.9174H21.876H21.8346H21.7932H21.7518H21.7104H21.669H21.6276H21.5862H21.5448H21.5034H21.462H21.4206H21.3792H21.3378H21.2964H21.255H21.2136H21.1722H21.1308H21.0894H21.048H21.0066H20.9652H20.9237H20.8823H20.8409H20.7995H20.7581H20.7167H20.6753H20.6339H20.5925H20.551H20.5096H20.4682H20.4268H20.3854H20.344H20.3026H20.2611H20.2197H20.1783H20.1369H20.0955H20.054H20.0126H19.9712H19.9298H19.8884H19.8469H19.8055H19.7641H19.7227H19.6812H19.6398H19.5984H19.5569H19.5155H19.4741H19.4326H19.3912H19.3498H19.3084H19.2669H19.2255H19.184H19.1426H19.1012H19.0597H19.0183H18.9769H18.9354H18.894H18.8525H18.8111H18.7696H18.7282H18.6868H18.6453H18.6039H18.5624H18.521H18.4795H18.4381H18.3966H18.3552H18.3137H18.2722H18.2308H18.1893H18.1479H18.1064H18.065H18.0235H17.982H17.9406H17.8991H17.8576H17.8162H17.7747H17.7332H17.6918H17.6503H17.6088H17.5674H17.5259H17.4844H17.4429H17.4015H17.36H17.3185H17.277H17.2356H17.1941H17.1526H17.1111H17.0696H17.0281L16.9866 14.3703H16.9452H16.9037H16.8622H16.8207H16.7792H16.7377H16.6962H16.6547H16.6132H16.5717H16.5302H16.4887H16.4472H16.4057H16.3642H16.3227H16.2812H16.2397H16.1982H16.1566H16.1151H16.0736H16.0321H15.9906H15.9491H15.9075H15.866H15.8245H15.783H15.7415H15.6999H15.6584H15.6169H15.5753H15.5338H15.4923H15.4507H15.4092H15.3677H15.3261H15.2846H15.243H15.2015H15.16H15.1184H15.0769H15.0353H14.9938H14.9522H14.9107H14.8691H14.8275H14.786H14.7444H14.7029H14.6613H14.6197H14.5782H14.5366H14.495H14.4535H14.4119H14.3703H14.3287H14.2872H14.2456H14.204H14.1624H14.1208H14.0793H14.0377H13.9961H13.9545H13.9129H13.8713H13.8297H13.7881H13.7465H13.7049H13.6633H13.6217H13.5801H13.5385H13.4969H13.4553H13.4137H13.3721H13.3304H13.2888H13.2472H13.2056H13.164H13.1223H13.0807H13.0391H12.9974H12.9558H12.9142H12.8725H12.8309H12.7893H12.7476H12.706H12.6643H12.6227H12.581H12.5394H12.4977H12.4561H12.4144H12.3728H12.3311H12.2894H12.2478H12.2061H12.1645H12.1228H12.0811H12.0394H11.9978H11.9561H11.9144H11.8727H11.831H11.7894H11.7477H11.706H11.6643H11.6226H11.5809H11.5392H11.4975H11.4558H11.4141H11.3724H11.3307H11.289H11.2473H11.2055H11.1638H11.1221H11.0804H11.0387H10.9969H10.9552H10.9135H10.8717H10.83H10.7883H10.7465H10.7048H10.6631H10.6213H10.5796H10.5438C10.5554 14.2838 10.5661 14.1967 10.5765 14.1115C10.5892 14.0074 10.6016 13.9063 10.6148 13.8128C10.6477 13.5808 10.6892 13.3657 10.7617 13.1661C10.7618 13.1659 10.7623 13.1647 10.7636 13.1624C10.7652 13.1599 10.7677 13.1563 10.7715 13.1518C10.7793 13.1427 10.7912 13.1313 10.8083 13.1185C10.8428 13.0925 10.8908 13.066 10.9484 13.0421C11.0652 12.9937 11.1984 12.9652 11.2917 12.9646L11.2919 12.9646C13.6078 12.9471 15.9227 12.9468 18.2381 12.9465C18.7527 12.9464 19.2673 12.9463 19.782 12.9461C22.1124 12.9451 24.4435 12.9454 26.7743 12.9457C27.9397 12.9459 29.105 12.9461 30.2702 12.9461C30.5482 12.9461 30.7451 12.9463 30.8929 12.9617C31.0404 12.9771 31.1137 13.0058 31.1597 13.0437C31.205 13.0809 31.2453 13.1448 31.2845 13.282C31.324 13.4203 31.356 13.6082 31.4008 13.8752Z" fill="white" stroke="white" stroke-width="0.3"/>
<path d="M21.2309 27.1944L21.2302 27.1944C20.8417 27.1847 20.5625 27.1779 20.3525 27.195C20.1424 27.2121 20.0293 27.2516 19.9556 27.3126C19.8825 27.3732 19.8247 27.4746 19.7735 27.6732C19.7221 27.8723 19.6833 28.1421 19.6296 28.5185C19.1976 31.5525 16.7022 33.6968 13.6519 33.6514C10.6928 33.6074 8.17398 31.2907 7.88074 28.3421C7.58603 25.3833 9.54358 22.6699 12.4682 21.9786L21.2309 27.1944ZM21.2309 27.1944C21.289 27.1956 21.347 27.199 21.4084 27.2026C21.4187 27.2032 21.4291 27.2038 21.4396 27.2044C21.5112 27.2085 21.5871 27.2124 21.664 27.2116L21.6625 27.0616L21.6636 27.2116C21.9359 27.2096 22.0824 27.2594 22.1688 27.3465C22.2573 27.4357 22.3171 27.5982 22.3268 27.9091M21.2309 27.1944L18.5859 24.3329M18.5859 24.3329L18.586 24.3329C18.7145 24.5125 18.8248 24.6018 18.9438 24.6482C19.0667 24.6961 19.2181 24.706 19.4464 24.6879L19.4464 24.6879C20.4657 24.6072 21.4996 24.6072 22.5194 24.6936L22.5197 24.6937C22.7597 24.7145 22.9204 24.7035 23.0512 24.6515C23.1788 24.6009 23.2966 24.5037 23.4334 24.3129C24.9965 22.1315 27.6934 21.294 30.193 22.1644C32.6253 23.0108 34.2197 25.3713 34.1406 27.9975L34.1406 27.9976C34.0452 31.1399 31.3746 33.6675 28.1787 33.6514C25.0005 33.6353 22.4264 31.1436 22.3268 27.9091M18.5859 24.3329C17.1473 22.3249 14.7805 21.4314 12.4682 21.9786L18.5859 24.3329ZM22.3268 27.9091L22.4767 27.9044L22.3268 27.9091C22.3268 27.9091 22.3268 27.9091 22.3268 27.9091ZM19.4583 24.8374C20.4697 24.7574 21.4953 24.7574 22.5067 24.8431L18.464 24.4203C18.7411 24.8074 18.9897 24.8745 19.4583 24.8374ZM28.2145 30.9944L28.2144 30.9944C26.3939 30.9862 24.9643 29.5461 24.9753 27.7354C24.9862 25.9123 26.4104 24.4974 28.2366 24.4974C30.0571 24.4974 31.472 25.9221 31.4679 27.7541C31.4638 29.583 30.0367 31.0039 28.2145 30.9944ZM13.7896 30.9958L13.7896 30.9958C11.9815 31.0163 10.5426 29.5849 10.5371 27.7569C10.5316 25.9221 11.9394 24.5015 13.7659 24.4974C15.5868 24.4933 17.0311 25.9257 17.0298 27.7301C17.0284 29.5575 15.622 30.9753 13.7896 30.9958Z" fill="white" stroke="white" stroke-width="0.3"/>
</svg>
