<svg width="102" height="36" viewBox="0 0 102 36" fill="none" xmlns="http://www.w3.org/2000/svg">
<path d="M44.2719 8.95096H48.1203V24.3446H51.9687V5.10254H48.1203C46.0037 5.10254 44.2719 6.83433 44.2719 8.95096Z" fill="#1B314F"/>
<path d="M55.8171 24.3441H59.6656V16.6472C59.6656 14.5306 57.9338 12.7988 55.8171 12.7988V24.3441Z" fill="#1B314F"/>
<path d="M63.514 12.7988V24.3441H67.3624V16.6472H71.2108V20.4957C71.2108 22.6123 72.9426 24.3441 75.0592 24.3441V16.6472C75.0592 14.5306 73.3274 12.7988 71.2108 12.7988H63.514Z" fill="#1B314F"/>
<path d="M98.1498 12.7994H94.3013V8.95096C94.3013 6.83433 92.5695 5.10254 90.4529 5.10254V20.4962H82.7561V16.6478H86.6045V12.7994H82.7561C80.6394 12.7994 78.9077 14.5312 78.9077 16.6478V20.4962C78.9077 22.6129 80.6394 24.3446 82.7561 24.3446H94.3013V16.6478H98.1498V20.4962C98.1498 22.6129 99.8815 24.3446 101.998 24.3446V16.6478C101.998 14.5312 100.266 12.7994 98.1498 12.7994Z" fill="#1B314F"/>
<path d="M55.8171 8.95096H59.6656C59.6656 6.83433 57.9338 5.10254 55.8171 5.10254V8.95096Z" fill="#1B314F"/>
<path d="M49.7152 30.8451H48.1203V28.2334H49.6767V28.6624H48.593V29.3116H49.5614V29.7407H48.593V30.4161H49.7152V30.8451Z" fill="#2F7AEA"/>
<path d="M56.7065 28.2334H57.2599L56.3529 29.5132L57.2944 30.8451H56.7411L56.0454 29.8639L55.3537 30.8451H54.8003L55.7419 29.5132L54.8426 28.2334H55.396L56.057 29.1773L56.7065 28.2334Z" fill="#2F7AEA"/>
<path d="M64.2344 30.2482L64.415 30.5915C64.3305 30.6786 64.2088 30.7495 64.05 30.8042C63.8936 30.859 63.7284 30.8863 63.5542 30.8863C63.1442 30.8863 62.8099 30.7631 62.5511 30.5169C62.2949 30.2706 62.1668 29.9448 62.1668 29.5393C62.1668 29.1513 62.2886 28.8292 62.532 28.573C62.7728 28.3193 63.1097 28.1924 63.5426 28.1924C63.8859 28.1924 64.1588 28.2807 64.3612 28.4572L64.1498 28.7969C63.968 28.6799 63.7656 28.6215 63.5426 28.6215C63.2864 28.6215 63.0763 28.7048 62.9124 28.8714C62.7484 29.0381 62.6665 29.2607 62.6665 29.5393C62.6665 29.813 62.7523 30.0343 62.9239 30.2035C63.0982 30.3726 63.3223 30.4572 63.5964 30.4572C63.8321 30.4572 64.0448 30.3875 64.2344 30.2482Z" fill="#2F7AEA"/>
<path d="M71.8601 30.8451H71.3912V29.7296H70.1615V30.8451H69.6888V28.2334H70.1615V29.3005H71.3912V28.2334H71.8601V30.8451Z" fill="#2F7AEA"/>
<path d="M77.5394 30.8458H77.0628L78.2003 28.2266H78.6154L79.753 30.8458H79.2495L78.969 30.178H77.8199L77.5394 30.8458ZM78.7884 29.7489L78.3964 28.8198L78.0005 29.7489H78.7884Z" fill="#2F7AEA"/>
<path d="M87.2579 28.2334V30.8451H86.8813L85.4017 29.0356V30.8451H84.9597V28.2334H85.3363L86.816 30.0504V28.2334H87.2579Z" fill="#2F7AEA"/>
<path d="M94.5746 29.8677H93.9252V29.4386H95.0172V30.5206C94.9017 30.6326 94.7478 30.7221 94.5563 30.7893C94.3639 30.854 94.182 30.8863 94.0098 30.8863C93.575 30.8863 93.2315 30.7644 92.9804 30.5206C92.7312 30.2794 92.6071 29.9523 92.6071 29.5393C92.6071 29.1562 92.7302 28.8366 92.9765 28.5804C93.2219 28.3217 93.5461 28.1924 93.9483 28.1924C94.2917 28.1924 94.5804 28.2807 94.8132 28.4572L94.6131 28.8229C94.5467 28.7608 94.4582 28.7123 94.3485 28.6775C94.2379 28.6401 94.1243 28.6215 94.006 28.6215C93.7376 28.6215 93.5211 28.7036 93.3566 28.8677C93.1901 29.0294 93.1074 29.2533 93.1074 29.5393C93.1074 29.8155 93.1901 30.0381 93.3566 30.2072C93.5211 30.3739 93.7414 30.4572 94.0175 30.4572C94.1147 30.4572 94.2205 30.4398 94.3331 30.4049C94.4457 30.3676 94.5265 30.3254 94.5746 30.2781V29.8677Z" fill="#2F7AEA"/>
<path d="M101.998 30.8451H100.403V28.2334H101.96V28.6624H100.876V29.3116H101.844V29.7407H100.876V30.4161H101.998V30.8451Z" fill="#2F7AEA"/>
<path d="M9.10202 19.8361L10.1122 12.228L1.336 6.13518L9.35457 8.85014L11.2487 5.94574L18.1624 1.65234L33.4102 10.0498L34.1994 22.8668L27.412 32.306L22.0453 33.1268L24.8234 28.0441V23.151L22.803 19.331L20.751 17.9736L17.594 21.2252V24.6663L15.1317 26.9708L12.0063 27.3496L10.6173 28.1388L8.34436 27.4128L7.39726 24.0033L9.10202 21.604V19.8361Z" fill="white"/>
<path d="M23.1186 6.07296C21.4455 5.72564 19.6146 5.82041 19.6146 5.82041C19.6146 5.82041 19.0147 8.59848 15.2895 9.32459C15.3212 9.32459 20.2143 10.9977 23.1186 6.07296Z" fill="#94A6C3"/>
<path d="M24.6339 31.265C26.6544 29.6866 28.1697 27.5083 28.8642 25.0459C28.8958 24.9512 29.1799 24.7933 29.3693 24.6671C29.685 24.4777 30.0007 24.3198 30.0639 24.0672C30.1901 23.3411 30.2532 22.5836 30.2532 21.8259C30.2532 21.5417 29.9691 21.2576 29.685 20.9735C29.464 20.784 29.243 20.5631 29.243 20.4053C28.9273 17.5324 27.6015 14.8491 25.4864 12.8918L25.2654 13.1128C27.3174 15.0386 28.6432 17.6587 28.9273 20.4368C28.9589 20.6894 29.2115 20.9419 29.464 21.1945C29.685 21.3839 29.9376 21.668 29.9376 21.7943C29.9376 22.5204 29.8744 23.2465 29.7481 23.9726C29.7166 24.0989 29.4324 24.2251 29.2115 24.3514C28.8958 24.5092 28.6117 24.6671 28.5486 24.9197C27.7909 27.603 26.0546 29.9392 23.7501 31.4545C24.1604 30.5705 25.4547 27.6977 26.1493 26.2455L26.023 21.5734L22.0138 17.6903L19.7408 18.006L17.2468 22.0468C17.2468 22.0468 18.4149 23.5306 16.7733 25.2669C15.1633 26.9716 13.9005 27.3504 13.9005 27.3504L12.7324 26.7191C13.0796 26.2771 13.7742 25.6142 14.3109 25.1722C15.2264 24.4146 16.1419 24.3514 16.1419 23.5306C16.1735 21.8259 14.3424 22.2994 14.3424 22.2994L13.6795 22.9308L13.3954 25.2669L12.0063 27.0032L11.8485 26.9716L9.57556 26.4665C9.57556 26.4665 10.9646 25.7404 11.1855 24.9197C11.4065 24.1304 10.7436 21.5102 10.712 21.3524C10.7436 21.3839 11.375 21.9206 11.6591 22.8045C12.1642 21.4155 12.8271 20.0896 13.0165 19.9633C13.206 19.837 15.7631 18.4795 15.7631 18.4795L14.9107 20.7209L15.5421 20.3737L17.0574 16.6485C17.0574 16.6485 18.5411 15.9224 19.646 15.9224C21.6349 15.8909 24.5708 13.46 23.245 9.10352C23.6237 9.2614 30.1901 12.5446 31.3266 18.9846C32.179 23.941 29.3693 28.5816 24.6339 31.265Z" fill="#94A6C3"/>
<path d="M17.1206 6.76656C17.8467 5.91413 17.5625 4.65137 17.5625 4.65137L15.4474 7.77677C15.4158 7.77677 16.205 7.80832 17.1206 6.76656Z" fill="#1B314F"/>
<path d="M10.0175 23.8458L10.27 22.583C10.27 22.583 9.22824 24.414 9.13357 24.6665C9.0389 24.9507 9.19669 25.4559 9.60712 25.4242C10.0175 25.3926 10.5226 24.7929 10.5226 24.3509C10.5226 23.7827 10.0175 23.8458 10.0175 23.8458Z" fill="#1B314F"/>
<path d="M28.7696 3.76794C28.7696 3.76794 30.348 3.83115 31.9895 4.02049C28.296 1.11618 24.7918 0.263755 21.9506 0.263755C18.036 0.263755 15.3843 1.87384 15.2264 1.96851L16.4576 0.0112028C16.4576 0.0112028 11.5328 -0.462249 9.79646 4.74659C9.35457 3.64171 8.94414 2.03162 8.94414 2.03162C8.94414 2.03162 6.38705 4.27304 7.5867 7.99822C4.65074 6.92489 0.452066 5.44113 0.294223 5.40958C0.073237 5.37802 0.0101035 5.47269 0.0101035 5.47269C0.0101035 5.47269 -0.0530395 5.56736 0.13638 5.72524C0.483632 6.00935 7.11315 10.9026 8.56536 11.8496C8.24959 12.9862 8.24959 13.5228 8.56536 14.0595C9.00725 14.7856 9.03881 15.1644 8.97569 15.7011C8.91258 16.2378 8.34436 20.8784 8.21803 21.4466C8.09181 22.0149 6.76583 24.0354 6.82904 24.6351C6.89216 25.2349 7.71293 27.792 8.43903 28.0762C8.97569 28.2655 10.3017 28.676 11.1856 28.676C11.5012 28.676 11.7853 28.6129 11.9117 28.4865C12.4483 28.013 12.6062 27.9183 12.985 27.9183C13.0165 27.9183 13.0481 27.9183 13.0797 27.9183C13.2375 27.9183 13.427 27.9499 13.648 27.9499C14.1531 27.9499 14.816 27.8552 15.2895 27.4132C15.9841 26.7187 17.1837 25.7716 17.5625 25.3297C18.036 24.7298 18.2886 23.909 18.1624 23.0883C18.0676 22.3306 18.478 21.6676 18.9516 21.0047C19.5513 20.2154 20.6562 18.7949 20.6562 18.7949C22.8345 20.4364 24.192 22.9304 24.192 25.7085C24.192 30.6333 19.8987 34.6109 14.5951 34.6109C13.7742 34.6109 12.985 34.5162 12.1958 34.3268C14.6266 35.1792 16.6786 35.4633 18.3517 35.4633C21.9191 35.4633 23.8132 34.169 23.8132 34.169C23.8132 34.169 23.1502 35.0213 22.0769 36C22.1084 36 22.1084 36 22.1084 36C28.0119 35.1792 30.8847 30.3175 30.8847 30.3175C30.8847 30.3175 30.6637 31.896 30.3796 32.9694C38.2402 27.066 36.9144 19.6788 36.8828 19.4262C36.9459 19.521 37.7351 20.468 38.1456 20.9731C39.4083 7.96666 28.7696 3.76794 28.7696 3.76794ZM16.6786 24.5405C16.5523 24.6982 16.0156 25.1718 15.6368 25.519C15.258 25.8663 14.8476 26.2136 14.5319 26.5292C14.4056 26.6556 14.1531 26.7187 13.7742 26.7187C13.648 26.7187 13.5216 26.7187 13.427 26.7187C13.3639 26.7187 13.3006 26.7187 13.2375 26.7187C13.1744 26.7187 13.1429 26.7187 13.1113 26.7187C13.0165 26.7187 12.9219 26.7187 12.8271 26.7187C13.3006 26.0873 14.6897 24.6351 15.1633 24.3195C15.7315 23.9406 16.0156 23.5618 15.6684 22.8988C15.3211 22.2358 14.4056 22.3937 14.4056 22.3937C14.4056 22.3937 14.9423 22.1727 15.4158 22.1727C14.816 22.0149 14.0583 22.1727 13.7111 22.52C13.3323 22.8673 13.3954 24.0985 13.2375 24.8877C13.0797 25.7085 12.543 26.1189 11.7222 26.8765C11.2802 27.2869 10.9646 27.4132 10.712 27.4132C10.1753 27.3185 9.54391 27.1607 9.10202 27.0028C8.78625 26.5924 8.3128 25.2349 8.18648 24.6667C8.28115 24.351 8.66003 23.688 8.84947 23.3093C9.22825 22.5832 9.44924 22.1727 9.51236 21.7939C9.63868 21.2573 10.0491 17.9424 10.2069 16.5534C10.6173 17.0901 11.1856 17.9741 11.0593 18.5423C11.9748 17.248 11.3119 15.9852 10.9961 15.4801C10.712 14.975 10.3332 13.9648 10.6489 12.8914C10.9646 11.8181 12.1011 8.85054 12.1011 8.85054C12.1011 8.85054 12.4799 9.51353 13.0165 9.3873C13.5532 9.26098 17.8781 2.75773 17.8781 2.75773C17.8781 2.75773 19.0462 5.31481 17.815 7.17744C16.5523 9.03998 15.3211 9.3873 15.3211 9.3873C15.3211 9.3873 17.0574 9.70297 18.6675 8.53488C19.3304 10.0818 19.9618 11.6918 19.9933 11.9128C19.8987 12.1337 18.6358 15.1644 18.5096 15.3538C18.4465 15.4169 18.0045 15.5432 17.6888 15.6064C17.1521 15.7642 16.8364 15.8589 16.7102 15.9537C16.4892 16.143 15.4789 18.9211 15.0054 20.2786C14.4372 20.4364 13.869 20.7522 13.4585 21.3835C13.6795 21.2256 14.3741 21.131 14.8792 21.0678C15.3211 21.0363 16.6786 21.7624 17.0258 23.1198C17.0258 23.1514 17.0258 23.1514 17.0258 23.1829C17.0889 23.688 16.9312 24.1616 16.6786 24.5405ZM13.7111 24.9192C13.9952 24.5088 13.9636 23.8144 13.9952 23.5934C14.0267 23.3724 14.09 22.9619 14.3425 22.8988C14.5951 22.8357 15.1948 22.9304 15.1948 23.3724C15.1948 23.7828 14.7528 23.8775 14.4372 24.1616C14.2162 24.3826 13.7742 24.8561 13.7111 24.9192ZM26.3072 18.8895C26.6228 17.2795 26.6544 15.8905 26.5597 14.754C27.7909 16.3956 28.5486 18.3844 28.7696 20.4364C28.8011 20.689 29.0537 20.9415 29.3062 21.1941C29.5272 21.3835 29.7798 21.6361 29.7798 21.7939C29.7798 22.52 29.7166 23.246 29.5903 23.9721C29.5588 24.0669 29.2747 24.2247 29.0537 24.351C28.7379 24.5088 28.4538 24.6667 28.3907 24.9192C27.6961 27.3501 26.2124 29.4967 24.2236 31.0121C27.1595 27.9499 28.5801 22.8988 26.3072 18.8895ZM24.3183 31.2962C26.3703 29.7177 27.9487 27.5079 28.6432 25.0139C28.6748 24.9192 28.9589 24.7614 29.1483 24.6351C29.464 24.4773 29.7798 24.2879 29.8429 24.0354C29.9691 23.3093 30.0323 22.5516 30.0323 21.7939C30.0323 21.5098 29.7482 21.2256 29.464 20.9415C29.3062 20.7522 29.0537 20.5312 29.0537 20.3733C28.8011 18.0688 27.8856 15.8905 26.465 14.091C25.8336 10.3027 23.3081 9.13475 23.245 9.1031C23.3081 9.19787 24.9496 11.5655 23.8132 14.3436C22.6451 17.1532 19.6461 16.7113 19.3936 16.7429C19.141 16.7429 18.1624 18.0057 16.9312 20.3417C16.7733 20.2786 16.1104 20.1207 15.3526 20.2471C15.9209 18.6685 16.7733 16.4271 16.9312 16.2378C16.9943 16.1746 17.4678 16.0483 17.7835 15.9537C18.3834 15.7958 18.6675 15.7011 18.7621 15.5748C18.8252 15.4801 19.1409 14.754 19.4567 13.9964C19.7408 13.9964 20.4669 13.9333 20.53 13.9016C20.5931 13.8385 21.193 12.2916 21.193 12.1022C21.193 11.9444 19.9618 8.8822 19.4882 7.71411C19.7092 7.46155 19.9302 7.14589 20.1512 6.79857C26.6228 7.49311 31.6739 12.9862 31.6739 19.6472C31.6739 24.7614 28.6748 29.2126 24.3183 31.2962Z" fill="#1B314F"/>
<path d="M15.9209 14.2485C16.5207 13.554 16.205 12.2597 15.1002 12.0387C15.3843 11.3757 15.7946 10.0498 15.7946 10.0498C15.7946 10.0498 12.5746 15.1009 12.2904 15.1955C12.0063 15.2903 11.7222 14.1853 11.7222 14.1853C11.1224 16.4899 12.7324 16.8056 12.9219 16.0795C13.8057 15.8585 15.3211 14.9114 15.9209 14.2485Z" fill="#1B314F"/>
<path d="M13.1744 15.4805L14.816 12.6709C14.816 12.6709 15.7631 13.1444 15.2895 13.9021C14.6897 14.786 13.1744 15.4805 13.1744 15.4805Z" fill="#FFD923"/>
<path d="M33.4733 28.4865C32.9998 29.118 32.4631 29.7809 31.8318 30.4123C35.9042 22.5832 32.0212 15.4169 31.8633 15.1328C32.1474 15.4169 32.4315 15.7327 32.6841 16.0168C35.8095 19.4894 36.1883 24.6983 33.4733 28.4865Z" fill="#D82122"/>
<path d="M37.2616 18.4162C35.841 14.5963 33.8206 11.3447 29.3693 8.40886C25.0759 5.56757 20.4669 5.78856 20.2143 5.82012C20.1828 5.82012 20.1512 5.82012 20.1512 5.82012C20.309 5.75701 20.4669 5.72545 20.6247 5.69389C21.6033 5.37822 22.8661 5.12567 24.1288 4.96779C27.4752 4.49424 30.8531 5.63078 33.1576 8.06154C33.1892 8.09309 33.1892 8.09309 33.2207 8.12465C35.841 10.9027 37.1985 14.3753 37.2616 18.4162Z" fill="#D82122"/>
<path d="M28.3591 2.78967C23.6553 1.90579 20.6247 2.34768 18.4465 3.16855C18.3833 2.916 18.1624 2.41089 17.9729 2.00046C17.3099 2.78967 16.6155 3.73677 16.1735 4.33655C14.9738 5.15742 14.4687 5.94663 14.4687 5.94663C15.1633 3.57889 17.1837 1.81102 19.6461 1.36913C20.3406 1.2428 21.0982 1.17969 21.9191 1.17969C24.0973 1.21124 26.2756 1.74791 28.3591 2.78967Z" fill="#D82122"/>
<path d="M10.9646 8.85089C7.27103 8.72466 8.50224 4.43126 8.56535 4.17871C8.56535 4.21027 8.81791 7.55657 10.9646 8.85089Z" fill="#D82122"/>
<path d="M14.5951 1.11621C11.7538 2.82097 12.3221 6.89336 12.3221 6.89336C9.60713 2.75785 14.3741 1.21088 14.5951 1.11621Z" fill="#D82122"/>
<path d="M9.92279 9.98758C10.1122 10.1455 10.3017 10.4296 10.0807 10.8399C9.95435 11.0609 9.76501 11.0293 9.4808 10.9031C9.10202 10.7137 6.82905 9.3878 4.77707 8.03027C7.11316 8.85105 9.4808 9.73503 9.85968 9.92447C9.85968 9.92447 9.89123 9.95602 9.92279 9.98758Z" fill="white"/>
</svg>
