<svg width="32" height="31" viewBox="0 0 32 31" fill="none" xmlns="http://www.w3.org/2000/svg">
<path d="M7.44897 9.96094H1.02492C0.739808 9.96094 0.508789 10.1853 0.508789 10.462V30.499C0.508789 30.7758 0.739808 31.0001 1.02492 31.0001H7.44897C7.73408 31.0001 7.9651 30.7758 7.9651 30.499V10.462C7.9651 10.1853 7.73408 9.96094 7.44897 9.96094Z" fill="white"/>
<path d="M4.23907 0C1.90163 0 0 1.84426 0 4.11116C0 6.37905 1.90163 8.22402 4.23907 8.22402C6.57466 8.22402 8.47474 6.37895 8.47474 4.11116C8.47484 1.84426 6.57466 0 4.23907 0Z" fill="white"/>
<path d="M23.7887 9.46289C21.2085 9.46289 19.3012 10.5398 18.1444 11.7634V10.462C18.1444 10.1853 17.9134 9.96089 17.6282 9.96089H11.4761C11.191 9.96089 10.96 10.1853 10.96 10.462V30.4989C10.96 30.7757 11.191 31 11.4761 31H17.8861C18.1712 31 18.4022 30.7757 18.4022 30.4989V20.5853C18.4022 17.2446 19.3368 15.9432 21.7354 15.9432C24.3476 15.9432 24.5552 18.0296 24.5552 20.7572V30.499C24.5552 30.7758 24.7862 31.0001 25.0713 31.0001H31.4837C31.7688 31.0001 31.9999 30.7758 31.9999 30.499V19.5084C31.9999 14.541 31.0243 9.46289 23.7887 9.46289Z" fill="white"/>
</svg>
