<svg width="90" height="32" viewBox="0 0 90 32" fill="none" xmlns="http://www.w3.org/2000/svg">
<path d="M4.52434 31.9946V13.5585H0L1.49457 8.23047H9.85241V31.9946H4.52434Z" fill="#7171FF"/>
<path d="M20.5087 16.2729V31.9952H15.1807V8.22656H20.5087V10.9538C21.5518 10.1411 22.6038 9.75274 24.0533 9.18381C25.5027 8.61488 27.1101 8.3259 28.8711 8.3259C31.8693 8.3259 34.0547 9.02578 35.4228 10.43C36.791 11.8298 37.4773 14.0152 37.4773 16.9817V31.9907H32.1944V17.2256C32.1944 15.433 32.1266 14.6428 31.2868 13.6946C30.1805 12.4529 23.6062 12.2994 20.5087 16.2729Z" fill="#7171FF"/>
<path d="M37.5947 15.0318V32.0003H32.2666V8.82324H37.5856L37.5947 11.266V15.0318Z" fill="#7171FF"/>
<path d="M37.5858 8.82312C35.1746 8.33547 30.0859 7.97424 27.2412 8.47544C28.5507 10.7692 37.5858 8.82312 37.5858 8.82312Z" fill="#7171FF"/>
<path d="M42.918 32V0H49.3252V17.6142L58.988 8.23593H66.2983L55.9717 18.7069L66.2938 32H59.5027L51.935 22.0799L49.3252 24.5949V32H42.918Z" fill="white"/>
<path d="M75.6498 31.9958C74.1823 31.9958 72.7916 31.7926 71.5679 31.1876C70.57 30.6999 69.9063 30.2619 69.247 29.5801C68.9897 29.3182 68.7594 29.0247 68.5562 28.7177C67.9105 27.7469 67.3867 26.5639 67.3867 25.1912C67.3867 22.911 68.195 21.0823 69.8069 19.7141C71.4189 18.346 73.8075 17.6597 76.9682 17.6597H83.8134V17.023C83.8134 15.5871 83.4161 14.5802 82.6169 13.9932C81.8177 13.4062 80.2147 13.1127 77.799 13.1127C75.1576 13.1127 72.6155 13.5191 70.1727 14.3364V9.69013C71.2473 9.26569 72.5613 8.91802 74.11 8.63807C75.6588 8.36264 77.343 8.22266 79.1717 8.22266C82.6575 8.22266 84.6759 8.93156 86.5813 10.3494C88.4868 11.7672 89.444 14.0429 89.444 17.172V31.9913H84.0663V29.7878C83.1497 30.4109 82.0299 30.8489 80.6933 31.3049C79.3523 31.77 77.6726 31.9958 75.6498 31.9958ZM77.4694 27.8914C78.9369 27.8914 80.1967 27.4489 81.2758 26.9567C82.3505 26.469 83.1994 25.8504 83.818 25.0964V21.7686H77.1172C74.5435 21.7686 73.2521 22.8297 73.2521 24.9474C73.2566 27.0064 74.6654 27.8914 77.4694 27.8914Z" fill="white"/>
<path d="M83.818 21.7725C83.6103 27.7372 77.5688 27.8907 77.5688 27.8907L84.7843 28.5048L83.818 21.7725Z" fill="white"/>
<path d="M9.85688 0H4.52881V5.32806H9.85688V0Z" fill="#7171FF"/>
</svg>
