<svg width="71" height="36" viewBox="0 0 71 36" fill="none" xmlns="http://www.w3.org/2000/svg">
<path d="M42.8282 3.00973C42.751 3.06332 42.7113 3.09139 42.6701 3.11946C42.3468 3.34149 42.0234 3.56478 41.6987 3.78554C41.6715 3.80341 41.6357 3.8085 41.6035 3.82C41.6243 3.79832 41.6432 3.77152 41.6679 3.75494C42.0156 3.5061 42.3636 3.25727 42.7127 3.01228C42.7291 2.99952 42.7613 3.00973 42.8282 3.00973Z" fill="#ED1B6C"/>
<path d="M39.1749 7.48248C39.153 7.47867 39.148 7.47739 39.1416 7.47611C39.1441 7.46081 39.143 7.44166 39.1505 7.43144C39.2621 7.29364 39.3766 7.15836 39.4907 7.02183C39.4961 7.01546 39.5061 7.0129 39.515 7.00781C39.5165 7.0129 39.5215 7.01927 39.5204 7.02183C39.4049 7.17879 39.2879 7.33318 39.1749 7.48248Z" fill="#ED1B6C"/>
<path d="M39.6666 6.60969C39.6455 6.60367 39.6405 6.60189 39.634 6.59997C39.6383 6.58499 39.639 6.56584 39.6476 6.55645C39.7728 6.4306 39.9001 6.30753 40.0278 6.18318C40.0336 6.17734 40.1777 6.01718 40.1874 6.01298C40.2374 5.96547 40.569 5.6175 40.2153 6.01298C40.0844 6.15752 39.7943 6.47252 39.6666 6.60969Z" fill="#ED1B6C"/>
<path d="M39.8801 5.46785C39.9645 5.35727 40.2829 5.02418 40.7468 4.57784C40.8791 4.45933 41.1055 4.2492 41.24 4.13232C41.2461 4.12681 41.3244 4.06808 41.3341 4.06445C41.3345 4.06968 41.2712 4.13464 41.2694 4.13695C41.1302 4.2738 40.1656 5.11572 39.8801 5.46785Z" fill="#ED1B6C"/>
<path d="M39.496 7.9043C39.4059 8.03701 39.3161 8.17097 39.2249 8.30369C39.2174 8.31519 39.1941 8.31771 39.1777 8.32412C39.1762 8.31262 39.1712 8.29604 39.1762 8.28963C39.2814 8.16076 39.3894 8.03317 39.496 7.9043Z" fill="#ED1B6C"/>
<path d="M37.6311 8.875C37.5557 9.0164 37.4805 9.15908 37.404 9.30059C37.3976 9.31283 37.375 9.31778 37.3589 9.32589C37.3564 9.31461 37.3496 9.29867 37.3539 9.29176C37.4451 9.15257 37.5388 9.01434 37.6311 8.875Z" fill="#ED1B6C"/>
<path d="M55.36 34.5817C55.4022 34.5702 55.4433 34.5536 55.4859 34.5485C55.5588 34.5396 55.6321 34.5383 55.7051 34.5332C55.6307 34.5498 55.5578 34.5702 55.483 34.5817C55.4433 34.5881 55.3997 34.5804 55.3585 34.5804L55.36 34.5817Z" fill="#ED1B6C"/>
<path d="M43.1186 2.83901C43.1097 2.84794 43.1023 2.85943 43.0919 2.86453C43.051 2.88622 43.009 2.90536 42.9667 2.92705C42.9667 2.91685 42.9631 2.89898 42.9667 2.89643C43.014 2.87346 43.0628 2.85177 43.1097 2.83008C43.1137 2.83263 43.1161 2.83646 43.1186 2.83901Z" fill="#ED1B6C"/>
<path d="M41.4119 4.03911C41.3877 4.00847 41.3802 3.99954 41.3802 3.99826C41.4237 3.95743 41.4671 3.91661 41.5116 3.87704C41.513 3.87575 41.5283 3.88981 41.5283 3.89109C41.4927 3.93829 41.4553 3.98423 41.4119 4.03911Z" fill="#ED1B6C"/>
<path d="M39.8071 7.59357C39.7584 7.63315 39.7175 7.66632 39.6755 7.69949C39.6705 7.69312 39.6602 7.68034 39.6602 7.68034C39.6997 7.64589 39.7392 7.61144 39.7801 7.57827C39.7815 7.57698 39.7904 7.58464 39.8071 7.59357Z" fill="#ED1B6C"/>
<path d="M40.338 6.62679C40.3519 6.61273 40.3672 6.59999 40.3814 6.58597C40.4056 6.56554 40.4298 6.54511 40.454 6.52344C40.4569 6.52596 40.4604 6.52853 40.4629 6.53237C40.4224 6.56426 40.38 6.59615 40.338 6.62679Z" fill="#ED1B6C"/>
<path d="M38.9863 7.14036C39.0041 7.12381 39.0169 7.11235 39.0308 7.09961C39.0347 7.1047 39.0422 7.11235 39.0411 7.11363C39.0297 7.12762 39.018 7.14164 39.0055 7.15438C39.0041 7.15566 38.9938 7.14801 38.9863 7.14036Z" fill="#ED1B6C"/>
<path d="M41.5929 5.43939C41.6086 5.43811 41.6239 5.43683 41.6392 5.43555C41.6057 5.45982 41.5712 5.48406 41.5381 5.50829C41.5559 5.48534 41.5751 5.46235 41.5929 5.43939Z" fill="#ED1B6C"/>
<path d="M39.8412 30C39.8679 30.0281 39.8935 30.0562 39.9202 30.0842C39.8935 30.0562 39.8679 30.0281 39.8412 30Z" fill="#ED1B6C"/>
<path d="M37.2268 9.07031C37.215 9.08437 37.1456 9.2462 37.1367 9.25898C37.1328 9.25132 37.1239 9.24111 37.1264 9.23598C37.1328 9.22324 37.2175 9.08181 37.2268 9.07031Z" fill="#ED1B6C"/>
<path d="M39.4728 7.6008C39.497 7.58802 39.5201 7.57528 39.5443 7.5625C39.5212 7.57528 39.497 7.58802 39.4728 7.6008Z" fill="#ED1B6C"/>
<path d="M43.2154 2.78237C43.1833 2.80151 43.1513 2.82065 43.1193 2.83979C43.1168 2.83724 43.1143 2.83341 43.1118 2.83086C43.1438 2.81172 43.1755 2.79258 43.2076 2.77344C43.209 2.77599 43.2125 2.77982 43.2154 2.78237Z" fill="#ED1B6C"/>
<path d="M41.1501 6.16787C41.1654 6.16662 41.1811 6.16534 41.1964 6.16406C41.1693 6.1768 41.1426 6.18958 41.1145 6.20236C41.1273 6.19086 41.1387 6.17937 41.1501 6.16787Z" fill="#ED1B6C"/>
<path d="M38.5675 28.271C38.5522 28.2518 38.538 28.2315 38.5227 28.2124C38.528 28.2111 38.5369 28.2073 38.538 28.2099C38.5508 28.2277 38.5622 28.2455 38.575 28.2633C38.5725 28.2659 38.57 28.2684 38.5675 28.271Z" fill="#ED1B6C"/>
<path d="M39.4971 7.90697C39.5074 7.88918 39.5173 7.87135 39.5266 7.85352C39.5316 7.85732 39.5366 7.86113 39.5419 7.86498C39.5266 7.87768 39.5113 7.8917 39.4971 7.90697C39.4971 7.90697 39.496 7.90573 39.4971 7.90697Z" fill="#ED1B6C"/>
<path d="M55.3583 34.582C55.3199 34.5884 55.2804 34.5935 55.2419 34.5999L55.2434 34.6012C55.2814 34.5948 55.321 34.5897 55.3594 34.5833L55.3583 34.582Z" fill="#ED1B6C"/>
<path d="M45.5405 34.6008C45.606 34.6263 45.67 34.6518 45.7355 34.6786C45.7469 34.6914 45.7598 34.7041 45.7716 34.7169L45.7727 34.7156C45.4955 34.6008 45.2193 34.4859 44.9421 34.3711C45.1414 34.4476 45.3402 34.5242 45.5405 34.6008Z" fill="#ED1B6C"/>
<path d="M38.2341 28.7109C38.243 28.7377 38.2534 28.7658 38.2622 28.7926C38.2519 28.7658 38.243 28.7377 38.2341 28.7109Z" fill="#ED1B6C"/>
<path d="M55.9824 1.3883C55.9756 1.38704 55.9688 1.38578 55.962 1.38451C55.8093 1.36571 55.4898 1.50201 54.2802 1.1821C54.1382 1.14455 54.0123 1.11546 53.8992 1.09329C53.6578 1.06927 53.4182 1.04969 53.1882 1.03676C52.8802 1.06099 52.7028 1.1499 52.2889 1.10285C52.0625 1.07712 51.8315 1.10763 51.6473 1.15053C51.2438 1.24443 51.0639 1.39766 51.6473 1.15053C51.6555 1.14708 51.6637 1.14354 51.6723 1.13993C51.9599 1.01705 52.5325 0.999828 53.1882 1.03676C53.362 1.02311 53.577 1.02999 53.8992 1.09329C54.664 1.16935 55.4437 1.28987 55.962 1.38451C55.9691 1.3854 55.9759 1.38664 55.9824 1.3883Z" fill="#ED1B6C"/>
<path fill-rule="evenodd" clip-rule="evenodd" d="M67.4754 28.7184C67.5319 28.6449 67.5885 28.5715 67.6453 28.4986C67.6804 28.4467 67.7147 28.3959 67.7494 28.3451V28.3451C67.8117 28.2539 67.8735 28.1632 67.9354 28.0673C67.9737 28.0094 68.0155 27.9538 68.0574 27.8981V27.8981C68.1032 27.8373 68.149 27.7765 68.1897 27.7126C68.3231 27.502 68.4555 27.2902 68.575 27.072C68.6229 26.9842 68.6715 26.8965 68.7198 26.8089V26.8088V26.8087L68.7202 26.8087C68.9097 26.4658 69.0997 26.1225 69.2653 25.7679C69.4119 25.4556 69.5368 25.1327 69.6616 24.8102V24.8102V24.8101C69.7099 24.6859 69.7578 24.5618 69.8072 24.4383C69.8225 24.3997 69.8379 24.3611 69.8537 24.3224V24.3224V24.3223V24.3223C69.9277 24.1388 70.0017 23.9545 70.0611 23.7659C70.1856 23.3677 70.3011 22.9671 70.4091 22.5638C70.4145 22.5435 70.4199 22.5232 70.4252 22.5029L70.4349 22.4674C70.5433 22.0606 70.6517 21.6533 70.7339 21.2406C70.8133 20.8438 70.8659 20.4393 70.9085 20.0347C70.9496 19.6379 70.9839 19.2372 70.9868 18.8391C70.9875 18.6671 70.9904 18.4902 70.9932 18.3116V18.3115V18.3114V18.3114V18.3113C70.999 17.9471 71.0047 17.576 70.9943 17.225C70.9832 17.0898 70.975 16.9543 70.9668 16.8188V16.8187C70.9489 16.5282 70.9314 16.2378 70.8867 15.9515C70.7686 15.1846 70.622 14.4228 70.4746 13.6611C70.0289 11.3671 68.8929 9.2514 67.4772 7.40985C66.2658 5.84015 64.9327 4.45156 63.2759 3.32658C60.8977 1.70992 58.3982 0.651843 55.5117 0.233512C55.0267 0.164224 54.5377 0.116727 54.0495 0.069286C53.935 0.0581897 53.8209 0.0470966 53.7068 0.0357283C53.5573 0.0209524 53.4071 0.0150572 53.2572 0.00917047C53.1871 0.00641507 53.117 0.00366152 53.0469 0H52.8351H52.7003H52.6427V4.46754e-06V5.15062e-06C52.6105 0.0114876 52.5783 0.0229697 52.5451 0.0319005C52.5397 0.0328017 52.5329 0.0292469 52.5265 0.0257323C52.5236 0.0242709 52.5207 0.0228166 52.5182 0.0216923C52.5232 0.0178643 52.5282 0.0143552 52.5329 0.0108462C52.5375 0.00733711 52.5425 0.00382805 52.5476 0H52.4513C52.3766 0.00513553 52.3015 0.00985768 52.2264 0.0145824C52.1148 0.0215971 52.0028 0.0286174 51.8916 0.0370046C51.535 0.0650768 51.178 0.0944252 50.8225 0.126326C50.7488 0.132741 50.6751 0.138643 50.6014 0.144542C50.3671 0.163284 50.1336 0.181983 49.9021 0.216923C49.5427 0.270516 49.1846 0.338145 48.8316 0.422364C48.3541 0.535929 47.8791 0.664805 47.408 0.802617C47.2932 0.836567 47.1834 0.885646 47.0732 0.93481C46.9892 0.972493 46.9044 1.01023 46.8175 1.04123C46.6966 1.08405 46.5728 1.12026 46.4491 1.15644C46.3554 1.18388 46.262 1.2113 46.1694 1.24157C46.1465 1.2494 46.1275 1.26793 46.1086 1.28654C46.0903 1.30431 46.0721 1.32216 46.0499 1.33089C45.944 1.37429 45.8371 1.41529 45.7301 1.45627V1.45628C45.567 1.51891 45.4039 1.58148 45.244 1.65244C44.9525 1.78132 44.6675 1.92296 44.3863 2.0697C44.0347 2.25345 43.687 2.4474 43.3405 2.64136C43.305 2.66111 43.2764 2.69301 43.2478 2.72499V2.72499V2.725V2.725V2.725C43.2342 2.74052 43.2203 2.75606 43.2056 2.77023C43.2081 2.77198 43.2103 2.77432 43.212 2.77644V2.77645C43.2128 2.77743 43.2138 2.77836 43.2146 2.77917C43.3705 2.69884 43.5257 2.6172 43.681 2.53557V2.53557C43.9843 2.37603 44.2876 2.21656 44.5956 2.06715C44.9329 1.90463 45.2748 1.7531 45.6171 1.60151L45.6175 1.6015V1.60149C45.7562 1.54004 45.895 1.47858 46.0334 1.41638C46.0803 1.39547 46.1268 1.37367 46.1733 1.35187C46.3028 1.2912 46.4323 1.23055 46.5675 1.18925C46.6694 1.15802 46.7749 1.13727 46.8804 1.11656C47.016 1.08989 47.1512 1.06328 47.2785 1.01444L47.2989 1.00663L47.319 0.998908C47.554 0.908388 47.7857 0.819135 48.0372 0.773266C48.2629 0.732163 48.4868 0.679795 48.7107 0.627392V0.627385C48.8484 0.595197 48.9861 0.562991 49.1242 0.533377C49.1707 0.523618 49.219 0.522483 49.2669 0.521347C49.313 0.520255 49.3595 0.519166 49.4042 0.510407C49.4987 0.491676 49.5931 0.468606 49.6872 0.445551C49.8428 0.407355 49.9987 0.369206 50.1565 0.350905C50.4823 0.311626 50.8121 0.294738 51.1408 0.277904C51.1962 0.275051 51.252 0.272199 51.3078 0.26924C51.4988 0.259024 51.6902 0.254488 51.8819 0.249947C51.9778 0.247682 52.0733 0.245416 52.1691 0.242444C52.2124 0.241157 52.2557 0.239708 52.299 0.238261C52.427 0.233966 52.5551 0.229683 52.6838 0.229683C52.7575 0.229683 52.8312 0.233533 52.9049 0.237383C52.9718 0.240885 53.0387 0.244388 53.1059 0.244995C53.1706 0.246034 53.2354 0.244327 53.2998 0.242624C53.3935 0.24014 53.4872 0.237664 53.5809 0.24372C53.9969 0.271791 54.4114 0.308795 54.826 0.345799V0.345801C54.8614 0.348505 54.8954 0.362031 54.9297 0.375591C54.944 0.381225 54.958 0.386866 54.9723 0.391738C54.9555 0.392169 54.9387 0.392742 54.9222 0.393315C54.8893 0.394443 54.8568 0.395564 54.8235 0.395564C54.7824 0.396842 54.7412 0.396842 54.7001 0.395564C54.5796 0.390446 54.4594 0.384474 54.3388 0.378502C54.0992 0.366612 53.8595 0.354726 53.6195 0.349629C53.4961 0.346971 53.3727 0.346005 53.2497 0.345823C53.2561 0.344708 53.2626 0.34334 53.269 0.341964C53.2754 0.340622 53.2819 0.339273 53.2883 0.338145C53.2812 0.335252 53.274 0.331556 53.2672 0.327838C53.2522 0.320074 53.2372 0.312211 53.2214 0.311348C53.1334 0.30857 53.0455 0.304942 52.9571 0.301311V0.301311C52.7214 0.291601 52.4853 0.281879 52.25 0.28838C51.776 0.302416 51.3025 0.327937 50.8303 0.37132C50.6343 0.38893 50.4401 0.426588 50.2459 0.464175C50.1586 0.481059 50.0713 0.497929 49.9844 0.512959C49.9175 0.524842 49.8506 0.536601 49.7837 0.548353L49.7834 0.548424C49.6353 0.574508 49.4872 0.60055 49.3388 0.627801C49.1961 0.653654 49.053 0.678599 48.9103 0.703544V0.703548C48.5454 0.767247 48.1803 0.830947 47.819 0.909801C47.5454 0.969774 47.281 1.07058 47.0192 1.17266C46.693 1.29963 46.3682 1.43238 46.0435 1.56518L46.0431 1.56519C45.8621 1.63925 45.6808 1.71333 45.4994 1.78642C45.4118 1.82173 45.3227 1.85453 45.2337 1.88734C45.0688 1.94823 44.9035 2.00918 44.7458 2.08629C44.3262 2.29045 43.9127 2.50738 43.5071 2.73706C43.0489 2.99737 42.5922 3.26406 42.1544 3.55626C42.0092 3.65224 41.8858 3.7804 41.7627 3.90849C41.7073 3.96604 41.6518 4.02355 41.5946 4.07814C41.5785 4.09473 41.5624 4.11103 41.5467 4.12729C41.5306 4.14356 41.5145 4.15982 41.4984 4.17641C41.4544 4.21317 41.4104 4.25015 41.3668 4.28717L41.3664 4.28724V4.28734C41.2655 4.37233 41.1647 4.45743 41.062 4.54007C40.9858 4.60161 40.9082 4.66193 40.8306 4.72229V4.72233C40.68 4.83974 40.5291 4.95726 40.3867 5.08364C40.3109 5.15066 40.2476 5.23209 40.1843 5.31362C40.1424 5.36715 40.1009 5.42072 40.0555 5.47029C39.9364 5.60002 39.8137 5.72676 39.6914 5.85339V5.85346L39.691 5.85353V5.85356V5.85364C39.6352 5.91122 39.5794 5.96881 39.5243 6.02664C39.5243 6.03312 39.5243 6.03942 39.5247 6.04564V6.04568C39.5254 6.05785 39.5258 6.06967 39.5243 6.08152C39.5233 6.08519 39.5136 6.08686 39.5047 6.0885C39.5011 6.0891 39.4975 6.08971 39.4947 6.09045C39.4979 6.08216 39.5007 6.07355 39.5036 6.06493V6.0649C39.5065 6.05629 39.5093 6.04767 39.5125 6.03938C39.456 6.10191 39.3984 6.16444 39.3405 6.22698C39.3523 6.21715 39.3645 6.20797 39.3766 6.19893C39.382 6.19509 39.387 6.19124 39.392 6.1874L39.3995 6.1989C39.3902 6.20527 39.3802 6.21135 39.3702 6.2174C39.3602 6.22345 39.3501 6.22954 39.3405 6.23591C39.314 6.27061 39.2883 6.30581 39.2622 6.34097C39.2017 6.42347 39.1409 6.50604 39.0722 6.58299C38.9835 6.68267 38.892 6.78033 38.8007 6.87792C38.6541 7.03512 38.5071 7.19218 38.3701 7.35754C38.2757 7.47207 38.1966 7.59941 38.1176 7.72679V7.72682C38.0743 7.79665 38.031 7.86651 37.9852 7.93428C37.8704 8.10522 37.7524 8.28278 37.6343 8.46037L37.634 8.46051C37.516 8.63815 37.3979 8.81578 37.2831 8.98679C37.3557 8.88436 37.4473 8.77944 37.5378 8.67548C37.6157 8.58643 37.6926 8.49813 37.7567 8.41279C37.957 8.14611 38.1623 7.88452 38.3715 7.6255C38.4892 7.48018 38.613 7.34088 38.7367 7.20126V7.20122L38.7371 7.20119V7.20115V7.20112V7.20108C38.7754 7.15805 38.8136 7.11499 38.8515 7.07171C38.8612 7.06032 38.8759 7.05377 38.8905 7.04708C38.8973 7.04399 38.9041 7.04085 38.9106 7.03722C38.9084 7.04491 38.9073 7.05342 38.9059 7.06192C38.9034 7.07894 38.9009 7.09595 38.8912 7.10616C38.8701 7.12887 38.8465 7.14969 38.8233 7.17051C38.7889 7.20115 38.7546 7.23173 38.7271 7.26821C38.5475 7.5068 38.3715 7.74924 38.1995 7.99296C38.1054 8.12675 38.0239 8.26199 37.942 8.3977V8.39773C37.874 8.51055 37.8057 8.62373 37.7298 8.73669L37.7266 8.74143C37.7245 8.7442 37.7234 8.74588 37.7223 8.74759L37.7202 8.75072L37.7177 8.75428C37.7123 8.76164 37.7023 8.77638 37.6744 8.81602V8.81599L37.6748 8.81592V8.81588C37.6876 8.80457 37.6944 8.79869 37.7012 8.79257C37.7084 8.78588 37.7152 8.77898 37.7298 8.76453V8.76449C37.7527 8.7325 37.7753 8.70057 37.7982 8.66865C37.8912 8.53757 37.9838 8.40734 38.084 8.28007C38.1723 8.16736 38.2603 8.05393 38.3479 7.94054V7.94051V7.94047V7.94043V7.9404C38.6255 7.58147 38.903 7.22247 39.2046 6.88412C39.618 6.41859 40.0616 5.97827 40.504 5.53877C40.5394 5.50361 40.5749 5.46844 40.6103 5.43328C40.9014 5.14365 41.2108 4.86672 41.5241 4.59876C41.6293 4.50864 41.7463 4.43141 41.8629 4.35432V4.35429V4.35425C41.9298 4.31019 41.9963 4.26617 42.0607 4.21979C42.1436 4.15993 42.2252 4.098 42.3068 4.03611C42.4459 3.93037 42.585 3.82478 42.7306 3.72979C42.928 3.60152 43.1298 3.48037 43.3319 3.35923C43.471 3.27554 43.6105 3.19186 43.7486 3.10583C44.4081 2.69495 45.1013 2.35043 45.8267 2.06843C45.9147 2.03345 46.0027 1.9981 46.0907 1.96276V1.96274V1.96273C46.404 1.83688 46.7173 1.71098 47.0371 1.6014C47.4044 1.47561 47.7786 1.36796 48.1527 1.26028V1.26027L48.1531 1.26022C48.2114 1.24339 48.27 1.22656 48.3283 1.20967C48.539 1.14842 48.7533 1.09099 48.9689 1.05144C49.1041 1.02735 49.2401 1.01105 49.3763 0.994748C49.4926 0.980825 49.6092 0.966891 49.7251 0.948082C49.8131 0.933906 49.8996 0.913167 49.9866 0.892447C50.0871 0.868409 50.1879 0.844393 50.2899 0.830687C50.5667 0.79457 50.8446 0.766116 51.1226 0.737647C51.2374 0.725885 51.3522 0.714122 51.467 0.701811C51.4992 0.698259 51.531 0.694298 51.5632 0.690341C51.6576 0.678667 51.7517 0.667036 51.8469 0.666082C52.0114 0.664488 52.1756 0.667876 52.3401 0.671264C52.4388 0.6733 52.5375 0.675332 52.6363 0.676289C52.7432 0.677019 52.8505 0.677539 52.9575 0.678062C53.2254 0.679361 53.4929 0.680664 53.7608 0.685223C53.802 0.686112 53.8431 0.701256 53.8842 0.716403C53.8996 0.722108 53.915 0.727817 53.9307 0.732761C53.8914 0.734327 53.852 0.736394 53.8127 0.738466C53.72 0.743345 53.6274 0.748225 53.5348 0.74647C53.4843 0.745317 53.4339 0.738152 53.3838 0.731006C53.323 0.722365 53.2626 0.713752 53.2025 0.715848C52.8269 0.728063 52.4524 0.747043 52.0776 0.766059C52.0214 0.768895 51.9656 0.771728 51.9098 0.774544C51.8533 0.777462 51.7968 0.780263 51.7403 0.783064C51.4759 0.796175 51.2116 0.80928 50.9484 0.834517C50.7992 0.848657 50.6515 0.873221 50.5038 0.897821C50.3979 0.915392 50.2924 0.932981 50.1858 0.946804C50.1021 0.957413 50.0173 0.964222 49.9325 0.971034C49.8034 0.981423 49.6743 0.991815 49.548 1.01571C49.4257 1.03863 49.3066 1.07529 49.1875 1.11196C49.1077 1.13654 49.028 1.16112 48.9471 1.18159C48.8409 1.20842 48.7336 1.23119 48.6259 1.25396C48.4317 1.29509 48.2375 1.33618 48.0526 1.40107C47.9846 1.42484 47.917 1.44858 47.8494 1.47232C47.1247 1.72633 46.4001 1.98045 45.6944 2.28152C45.2369 2.47612 44.798 2.71691 44.3602 2.95722C44.2297 3.0289 44.0991 3.10054 43.9682 3.17091C43.6971 3.3151 43.4342 3.47715 43.1788 3.64686C42.8655 3.85613 42.5575 4.07434 42.2556 4.30019C41.9927 4.49669 41.7345 4.70211 41.4841 4.91523C41.3224 5.05389 41.1675 5.19988 41.0123 5.34598V5.34601C40.9533 5.4016 40.8943 5.4572 40.8349 5.5124C40.8166 5.52955 40.8016 5.55115 40.7866 5.57272C40.7805 5.58165 40.7744 5.59059 40.768 5.59916C40.7777 5.59361 40.7877 5.58835 40.7977 5.58308C40.8224 5.57027 40.847 5.55728 40.8681 5.5392C41.0191 5.40961 41.1693 5.27857 41.3195 5.14756V5.14752C41.4104 5.06826 41.5012 4.98901 41.5921 4.9101C41.606 4.89733 41.625 4.89106 41.644 4.8848C41.6518 4.88231 41.6593 4.87981 41.6665 4.87693C41.6611 4.88394 41.6565 4.89124 41.6515 4.89846C41.6425 4.91234 41.6336 4.92601 41.6214 4.9369C41.5145 5.03527 41.4061 5.13247 41.2977 5.22963V5.22967V5.2297V5.22974L41.2974 5.22977C41.0885 5.41741 40.8792 5.60493 40.6782 5.80078C40.4064 6.06504 40.1421 6.33716 39.8781 6.60915V6.60922L39.8777 6.60925V6.60932V6.60939C39.7897 6.69983 39.7021 6.79023 39.6141 6.88031C39.6023 6.89202 39.5944 6.90761 39.5862 6.92341C39.5819 6.9317 39.5776 6.94003 39.573 6.94793C39.5809 6.94266 39.5891 6.93803 39.5973 6.93341C39.613 6.92455 39.6284 6.91583 39.6409 6.90326C39.7164 6.8282 39.7912 6.75204 39.8659 6.67581C39.9858 6.55373 40.1056 6.43155 40.229 6.31375L40.2708 6.27353C40.5842 5.97304 40.8968 5.67312 41.2223 5.38609C41.4404 5.19504 41.6665 5.0126 41.8922 4.8302L41.8926 4.8301C41.9923 4.74938 42.0921 4.66869 42.1916 4.5873C42.2016 4.57886 42.2159 4.57488 42.2298 4.57096C42.237 4.56893 42.2442 4.56691 42.2506 4.56431C42.2467 4.57086 42.2434 4.57815 42.2399 4.58545C42.2334 4.59954 42.227 4.61378 42.2159 4.62303C42.1186 4.70428 42.0202 4.7845 41.9222 4.86469V4.86472V4.86476H41.9219V4.8648C41.7198 5.03001 41.5173 5.19511 41.3238 5.3695C40.9812 5.67828 40.6446 5.996 40.3227 6.32521C40.0533 6.60021 39.7976 6.88746 39.5415 7.17464C39.4889 7.23393 39.436 7.29323 39.3831 7.35241C39.3512 7.38758 39.3298 7.43164 39.3079 7.47591C39.2911 7.5104 39.274 7.54503 39.2521 7.5757C39.2207 7.6193 39.1892 7.6629 39.1577 7.70653L39.1574 7.707C38.4828 8.64334 37.805 9.58385 37.3242 10.6382C37.2445 10.8132 36.8854 11.7788 36.9759 11.5989C37.3271 10.8464 37.6998 10.0754 38.1487 9.37582C38.8015 8.35421 39.4893 7.43064 40.3391 6.63018C40.3463 6.62317 40.3538 6.61648 40.361 6.60979V6.60975C40.3685 6.60306 40.376 6.59637 40.3828 6.58936L40.4447 6.50131C40.4482 6.50896 40.4522 6.51789 40.4561 6.52682C40.4579 6.52946 40.46 6.53145 40.4622 6.5333C40.4633 6.53416 40.4643 6.53498 40.465 6.53576C40.5133 6.4876 40.5616 6.43938 40.6099 6.39115L40.6103 6.39105C40.7551 6.24637 40.8996 6.10191 41.0477 5.96026C41.1643 5.84812 41.2852 5.73939 41.4057 5.63059L41.4061 5.63045V5.63031L41.4065 5.6302C41.4505 5.59055 41.4945 5.55094 41.5381 5.51111C41.5495 5.49556 41.5617 5.48051 41.5739 5.46563V5.46559C41.5803 5.45734 41.5871 5.44915 41.5935 5.44093C41.6028 5.432 41.6125 5.42338 41.6221 5.41477C41.6318 5.40616 41.6415 5.39755 41.6511 5.38861C41.6486 5.4016 41.6475 5.41563 41.6461 5.42876V5.432C41.6651 5.42054 41.6844 5.40904 41.7026 5.39626C41.8732 5.26921 42.0431 5.14058 42.213 5.012V5.01196C42.6265 4.69895 43.04 4.38596 43.4674 4.09473C43.9038 3.79616 44.3738 3.54223 44.842 3.29213C45.2644 3.06755 45.6944 2.85318 46.1372 2.67198C46.6662 2.45634 47.2052 2.26111 47.7507 2.09522C48.3348 1.91786 48.9253 1.75963 49.5248 1.63586C51.0818 1.32578 52.6541 1.25432 54.2369 1.39214C55.5603 1.50825 56.8541 1.76473 58.116 2.17944C58.5488 2.32195 58.9723 2.48198 59.3864 2.65881C59.0373 2.51455 58.6804 2.38642 58.3123 2.27864C58.2501 2.25823 58.1836 2.23371 58.1167 2.20919V2.20917C58.0501 2.18464 57.9836 2.16012 57.9214 2.1397C57.8083 2.1027 57.6724 2.05917 57.5583 2.02855C57.4557 2.00053 57.3512 1.9704 57.2461 1.94004C57.0064 1.87082 56.7621 1.80033 56.525 1.75066C56.0936 1.66007 55.5371 1.55033 55.1007 1.50057C54.3946 1.42146 53.8996 1.38941 53.1456 1.36163C53.0841 1.36163 53.0115 1.36125 52.9342 1.36085C52.7661 1.35998 52.5787 1.359 52.4474 1.36163C52.1602 1.36786 51.9957 1.38373 51.7163 1.41065L51.6966 1.41255C51.173 1.46359 50.6493 1.52612 50.1282 1.60523C49.6403 1.67796 49.1564 1.77367 48.6739 1.87192C48.5919 1.88836 48.5133 1.92188 48.4346 1.95555V1.95556C48.3788 1.97936 48.323 2.00324 48.2654 2.02121C48.1423 2.05988 48.0179 2.0954 47.8934 2.13093C47.6723 2.19389 47.4517 2.25692 47.2374 2.33766C46.7291 2.52779 46.2259 2.73451 45.7305 2.95781C45.2991 3.15177 44.8756 3.36358 44.4621 3.59326C44.1849 3.74655 43.9188 3.9203 43.6527 4.09412V4.09416C43.5801 4.14167 43.5071 4.18926 43.4342 4.23638C43.3401 4.29702 43.2517 4.36518 43.1634 4.43334V4.43337C43.1309 4.45843 43.0983 4.48348 43.0658 4.50818C42.9348 4.60627 42.8046 4.70435 42.6741 4.80244L42.6734 4.80294L42.6727 4.80358L42.6723 4.80376V4.8039L42.6719 4.80408C42.5417 4.90195 42.4119 4.99983 42.2814 5.0977C42.227 5.13848 42.1708 5.17774 42.1147 5.2171C41.9988 5.29839 41.8825 5.37993 41.7795 5.47538C41.4404 5.78822 41.1099 6.11056 40.7798 6.43258V6.43262L40.7791 6.43344C40.7269 6.48415 40.675 6.53487 40.6228 6.58555C40.4547 6.75015 40.2919 6.91985 40.1313 7.0921C40.0412 7.18955 39.9579 7.29273 39.8742 7.39583V7.3959V7.39594C39.8616 7.41163 39.8488 7.42733 39.8362 7.44302C39.8277 7.45324 39.828 7.47025 39.8287 7.48726C39.8291 7.49577 39.8291 7.50428 39.8284 7.51193C39.8366 7.50951 39.8455 7.50783 39.8548 7.5062C39.8745 7.5026 39.8945 7.49901 39.9042 7.48769C39.9317 7.45513 39.9571 7.4205 39.9822 7.3859C40.0133 7.34323 40.0444 7.30056 40.0798 7.26183C40.1424 7.19375 40.2082 7.12926 40.2744 7.06491C40.3195 7.02068 40.3645 6.97654 40.4085 6.93134C40.5673 6.7667 40.7254 6.60149 40.8835 6.4365V6.43635V6.43621L40.8839 6.43607V6.43593C40.9608 6.35556 41.0377 6.27524 41.1146 6.19505L41.1493 6.1606C41.1579 6.15847 41.1668 6.15608 41.1758 6.15366C41.1883 6.15035 41.2008 6.14697 41.2133 6.14402C41.2995 6.06511 41.3836 5.98404 41.468 5.903C41.6454 5.73252 41.8224 5.56208 42.0156 5.4116C42.5174 5.02114 43.035 4.6498 43.5561 4.28485C43.809 4.10768 44.0773 3.95045 44.3448 3.79378C44.3795 3.77331 44.4146 3.75285 44.4493 3.73235C44.5898 3.64985 44.7347 3.57412 44.8796 3.49842C44.9518 3.46056 45.0244 3.42271 45.0963 3.384C45.1085 3.37635 45.121 3.36869 45.1335 3.36104C45.146 3.35338 45.1586 3.34572 45.1707 3.33806C45.1707 3.34954 45.1696 3.36102 45.1682 3.3725V3.37252C45.2569 3.33083 45.3456 3.2882 45.4343 3.24555V3.24552V3.24551C45.6171 3.1576 45.8002 3.06961 45.9859 2.98971C46.3761 2.82128 46.7674 2.65284 47.1669 2.50993C47.5443 2.37594 47.9281 2.25728 48.3169 2.16285C48.3459 2.1558 48.3748 2.14875 48.4038 2.14169C48.9514 2.00816 49.5015 1.874 50.0588 1.79281C50.7917 1.68562 51.5325 1.60906 52.2729 1.57333C53.1689 1.52995 54.0638 1.58099 54.9558 1.69966C55.9709 1.83619 56.966 2.05949 57.9414 2.36702C59.0631 2.72047 60.144 3.17601 61.1491 3.7821C61.8487 4.20449 62.5276 4.66766 63.1722 5.16788C63.7677 5.63105 64.3246 6.15042 64.8665 6.67741C65.6058 7.39708 66.2321 8.21629 66.7994 9.07505C67.8789 10.7109 68.6594 12.4782 69.105 14.3871C69.4963 16.0689 69.6197 17.7698 69.4874 19.4912C69.3937 20.7123 69.1691 21.908 68.8071 23.0781C68.3385 24.5952 67.6571 26.0129 66.7776 27.3387C66.0908 28.3761 65.2979 29.3242 64.3979 30.183C63.4597 31.0774 62.4275 31.8507 61.289 32.4772C61.2085 32.5215 61.1284 32.5661 61.0482 32.6108L61.0475 32.611C60.6537 32.8302 60.2588 33.0497 59.8464 33.2288C59.1414 33.5338 58.42 33.8005 57.6989 34.0633C57.3459 34.1909 56.98 34.2866 56.613 34.3695C56.3007 34.4402 55.9856 34.4976 55.6705 34.5551L55.6698 34.5553L55.6694 34.5553L55.6687 34.5554V34.5555C55.5346 34.5799 55.4004 34.6044 55.2663 34.6298C55.2212 34.6384 55.1758 34.6457 55.1304 34.6531V34.6531L55.13 34.6532C55.1207 34.6547 55.1114 34.6561 55.1025 34.6577C55.0889 34.6599 55.0757 34.6621 55.0621 34.6643C55.091 34.6541 55.12 34.6436 55.149 34.633C55.178 34.6225 55.2066 34.612 55.2355 34.6018C55.2377 34.6007 55.2398 34.598 55.2413 34.5956L55.2434 34.5954L55.242 34.5941C55.2416 34.5946 55.2413 34.5951 55.2413 34.5956C55.1361 34.6076 55.0309 34.6192 54.9258 34.6308C54.6396 34.6624 54.3531 34.6941 54.0673 34.7332C53.0587 34.8736 52.0457 34.8404 51.0367 34.7741C49.9637 34.7039 48.901 34.5138 47.8726 34.2088C45.4318 33.4867 43.2299 32.3504 41.2942 30.6934C40.4175 29.9418 39.6023 29.1264 38.8515 28.2485C38.8376 28.2319 38.8172 28.2206 38.7965 28.2094C38.7886 28.2051 38.7807 28.2008 38.7732 28.1962C38.7761 28.2061 38.7782 28.2164 38.78 28.2267C38.7846 28.2493 38.7893 28.2718 38.8015 28.2893C38.853 28.3651 38.903 28.4422 38.9531 28.5191C39.0797 28.7143 39.2064 28.9091 39.3573 29.083C39.7271 29.5092 40.1159 29.9201 40.5165 30.3195C40.7272 30.5291 40.9515 30.7255 41.1758 30.9219V30.9219C41.2734 31.0073 41.3707 31.0926 41.4669 31.1789C41.4322 31.1537 41.3968 31.1292 41.3614 31.1046V31.1045C41.2684 31.0403 41.1758 30.976 41.0953 30.8988C41.0062 30.8134 40.9172 30.7281 40.8277 30.6427V30.6426C40.3395 30.1757 39.8502 29.7077 39.3791 29.2234C39.1781 29.0164 38.9993 28.7887 38.8204 28.5609C38.741 28.46 38.662 28.3591 38.5808 28.26L38.5729 28.2676C38.5933 28.2999 38.613 28.3328 38.6326 28.3656V28.3656V28.3656V28.3657C38.6781 28.4417 38.7238 28.5179 38.7757 28.5892C38.9066 28.7693 39.0415 28.9459 39.1763 29.1227L39.2135 29.1714C39.2264 29.1883 39.2393 29.2052 39.2521 29.2221L39.265 29.2387C39.362 29.3644 39.4589 29.4901 39.5562 29.6158C39.6535 29.7415 39.7508 29.8671 39.8477 29.9928C39.8734 30.0234 39.8988 30.0528 39.9246 30.0821V30.0822C40.043 30.2149 40.161 30.3476 40.2776 30.4802C40.2855 30.489 40.2912 30.4996 40.2966 30.5103V30.5104C40.2994 30.5153 40.3019 30.5201 40.3044 30.5249C40.3005 30.5223 40.2959 30.52 40.2916 30.5175C40.2826 30.5127 40.2737 30.5079 40.2662 30.5019C40.2372 30.4777 40.2068 30.4544 40.1768 30.431V30.431C40.1081 30.3779 40.0394 30.3246 39.9825 30.2608C39.6166 29.8512 39.2507 29.439 38.8977 29.0179C38.8444 28.9544 38.7907 28.8911 38.7371 28.8277V28.8277L38.7367 28.8274C38.471 28.5141 38.2045 28.1997 37.9813 27.858C37.6622 27.3692 37.3679 26.8635 37.0735 26.3582V26.358V26.358C36.9701 26.1802 36.8664 26.0023 36.762 25.8253C36.6954 25.7124 36.6314 25.6144 36.5677 25.5167C36.4994 25.4125 36.4318 25.3086 36.3614 25.1874C36.3506 25.1689 36.3388 25.1511 36.3245 25.1296V25.1296V25.1295V25.1293V25.1293C36.3052 25.1002 36.2816 25.0644 36.2498 25.0112C36.273 25.0621 36.2995 25.129 36.3206 25.1826L36.3242 25.1911C36.3724 25.3108 36.4197 25.4307 36.4669 25.5506C36.5534 25.7697 36.6396 25.9887 36.7312 26.2056C36.7992 26.3702 36.88 26.531 36.9687 26.6866C37.2395 27.1588 37.5117 27.6322 37.7964 28.0967C37.8876 28.245 37.9942 28.3846 38.1008 28.5243V28.5243C38.1476 28.5853 38.1941 28.6462 38.2392 28.7079C38.2438 28.7213 38.2485 28.735 38.2535 28.7487C38.2581 28.7624 38.2631 28.7761 38.2674 28.7895C38.2846 28.8085 38.3018 28.8274 38.319 28.8463V28.8465V28.8465C38.369 28.9016 38.4191 28.9569 38.4677 29.0128C38.5096 29.0613 38.5518 29.1098 38.5936 29.1583V29.1584V29.1584V29.1585C38.7263 29.3119 38.859 29.4655 38.9928 29.6177C39.0175 29.6454 39.0429 29.6723 39.0683 29.6992V29.6992C39.1144 29.7477 39.1602 29.7961 39.2006 29.8486C39.2604 29.9246 39.318 30.0025 39.3752 30.0805C39.4585 30.1936 39.5415 30.3066 39.632 30.4139C39.8362 30.6563 40.044 30.8988 40.2687 31.1221C40.5766 31.4283 40.8885 31.7346 41.2251 32.0076C41.5356 32.2592 41.8589 32.4951 42.1826 32.7312C42.3203 32.8315 42.4577 32.9319 42.5947 33.0336C44.156 34.2094 46.1307 34.9497 48.0164 35.4606C50.0137 36.0059 51.8805 36.075 53.9279 35.9415C56.0249 35.8009 58.0881 35.411 60.0195 34.5775C60.3572 34.4334 60.6909 34.279 61.0232 34.1246C61.2314 34.0289 61.4367 33.928 61.6395 33.8221C61.7897 33.7443 61.936 33.6601 62.0809 33.572C62.3377 33.4164 62.5945 33.2594 62.8485 33.0974C62.9887 33.0068 63.1246 32.9098 63.258 32.809C63.3657 32.7285 63.4712 32.6453 63.5771 32.562C63.6507 32.5041 63.7241 32.4462 63.7985 32.3892C63.9022 32.3088 64.0066 32.2296 64.1107 32.1504L64.1111 32.1501C64.3182 31.993 64.5249 31.8361 64.7252 31.6708C64.9484 31.4858 65.1591 31.2842 65.3644 31.0787C65.7214 30.7214 66.0755 30.3603 66.4196 29.9903C66.6556 29.7363 66.8767 29.4684 67.0959 29.2004C67.2258 29.0424 67.3506 28.8802 67.4754 28.7184ZM41.561 31.2497C41.5624 31.2529 41.5638 31.2563 41.5649 31.2598C41.5692 31.2711 41.5735 31.2828 41.5817 31.2892C41.659 31.3479 41.7384 31.4054 41.8182 31.4628C41.8976 31.5202 42.5614 31.9677 42.5614 31.9677C42.5614 31.9677 41.6998 31.3416 41.6343 31.2892C41.62 31.2776 41.6032 31.2697 41.586 31.2617C41.5774 31.2579 41.5692 31.254 41.561 31.2497ZM53.9372 0.734743C53.9318 0.74042 53.9264 0.746317 53.9211 0.752214C53.915 0.758912 53.9089 0.76561 53.9032 0.771992C53.9085 0.773543 53.9139 0.775334 53.9193 0.777106V0.777113C53.9314 0.781167 53.9432 0.785139 53.9558 0.786029C54.0008 0.789004 54.0459 0.79099 54.091 0.792976C54.1811 0.796944 54.2712 0.800916 54.3599 0.812824C54.5348 0.83589 54.7105 0.851813 54.8861 0.86774C55.3228 0.907309 55.7599 0.946882 56.1791 1.0961C56.2124 1.10806 56.2496 1.10761 56.2868 1.10715C56.3172 1.10677 56.3479 1.10639 56.3765 1.11269C56.574 1.1537 56.7707 1.19646 56.9674 1.23917L56.9678 1.23923C57.1076 1.26959 57.2471 1.29993 57.387 1.32961C57.4246 1.33761 57.4625 1.34271 57.5007 1.3478C57.554 1.3549 57.607 1.36197 57.6578 1.37682C57.7329 1.39903 57.8055 1.4299 57.8781 1.46082C57.9096 1.47427 57.9414 1.48772 57.9732 1.50047C57.9786 1.4856 58.2755 1.49947 58.4465 1.50745C58.5198 1.51088 58.5702 1.51323 58.5638 1.51172C58.2544 1.42939 57.6427 1.30514 57.1427 1.20353C56.9141 1.15712 56.7092 1.11543 56.5665 1.08462C56.0879 0.979981 55.6054 0.888108 55.12 0.821754C54.8467 0.784352 54.571 0.769945 54.2956 0.755545C54.1761 0.749314 54.057 0.743082 53.9379 0.734985L53.9372 0.734743ZM57.9883 1.5051L58.0215 1.51506V1.51506C58.0898 1.53572 58.1578 1.55622 58.2265 1.57588C58.2351 1.57872 58.244 1.57945 58.253 1.58016C58.2562 1.58041 58.2594 1.58066 58.2623 1.58099C58.2601 1.57878 58.258 1.57626 58.2558 1.57376C58.2508 1.56757 58.2454 1.56148 58.239 1.56057C58.1557 1.5413 58.072 1.52317 57.9883 1.5051ZM53.1402 0.345844C53.0562 0.343243 52.9725 0.340375 52.8884 0.337507V0.337506C52.7765 0.333679 52.6645 0.32985 52.5529 0.326661C52.5426 0.326661 52.5322 0.328929 52.5222 0.331198C52.5168 0.332332 52.5118 0.333466 52.5064 0.334317C52.5121 0.335673 52.5175 0.337668 52.5232 0.339681C52.5336 0.343351 52.544 0.347077 52.554 0.347077C52.6795 0.347527 52.8051 0.347024 52.9303 0.346521V0.34652V0.34652C53.0004 0.346239 53.0701 0.345958 53.1402 0.345844ZM52.4023 1.41701C52.3744 1.41469 52.3462 1.41255 52.3179 1.41255C52.3122 1.41255 52.3068 1.41682 52.3015 1.42122C52.2983 1.42362 52.2954 1.42606 52.2922 1.42786V1.42786L52.2925 1.42785C52.3287 1.42423 52.3651 1.42062 52.4023 1.41701ZM52.4199 1.41589C52.4445 1.4148 52.4692 1.41383 52.4939 1.41383C52.4925 1.41128 52.491 1.40617 52.491 1.40617C52.4674 1.40842 52.4438 1.41166 52.4199 1.41589ZM69.6941 16.8473V16.8098C69.6931 16.8218 69.6931 16.8342 69.6941 16.8473ZM69.6941 16.8473C69.6949 16.8618 69.697 16.8766 69.6999 16.8914C69.6977 16.8766 69.6959 16.8619 69.6941 16.8473ZM69.6941 16.66V16.6584C69.6931 16.6584 69.6931 16.659 69.6941 16.66ZM69.7346 17.0617V17.062C69.7356 17.062 69.7353 17.0619 69.7346 17.0617ZM39.3934 6.48472C39.3856 6.49365 39.1262 6.76371 39.1262 6.76371C39.1366 6.74457 39.3791 6.44006 39.3791 6.44006C39.3791 6.44006 39.75 6.04707 39.9364 5.85054C39.9471 5.83901 39.9582 5.82844 39.9697 5.8179V5.81787C39.9768 5.81096 39.9843 5.80406 39.9915 5.79694C40.0262 5.76121 40.0594 5.72551 40.0927 5.68978C40.0852 5.70316 40.078 5.71715 40.0709 5.73113C40.0541 5.76381 40.0376 5.79658 40.0133 5.82246C39.8763 5.97048 39.7382 6.11732 39.6002 6.2642V6.26424C39.5311 6.3377 39.4621 6.41116 39.3934 6.48472ZM43.6066 3.46827C43.6148 3.46882 43.6248 3.46949 43.637 3.46949C43.6198 3.4834 43.6073 3.49443 43.5973 3.50356V3.50356C43.5858 3.5137 43.5769 3.52147 43.5676 3.52819C43.4585 3.59963 43.348 3.66982 43.2378 3.74C43.2249 3.74765 43.2106 3.75278 43.1967 3.75787C43.1988 3.75374 43.2002 3.74922 43.202 3.7447C43.2056 3.7353 43.2088 3.72605 43.216 3.72085C43.3351 3.63665 43.456 3.55371 43.578 3.47077C43.5837 3.4667 43.5923 3.4673 43.6066 3.46827ZM42.3121 3.5901C42.2663 3.62134 42.2205 3.65259 42.1748 3.68388C42.1619 3.67875 42.1544 3.67622 42.1479 3.67622C42.1494 3.67249 42.1508 3.66836 42.1522 3.66423C42.1547 3.65572 42.1572 3.64732 42.1633 3.64302C42.2492 3.58433 42.3354 3.52819 42.4226 3.47332C42.4276 3.46822 42.442 3.47077 42.4484 3.4746C42.452 3.47588 42.4534 3.49374 42.4495 3.49629C42.404 3.52755 42.3579 3.55882 42.3121 3.5901ZM69.5736 15.7291C69.5682 15.7352 69.5647 15.7411 69.5682 15.7461C69.5704 15.7401 69.5722 15.7344 69.5736 15.7291ZM40.4901 5.31106C40.4958 5.31366 40.5033 5.31701 40.5126 5.32099C40.4654 5.36302 40.4221 5.40189 40.3799 5.43958V5.43972L40.3796 5.43997C40.3467 5.46962 40.3141 5.49855 40.2816 5.5277C40.2801 5.5277 40.2712 5.52133 40.2662 5.51752C40.3009 5.48243 40.3356 5.44702 40.3699 5.4116C40.4046 5.37619 40.4393 5.34078 40.474 5.30569C40.4751 5.30401 40.4797 5.30615 40.4901 5.31106ZM40.1299 30.8503H40.1546C40.1871 30.881 40.4329 31.0963 40.6943 31.3255L40.6968 31.3276L40.6972 31.328L40.6983 31.3288L40.6986 31.3291C41.0005 31.5936 41.322 31.8753 41.3603 31.9121C42.2935 32.7433 41.3045 31.8843 41.3045 31.8843L40.342 31.0672C40.2726 31.0034 40.2032 30.9396 40.1338 30.8745C40.1313 30.8712 40.131 30.8649 40.1306 30.8589C40.1306 30.8559 40.1306 30.8529 40.1299 30.8503ZM40.7451 4.86569C40.749 4.86878 40.7544 4.87287 40.7601 4.87693C40.7226 4.90975 40.6868 4.9416 40.6518 4.97278V4.97285V4.97288C40.6296 4.9926 40.6078 5.01207 40.5856 5.03132L40.5741 5.01602C40.6281 4.9637 40.6822 4.91138 40.7372 4.86035C40.7372 4.85967 40.7401 4.86198 40.7451 4.86569ZM51.7145 1.4687V1.4687V1.46871C51.6669 1.47253 51.6197 1.47636 51.5747 1.48018C51.5285 1.47635 51.4849 1.47253 51.4412 1.46742C51.4581 1.46471 51.4745 1.46153 51.4913 1.45835C51.5299 1.45103 51.5686 1.44368 51.6079 1.4419C51.6308 1.4419 51.6544 1.44971 51.678 1.45759C51.6902 1.46162 51.7024 1.46567 51.7145 1.4687V1.4687ZM40.4861 30.6592C40.4894 30.6549 40.4933 30.6501 40.4972 30.6448C40.5183 30.6703 40.5384 30.6936 40.5573 30.716V30.7162C40.5784 30.7409 40.5985 30.7644 40.6178 30.7878L41.4161 31.5509C41.3714 31.5113 40.5151 30.7214 40.4715 30.6806C40.4704 30.6796 40.4768 30.6716 40.4861 30.6592ZM42.7152 4.08163C42.6973 4.09505 42.6787 4.10875 42.6601 4.12281C42.6523 4.11131 42.6473 4.10366 42.6483 4.10366L42.6487 4.10363C42.7049 4.06281 42.7614 4.02198 42.8193 3.98244C42.82 3.98244 42.8225 3.98486 42.8257 3.98767C42.8283 3.98985 42.8311 3.99227 42.8333 3.99394C42.7943 4.02223 42.7556 4.05117 42.7152 4.08153V4.0816V4.08163ZM69.5926 15.8341C69.5918 15.8344 69.5922 15.8355 69.5936 15.8373C69.5933 15.8362 69.5929 15.8351 69.5926 15.8341ZM40.9744 4.69677C40.9751 4.69727 40.9762 4.69781 40.9772 4.6983L40.9722 4.70243L40.9665 4.70734V4.70749C40.9447 4.72617 40.9268 4.7414 40.9079 4.75571C40.9061 4.75664 40.9 4.75144 40.8943 4.74656C40.8935 4.74575 40.8925 4.74489 40.8918 4.74411C40.8907 4.74322 40.8896 4.7424 40.8885 4.74169C40.8957 4.73553 40.9028 4.72923 40.91 4.7229V4.72283V4.72279C40.9236 4.71073 40.9372 4.69852 40.9515 4.68681C40.9533 4.68588 40.9594 4.68902 40.9676 4.69325L40.9704 4.69485C40.9715 4.69549 40.973 4.69613 40.9744 4.69677ZM70.9611 18.3993C70.9607 18.3998 70.9603 18.4002 70.9611 18.4002V18.3993ZM70.3276 13.2216L70.3283 13.2234C70.3272 13.2236 70.3262 13.2238 70.3251 13.2241C70.3251 13.224 70.3255 13.2238 70.3255 13.2237C70.3262 13.2231 70.3269 13.2223 70.3276 13.2216ZM70.3015 13.1478L70.3011 13.1468C70.2997 13.1478 70.3001 13.148 70.3015 13.1478ZM41.992 3.80396C41.9784 3.81691 41.9644 3.83054 41.9491 3.84592C41.9484 3.84271 41.948 3.83976 41.9473 3.83709C41.9458 3.83129 41.9451 3.82684 41.9476 3.82424C41.968 3.80253 41.9898 3.78086 42.0117 3.75915C42.0117 3.75787 42.022 3.76552 42.027 3.76936C42.0156 3.78089 42.0042 3.79214 41.992 3.80396ZM59.4158 1.97321C59.4244 1.97775 59.4344 1.98318 59.4469 1.98931C59.4319 1.99094 59.4201 1.99327 59.4111 1.99511C59.3986 1.99758 59.3907 1.99916 59.3843 1.99697C59.3725 1.99255 59.3621 1.98383 59.3517 1.97507C59.3471 1.9712 59.3428 1.96732 59.3378 1.96379C59.3403 1.96339 59.3428 1.96292 59.3453 1.96243C59.3467 1.96209 59.3485 1.96173 59.35 1.96138V1.96138L59.3503 1.96137C59.3611 1.95904 59.3714 1.95682 59.3814 1.95869C59.3922 1.9603 59.4015 1.96546 59.4158 1.97321ZM51.8114 0.348877C51.8175 0.352868 51.8247 0.357782 51.834 0.363665C51.8207 0.363665 51.81 0.363942 51.8011 0.364177C51.7825 0.364654 51.7707 0.364957 51.7596 0.362391C51.7535 0.360636 51.7478 0.354067 51.7421 0.34723C51.7392 0.344114 51.7367 0.340941 51.7338 0.338145C51.7385 0.337796 51.7431 0.337256 51.7478 0.336707C51.7603 0.335252 51.7735 0.333739 51.7864 0.335593C51.7932 0.336449 51.7996 0.340749 51.8114 0.348877ZM43.5518 2.88427C43.5554 2.8861 43.5594 2.88823 43.5636 2.89018C43.5597 2.89346 43.5561 2.89659 43.5529 2.89958V2.89959C43.539 2.91172 43.5275 2.92155 43.5161 2.92974C43.5154 2.92974 43.51 2.92407 43.5046 2.9184C43.5018 2.91556 43.4993 2.91272 43.4971 2.9106C43.5007 2.90788 43.5046 2.90507 43.5082 2.90224C43.5186 2.89445 43.5293 2.88653 43.5408 2.87997C43.5422 2.87918 43.5461 2.88132 43.5518 2.88427ZM70.5157 14.0299C70.5161 14.0311 70.5161 14.0321 70.5165 14.0331C70.5182 14.0402 70.519 14.049 70.5186 14.0574C70.5193 14.0514 70.5193 14.0456 70.5182 14.04C70.5175 14.0367 70.5168 14.0334 70.5157 14.0299ZM54.3553 34.7642C54.3596 34.7663 54.3649 34.7689 54.3717 34.7715C54.3678 34.7728 54.3642 34.7741 54.361 34.7752L54.3607 34.7754C54.3456 34.7809 54.3363 34.7843 54.3267 34.7843C54.3231 34.7843 54.3188 34.7804 54.3149 34.7768C54.3131 34.7753 54.3116 34.7739 54.3102 34.7728C54.3138 34.7714 54.3177 34.7696 54.3213 34.7679C54.3281 34.7648 54.3349 34.7616 54.3421 34.76C54.3453 34.7593 54.3492 34.7612 54.3553 34.7642ZM37.8926 28.1453L37.8955 28.1485C37.8983 28.1519 37.9012 28.1555 37.9044 28.1592L37.903 28.1601L37.9012 28.1616C37.8969 28.1648 37.8926 28.1681 37.8915 28.1681C37.8811 28.1566 37.8708 28.1451 37.8618 28.1324C37.8618 28.1311 37.8683 28.1247 37.8722 28.1209C37.8743 28.1236 37.8765 28.1262 37.8786 28.1289C37.8808 28.1313 37.8829 28.1337 37.8847 28.1362L37.889 28.1411L37.8894 28.1413V28.1414L37.8901 28.1425L37.8926 28.1453ZM56.5565 0.684586C56.5561 0.686497 56.5557 0.688412 56.555 0.690326C56.55 0.689917 56.5454 0.689639 56.5407 0.689369C56.5307 0.688789 56.5211 0.688234 56.5114 0.686497C56.506 0.68476 56.5014 0.681247 56.4967 0.677567C56.4957 0.676788 56.4946 0.676001 56.4935 0.675222C56.4928 0.674745 56.4921 0.674268 56.4917 0.673798C56.491 0.673346 56.4903 0.672898 56.4896 0.67246C56.4949 0.67246 56.4996 0.672047 56.5046 0.671634C56.5121 0.671026 56.5193 0.670424 56.5268 0.671186C56.5336 0.672036 56.5404 0.674022 56.5475 0.676005C56.5507 0.676998 56.5543 0.677991 56.5575 0.678841C56.5572 0.680756 56.5568 0.682671 56.5565 0.684586ZM50.8339 0.879154C50.8407 0.875954 50.8471 0.872922 50.8532 0.870246C50.8622 0.872797 50.8675 0.874072 50.8725 0.875349C50.8682 0.877474 50.8639 0.879745 50.8597 0.882012C50.8511 0.88655 50.8425 0.891087 50.8339 0.89449C50.8303 0.896291 50.8257 0.893636 50.8207 0.891023C50.8185 0.889938 50.8167 0.888859 50.8149 0.888108C50.8214 0.885083 50.8278 0.882058 50.8339 0.879168V0.879154ZM58.1685 1.0845V1.08451C58.1757 1.08601 58.1839 1.08777 58.1943 1.08972C58.1889 1.09304 58.1846 1.09604 58.1811 1.0986C58.1718 1.10489 58.1667 1.10849 58.1621 1.10758C58.1542 1.10581 58.1467 1.10156 58.1396 1.09742V1.09741C58.1363 1.0956 58.1331 1.09382 58.1299 1.09227C58.1306 1.09153 58.1313 1.09073 58.1317 1.08991C58.1321 1.08946 58.1324 1.089 58.1328 1.08854L58.1335 1.0873V1.0871C58.1363 1.08316 58.1385 1.07951 58.1403 1.07951C58.1492 1.0803 58.1574 1.08206 58.1685 1.0845ZM57.0615 0.809703C57.0662 0.808525 57.0704 0.807397 57.0751 0.806443C57.0865 0.810273 57.0955 0.812824 57.103 0.814099C57.1005 0.814661 57.0976 0.815284 57.0944 0.81591C57.084 0.818149 57.0733 0.82048 57.0633 0.82048C57.0579 0.82048 57.0526 0.819102 57.0472 0.817722C57.0436 0.816803 57.04 0.815885 57.0365 0.815376C57.0454 0.813782 57.0536 0.811693 57.0615 0.809725V0.809707V0.809703ZM39.9489 30.6504L39.9514 30.6524L39.9539 30.6544C39.9568 30.6566 39.96 30.659 39.9632 30.6614C39.9568 30.6659 40.0162 30.7327 40.0512 30.7721V30.7721C40.0662 30.7891 40.077 30.801 40.0759 30.8006C40.0666 30.7942 39.9235 30.6602 39.9156 30.6512C39.9146 30.65 39.9271 30.6359 39.9285 30.6359C39.9353 30.6393 39.9414 30.6442 39.9489 30.6504ZM45.3209 2.56607C45.3159 2.57756 45.3106 2.58904 45.3095 2.59032C45.2887 2.58776 45.2837 2.58776 45.2773 2.58776C45.2798 2.58527 45.2823 2.58277 45.2845 2.58033L45.2859 2.57868V2.57865V2.57863C45.2909 2.57298 45.2959 2.5677 45.3016 2.56352C45.3045 2.56166 45.3102 2.56319 45.3152 2.56465L45.317 2.56513C45.3184 2.56549 45.3199 2.56583 45.3209 2.56607ZM59.4827 1.63791V1.638V1.6383C59.4816 1.64197 59.4802 1.64646 59.4791 1.65117C59.4684 1.64398 59.4594 1.638 59.4519 1.63279L59.4473 1.62965C59.443 1.62686 59.439 1.62427 59.4355 1.62182C59.4376 1.62134 59.4394 1.62032 59.4412 1.61931C59.4444 1.61761 59.4476 1.61592 59.4508 1.61672C59.4623 1.61927 59.4741 1.62437 59.4841 1.62947C59.4852 1.62947 59.4841 1.63286 59.4827 1.63791ZM38.9978 6.92494C38.9939 6.93006 38.9903 6.93515 38.985 6.94028C38.9846 6.93967 38.9835 6.93896 38.9828 6.93818C38.9799 6.93558 38.9764 6.9323 38.9774 6.93134C38.9814 6.92622 38.985 6.92113 38.9903 6.91728L38.9978 6.92494ZM55.5199 0.494374V0.494388V0.494516L55.5203 0.494541C55.522 0.495509 55.5245 0.496548 55.5271 0.497648C55.5242 0.498772 55.522 0.499897 55.5199 0.500894V0.500908C55.5149 0.503292 55.5117 0.504926 55.5088 0.504026C55.5038 0.502324 55.4988 0.499491 55.4934 0.496655C55.4909 0.495238 55.4884 0.493818 55.4859 0.492544C55.487 0.492124 55.4888 0.491291 55.4902 0.490409C55.4938 0.488604 55.4974 0.486583 55.4999 0.48744C55.507 0.488423 55.5124 0.490932 55.5199 0.494374ZM54.1246 0.374698C54.1264 0.375652 54.1282 0.376677 54.1303 0.377702C54.1274 0.378342 54.1246 0.379065 54.1217 0.379766V0.379769C54.1138 0.381855 54.1063 0.383759 54.0995 0.382805C54.096 0.381955 54.0927 0.378837 54.0892 0.375719C54.0877 0.374157 54.0859 0.372598 54.0842 0.37132C54.0895 0.37132 54.0945 0.370982 54.0992 0.370651C54.1038 0.370345 54.1081 0.370046 54.1124 0.370046C54.116 0.370046 54.1199 0.372096 54.1246 0.374698ZM50.7041 0.20356C50.7076 0.203429 50.7123 0.203277 50.7173 0.202887C50.7119 0.207184 50.708 0.210767 50.7044 0.213769C50.6991 0.218789 50.6951 0.222184 50.6901 0.224579C50.6876 0.226303 50.6833 0.225698 50.679 0.225124C50.6772 0.224848 50.6751 0.224579 50.6737 0.224579C50.6747 0.222613 50.6758 0.220404 50.6769 0.218214C50.6794 0.213299 50.6815 0.208481 50.6851 0.206715C50.6898 0.204057 50.6951 0.20386 50.7041 0.20356ZM40.2801 5.38733C40.2833 5.38306 40.2869 5.37808 40.2919 5.37203C40.2926 5.37384 40.2941 5.37566 40.2951 5.37733C40.2973 5.38043 40.2991 5.38313 40.2984 5.3848C40.2955 5.38989 40.2919 5.39502 40.2866 5.39755C40.2841 5.3984 40.2812 5.39812 40.2776 5.39787L40.2773 5.39783C40.2769 5.39776 40.2762 5.39772 40.2758 5.39769C40.2748 5.39762 40.2737 5.39755 40.2726 5.39755C40.2751 5.39452 40.2773 5.39121 40.2801 5.38733ZM51.163 35.4181L51.1805 35.4195C51.1744 35.4193 51.1687 35.4189 51.163 35.4181ZM54.694 35.3215C54.6793 35.3235 54.665 35.3256 54.6504 35.3276C54.7105 35.3082 54.763 35.2868 54.8067 35.2631C54.8761 35.2255 54.9344 35.1951 54.9827 35.171C54.8457 35.2161 54.6457 35.2629 54.4286 35.2602C54.1897 35.2572 54.0266 35.31 53.8538 35.366V35.3661C53.7783 35.3905 53.7011 35.4155 53.6149 35.4367C53.347 35.4562 53.0816 35.4686 52.8194 35.4745C52.7539 35.4675 52.6842 35.4583 52.6102 35.4466C51.7911 35.3175 51.4566 35.3764 51.2878 35.4061C51.242 35.4142 51.2084 35.4201 51.1805 35.4195C51.462 35.4418 51.8329 35.4639 52.2324 35.4769C51.8841 35.4719 51.5418 35.4557 51.2055 35.4295C47.8365 35.1428 45.0534 33.7321 42.4216 32.0955C43.7715 33.2088 47.0074 35.1017 51.2055 35.4295C51.6061 35.4635 52.015 35.4817 52.4331 35.4826C52.6159 35.4869 52.8022 35.4891 52.9868 35.4882C53.1259 35.496 53.2447 35.4929 53.3491 35.4826C53.8753 35.4677 54.3549 35.4229 54.6504 35.3276C54.6647 35.3256 54.6793 35.3236 54.694 35.3215ZM55.0728 35.2633C54.9455 35.2843 54.8192 35.3037 54.694 35.3215C54.8196 35.3037 54.9458 35.2844 55.0728 35.2633ZM53.3491 35.4826C53.23 35.4859 53.1088 35.4878 52.9868 35.4882C52.9432 35.4858 52.8974 35.4823 52.8494 35.4776C53.097 35.4712 53.348 35.4588 53.602 35.4399C53.5262 35.4581 53.4436 35.4733 53.3491 35.4826ZM56.6842 35.2601C53.4486 36.0618 51.1297 35.8312 48.5376 35.2334C48.652 35.2418 48.8287 35.2761 49.0666 35.3224V35.3224C50.2126 35.5452 52.7833 36.0451 56.6842 35.2601ZM48.7611 34.6449C50.9856 35.2703 52.671 35.4857 55.7331 34.76C52.4034 35.5019 50.1979 34.9747 49.2147 34.7396C49.0104 34.6908 48.8591 34.6545 48.7611 34.6449ZM48.7812 35.3809C45.5266 34.6593 43.5554 33.4216 41.5055 31.7343C41.6061 31.7939 41.7509 31.9099 41.9466 32.0667C42.8622 32.8008 44.8953 34.4311 48.7812 35.3809Z" fill="#ED1B6C"/>
<path d="M3.29643 19.3654L0.810483 14.2285H0V21.8492H0.810483V15.8855L2.98653 20.3243H3.60633L5.77214 15.8855V21.8492H6.58264V14.2285H5.77214L3.29643 19.3654Z" fill="black"/>
<path d="M10.332 14.2285L7.54639 21.8492H8.40114L8.95623 20.2668L9.27975 19.3316H9.27635L10.6657 15.3569L11.5614 17.905L12.0619 19.3316H12.0586L12.365 20.2091L12.9406 21.8492H13.7953L11.0097 14.2285H10.332Z" fill="black"/>
<path d="M19.5334 20.3481L15.5695 14.2285H14.759V21.8492H15.5695V15.7093L19.5334 21.8492H20.3439V14.2285H19.5334V20.3481Z" fill="black"/>
<path d="M21.3179 14.957H23.5041V21.8492H24.3044V14.957H26.4907V14.2285H21.3179V14.957Z" fill="black"/>
<path d="M32.1844 17.7186C32.4738 17.3662 32.6169 16.9156 32.6169 16.37C32.6169 15.6855 32.4125 15.157 32.0005 14.7842C31.5918 14.4149 31.0266 14.2285 30.308 14.2285H27.4679V21.8492H28.2784V18.5048H30.1207L31.8507 21.8492H32.7837L30.9755 18.4268C31.4931 18.3082 31.8949 18.071 32.1844 17.7186ZM28.2784 17.8067V14.957H30.2433C30.7473 14.957 31.1321 15.0756 31.4045 15.3162C31.6702 15.5568 31.8064 15.9126 31.8064 16.3836C31.8064 16.841 31.6702 17.19 31.3943 17.4374C31.1219 17.6848 30.7371 17.8067 30.2399 17.8067H28.2784Z" fill="black"/>
<path d="M45.5473 14.2285H42.9283V21.8492H45.5473C46.361 21.8492 47.0081 21.6153 47.4849 21.1478C47.9616 20.6801 48.1999 19.9415 48.1999 18.9351V17.146C48.1999 16.1362 47.9616 15.4009 47.4849 14.9333C47.0048 14.4623 46.361 14.2285 45.5473 14.2285ZM47.3758 18.9791C47.3758 20.4057 46.7699 21.1206 45.5573 21.1206H43.7492V14.957H45.5573C46.1432 14.957 46.5928 15.1333 46.9061 15.4856C47.2191 15.838 47.3793 16.4005 47.3793 17.1765V18.9791H47.3758Z" fill="black"/>
<path d="M60.5549 14.8322C60.0781 14.3647 59.4343 14.1309 58.6306 14.1309C57.8169 14.1309 57.1698 14.3647 56.6898 14.8322C56.2094 15.2999 55.9677 16.0385 55.9677 17.0449V19.0204C55.9677 20.0302 56.2062 20.7655 56.683 21.233C57.1594 21.7007 57.8065 21.9345 58.6206 21.9345C59.4275 21.9345 60.0713 21.7007 60.5514 21.233C61.0317 20.7655 61.2735 20.0267 61.2735 19.0204V17.0449C61.2735 16.0385 61.0349 15.2999 60.5549 14.8322ZM60.463 19.0678C60.463 20.4876 59.8532 21.1992 58.6306 21.1992C58.0247 21.1992 57.5647 21.0297 57.2482 20.6909C56.9316 20.352 56.7749 19.8099 56.7749 19.0678V17.0788C56.7749 16.2994 56.9316 15.7336 57.2414 15.3846C57.5511 15.0356 58.0143 14.8594 58.6274 14.8594C59.8464 14.8594 60.4594 15.598 60.4594 17.0788V19.0678H60.463Z" fill="black"/>
<path d="M55.2559 21.8492L52.4703 14.2285H51.7928L49.0072 21.8492H49.8617L50.3217 20.5412L50.7405 19.3316L51.0607 18.4099L52.1265 15.3569L53.5262 19.3316H53.5226L53.9246 20.4836L54.4014 21.8492H55.2559Z" fill="black"/>
<path d="M39.5536 21.8492L36.7679 14.2285H36.0905L33.3048 21.8492H34.1596L34.701 20.304L35.0381 19.3316H35.0347L36.4242 15.3569L37.6943 18.969L37.8202 19.3316L38.1575 20.304L38.6991 21.8492H39.5536Z" fill="black"/>
</svg>
