<svg width="35" height="35" viewBox="0 0 35 35" fill="none" xmlns="http://www.w3.org/2000/svg">
<path d="M2.76092 34.1758L2.76097 34.1758L9.25804 32.0836C11.7654 33.5031 14.5995 34.25 17.5 34.25C26.7572 34.25 34.25 26.7585 34.25 17.5C34.25 8.24283 26.7585 0.75 17.5 0.75C8.24283 0.75 0.75 8.24155 0.75 17.5C0.75 20.4005 1.49691 23.2346 2.91641 25.742L0.824234 32.239C0.64717 32.7885 0.792675 33.3909 1.20088 33.7991C1.60514 34.2034 2.20601 34.3544 2.76092 34.1758ZM10.2635 29.1006L10.2634 29.1005C9.88445 28.8637 9.41379 28.7996 8.97576 28.9406L8.97573 28.9406L4.67401 30.326L6.05936 26.0243L6.05938 26.0242C6.19827 25.5925 6.13963 25.1213 5.8992 24.7366L5.89918 24.7365C4.54444 22.5697 3.82812 20.0675 3.82812 17.5C3.82812 9.9616 9.9616 3.82812 17.5 3.82812C25.0384 3.82812 31.1719 9.9616 31.1719 17.5C31.1719 25.0384 25.0384 31.1719 17.5 31.1719C14.9325 31.1719 12.4303 30.4556 10.2635 29.1006ZM17.5 19.3613C18.5281 19.3613 19.3613 18.5278 19.3613 17.5C19.3613 16.4719 18.5281 15.6387 17.5 15.6387C16.4719 15.6387 15.6387 16.4719 15.6387 17.5C15.6387 18.5278 16.4719 19.3613 17.5 19.3613ZM23.9453 19.3613C24.9734 19.3613 25.8066 18.5278 25.8066 17.5C25.8066 16.4719 24.9734 15.6387 23.9453 15.6387C22.9172 15.6387 22.084 16.4719 22.084 17.5C22.084 18.5278 22.9172 19.3613 23.9453 19.3613ZM11.0547 19.3613C12.0828 19.3613 12.916 18.5278 12.916 17.5C12.916 16.4719 12.0828 15.6387 11.0547 15.6387C10.0269 15.6387 9.19336 16.4719 9.19336 17.5C9.19336 18.5278 10.0269 19.3613 11.0547 19.3613Z" fill="white" stroke="white" stroke-width="0.5"/>
</svg>
