<svg width="200" height="36" viewBox="0 0 200 36" fill="none" xmlns="http://www.w3.org/2000/svg">
<path d="M200 19.7362C199.753 20.4414 199.591 21.1934 199.243 21.8435C198.024 24.1272 195.033 25.1275 192.465 24.1704C192.258 24.0936 192.053 24.0084 191.779 23.9005C191.753 24.1308 191.714 24.3143 191.713 24.499C191.707 25.5581 191.725 26.6183 191.703 27.6762C191.687 28.5122 191.385 28.8109 190.568 28.8372C189.92 28.8588 189.271 28.848 188.621 28.8456C187.359 28.8408 187.126 28.613 187.124 27.3584C187.12 24.8612 187.122 22.3653 187.122 19.8681C187.122 18.2285 187.144 16.5889 187.109 14.9505C187.099 14.4468 187.268 14.1781 187.696 13.9478C190.405 12.4942 193.251 12.2147 196.182 13.0051C198.213 13.552 199.475 14.9086 199.861 17.0387C199.887 17.1838 199.951 17.3218 199.999 17.4633C200 18.2213 200 18.9793 200 19.7362ZM191.681 18.0726C191.681 18.5499 191.674 19.0273 191.682 19.5047C191.703 20.6225 192.04 21.1131 192.898 21.2918C193.898 21.4993 194.679 21.1215 195.038 20.138C195.232 19.609 195.325 19.0153 195.329 18.4492C195.343 16.4366 194.307 15.5478 192.347 15.8105C191.896 15.8705 191.621 16.0264 191.67 16.5649C191.716 17.0639 191.681 17.57 191.681 18.0726Z" fill="#4ED7DD"/>
<path d="M48.4935 19.13C48.4935 20.4373 48.4983 21.6152 48.4923 22.793C48.4864 23.8568 48.2194 24.1243 47.1572 24.1363C46.4831 24.1447 45.8091 24.1447 45.135 24.1363C44.1144 24.1231 43.8438 23.8556 43.8402 22.835C43.8331 20.9939 43.8379 19.1516 43.8379 17.3105C43.8379 14.7378 43.8343 12.1638 43.8402 9.59112C43.8426 8.71676 44.1072 8.28977 44.8537 8.29696C47.569 8.32455 50.3021 8.24659 52.9913 8.55244C55.4159 8.8271 56.6418 10.3599 56.8981 12.8211C56.9859 13.6607 56.9598 14.5459 56.7996 15.3735C56.3641 17.6379 54.6551 18.9561 51.9992 19.118C50.8623 19.1876 49.7171 19.13 48.4935 19.13ZM48.5433 11.7117C48.5433 13.1222 48.5433 14.4403 48.5433 15.7884C49.31 15.7884 50.0315 15.8424 50.7424 15.7753C51.7476 15.6817 52.3054 14.9093 52.3054 13.7423C52.3054 12.5644 51.7559 11.8124 50.7377 11.7225C50.028 11.6613 49.3076 11.7117 48.5433 11.7117Z" fill="#4ED7DD"/>
<path d="M147.086 24.6891C145.499 24.3352 143.871 24.0018 142.262 23.5964C141.818 23.4849 141.42 23.1718 141.013 22.9295C140.593 22.6801 140.497 22.337 140.795 21.9172C140.839 21.8561 140.872 21.7877 140.914 21.7241C141.282 21.1556 141.538 20.3148 142.052 20.1001C142.502 19.9118 143.227 20.4995 143.852 20.6123C145.044 20.8258 146.249 21.0057 147.456 21.0789C148.104 21.1184 148.682 20.7862 148.814 20.027C148.941 19.2977 148.592 18.8 147.971 18.5037C146.552 17.8285 145.082 17.254 143.704 16.5031C141.538 15.3241 140.815 13.597 141.387 11.3349C141.769 9.82484 142.796 8.88331 144.188 8.43114C146.878 7.55797 149.559 7.70909 152.134 8.9121C153.312 9.46262 153.345 9.7145 152.67 10.7868C152.363 11.2749 152.129 11.9874 151.692 12.1601C151.305 12.3136 150.684 11.859 150.166 11.6743C149.136 11.3073 148.071 11.0854 147.012 11.4153C146.598 11.5448 146.132 11.9274 145.957 12.3172C145.705 12.8797 145.944 13.4854 146.5 13.8213C147.009 14.1283 147.569 14.3514 148.109 14.6057C149.258 15.1478 150.447 15.618 151.551 16.2429C153.089 17.1148 153.618 18.5781 153.497 20.2896C153.375 22.012 152.481 23.2786 150.9 23.8507C149.724 24.2789 148.441 24.4048 147.086 24.6891Z" fill="#4ED7DD"/>
<path d="M118.448 17.0298C119.323 15.8748 120.212 14.7293 121.069 13.5611C121.396 13.1161 121.768 12.9038 122.331 12.9242C123.328 12.9602 124.328 12.9134 125.325 12.9482C125.586 12.9578 125.998 13.079 126.06 13.2529C126.134 13.4592 125.972 13.8322 125.8 14.0361C124.574 15.4934 123.319 16.9266 122.047 18.3995C123.343 19.9503 124.62 21.4592 125.87 22.992C126.055 23.2199 126.111 23.557 126.226 23.8436C125.943 23.942 125.662 24.1159 125.376 24.1267C124.379 24.1615 123.379 24.1099 122.382 24.1519C121.812 24.1758 121.457 23.9516 121.14 23.5018C120.262 22.2544 119.352 21.0298 118.276 19.8232C118.276 20.6844 118.277 21.5456 118.276 22.4067C118.274 23.948 118.084 24.1387 116.548 24.1399C115.973 24.1399 115.399 24.1483 114.826 24.1363C113.88 24.1159 113.615 23.864 113.609 22.9141C113.596 20.8703 113.604 18.8277 113.604 16.7839C113.604 14.4127 113.601 12.0415 113.607 9.66905C113.609 8.56919 113.881 8.28973 114.979 8.25855C115.627 8.24056 116.277 8.23816 116.925 8.25855C117.949 8.29093 118.261 8.59678 118.27 9.64626C118.287 11.8412 118.276 14.0361 118.276 16.231C118.276 16.4793 118.276 16.7287 118.276 16.977C118.333 16.995 118.391 17.0118 118.448 17.0298Z" fill="#4ED7DD"/>
<path d="M160.053 18.4045C160.516 17.1655 161.008 15.9373 161.426 14.6839C161.622 14.0962 161.941 13.9115 162.528 13.9271C164.441 13.9775 164.083 13.6884 164.773 15.5223C165.135 16.4854 165.479 17.4546 165.913 18.648C166.216 17.4138 166.468 16.3931 166.717 15.3724C166.86 14.7847 167.023 14.2018 167.139 13.6093C167.233 13.1331 167.472 12.9172 167.959 12.928C168.858 12.946 169.758 12.9532 170.657 12.9268C171.288 12.9076 171.372 13.1943 171.213 13.7256C170.236 16.9796 169.262 20.236 168.298 23.4948C168.161 23.9541 167.892 24.1532 167.425 24.1436C166.776 24.1305 166.123 24.1029 165.478 24.152C164.861 24.1988 164.572 23.9074 164.385 23.364C163.942 22.0843 163.472 20.8153 162.944 19.3508C162.42 20.7901 161.932 22.0351 161.52 23.3041C161.313 23.9397 160.981 24.2024 160.32 24.1508C159.7 24.1017 159.072 24.1305 158.447 24.1424C157.983 24.1508 157.719 23.9649 157.582 23.4948C156.626 20.2084 155.656 16.9244 154.672 13.6465C154.496 13.0551 154.744 12.9256 155.249 12.9316C156.124 12.9424 156.998 12.9556 157.872 12.9268C158.42 12.9088 158.675 13.1247 158.793 13.6716C159.132 15.2465 159.521 16.8105 159.891 18.3793C159.945 18.3865 159.999 18.3949 160.053 18.4045Z" fill="#4ED7DD"/>
<path d="M181.107 23.0886C179.939 24.1693 178.662 24.4824 177.271 24.48C174.456 24.4764 172.638 22.7696 172.431 19.9174C172.123 15.6883 174.756 12.7582 178.966 12.6094C180.892 12.5411 182.738 12.8217 184.482 13.6877C184.951 13.9204 185.173 14.2023 185.165 14.7792C185.129 17.5774 185.131 20.3756 185.16 23.1726C185.167 23.8958 184.912 24.1909 184.201 24.1465C183.679 24.1129 183.152 24.1105 182.631 24.1477C181.897 24.1993 181.271 24.1165 181.107 23.0886ZM180.821 18.1351C180.823 18.1351 180.825 18.1351 180.827 18.1351C180.827 17.5558 180.857 16.9741 180.81 16.3996C180.795 16.2077 180.624 15.9306 180.458 15.8646C179.613 15.5312 178.362 15.8598 177.796 16.5951C176.912 17.7441 176.821 19.0538 177.293 20.3804C177.579 21.1828 178.467 21.4766 179.531 21.256C180.304 21.0952 180.781 20.5423 180.816 19.7207C180.839 19.193 180.821 18.6628 180.821 18.1351Z" fill="#4ED7DD"/>
<path d="M107.604 23.0755C105.922 24.5304 104.126 24.7151 102.251 24.3025C100.623 23.9439 99.6143 22.8404 99.1455 21.2476C97.859 16.8818 100.428 13.0689 104.972 12.6443C107.092 12.4464 109.147 12.7354 111.064 13.7657C111.44 13.9684 111.602 14.1867 111.599 14.6329C111.579 17.5055 111.576 20.3792 111.599 23.253C111.605 23.9091 111.371 24.1766 110.728 24.1442C110.181 24.1166 109.631 24.1262 109.082 24.1418C108.381 24.1598 107.671 24.2149 107.604 23.0755ZM107.265 18.0956C107.27 18.0956 107.274 18.0956 107.278 18.0956C107.278 17.5426 107.315 16.9849 107.259 16.438C107.238 16.2245 107.037 15.8899 106.87 15.8563C105.961 15.6716 105.088 15.7507 104.378 16.468C103.515 17.3399 103.202 19.3118 103.758 20.4212C104.129 21.1589 104.911 21.4563 105.957 21.2584C106.756 21.1073 107.212 20.6023 107.259 19.7544C107.29 19.2026 107.265 18.6485 107.265 18.0956Z" fill="#4ED7DD"/>
<path d="M66.3874 23.0493C65.0914 24.2871 63.6649 24.5257 62.1542 24.4694C59.8365 24.383 58.2225 22.9713 57.7881 20.6589C56.9835 16.3806 59.4852 13.0175 63.7931 12.6396C65.8925 12.4561 67.9242 12.7464 69.8278 13.7395C70.2253 13.947 70.4069 14.1761 70.4022 14.6582C70.3772 17.5104 70.3749 20.3626 70.401 23.2148C70.4069 23.9081 70.1541 24.1863 69.4801 24.1431C69.0326 24.1144 68.5817 24.1407 68.1319 24.1371C67.3688 24.1311 66.4787 24.3842 66.3874 23.0493ZM66.0669 18.1497C66.0669 17.622 66.0313 17.0906 66.0764 16.5665C66.1251 15.9956 65.8616 15.8205 65.3525 15.7833C64.212 15.6981 63.2472 16.0148 62.725 17.093C62.1542 18.2709 62.0201 19.5134 62.7345 20.6936C63.0905 21.2814 64.0803 21.4757 64.9217 21.2238C65.6575 21.0031 66.0385 20.4921 66.0622 19.6586C66.0776 19.156 66.0657 18.6523 66.0669 18.1497Z" fill="#4ED7DD"/>
<path d="M76.2506 13.9608C77.5999 12.9174 79.0383 12.5527 80.6095 12.6067C82.8774 12.6835 84.4131 14.1707 84.4582 16.4652C84.5009 18.6325 84.4783 20.8022 84.4665 22.9708C84.4617 23.8415 84.1627 24.1222 83.2702 24.139C82.5475 24.1534 81.8236 24.1522 81.0996 24.1402C80.0945 24.1234 79.8073 23.8331 79.8037 22.8256C79.7978 20.9846 79.8061 19.1447 79.8002 17.3036C79.7966 16.1953 79.4785 15.8091 78.5837 15.7971C77.5726 15.7827 77.073 16.2685 77.0611 17.3204C77.0469 18.6313 77.0469 19.9435 77.0587 21.2544C77.0896 24.482 77.1205 24.1354 74.1631 24.1438C73.9388 24.145 73.7145 24.1402 73.489 24.1402C72.7924 24.1402 72.4019 23.7948 72.3995 23.0859C72.3889 19.9339 72.3924 16.7818 72.3889 13.631C72.3889 13.1596 72.6286 12.9413 73.0819 12.9401C73.8806 12.9389 74.6793 12.9509 75.4768 12.9354C76.107 12.9198 76.1948 13.3539 76.2506 13.9608Z" fill="#4ED7DD"/>
<path d="M131.324 19.5372C131.392 20.595 131.783 21.1456 132.708 21.3831C134.095 21.7381 135.474 21.7093 136.799 21.0808C137.681 20.6622 137.682 20.6646 138.139 21.5654C138.151 21.5882 138.164 21.6097 138.175 21.6313C138.972 23.2098 138.963 23.3357 137.308 23.9054C135.001 24.7006 132.647 24.7654 130.342 23.9114C127.895 23.0047 126.619 20.7078 126.903 17.9288C127.211 14.9039 128.741 13.2223 131.715 12.7246C133.258 12.4667 134.807 12.5051 136.287 13.0832C138.801 14.0643 139.612 16.3564 139.524 18.5093C139.492 19.2829 139.143 19.5288 138.246 19.5336C136.225 19.5444 134.204 19.5372 132.183 19.5372C131.915 19.5372 131.645 19.5372 131.324 19.5372ZM131.324 17.148C132.705 17.148 134.031 17.148 135.36 17.148C135.235 15.8706 134.599 15.3309 133.301 15.3441C132.072 15.3572 131.394 15.957 131.324 17.148Z" fill="#4ED7DD"/>
<path d="M92.8134 24.4772C90.8161 24.4844 89.0252 24.2122 87.5833 22.8916C84.6817 20.2349 85.5587 14.8676 89.1902 13.2904C91.5352 12.2721 93.9515 12.3428 96.3392 13.24C96.5469 13.318 96.7321 13.4571 96.9326 13.5566C97.5782 13.8757 97.7479 14.3075 97.3053 14.9396C97.062 15.2874 96.8412 15.6616 96.6692 16.0502C96.382 16.6991 96.0414 16.8586 95.4136 16.416C94.6315 15.8655 93.7236 15.7 92.7718 15.7887C91.4771 15.9099 90.6214 16.8814 90.5704 18.3027C90.5087 20.0238 91.2089 21.0529 92.5891 21.264C93.6975 21.4331 94.73 21.2016 95.664 20.5924C96.1921 20.2481 96.5018 20.3309 96.7688 20.9078C97.0003 21.4079 97.3041 21.8745 97.5972 22.3435C97.8713 22.7813 97.7728 23.0799 97.3421 23.3378C95.9001 24.1978 94.3301 24.506 92.8134 24.4772Z" fill="#4ED7DD"/>
<g clip-path="url(#clip0)">
<path fill-rule="evenodd" clip-rule="evenodd" d="M6.41312 5.625C5.85057 2.7 8.10078 0 11.0261 0C13.6138 0 15.7515 2.1375 15.7515 4.725V10.575C16.4266 10.575 17.1017 10.4625 17.7767 10.4625C18.4518 10.4625 19.0143 10.4625 19.6894 10.575V4.725C19.6894 2.1375 21.8271 0 24.4149 0C27.3401 0 29.5904 2.7 29.1403 5.625L27.9027 12.4875C32.2906 14.4 35.666 17.775 35.666 21.9375V24.525C35.666 28.0125 33.4157 30.9375 30.1529 32.85C26.8901 34.875 22.6147 36 17.7767 36C12.9388 36 8.66334 34.875 5.40052 32.85C2.25022 30.9375 0 28.0125 0 24.525V21.9375C0 17.775 3.26282 14.4 7.65074 12.4875L6.41312 5.625ZM26.215 13.3875L27.6777 5.2875C28.0152 3.2625 26.5526 1.35 24.4149 1.35C22.6147 1.35 21.152 2.8125 21.152 4.6125V12.0375C20.702 11.925 20.1394 11.925 19.6894 11.925C19.0143 11.925 18.4518 11.8125 17.7767 11.8125C17.1017 11.8125 16.4266 11.8125 15.7515 11.925C15.3015 11.925 14.7389 12.0375 14.2889 12.0375V4.725C14.2889 2.925 12.8262 1.4625 11.0261 1.4625C9.00087 1.4625 7.42572 3.375 7.87576 5.4L9.3384 13.5C4.61295 15.3 1.46264 18.45 1.46264 22.05V24.6375C1.46264 30.15 8.77585 34.65 17.7767 34.65C26.7776 34.65 34.0908 30.15 34.0908 24.6375V22.05C34.2033 18.3375 31.053 15.1875 26.215 13.3875Z" fill="#633001"/>
<path d="M34.2023 24.525C34.2023 30.0375 26.8891 34.5375 17.8882 34.5375C8.88737 34.5375 1.57416 30.0375 1.57416 24.525V21.9375H34.3148V24.525H34.2023Z" fill="#FEDC90"/>
<path fill-rule="evenodd" clip-rule="evenodd" d="M7.87477 5.39941C7.42472 3.37441 8.99988 1.46191 11.0251 1.46191C12.8252 1.46191 14.2879 2.92441 14.2879 4.72441V12.1494C15.413 12.0369 16.5381 11.9244 17.7757 11.9244C18.9008 11.9244 20.0259 12.0369 21.1511 12.1494V4.72441C21.1511 2.92441 22.6137 1.46191 24.4139 1.46191C26.4391 1.46191 28.0142 3.37441 27.6767 5.39941L26.214 13.4994C30.9395 15.2994 34.2023 18.4494 34.2023 22.0494C34.2023 27.5619 26.8891 32.0619 17.8882 32.0619C8.88737 32.0619 1.57416 27.5619 1.57416 22.0494C1.57416 18.4494 4.72446 15.2994 9.44992 13.4994L7.87477 5.39941Z" fill="#D1884F"/>
<path d="M13.2758 21.2625C13.2758 22.725 12.4883 23.9625 11.4758 23.9625C10.4633 23.9625 9.67584 22.725 9.67584 21.2625C9.67584 19.8 10.4633 18.5625 11.4758 18.5625C12.4883 18.5625 13.2758 19.8 13.2758 21.2625Z" fill="#633001"/>
<path d="M25.7623 21.2625C25.7623 22.725 24.9748 23.9625 23.9623 23.9625C22.9498 23.9625 22.1623 22.725 22.1623 21.2625C22.1623 19.8 22.9498 18.5625 23.9623 18.5625C24.9748 18.5625 25.7623 19.8 25.7623 21.2625Z" fill="#633001"/>
</g>
<defs>
<clipPath id="clip0">
<rect width="35.666" height="36" fill="white"/>
</clipPath>
</defs>
</svg>
