<svg width="136" height="36" viewBox="0 0 136 36" fill="none" xmlns="http://www.w3.org/2000/svg">
<path d="M17.9333 30.1499C17.0333 30.1499 16.2233 29.9699 15.5932 29.5199C14.9632 29.0698 14.4232 28.5298 14.1532 27.7198C13.8832 26.9998 13.7932 26.0098 13.8832 24.8398C13.9732 24.2098 14.0632 23.4897 14.3332 22.8597C14.6032 22.1397 14.9632 21.5097 15.4132 20.8797C15.8632 20.2497 16.4933 19.7097 17.2133 19.2597C17.9333 18.8096 18.8333 18.5396 19.7333 18.5396C19.8233 18.5396 19.8233 18.5396 19.9133 18.5396C20.9033 18.5396 21.7134 18.8096 22.3434 19.3497C22.9734 19.8897 23.4234 20.6097 23.6034 21.5997C23.8734 22.7697 23.7834 23.8497 23.6034 24.4798C23.5134 25.1998 23.1534 26.1898 22.7034 27.0898C22.5234 27.3598 22.3434 27.7198 22.0734 28.0798L21.9834 28.2598C21.3534 28.9798 20.6333 29.6099 19.7333 29.8799C19.0133 30.1499 18.2033 30.1499 17.9333 30.1499ZM19.9133 20.5197H19.8233C19.3733 20.5197 19.0133 20.6997 18.4733 21.0597C18.0233 21.4197 17.5733 21.9597 17.2133 22.7697C16.8533 23.5797 16.5833 24.2998 16.5833 25.1098C16.4933 26.1898 16.6733 26.9998 16.9433 27.5398C17.2133 28.0798 17.6633 28.3498 18.2033 28.3498C18.6533 28.3498 19.0133 28.1698 19.2833 28.0798C19.6433 27.8998 19.9133 27.6298 20.1833 27.2698C20.3633 27.0898 20.4533 26.9098 20.6333 26.7298C20.8133 26.3698 20.9033 26.1898 20.9033 26.0098C21.0833 25.4698 21.2634 24.6598 21.3534 23.7597C21.4434 23.2197 21.4434 22.6797 21.3534 22.0497C21.2634 21.5997 21.0833 21.2397 20.8133 20.8797C20.5433 20.6097 20.2733 20.5197 19.9133 20.5197ZM6.32306 15.8396C6.50306 15.8396 7.04307 15.9296 7.31308 16.1996C7.58308 16.5596 7.58308 17.0996 7.49308 17.2796C7.49308 17.4596 7.40308 17.6396 7.31308 17.9996C7.22308 18.2696 7.04307 19.5297 6.95307 19.8897C6.86307 20.3397 6.95307 20.6997 7.31308 21.0597C7.58308 21.4197 8.12309 21.5997 8.5731 21.5997C8.6631 21.5997 8.6631 21.5997 8.75311 21.5997C9.38312 21.5997 9.92313 21.5997 10.4631 21.4197C11.0932 21.2397 11.6332 20.8797 12.0832 20.2497C12.4432 19.6197 12.8032 18.7196 12.8032 17.7296C12.8032 16.9196 12.3532 15.9296 11.9932 15.2996C11.6332 14.6696 10.9131 14.1296 10.1931 13.6795C9.47312 13.2295 8.5731 13.0495 7.67308 12.9595C7.58308 12.9595 7.40308 12.9595 7.31308 12.9595C6.05305 12.9595 4.97303 13.2295 3.98301 13.8595C2.90299 14.4896 2.36298 15.3896 2.18298 16.2896C2.00297 17.2796 2.36298 18.3596 3.173 19.2597C3.353 19.4397 3.353 19.7097 3.173 19.9797C3.083 20.2497 2.90299 20.4297 2.54298 20.5197C2.36298 20.6097 2.27298 20.6097 2.09298 20.6097C1.91297 20.6097 1.82297 20.6097 1.64297 20.5197C1.10296 20.0697 0.74295 19.5297 0.472944 18.9896C0.202939 18.4496 0.112937 17.7296 0.0229355 17.0996C-0.0670663 16.1996 0.112937 15.4796 0.472944 14.6696C0.832951 13.9495 1.10296 13.4095 1.91297 12.6895C2.63299 12.1495 3.353 11.6095 4.25302 11.3395C5.15304 11.0695 6.14305 10.9795 7.13307 10.9795H7.31308C8.03309 10.9795 8.84311 11.0695 9.65312 11.3395C10.4631 11.5195 11.2732 11.8795 11.9932 12.3295C12.7132 12.7795 13.1632 13.3195 13.6132 13.8595C14.0632 14.3996 14.5132 15.0296 14.6932 15.7496C14.8732 16.4696 15.0532 17.2796 15.0532 18.0896C14.9632 19.2597 14.6932 20.1597 14.2432 20.9697C13.7032 21.7797 12.9832 22.4997 12.1732 22.9497C11.3632 23.3997 10.3731 23.6697 9.38312 23.6697H9.20311C8.75311 23.6697 8.2131 23.6697 7.76309 23.5797C7.67308 23.5797 7.58308 23.5797 7.49308 23.5797C7.04307 23.5797 6.59306 23.8497 6.32306 24.2098C6.14305 24.3898 6.05305 24.6598 6.05305 24.7498L5.33304 28.9798C5.33304 29.0698 5.24304 29.6999 4.79303 30.0599C4.52302 30.2399 4.25302 30.1499 4.16302 30.1499C3.80301 30.1499 3.443 29.8799 3.263 29.6099C2.99299 29.1598 3.083 28.7098 3.083 28.4398L4.97303 17.2796C5.15304 16.5596 5.60304 15.8396 6.32306 15.8396ZM94.5248 36C94.2548 36 93.9848 35.91 93.8048 35.73C93.5348 35.46 93.4448 35.01 93.5348 34.4699C93.8948 31.6799 94.0748 31.3199 94.4348 28.6198C94.4348 28.5298 94.4348 28.5298 94.4348 28.5298C94.4348 28.5298 94.3448 28.4398 94.2548 28.4398C94.2548 28.4398 94.1648 28.4398 94.1648 28.5298C93.2648 29.5199 92.2747 29.9699 91.1947 29.9699C90.8347 29.9699 90.5647 29.8799 90.2047 29.6099C89.8447 29.4299 89.5747 28.9798 89.3047 28.4398C89.2147 28.2598 89.2147 28.0798 89.1247 27.8998C89.1247 27.8098 89.0347 27.7198 88.9447 27.7198C88.9447 27.7198 88.8547 27.7198 88.8547 27.8098C88.4047 28.5298 87.9547 29.0698 87.5946 29.3398C86.9646 29.7899 86.2446 30.0599 85.5246 30.0599H85.4346C84.8046 30.0599 84.2646 29.8799 83.7246 29.6099C83.1846 29.2499 82.8245 28.7098 82.5545 28.0798C82.4645 27.8998 82.3745 27.6298 82.3745 27.3598C82.3745 27.2698 82.2845 27.1798 82.1945 27.1798H82.1045C81.9245 27.3598 81.6545 27.4498 81.4745 27.5398C81.1145 27.7198 80.7545 27.8998 80.4845 27.9898C79.7645 28.3498 79.1345 28.6198 78.3245 29.1598H78.2345C77.6044 29.6099 76.9744 29.9699 75.5344 29.9699H75.4444C74.6344 29.9699 74.0044 29.6099 73.5544 29.0698C73.2844 28.7998 73.1044 28.3498 73.0144 27.9898C73.0144 27.8998 72.9244 27.8098 72.8344 27.8098C72.8344 27.8098 72.7444 27.8098 72.7444 27.8998C72.5644 28.1698 72.3843 28.3498 72.1143 28.6198C71.6643 29.0698 71.1243 29.4299 70.4943 29.6999C69.9543 29.8799 69.4143 30.0599 68.8743 30.0599H68.7843C67.9743 30.0599 67.2542 29.6999 66.8042 29.0698C66.4442 28.5298 66.2642 27.8998 66.1742 27.0898C65.9042 27.3598 65.6342 27.5398 65.2742 27.8098L64.9142 27.8998C64.3742 28.2598 63.8342 28.5298 63.2942 28.7098C63.0242 28.7998 62.7542 28.8898 62.4842 29.0698C62.4842 29.0698 62.3941 29.1598 62.3041 29.1598C62.1241 29.2499 61.9441 29.4299 61.4941 29.6099C60.8641 29.8799 60.2341 30.0599 59.5141 30.0599H59.4241C58.9741 30.0599 58.6141 29.9699 58.1641 29.7899C57.7141 29.6099 57.3541 29.3399 57.084 28.9798C56.814 28.6198 56.544 28.1698 56.454 27.7198C56.364 27.2698 56.274 26.7298 56.364 26.0998C56.454 25.9198 56.544 25.7398 56.724 25.5598C56.904 25.4698 57.084 25.3798 57.264 25.3798C57.354 25.3798 57.3541 25.3798 57.4441 25.3798C57.5341 25.3798 57.5341 25.3798 57.6241 25.3798C57.8941 25.4698 58.0741 25.7398 58.0741 26.0098C57.9841 26.5498 58.1641 27.0898 58.3441 27.3598C58.6141 27.7198 58.9741 27.8998 59.4241 27.8998C59.7841 27.8998 60.0541 27.7198 60.1441 27.6298C60.2341 27.6298 60.2341 27.5398 60.3241 27.5398C60.4141 27.4498 60.5041 27.4498 60.7741 27.0898C61.1341 26.6398 61.0441 25.8298 61.0441 25.5598V25.3798C61.0441 25.1098 61.0441 25.0198 60.9541 24.7498C60.8641 24.2098 60.6841 23.8497 60.4141 23.2197C60.3241 23.0397 60.2341 22.7697 60.1441 22.5897C59.6041 21.4197 59.3341 20.6097 59.2441 20.1597C59.2441 20.0697 59.1541 19.9797 59.1541 19.8897C59.1541 19.7997 59.0641 19.7097 58.9741 19.7097C58.9741 19.7097 58.8841 19.7097 58.8841 19.7997C58.6141 20.1597 58.3441 20.6097 58.0741 21.1497C57.7141 21.7797 57.264 22.7697 56.814 24.0297V24.1197C56.724 24.3898 56.634 24.6598 56.454 24.9298L56.364 25.0198C56.364 25.0198 56.364 25.0198 56.364 25.1098C55.734 26.5498 55.104 27.6298 54.384 28.3498C53.484 29.3399 52.494 29.7899 51.4139 29.7899C51.0539 29.7899 50.7839 29.6999 50.4239 29.4299C50.0639 29.2498 49.7939 28.7998 49.5239 28.2598C49.4339 28.0798 49.4339 27.8998 49.3439 27.7198C49.3439 27.6298 49.2539 27.5398 49.1639 27.5398C49.1639 27.5398 49.0739 27.5398 49.0739 27.6298C48.6239 28.3498 48.1739 28.8898 47.8139 29.1598C47.1839 29.6099 46.4638 29.8799 45.7438 29.8799H45.6538C45.0238 29.8799 44.4838 29.6999 43.9438 29.4299C43.4038 29.0698 43.0438 28.5298 42.7738 27.8998C42.6838 27.7198 42.5938 27.5398 42.5938 27.3598C42.0538 28.1698 41.4237 28.7998 40.7937 29.2498C40.0737 29.7899 39.3537 29.9699 38.5437 29.9699C37.7337 29.9699 37.1037 29.6999 36.5636 29.2498C35.6636 28.4398 35.2136 26.9098 35.0336 24.7498C35.0336 24.4798 35.1236 24.2998 35.3936 24.2098C36.1136 23.9397 36.7437 23.5797 37.2837 23.2197C37.8237 22.7697 38.2737 22.4097 38.5437 21.9597C38.8137 21.5997 38.9037 21.2397 38.9037 20.9697C38.9037 20.6997 38.8137 20.5197 38.6337 20.4297C38.4537 20.3397 38.3637 20.3397 38.0937 20.3397C37.9137 20.3397 37.7337 20.3397 37.5537 20.4297C37.1037 20.6097 36.6536 20.8797 36.1136 21.2397C35.6636 21.6897 35.2136 22.1397 34.8536 22.7697C34.4936 23.3997 34.2236 23.9397 34.1336 24.6598C33.8636 26.5498 33.5936 28.0798 33.4136 29.3398C33.4136 29.5199 33.2336 29.6999 32.9636 29.7899C32.7836 29.8799 32.4236 29.9699 32.0636 29.9699C31.7036 29.9699 31.4335 29.8799 31.1635 29.7899C31.0735 29.6999 30.8935 29.6099 30.8935 29.5199C30.8035 29.6099 30.7135 29.6099 30.6235 29.6999C29.9935 30.0599 29.3635 30.2399 28.5535 30.2399C28.3735 30.2399 28.1035 30.2399 27.9235 30.2399C26.4835 30.0599 25.4934 29.1598 25.0434 27.6298C24.5934 26.1898 24.5934 23.8497 25.1334 20.7897C25.4034 18.8096 25.9434 17.0096 26.4835 15.3896C27.1135 13.7695 27.8335 12.5995 28.6435 11.9695C29.0935 11.6095 29.5435 11.4295 29.9935 11.3395C30.1735 11.3395 30.2635 11.3395 30.4435 11.3395C30.8035 11.3395 31.1635 11.4295 31.5235 11.5195C32.0636 11.6995 32.4236 12.1495 32.6936 12.6895C32.9636 13.2295 33.1436 13.8595 33.1436 14.4896C33.1436 15.1196 33.0536 15.8396 32.8736 16.5596C32.6036 17.5496 32.1536 18.5396 31.5235 19.5297C30.8935 20.5197 30.1735 21.3297 29.4535 21.9597C28.7335 22.5897 28.0135 23.0397 27.3835 23.4897C27.3835 23.4897 27.2935 23.4897 27.2935 23.5797C27.2035 24.2098 27.2035 24.8398 27.2035 25.5598C27.2035 26.2798 27.2935 26.9998 27.5635 27.4498C27.8335 27.8998 28.1035 28.1698 28.6435 28.2598C28.7335 28.2598 28.8235 28.2598 28.9135 28.2598C29.1835 28.2598 29.5435 28.1698 29.8135 28.0798C30.2635 27.8998 30.6235 27.5398 31.0735 27.0898C31.1635 26.9998 31.1635 26.9998 31.2535 26.9098C31.4335 25.8298 31.6136 24.6598 31.7936 23.4897C32.1536 21.4197 32.6036 18.9896 33.2336 16.1996C33.7736 13.4095 34.1336 11.8795 34.2236 11.6095C34.3136 11.3395 34.6736 11.3395 34.8536 11.2495C34.9436 11.2495 34.9436 11.2495 35.0336 11.2495C35.3036 11.2495 35.5736 11.3395 35.9336 11.4295C36.5636 11.6995 36.6536 11.9695 36.6536 12.2395C36.6536 12.3295 36.6536 12.5095 36.5636 12.9595C36.4736 13.2295 36.2036 14.5796 35.7536 16.7396C35.4836 17.9096 35.3036 18.9896 35.1236 19.7097C35.1236 19.7997 35.1236 19.7997 35.1236 19.7997L35.2136 19.8897H35.3036C35.3936 19.7997 35.3936 19.7997 35.4836 19.7097C35.9336 19.2597 36.5636 18.8996 37.1937 18.6296C37.7337 18.4496 38.1837 18.2696 38.7237 18.2696C38.9037 18.2696 38.9937 18.2696 39.1737 18.2696C39.8037 18.3596 40.2537 18.5396 40.6137 18.8096C40.9737 19.0797 41.1537 19.5297 41.3337 19.9797C41.5137 20.4297 41.4237 21.0597 41.2437 21.7797C41.0637 22.4997 40.5237 23.2197 39.8037 23.8497C39.1737 24.3898 38.3637 24.9298 37.4637 25.1998C37.3737 25.1998 37.3737 25.2898 37.3737 25.3798C37.4637 26.1898 37.6437 26.8198 37.9137 27.3598C38.1837 27.8998 38.5437 28.1698 39.0837 28.1698C39.8037 28.1698 40.5237 27.8098 41.2437 26.9998C41.8737 26.3698 42.3238 25.4698 42.7738 24.3898C43.0438 23.1297 43.6738 21.9597 44.4838 20.9697C45.6538 19.5297 47.0038 18.7196 48.4439 18.4496C48.8039 18.3596 49.1639 18.3596 49.6139 18.3596C50.6939 18.3596 51.4139 18.7196 51.7739 19.0797C51.9539 19.2597 51.9539 19.5297 51.6839 19.8897C51.5039 20.1597 51.3239 20.3397 51.1439 20.5197C51.0539 20.6097 50.8739 20.6097 50.7839 20.6097C50.6939 20.6097 50.6039 20.5197 50.5139 20.5197C49.8839 20.3397 49.3439 20.3397 49.1639 20.4297C48.8939 20.5197 48.5339 20.6097 48.0839 20.8797C47.6339 21.1497 47.2739 21.5097 46.8238 21.9597C46.3738 22.4997 46.1038 23.0397 45.8338 23.6697C45.2938 24.2998 45.0238 25.1998 45.0238 26.0998C45.0238 26.9998 45.2038 27.5398 45.4738 27.8998C45.5638 27.9898 45.7438 28.0798 45.9238 28.0798C46.0138 28.0798 46.1038 28.0798 46.1938 28.0798C46.5538 27.9898 47.0039 27.6298 47.4539 27.0898C47.9039 26.5498 48.4439 25.7398 48.8939 24.6598C49.3439 23.6697 49.7039 22.6797 49.8839 21.4197C49.8839 21.4197 49.8839 21.4197 49.8839 21.3297C49.9739 21.1497 50.1539 20.9697 50.6039 20.9697H50.6939C51.1439 20.9697 51.4139 21.0597 51.6839 21.2397C51.7739 21.3297 51.8639 21.4197 51.9539 21.4197C52.134 21.5997 52.134 21.7797 52.134 21.9597C51.7739 24.1197 51.5039 25.1998 51.5039 25.5598C51.5039 25.9198 51.4139 26.1898 51.4139 26.2798C51.3239 26.9098 51.4139 27.2698 51.5039 27.5398C51.5939 27.7198 51.6839 27.8098 51.8639 27.8098C52.1339 27.8098 52.494 27.6298 52.854 27.3598C53.214 26.9998 53.664 26.4598 54.114 25.7398C54.384 25.2898 54.654 24.7498 54.924 24.1197C56.004 20.9697 57.174 18.7196 58.4341 17.6396C58.7941 17.2796 59.1541 17.0996 59.6041 17.0096C59.7841 17.0096 59.9641 16.9196 60.0541 16.9196C60.2341 16.9196 60.5041 16.9196 60.6841 17.0096C61.0441 17.1896 61.2241 17.4596 61.3141 17.7296C61.4041 17.9996 61.3141 18.2696 61.1341 18.5396V18.6296C61.1341 18.8996 61.2241 19.1697 61.3141 19.5297C61.4041 19.8897 61.4941 20.2497 61.6741 20.6097C61.7641 20.9697 62.1241 21.7797 62.7542 23.1297C63.2042 24.2098 63.3842 25.3798 63.2942 26.4598C63.2942 26.5498 63.2942 26.5498 63.2942 26.5498L63.3842 26.6398C63.3842 26.6398 63.3842 26.6398 63.4742 26.6398C64.5542 26.1898 65.6342 24.8398 66.2642 23.3097C66.3542 22.5897 66.5342 21.8697 66.8042 20.9697C67.0742 19.7997 67.2542 19.0796 67.3443 18.7196C67.3443 18.7196 67.3442 18.6296 67.4342 18.5396C67.5243 18.3596 67.7943 18.2696 68.0643 18.1796C68.1543 18.1796 68.3343 18.0896 68.5143 18.0896C68.6943 18.0896 68.9643 18.0896 69.2343 18.1796C69.9543 18.3596 69.9543 18.7196 69.9543 18.8996C69.2343 21.6897 68.7843 23.8497 68.6043 25.5598C68.5143 26.6398 68.6043 27.0898 68.6943 27.2698C68.8743 27.5398 69.0543 27.6298 69.3243 27.7198H69.4143C69.9543 27.7198 70.4943 27.3598 71.1243 26.7298C71.8443 26.0098 72.3843 25.0198 72.6544 23.7597L73.8244 18.6296C73.9144 18.4496 74.0044 18.3596 74.1844 18.2696C74.3644 18.1796 74.6344 18.0896 74.9044 18.0896C75.1744 18.0896 75.4444 18.1796 75.8044 18.2696C76.2544 18.4496 76.3444 18.7196 76.3444 18.8996C76.3444 18.8996 76.3444 18.8996 76.3444 18.9896C76.3444 19.0797 76.1644 19.5297 75.7144 21.2397C75.3544 22.5897 75.0844 23.9397 74.9944 25.2898C74.9044 26.1898 74.9044 26.8198 74.9944 27.2698C75.0844 27.7198 75.3544 27.7198 75.5344 27.7198C75.8944 27.7198 76.2544 27.6298 76.6144 27.3598C76.9744 27.1798 77.2444 26.9098 77.4244 26.5498C77.5145 26.4598 77.6044 26.3698 77.6044 26.2798C77.6945 26.0998 77.8745 25.9198 78.2345 25.2898C78.7745 24.3898 79.2245 23.1297 79.4045 22.3197C79.6745 21.2397 79.7645 19.3497 79.8545 18.5396C79.8545 18.1796 80.3945 17.9996 80.5745 17.9996C80.7545 17.9996 80.8445 17.9096 81.0245 17.9096C81.2945 17.9096 81.4745 17.9096 81.7445 17.9996C82.2845 18.1796 82.4645 18.5396 82.4645 18.7196C82.4645 19.4397 82.4645 20.2497 82.2845 21.0597C81.9245 22.8597 81.8345 23.1297 81.4745 24.1197C81.3845 24.2998 81.2945 24.5698 81.1145 24.8398C81.1145 24.9298 81.1145 24.9298 81.1145 25.0198C81.1145 25.1098 81.2045 25.1098 81.2945 25.1098H81.3845C81.5645 24.9298 81.6545 24.8398 81.8345 24.6598C82.1045 24.2998 82.2845 23.8497 82.4645 23.4897C82.5545 23.3097 82.6445 23.1297 82.6445 23.0397C83.0046 22.1397 83.4546 21.2397 84.1746 20.4297C85.3446 18.9896 86.6946 18.1796 88.1347 17.9096C88.4947 17.8196 88.8547 17.8196 89.3047 17.8196C90.4747 17.9096 91.1947 17.9996 91.5547 18.3596C91.7347 18.5396 91.7347 18.8096 91.4647 19.1697C91.2847 19.4397 91.1047 19.6197 90.9247 19.7997C90.8347 19.8897 90.6547 19.8897 90.5647 19.8897C90.2047 19.8897 90.0247 19.7997 89.4847 19.7997C89.3047 19.7997 89.1247 19.7997 88.8547 19.8897C88.5847 19.9797 88.2247 20.0697 87.7746 20.3397C87.3246 20.6097 86.9646 20.9697 86.5146 21.4197C86.0646 21.9597 85.7946 22.4997 85.5246 23.1297C85.1646 23.9397 84.8946 24.8398 84.8946 25.7398C84.8946 26.6398 85.0746 27.1798 85.3446 27.5398C85.4346 27.6298 85.6146 27.7198 85.7946 27.7198C85.8846 27.7198 85.9746 27.7198 86.0646 27.7198C86.4246 27.6298 86.8746 27.2698 87.3246 26.7298C87.7746 26.1898 88.3147 25.3798 88.7647 24.2998C89.2147 23.3097 89.5747 22.3197 89.7547 21.0597C89.7547 21.0597 89.7547 21.0597 89.7547 20.9697C89.8447 20.7897 90.0247 20.6097 90.4747 20.6097C90.4747 20.6097 90.5647 20.6097 90.6547 20.6097C91.1047 20.6097 91.3747 20.6997 91.6447 20.8797C91.7347 20.9697 91.8247 20.9697 91.9147 21.0597C92.0947 21.2397 92.0947 21.4197 92.0947 21.5997C91.7347 23.7597 91.4647 24.8398 91.3747 25.1998C91.2847 25.5598 91.2847 25.8298 91.2847 25.9198C91.1947 26.5498 91.2847 26.9098 91.3747 27.1798C91.4647 27.3598 91.5547 27.4498 91.7347 27.4498C92.0047 27.4498 92.3647 27.2698 92.7247 26.9998C93.0847 26.6398 93.5348 26.0998 93.9848 25.3798C94.4348 24.7498 94.7048 23.9397 95.0648 23.1297C95.3348 21.5097 95.6048 19.9797 95.8748 18.3596C95.9648 18.0896 96.1448 17.9096 96.5948 17.8196C96.6848 17.8196 96.7748 17.8196 96.8648 17.8196C97.1348 17.8196 97.4048 17.9096 97.6748 17.9996C98.2149 18.2696 98.3048 18.5396 98.3048 18.8096C98.3048 18.8096 98.3048 18.8096 98.3048 18.8996L98.2149 19.0797C98.5749 18.7196 99.0249 18.5396 99.4749 18.3596C100.465 17.9996 101.185 18.1796 101.815 18.2696C102.445 18.4496 102.895 18.6296 103.435 19.0797C104.155 19.6197 104.605 20.2497 104.785 20.8797C104.965 21.5997 104.965 22.0497 104.965 22.7697C104.875 23.7597 104.695 24.4798 104.605 24.9298C104.425 25.3798 104.245 26.0998 103.885 26.5498C103.615 26.9998 103.525 27.0898 103.345 27.3598L103.255 27.5398C102.715 28.1698 102.085 28.7098 101.455 28.9798C101.095 29.1598 100.465 29.5199 99.4749 29.5199C99.3849 29.5199 99.2949 29.5199 99.2949 29.5199C98.7549 29.5199 98.2149 29.4299 97.6748 29.2498C97.3148 29.0698 97.0448 28.8898 96.6848 28.7098H96.5948C96.5048 28.7098 96.5048 28.7098 96.4148 28.7998C96.3248 29.6999 96.1448 30.5999 95.8748 32.3099C95.6948 33.2999 95.5148 34.3799 95.5148 34.3799C95.6948 35.64 95.2448 36 94.5248 36ZM99.3849 20.8797C98.7549 21.1497 98.1248 21.5097 97.9448 21.9597C97.9448 21.9597 97.9448 21.9597 97.9448 22.0497C97.6748 23.5797 97.4048 25.2898 97.1348 27.0898C97.1348 27.1798 97.1348 27.1798 97.1348 27.1798C97.4048 27.5398 97.8548 27.7198 98.3048 27.8998C98.4849 27.9898 98.6649 27.9898 98.8449 27.9898C98.9349 27.9898 99.0249 27.9898 99.1149 27.9898C99.5649 27.9898 99.8349 27.8998 100.015 27.8098C100.735 27.5398 101.005 27.3598 101.365 26.9098C101.725 26.3698 101.905 26.1898 102.085 25.6498C102.265 25.1998 102.445 24.6598 102.535 24.0297C102.715 23.1297 102.715 22.6797 102.715 22.3197C102.625 21.7797 102.535 21.4197 102.175 21.0597C101.365 20.4297 100.105 20.6097 99.3849 20.8797ZM30.3535 13.3195C30.0835 13.3195 29.3635 13.7695 28.5535 16.7396C28.1935 18.0896 27.8335 19.3497 27.5635 20.4297C27.5635 20.5197 27.5635 20.5197 27.5635 20.5197C27.5635 20.5197 27.6535 20.6097 27.7435 20.6097H27.8335C28.1935 20.2497 28.4635 19.8897 28.7335 19.4397C29.2735 18.7196 29.7235 17.9096 29.9935 17.0996C30.3535 16.0196 30.6235 15.1196 30.6235 14.3096C30.6235 13.6795 30.5335 13.4995 30.5335 13.4095C30.5335 13.3195 30.5335 13.3195 30.3535 13.3195Z" fill="#0D0248"/>
<path d="M128.185 19.1704C129.265 20.2504 129.265 22.0504 128.185 23.1305C127.105 24.2105 125.305 24.2105 124.225 23.1305C123.145 22.0504 120.895 15.8403 120.895 15.8403C120.895 15.8403 127.105 18.0904 128.185 19.1704ZM119.275 15.8403C119.275 15.8403 117.025 22.0504 115.945 23.1305C114.865 24.2105 113.065 24.2105 111.985 23.1305C110.905 22.0504 110.905 20.2504 111.985 19.1704C113.065 18.0904 119.275 15.8403 119.275 15.8403ZM128.185 6.93014C129.265 8.01016 129.265 9.81019 128.185 10.8902C127.105 11.9702 120.895 14.2203 120.895 14.2203C120.895 14.2203 123.145 8.01016 124.225 6.93014C125.305 5.85011 127.105 5.85011 128.185 6.93014ZM115.855 6.93014C116.935 8.01016 119.185 14.2203 119.185 14.2203C119.185 14.2203 112.975 11.9702 111.895 10.8902C110.815 9.81019 110.815 8.01016 111.895 6.93014C113.065 5.85011 114.775 5.85011 115.855 6.93014ZM135.026 15.0303C135.026 16.5603 133.766 17.8203 132.236 17.8203C130.705 17.8203 121.615 15.0303 121.615 15.0303C121.615 15.0303 130.705 12.2402 132.236 12.2402C133.766 12.2402 135.026 13.5003 135.026 15.0303ZM118.285 15.0303C118.285 15.0303 109.195 17.8203 107.665 17.8203C106.135 17.8203 104.875 16.5603 104.875 15.0303C104.875 13.5003 106.135 12.2402 107.665 12.2402C109.285 12.2402 118.285 15.0303 118.285 15.0303ZM119.995 30.0606C118.465 30.0606 117.205 28.8006 117.205 27.2705C117.205 25.7405 119.995 16.6503 119.995 16.6503C119.995 16.6503 122.785 25.7405 122.785 27.2705C122.785 28.8906 121.525 30.0606 119.995 30.0606ZM119.995 13.4103C119.995 13.4103 117.205 4.32008 117.205 2.79005C117.205 1.26002 118.465 0 119.995 0C121.525 0 122.785 1.26002 122.785 2.79005C122.785 4.32008 119.995 13.4103 119.995 13.4103Z" fill="#ED145B"/>
</svg>
