<svg width="178" height="36" viewBox="0 0 178 36" fill="none" xmlns="http://www.w3.org/2000/svg">
<path d="M59.7541 9.70734C58.3952 9.70734 57.0327 9.64936 55.6756 9.72365C54.2313 9.80336 52.9723 10.3632 52.1548 11.6224C51.5008 12.6315 51.4481 13.6787 52.1494 14.7114C52.3238 14.9686 52.4782 15.2386 52.6471 15.4995C53.2812 16.4724 53.1249 17.467 52.222 18.1754C51.3518 18.8585 50.3726 18.7878 49.5678 17.9254C47.6603 15.8818 47.5259 13.2783 48.843 10.8687C50.5761 7.69449 53.4937 6.35199 56.98 6.20343C59.4961 6.09654 62.0286 6.05668 64.5393 6.2143C68.5069 6.46251 70.607 8.91561 70.1783 12.8888C69.7259 17.0866 67.555 20.1394 63.5001 21.6902C62.4791 22.0797 61.3946 22.1812 60.3245 22.1178C59.5506 22.0725 59.3072 22.3787 59.1982 23.0581C58.9783 24.4368 58.5532 25.734 57.6104 26.8283C56.286 28.3647 53.3466 28.8973 51.5971 27.8809C50.5289 27.2613 50.1655 25.8916 50.8286 24.9785C51.5753 23.9476 52.8924 23.7665 53.8553 24.56C54.5547 25.1362 54.9671 25.0184 55.2777 24.156C55.3341 23.9966 55.4013 23.8389 55.4431 23.6759C55.5593 23.2121 55.8682 22.6631 55.7192 22.3026C55.5557 21.904 54.9089 22.1866 54.4784 22.1359C53.7317 22.0489 53.1576 21.7772 53.0414 20.9637C52.9142 20.0723 53.6354 19.0559 54.5674 18.7715C55.0379 18.6284 55.523 18.6392 56.0008 18.6718C56.4295 18.7008 56.573 18.5378 56.6584 18.1247C57.0254 16.3275 57.436 14.5411 57.832 12.7493C58.0591 11.7238 58.5096 10.9067 59.6542 10.6621C60.9949 10.3759 61.7652 11.0933 61.4872 12.4304C61.0894 14.3309 60.6751 16.226 60.2482 18.1193C60.161 18.5034 60.1865 18.6356 60.6479 18.6773C64.7555 19.0433 67.2353 14.8889 66.4922 11.838C66.1743 10.5317 65.2732 9.72727 63.918 9.6856C62.5318 9.64393 61.142 9.67654 59.7541 9.67654C59.7541 9.68922 59.7541 9.69828 59.7541 9.70734Z" fill="#030303"/>
<path d="M138.58 24.7672C138.765 24.7473 138.827 24.7564 138.874 24.7346C139.866 24.2563 140.523 24.2871 140.952 24.8361C141.361 25.3597 141.25 26.175 140.667 26.945C139.797 28.0954 137.818 28.6951 136.449 28.2222C135.551 27.9106 135.106 27.2421 134.966 26.2275C133.983 27.012 133.046 27.7874 131.865 28.099C130.354 28.4976 128.829 28.5882 127.45 27.6842C125.83 26.6225 125.588 24.952 125.845 23.2544C126.404 19.5422 128.114 16.4984 131.454 14.5399C132.683 13.8207 134.009 13.4891 135.437 13.721C136.129 13.8334 136.705 14.1703 137.193 14.8969C137.615 12.9384 138.006 11.1321 138.392 9.32575C138.694 7.91983 138.983 6.51211 139.29 5.108C139.502 4.1351 139.975 3.40134 141.038 3.16219C142.26 2.8868 143.052 3.50823 142.825 4.73116C142.387 7.0828 141.857 9.41815 141.357 11.7589C140.438 16.0691 139.515 20.381 138.58 24.7672ZM131.38 24.9919C131.725 25.0046 132.216 24.8759 132.655 24.6042C134.695 23.345 135.68 21.4264 135.776 19.1218C135.856 17.2376 134.457 16.4803 132.746 17.3246C132.595 17.3989 132.439 17.4732 132.307 17.5746C130.463 19.0077 129.465 20.8919 129.373 23.2182C129.323 24.4303 129.999 25.0462 131.38 24.9919Z" fill="#030303"/>
<path d="M99.762 15.6935C101.085 14.6554 102.32 13.889 103.84 13.7133C105.185 13.5593 106.384 13.8183 107.25 14.9235C108.173 16.0993 107.794 17.3404 107.25 18.5144C106.549 20.029 105.356 21.1034 103.879 21.8462C103.406 22.0835 103.237 22.281 103.55 22.772C103.897 23.3191 104.175 23.9098 104.493 24.4732C104.725 24.8845 105.019 25.0294 105.437 24.6816C105.732 24.437 106.104 24.3663 106.475 24.3591C107.445 24.3428 107.97 25.0512 107.701 25.9878C107.12 28.0079 104.011 29.0605 102.398 27.7162C100.908 26.4752 100.167 24.7558 99.7983 22.8988C99.5912 21.8516 100.093 21.0581 100.99 20.4819C101.844 19.9348 102.778 19.4891 103.457 18.7046C103.808 18.3006 104.316 17.8169 104.035 17.3041C103.719 16.7298 103.021 16.9545 102.485 17.0867C100.305 17.6248 99.2297 19.2699 98.6447 21.2247C98.1124 23.0021 97.8381 24.8555 97.4184 26.6672C97.1768 27.7108 96.3938 28.3177 95.3656 28.3431C94.2592 28.3703 93.7305 27.7778 93.954 26.6799C94.4699 24.1398 95.0113 21.6052 95.5545 19.0706C96.3993 15.1319 97.2477 11.1931 98.107 7.25801C98.245 6.62571 98.4757 6.01697 98.7846 5.44083C99.6439 3.82657 101.422 3.42074 103.114 3.71968C103.911 3.85918 104.269 4.73969 103.935 5.51874C103.592 6.31772 103.056 6.91922 102.122 6.96089C101.72 6.979 101.588 7.16018 101.515 7.50441C100.948 10.1749 100.372 12.8436 99.762 15.6935Z" fill="#030303"/>
<path d="M121.655 24.7799C122.073 24.7419 122.378 24.4049 122.814 24.3814C123.855 24.3252 124.478 25.0408 124.187 26.0337C123.693 27.724 121.017 28.9125 119.428 28.1444C119.175 28.0212 118.863 27.9233 118.763 27.6479C118.321 26.4486 117.74 26.771 116.942 27.3454C115.863 28.1226 114.588 28.3907 113.247 28.3509C110.885 28.2802 109.381 26.849 109.303 24.4864C109.209 21.6819 110.239 19.2523 111.957 17.0927C113.447 15.2176 115.291 13.9077 117.767 13.6685C118.665 13.5816 119.522 13.6776 120.28 14.1939C120.568 14.3914 120.736 14.3534 120.999 14.1378C121.548 13.6884 122.189 13.4819 122.898 13.7337C123.468 13.9367 123.828 14.3697 123.708 14.9603C123.05 18.2124 122.352 21.4554 121.655 24.7799ZM112.878 22.8903C112.855 24.4267 113.527 25.0608 114.813 24.9883C115.362 24.9575 115.88 24.827 116.328 24.5227C118.241 23.2273 119.204 21.3666 119.299 19.1128C119.377 17.2485 117.954 16.4622 116.265 17.3282C116.065 17.4297 115.869 17.5475 115.694 17.687C113.928 19.0784 113.038 20.9209 112.878 22.8903Z" fill="#030303"/>
<path d="M147.875 28.3527C144.616 28.3635 142.216 25.6205 142.77 21.9101C143.378 17.8282 145.549 15.011 149.631 13.875C151.165 13.4492 152.729 13.5181 154.219 14.0997C156.439 14.9675 157.265 17.2467 156.237 19.4968C155.042 22.1076 152.024 23.6168 149.19 23.0279C148.451 22.8739 147.82 22.6058 147.757 21.7325C147.702 20.9861 148.552 19.8954 149.323 19.7269C149.739 19.6364 150.153 19.6273 150.576 19.7813C151.221 20.0132 151.866 19.9679 152.435 19.5512C152.885 19.2215 153.214 18.8066 153.121 18.1996C153.027 17.5836 152.594 17.2956 152.04 17.1506C150.634 16.781 149.344 17.0148 148.209 17.9406C147.108 18.8374 146.463 20.0132 146.256 21.3992C145.865 24.0208 147.522 25.4919 150.14 24.9013C151.054 24.6947 151.762 24.1331 152.52 23.6403C153.192 23.2037 154.039 23.2635 154.477 23.7327C155.034 24.3324 154.925 24.9647 154.531 25.5916C154.337 25.9014 154.097 26.1731 153.819 26.4231C152.255 27.8254 150.38 28.3182 147.875 28.3527Z" fill="#030303"/>
<path d="M75.2361 28.3455C70.9451 28.418 68.1601 24.7257 69.4099 20.6221C70.6235 16.6399 73.8627 13.9168 78.0611 13.665C81.8162 13.4385 84.5503 16.2848 84.2306 20.1184C83.8654 24.4847 79.4854 28.4144 75.2361 28.3455ZM75.9828 24.992C78.2191 24.9068 80.074 23.3034 80.6281 20.9754C81.1949 18.5929 79.2655 16.5293 76.882 17.0475C74.8855 17.4823 73.4848 18.6889 72.8508 20.6547C72.0605 23.1042 73.5121 25.0844 75.9828 24.992Z" fill="#030303"/>
<path d="M31.657 0.0270479C30.3507 1.3152 29.2062 2.43848 28.069 3.56901C24.8788 6.73593 21.6924 9.90649 18.5022 13.0734C18.2443 13.3289 18.0789 13.6948 17.5957 13.2184C13.2374 8.90097 8.84829 4.61438 4.46823 0.318739C4.51547 0.220905 4.56452 0.124882 4.61175 0.0270479C5.74355 0.0270479 6.88081 0.0868343 8.00716 0.00892931C8.98636 -0.0581052 9.67671 0.251704 10.3671 0.958284C12.6979 3.34254 15.1177 5.64345 17.4685 8.00959C17.8973 8.44079 18.1007 8.4118 18.5041 8.00053C20.9802 5.4804 23.4909 2.99287 25.9743 0.47817C26.2977 0.152056 26.6174 0.0089281 27.0807 0.0161751C28.5213 0.045163 29.962 0.0270479 31.657 0.0270479Z" fill="#030303"/>
<path d="M19.0501 22.6465C23.2885 26.9186 27.7285 31.3936 32.2502 35.9537C31.2184 35.9537 30.1883 35.8686 29.18 35.9737C27.8011 36.1186 26.8256 35.6602 25.8682 34.6384C23.59 32.2052 21.1702 29.9025 18.6977 27.4367C16.0852 30.0891 13.4765 32.7162 10.9004 35.3758C10.4662 35.8251 10.0266 35.9864 9.41796 35.9664C8.1281 35.9266 6.83461 35.9537 5.32312 35.9537C9.98295 31.4334 14.4956 27.0599 19.0501 22.6465Z" fill="#030303"/>
<path d="M163.348 23.6576C161.955 25.0146 160.587 26.3245 159.246 27.6616C158.518 28.3881 157.542 28.5692 156.922 28.0293C156.25 27.4441 156.228 26.5165 156.993 25.7085C158.392 24.2301 159.829 22.788 161.293 21.3748C161.717 20.9653 161.769 20.6809 161.459 20.1809C160.761 19.0558 160.118 17.8963 159.48 16.7349C158.808 15.512 159.569 13.9919 160.956 13.7727C161.669 13.6586 162.224 13.8887 162.574 14.5626C162.874 15.137 163.216 15.6895 163.535 16.253C163.851 16.811 164.162 17.3708 164.491 17.956C165.583 16.8944 166.655 15.858 167.719 14.8145C168.023 14.5174 168.322 14.222 168.698 14.0119C169.481 13.5734 170.181 13.6622 170.679 14.2764C171.12 14.8199 171.1 15.6044 170.533 16.1986C169.265 17.5267 167.995 18.8601 166.651 20.1102C166.073 20.6465 166.084 21.0215 166.473 21.6429C167.263 22.9093 167.975 24.2247 168.698 25.5328C169.234 26.502 168.855 27.4894 167.741 28.1163C166.842 28.6218 166.088 28.3699 165.501 27.3626C164.782 26.1216 164.06 24.8805 163.348 23.6576Z" fill="#030303"/>
<path d="M89.6827 24.5699C90.1078 24.6967 90.4494 24.405 90.8436 24.3796C91.959 24.309 92.5531 25.0337 92.2043 26.0827C91.5866 27.9397 88.8034 29.0104 87.0994 28.0339C86.2237 27.5321 86.0366 26.6769 86.0693 25.7729C86.1238 24.213 86.5871 22.7201 86.9086 21.2055C87.9005 16.5475 88.9288 11.8985 89.9371 7.24415C90.0697 6.63178 90.304 6.06108 90.5693 5.49944C91.4903 3.55907 93.4378 3.37608 95.0601 3.64059C95.7232 3.7493 96.092 4.55915 95.8595 5.27479C95.5888 6.10094 95.0383 6.7115 94.15 6.85463C93.5795 6.94703 93.3888 7.20973 93.2761 7.75325C92.1879 13.0236 91.067 18.2885 89.9516 23.5553C89.8826 23.8796 89.7808 24.2003 89.6827 24.5699Z" fill="#030303"/>
<path d="M23.34 17.6615C24.5881 17.6615 26.1087 17.6723 27.6293 17.6524C27.9544 17.6488 28.1488 17.7973 28.3505 18.0021C30.9738 20.649 33.5971 23.296 36.2277 25.9339C36.4203 26.1277 36.5129 26.3125 36.5111 26.5897C36.4984 28.0482 36.5056 29.5067 36.5056 30.9887C32.0638 26.4937 27.6529 22.0296 23.34 17.6615Z" fill="#030303"/>
<path d="M13.1222 18.7842C11.8686 18.7842 10.3263 18.7787 8.78388 18.7878C8.44961 18.7896 8.28429 18.565 8.08808 18.3675C5.51927 15.7803 2.95409 13.1913 0.381642 10.6096C0.154555 10.3831 -0.0053149 10.1693 0.000135198 9.81604C0.0219356 8.38295 0.00921873 6.94986 0.00921873 5.54395C4.41835 9.99721 8.82384 14.445 13.1222 18.7842Z" fill="#030303"/>
<path d="M174.184 28.4916C172.491 28.4807 171.488 27.2324 171.832 25.5656C172.208 23.743 173.652 22.4639 175.407 22.4041C177.031 22.3479 178.204 23.647 177.97 25.2413C177.705 27.044 176.006 28.5024 174.184 28.4916Z" fill="#E5047C"/>
<path d="M20.6074 18.4662C20.6092 19.7743 19.6101 20.7598 18.2948 20.749C17.0412 20.7381 16.0275 19.7453 16.0021 18.5042C15.9767 17.2559 17.0358 16.1707 18.2984 16.1526C19.5646 16.1345 20.6074 17.1798 20.6074 18.4662Z" fill="#E5047C"/>
</svg>
