<svg width="218" height="218" viewBox="0 0 218 218" fill="none" xmlns="http://www.w3.org/2000/svg">
<path d="M68.125 0H0V68.125H68.125V0ZM54.5 54.5H13.625V13.625H54.5V54.5Z" fill="black"/>
<path d="M40.875 27.25H27.25V40.875H40.875V27.25Z" fill="black"/>
<path d="M149.875 0V68.125H218V0H149.875ZM204.375 54.5H163.5V13.625H204.375V54.5Z" fill="black"/>
<path d="M190.75 27.25H177.125V40.875H190.75V27.25Z" fill="black"/>
<path d="M0 218H68.125V149.875H0V218ZM13.625 163.5H54.5V204.375H13.625V163.5Z" fill="black"/>
<path d="M40.875 177.125H27.25V190.75H40.875V177.125Z" fill="black"/>
<path d="M136.25 0H109V13.625H136.25V0Z" fill="black"/>
<path d="M109 54.5H122.625V40.875H136.25V27.25H95.375V13.625H81.75V27.25V34.0625V40.875H109V54.5Z" fill="black"/>
<path d="M95.375 54.5H81.75V68.125H95.375V54.5Z" fill="black"/>
<path d="M136.25 68.125H122.625V81.75H81.75V95.375H136.25V68.125Z" fill="black"/>
<path d="M13.625 122.625H27.25V109H13.625V81.75H0V136.25H13.625V122.625Z" fill="black"/>
<path d="M40.875 81.75H27.25V95.375H40.875V81.75Z" fill="black"/>
<path d="M81.75 136.25H109V122.625H95.375V109H68.125V81.75H54.5V109H40.875V136.25H54.5V122.625H61.3125H68.125H81.75V136.25Z" fill="black"/>
<path d="M136.25 109H122.625V136.25H136.25V109Z" fill="black"/>
<path d="M122.625 149.875H81.75V163.5H109V204.375H81.75V218H122.625V204.375H149.875V190.75H122.625V149.875Z" fill="black"/>
<path d="M95.375 177.125H81.75V190.75H95.375V177.125Z" fill="black"/>
<path d="M149.875 149.875H136.25V177.125H149.875V149.875Z" fill="black"/>
<path d="M204.375 177.125H163.5V218H177.125V190.75H204.375V177.125Z" fill="black"/>
<path d="M218 204.375H190.75V218H218V204.375Z" fill="black"/>
<path d="M218 149.875H204.375V163.5H218V149.875Z" fill="black"/>
<path d="M163.5 163.5H177.125V122.625H149.875V136.25H163.5V163.5Z" fill="black"/>
<path d="M190.75 95.375H177.125V81.75H163.5V95.375H149.875V109H204.375V95.375H218V81.75H190.75V95.375Z" fill="black"/>
<path d="M218 122.625H190.75V136.25H218V122.625Z" fill="black"/>
</svg>
