<svg width="40" height="40" viewBox="0 0 40 40" fill="none" xmlns="http://www.w3.org/2000/svg">
<rect width="40" height="40" fill="black"/>
<path d="M8.33333 18.3333H15C16.8333 18.3333 18.3333 16.8333 18.3333 15V8.33333C18.3333 6.5 16.8333 5 15 5H8.33333C6.5 5 5 6.5 5 8.33333V15C5 16.8333 6.5 18.3333 8.33333 18.3333ZM8.33333 8.33333H15V15H8.33333V8.33333Z" fill="white"/>
<path d="M8.33333 35.0001H15C16.8333 35.0001 18.3333 33.5001 18.3333 31.6667V25.0001C18.3333 23.1667 16.8333 21.6667 15 21.6667H8.33333C6.5 21.6667 5 23.1667 5 25.0001V31.6667C5 33.5001 6.5 35.0001 8.33333 35.0001ZM8.33333 25.0001H15V31.6667H8.33333V25.0001Z" fill="white"/>
<path d="M21.6665 8.33333V15C21.6665 16.8333 23.1665 18.3333 24.9998 18.3333H31.6665C33.4998 18.3333 34.9998 16.8333 34.9998 15V8.33333C34.9998 6.5 33.4998 5 31.6665 5H24.9998C23.1665 5 21.6665 6.5 21.6665 8.33333ZM31.6665 15H24.9998V8.33333H31.6665V15Z" fill="white"/>
<path d="M34.9998 34.1667V32.5001C34.9998 32.0334 34.6332 31.6667 34.1665 31.6667H32.4998C32.0332 31.6667 31.6665 32.0334 31.6665 32.5001V34.1667C31.6665 34.6334 32.0332 35.0001 32.4998 35.0001H34.1665C34.6332 35.0001 34.9998 34.6334 34.9998 34.1667Z" fill="white"/>
<path d="M21.6665 22.5001V24.1667C21.6665 24.6334 22.0332 25.0001 22.4998 25.0001H24.1665C24.6332 25.0001 24.9998 24.6334 24.9998 24.1667V22.5001C24.9998 22.0334 24.6332 21.6667 24.1665 21.6667H22.4998C22.0332 21.6667 21.6665 22.0334 21.6665 22.5001Z" fill="white"/>
<path d="M27.5 25H25.8333C25.3667 25 25 25.3667 25 25.8333V27.5C25 27.9667 25.3667 28.3333 25.8333 28.3333H27.5C27.9667 28.3333 28.3333 27.9667 28.3333 27.5V25.8333C28.3333 25.3667 27.9667 25 27.5 25Z" fill="white"/>
<path d="M21.6665 29.1666V30.8333C21.6665 31.2999 22.0332 31.6666 22.4998 31.6666H24.1665C24.6332 31.6666 24.9998 31.2999 24.9998 30.8333V29.1666C24.9998 28.6999 24.6332 28.3333 24.1665 28.3333H22.4998C22.0332 28.3333 21.6665 28.6999 21.6665 29.1666Z" fill="white"/>
<path d="M25.8333 35.0001H27.5C27.9667 35.0001 28.3333 34.6334 28.3333 34.1667V32.5001C28.3333 32.0334 27.9667 31.6667 27.5 31.6667H25.8333C25.3667 31.6667 25 32.0334 25 32.5001V34.1667C25 34.6334 25.3667 35.0001 25.8333 35.0001Z" fill="white"/>
<path d="M29.1668 31.6666H30.8335C31.3002 31.6666 31.6668 31.2999 31.6668 30.8333V29.1666C31.6668 28.6999 31.3002 28.3333 30.8335 28.3333H29.1668C28.7002 28.3333 28.3335 28.6999 28.3335 29.1666V30.8333C28.3335 31.2999 28.7002 31.6666 29.1668 31.6666Z" fill="white"/>
<path d="M30.8335 21.6667H29.1668C28.7002 21.6667 28.3335 22.0334 28.3335 22.5001V24.1667C28.3335 24.6334 28.7002 25.0001 29.1668 25.0001H30.8335C31.3002 25.0001 31.6668 24.6334 31.6668 24.1667V22.5001C31.6668 22.0334 31.3002 21.6667 30.8335 21.6667Z" fill="white"/>
<path d="M32.4998 28.3333H34.1665C34.6332 28.3333 34.9998 27.9667 34.9998 27.5V25.8333C34.9998 25.3667 34.6332 25 34.1665 25H32.4998C32.0332 25 31.6665 25.3667 31.6665 25.8333V27.5C31.6665 27.9667 32.0332 28.3333 32.4998 28.3333Z" fill="white"/>
</svg>
