<svg width="132" height="36" viewBox="0 0 132 36" fill="none" xmlns="http://www.w3.org/2000/svg">
<path fill-rule="evenodd" clip-rule="evenodd" d="M45.3704 22.2168L43.7432 19.4055H41.3606V22.2168H39.9591V13.7755H44.1791C44.6936 13.7714 45.1993 13.9086 45.6412 14.1721C46.083 14.4357 46.444 14.8154 46.6851 15.27C46.926 15.7246 47.0375 16.2366 47.0076 16.7502C46.9775 17.2639 46.8073 17.7595 46.5151 18.1829C46.21 18.6321 45.7794 18.9815 45.2771 19.1876L47.0134 22.2168H45.3704ZM44.1791 15.2083H41.3606V18.0116H44.1791C44.3634 18.0115 44.5456 17.9735 44.7144 17.8998C44.8831 17.8262 45.0349 17.7183 45.1602 17.5834C45.3543 17.3863 45.4861 17.1366 45.5392 16.8652C45.5923 16.5938 45.5645 16.3127 45.4591 16.057C45.3536 15.8014 45.1754 15.5823 44.9464 15.4272C44.7175 15.2722 44.4479 15.1879 44.1714 15.185L44.1791 15.2083ZM59.1834 13.7755L54.9554 22.2168H56.5283L59.1834 16.9292L61.8307 22.2168H63.4035L59.1834 13.7755ZM76.9982 13.7755H75.2074L72.8014 16.8903L70.4033 13.7755H68.6046L72.1318 18.2764V22.2168H73.5333V18.2064L76.9982 13.7755ZM84.177 13.7755H86.9878C88.1046 13.7836 89.1732 14.2309 89.9629 15.0207C90.7526 15.8104 91.1998 16.8793 91.208 17.9961C91.2018 19.1136 90.7552 20.1835 89.9651 20.9737C89.1751 21.764 88.1052 22.2106 86.9878 22.2168H84.177V13.7755ZM86.9878 20.7839C87.7327 20.7819 88.4464 20.485 88.9731 19.9582C89.4998 19.4315 89.7966 18.7177 89.7987 17.9727C89.7905 17.2297 89.4918 16.5193 88.9664 15.9939C88.4411 15.4685 87.7308 15.1697 86.9878 15.1615H85.5707V20.7839H86.9878ZM100.575 13.7755H99.1734V22.2168H100.575V13.7755ZM115.572 18.6891C115.579 19.1535 115.491 19.6144 115.313 20.0433C115.135 20.472 114.871 20.8594 114.535 21.181C114.044 21.673 113.418 22.0079 112.736 22.1433C112.053 22.2786 111.346 22.2084 110.704 21.9415C110.062 21.6746 109.513 21.223 109.128 20.644C108.743 20.065 108.538 19.3846 108.54 18.6891V13.7755H109.942V18.6891C109.942 19.2488 110.164 19.7856 110.56 20.1814C110.955 20.5771 111.492 20.7995 112.052 20.7995C112.611 20.7995 113.148 20.5771 113.544 20.1814C113.939 19.7856 114.161 19.2488 114.161 18.6891V13.7755H115.572V18.6891ZM124.938 22.2168V17.1707L127.764 19.9896L130.576 17.1707V22.2168H132V13.7755L127.764 17.9961L123.544 13.7755V22.2168H124.938Z" fill="#131A35"/>
<path d="M29.5487 13.5107V26.0636L15.588 34.1233L1.61954 26.0636V9.93641L15.588 1.86891L26.3175 8.0675L27.937 7.13304L15.588 0L0 9.00195V26.9981L15.588 36L31.1761 26.9981V12.5762L29.5487 13.5107Z" fill="url(#paint0_linear)"/>
<path d="M11.6793 26.0698H9.34338V18.2359H17.1297C17.8663 18.2277 18.5701 17.9298 19.0889 17.4066C19.6076 16.8835 19.8996 16.1771 19.9015 15.4402C19.9057 15.0759 19.8354 14.7146 19.6949 14.3785C19.5542 14.0423 19.3464 13.7385 19.0839 13.4857C18.83 13.2248 18.5261 13.0178 18.1903 12.8773C17.8544 12.7367 17.4936 12.6656 17.1297 12.668H9.34338V10.2852H17.1374C18.5019 10.2933 19.8083 10.8391 20.7732 11.8041C21.738 12.7691 22.2837 14.0756 22.2918 15.4402C22.3002 16.4849 21.9818 17.5059 21.3809 18.3604C20.828 19.178 20.0487 19.8166 19.1385 20.1982C18.2371 20.4841 17.2965 20.626 16.351 20.6187H11.6793V26.0698Z" fill="url(#paint1_linear)"/>
<path d="M22.2375 25.877H19.5122L17.41 22.2093C18.2417 22.1584 19.0621 21.9906 19.8471 21.7109L22.2375 25.877Z" fill="url(#paint2_linear)"/>
<path d="M27.9214 10.901L29.5328 11.7965L31.1443 10.901V9.00868L29.5328 8.07422L27.9214 9.00868V10.901Z" fill="url(#paint3_linear)"/>
<defs>
<linearGradient id="paint0_linear" x1="31.1485" y1="9.01185" x2="-1.90778" y2="22.2294" gradientUnits="userSpaceOnUse">
<stop stop-color="#C200FB"/>
<stop offset="0.489658" stop-color="#3772FF"/>
<stop offset="0.489758" stop-color="#3773FE"/>
<stop offset="1" stop-color="#5AC4BE"/>
</linearGradient>
<linearGradient id="paint1_linear" x1="31.1484" y1="9.01018" x2="-1.90787" y2="22.2277" gradientUnits="userSpaceOnUse">
<stop stop-color="#C200FB"/>
<stop offset="0.489658" stop-color="#3772FF"/>
<stop offset="0.489758" stop-color="#3773FE"/>
<stop offset="1" stop-color="#5AC4BE"/>
</linearGradient>
<linearGradient id="paint2_linear" x1="31.1485" y1="9.01216" x2="-1.90776" y2="22.2297" gradientUnits="userSpaceOnUse">
<stop stop-color="#C200FB"/>
<stop offset="0.489658" stop-color="#3772FF"/>
<stop offset="0.489758" stop-color="#3773FE"/>
<stop offset="1" stop-color="#5AC4BE"/>
</linearGradient>
<linearGradient id="paint3_linear" x1="31.1478" y1="9.01079" x2="-1.90346" y2="22.2236" gradientUnits="userSpaceOnUse">
<stop stop-color="#C200FB"/>
<stop offset="0.489658" stop-color="#3772FF"/>
<stop offset="0.489758" stop-color="#3773FE"/>
<stop offset="1" stop-color="#5AC4BE"/>
</linearGradient>
</defs>
</svg>
