<svg width="75" height="36" viewBox="0 0 75 36" fill="none" xmlns="http://www.w3.org/2000/svg">
<path d="M24.4246 12.3702C24.4246 5.53835 19.0692 7.43866e-05 12.463 7.43866e-05C5.85674 7.43866e-05 0.501343 5.53835 0.501343 12.3702C0.501343 19.202 5.85674 24.7402 12.463 24.7402C19.0692 24.7402 24.4246 19.202 24.4246 12.3702Z" fill="url(#paint0_linear)"/>
<path d="M-1.71661e-05 23.6279C-1.71661e-05 30.4597 5.35538 35.998 11.9616 35.998C18.5678 35.998 23.9232 30.4597 23.9232 23.6279C23.9232 16.7961 18.5678 11.2578 11.9616 11.2578C5.35538 11.2578 -1.71661e-05 16.7961 -1.71661e-05 23.6279Z" fill="url(#paint1_linear)"/>
<path fill-rule="evenodd" clip-rule="evenodd" d="M41.4482 28.8942C38.164 28.8942 35.4955 28.1379 33.3842 26.9453L35.2316 21.3895H35.3782C36.4045 25.4618 39.6008 27.5561 42.5626 27.5561C44.234 27.5561 45.4656 26.5962 45.4656 25.0546C45.4656 24.1238 45.0844 23.2511 43.3836 22.4948L38.5159 20.2842C35.6421 18.9461 34.1466 16.5609 34.1466 14.0012C34.1466 10.8306 36.1699 7.36914 42.0347 7.36914C44.6739 7.36914 47.7236 8.21269 49.4537 9.17259L47.3424 13.943H47.1957C46.0228 10.3652 43.413 8.64901 40.8618 8.64901C38.7211 8.64901 37.9587 9.72526 37.9587 10.6852C37.9587 11.6451 38.4572 12.5468 40.0114 13.3031L45.0258 15.6592C48.2514 17.1427 49.2191 18.9752 49.2191 21.5058C49.2191 25.6363 46.1108 28.8942 41.4482 28.8942ZM59.031 24.4146C60.4972 24.4146 61.5822 23.9783 62.3739 22.873L62.6085 22.9311C61.8168 27.4107 58.7671 28.7487 56.4212 28.7487C53.0489 28.7487 49.7353 26.0726 49.7353 20.9823C49.7353 16.0955 52.6384 12.605 56.6264 12.605C59.119 12.605 62.6672 13.9139 62.6672 19.4406H54.2219C54.6617 22.7275 56.4212 24.4146 59.031 24.4146ZM55.9813 13.5649C54.779 13.5649 54.1046 15.1065 54.1046 17.7244C54.1046 18.0153 54.1046 18.2771 54.1339 18.5389H57.7701C57.7701 14.6993 57.1543 13.5649 55.9813 13.5649ZM73.74 24.3565L74.0039 24.4437C73.3588 26.5962 71.5993 28.7487 68.5496 28.7487C65.7639 28.7487 64.5323 26.9744 64.5323 24.5601V13.8557H63.0954V13.7103C65.3533 11.7905 67.7579 10.0161 70.0745 8.00907H70.1038V13.0995H72.8016V13.8266H70.1038V23.7747C70.1038 25.0255 70.661 25.8399 71.6873 25.8399C72.8309 25.8399 73.4761 25.0837 73.74 24.3565Z" fill="#0F0835"/>
<defs>
<linearGradient id="paint0_linear" x1="0.501343" y1="12.3702" x2="24.4246" y2="12.3702" gradientUnits="userSpaceOnUse">
<stop stop-color="#E6AE31"/>
<stop offset="1" stop-color="#E6AE31" stop-opacity="0"/>
</linearGradient>
<linearGradient id="paint1_linear" x1="23.9232" y1="23.6279" x2="-1.71661e-05" y2="23.6279" gradientUnits="userSpaceOnUse">
<stop stop-color="#E6AE31"/>
<stop offset="1" stop-color="#E6AE31" stop-opacity="0"/>
</linearGradient>
</defs>
</svg>
