<svg width="36" height="42" viewBox="0 0 36 42" fill="none" xmlns="http://www.w3.org/2000/svg">
<path d="M18.57 0.888553L18.57 0.888544C18.1251 0.703878 17.6249 0.703756 17.18 0.888553C17.18 0.888558 17.18 0.888563 17.18 0.888567L1.8675 7.24614L1.86748 7.24614C1.19099 7.52707 0.75 8.18753 0.75 8.92007V16.6486C0.75 27.3918 7.24343 37.0557 17.1901 41.1156L17.2845 40.8842L17.1901 41.1156C17.6291 41.2948 18.1209 41.2948 18.5599 41.1156L18.4655 40.8842L18.56 41.1156C28.5064 37.0558 35 27.3919 35 16.6486V8.92007C35 8.18755 34.5591 7.52707 33.8825 7.24614L18.57 0.888553ZM31.375 16.6486C31.375 25.5611 26.1623 33.7682 17.875 37.4669C9.80746 33.8656 4.375 25.8012 4.375 16.6486V10.1301L17.875 4.52498L31.375 10.1301V16.6486ZM22.6871 15.0227L16.148 21.5618L13.0629 18.4767C13.0629 18.4767 13.0629 18.4767 13.0629 18.4767C12.3551 17.7688 11.2075 17.7689 10.4996 18.4767C9.79176 19.1845 9.79178 20.332 10.4996 21.0399L14.8664 25.4066C15.574 26.1143 16.7216 26.1146 17.4296 25.4066L25.2503 17.5859C25.2503 17.5859 25.2503 17.5859 25.2503 17.5859C25.9582 16.8781 25.9583 15.7305 25.2504 15.0227C24.5425 14.3148 23.3949 14.3149 22.6871 15.0227Z" fill="white" stroke="white" stroke-width="0.5"/>
</svg>
