<svg width="115" height="36" viewBox="0 0 115 36" fill="none" xmlns="http://www.w3.org/2000/svg">
    <path fill-rule="evenodd" clip-rule="evenodd"
          d="M42.5033 21.253C42.5033 26.9801 40.2381 32.1781 36.5549 35.9999L21.1024 20.5465L5.8027 35.8472C2.20552 32.0403 0 26.9042 0 21.253C0 15.2156 2.51719 9.76627 6.55925 5.89725L21.1024 20.4413L35.7907 5.75195C39.9224 9.62923 42.5033 15.1397 42.5033 21.253Z"
          fill="url(#paint0_linear)"/>
    <path fill-rule="evenodd" clip-rule="evenodd"
          d="M21.2516 0C26.8758 0 31.9896 2.18484 35.7908 5.75211C39.9224 9.62929 42.5033 15.1397 42.5033 21.253C42.5033 26.9802 40.2381 32.1782 36.5549 36L21.1024 20.5466L5.8027 35.8473C2.20552 32.0403 0 26.9043 0 21.253C0 15.2761 2.4671 9.87538 6.43845 6.01386L6.55919 5.89737C10.3757 2.24424 15.5516 0 21.2516 0Z"
          fill="url(#paint1_linear)"/>
    <path fill-rule="evenodd" clip-rule="evenodd"
          d="M21.252 0C26.8761 0 31.99 2.18484 35.7912 5.75211L21.1027 20.4414L6.55957 5.89737C10.3761 2.24424 15.552 0 21.252 0Z"
          fill="url(#paint2_linear)"/>
    <path d="M57.6277 21.1532C59.1021 21.1532 60.2671 20.8576 61.1228 20.2664C61.9784 19.6753 62.4063 18.8871 62.4063 17.9018C62.4063 17.153 62.2121 16.575 61.8238 16.1677C61.4354 15.7605 60.9714 15.4715 60.4316 15.3007C59.8919 15.1299 59.2008 14.9788 58.3583 14.8475C57.5158 14.703 56.8938 14.5486 56.4923 14.3844C56.0908 14.2202 55.89 13.941 55.89 13.5469C55.89 13.1922 56.0776 12.9065 56.4528 12.6897C56.8279 12.473 57.3775 12.3646 58.1016 12.3646C59.2205 12.3646 60.2276 12.6273 61.1228 13.1528L62.0706 11.2808C61.6098 11.0049 61.0174 10.7849 60.2934 10.6207C59.5694 10.4565 58.8454 10.3744 58.1213 10.3744C56.6996 10.3744 55.5708 10.6732 54.7348 11.271C53.8989 11.8687 53.4809 12.6667 53.4809 13.6651C53.4809 14.4271 53.6817 15.0215 54.0832 15.4485C54.4847 15.8754 54.9586 16.1743 55.5049 16.3451C56.0513 16.5158 56.7588 16.6669 57.6277 16.7983C58.457 16.9297 59.0593 17.0676 59.4345 17.2121C59.8096 17.3566 59.9972 17.6128 59.9972 17.9806C59.9972 18.7557 59.26 19.1432 57.7856 19.1432C57.1406 19.1432 56.4857 19.048 55.8209 18.8575C55.1561 18.667 54.5867 18.4141 54.1128 18.0988L53.165 19.9708C53.6521 20.3124 54.3037 20.5948 55.1199 20.8182C55.9361 21.0415 56.772 21.1532 57.6277 21.1532ZM68.9489 21.1532C70.0283 21.1532 70.9959 20.9233 71.8516 20.4635C72.7073 20.0037 73.3753 19.3633 73.8558 18.5422C74.3363 17.7212 74.5766 16.7917 74.5766 15.7539C74.5766 14.7161 74.3363 13.7899 73.8558 12.9755C73.3753 12.161 72.7073 11.5238 71.8516 11.064C70.9959 10.6043 70.0283 10.3744 68.9489 10.3744C67.8826 10.3744 66.9216 10.6043 66.0659 11.064C65.2102 11.5238 64.5422 12.161 64.0617 12.9755C63.5812 13.7899 63.3409 14.7161 63.3409 15.7539C63.3409 16.7917 63.5812 17.7212 64.0617 18.5422C64.5422 19.3633 65.2102 20.0037 66.0659 20.4635C66.9216 20.9233 67.8826 21.1532 68.9489 21.1532ZM68.9489 19.0447C68.0405 19.0447 67.2935 18.7425 66.7077 18.1383C66.1219 17.534 65.829 16.7392 65.829 15.7539C65.829 14.7686 66.1219 13.9739 66.7077 13.3696C67.2935 12.7653 68.0405 12.4631 68.9489 12.4631C69.8572 12.4631 70.6076 12.7653 71.2 13.3696C71.7923 13.9739 72.0885 14.7686 72.0885 15.7539C72.0885 16.7392 71.7923 17.534 71.2 18.1383C70.6076 18.7425 69.8572 19.0447 68.9489 19.0447ZM79.0853 21.0152V6.39389H76.617V21.0152H79.0853ZM84.4629 21.0152V15.9116C84.4629 14.8606 84.7327 14.056 85.2725 13.4977C85.8122 12.9393 86.5626 12.6602 87.5236 12.6602C87.6947 12.6602 87.8856 12.6799 88.0962 12.7193V10.3744C86.3059 10.3744 85.0553 10.9261 84.3444 12.0296V10.4926H81.9946V21.0152H84.4629ZM91.1042 8.75853C91.565 8.75853 91.9434 8.61074 92.2396 8.31516C92.5358 8.01958 92.6839 7.65503 92.6839 7.22152C92.6839 6.81427 92.5325 6.476 92.2298 6.20669C91.927 5.93739 91.5518 5.80273 91.1042 5.80273C90.6566 5.80273 90.2815 5.94396 89.9787 6.2264C89.6759 6.50884 89.5245 6.86025 89.5245 7.28063C89.5245 7.70101 89.6759 8.05242 89.9787 8.33487C90.2815 8.61731 90.6566 8.75853 91.1042 8.75853ZM92.3285 21.0152V10.4926H89.8602V21.0152H92.3285ZM98.4959 21.1532C99.9703 21.1532 101.135 20.8576 101.991 20.2664C102.847 19.6753 103.275 18.8871 103.275 17.9018C103.275 17.153 103.08 16.575 102.692 16.1677C102.304 15.7605 101.84 15.4715 101.3 15.3007C100.76 15.1299 100.069 14.9788 99.2265 14.8475C98.384 14.703 97.762 14.5486 97.3605 14.3844C96.959 14.2202 96.7582 13.941 96.7582 13.5469C96.7582 13.1922 96.9458 12.9065 97.321 12.6897C97.6962 12.473 98.2458 12.3646 98.9698 12.3646C100.089 12.3646 101.096 12.6273 101.991 13.1528L102.939 11.2808C102.478 11.0049 101.886 10.7849 101.162 10.6207C100.438 10.4565 99.7136 10.3744 98.9896 10.3744C97.5678 10.3744 96.439 10.6732 95.6031 11.271C94.7671 11.8687 94.3492 12.6667 94.3492 13.6651C94.3492 14.4271 94.5499 15.0215 94.9515 15.4485C95.353 15.8754 95.8269 16.1743 96.3732 16.3451C96.9195 16.5158 97.6271 16.6669 98.4959 16.7983C99.3253 16.9297 99.9275 17.0676 100.303 17.2121C100.678 17.3566 100.865 17.6128 100.865 17.9806C100.865 18.7557 100.128 19.1432 98.6539 19.1432C98.0088 19.1432 97.3539 19.048 96.6891 18.8575C96.0243 18.667 95.455 18.4141 94.9811 18.0988L94.0332 19.9708C94.5203 20.3124 95.1719 20.5948 95.9881 20.8182C96.8043 21.0415 97.6402 21.1532 98.4959 21.1532ZM110.034 21.1532C110.943 21.1532 111.759 21.0087 112.483 20.7196C113.207 20.4306 113.806 20.0037 114.28 19.4388L112.957 17.9215C112.206 18.6834 111.252 19.0644 110.094 19.0644C109.185 19.0644 108.425 18.8378 107.813 18.3846C107.201 17.9313 106.822 17.3172 106.677 16.5421H114.951C114.977 16.2268 114.991 15.9838 114.991 15.813C114.991 14.7358 114.764 13.7867 114.309 12.9656C113.855 12.1446 113.223 11.5074 112.414 11.0542C111.604 10.601 110.686 10.3744 109.659 10.3744C108.619 10.3744 107.685 10.6043 106.855 11.064C106.026 11.5238 105.377 12.1643 104.91 12.9853C104.443 13.8064 104.209 14.7292 104.209 15.7539C104.209 16.7917 104.449 17.7212 104.93 18.5422C105.41 19.3633 106.092 20.0037 106.974 20.4635C107.856 20.9233 108.876 21.1532 110.034 21.1532ZM112.641 14.9066H106.658C106.776 14.1315 107.109 13.5108 107.655 13.0444C108.201 12.5781 108.869 12.3449 109.659 12.3449C110.462 12.3449 111.134 12.5814 111.673 13.0543C112.213 13.5272 112.536 14.1446 112.641 14.9066Z"
          fill="#515151"/>
    <path opacity="0.5"
          d="M54.8221 31.125V25.8273H56.6448V25.1452H54.7993V24.4404C54.7993 24.069 54.8885 23.7886 55.067 23.5991C55.2455 23.4097 55.5094 23.3149 55.8587 23.3149C56.2157 23.3149 56.5119 23.4134 56.7473 23.6105L57.0207 23.008C56.8764 22.8867 56.6979 22.7939 56.4853 22.7294C56.2726 22.665 56.0524 22.6328 55.8246 22.6328C55.2474 22.6328 54.8012 22.792 54.486 23.1103C54.1708 23.4286 54.0132 23.8606 54.0132 24.4063V25.1452H52.9424V25.8273H54.0132V31.125H54.8221ZM59.0599 23.8379C59.227 23.8379 59.3675 23.781 59.4814 23.6673C59.5953 23.5537 59.6523 23.4134 59.6523 23.2467C59.6523 23.0951 59.5953 22.9644 59.4814 22.8545C59.3675 22.7446 59.227 22.6897 59.0599 22.6897C58.8928 22.6897 58.7523 22.7465 58.6384 22.8602C58.5245 22.9739 58.4675 23.1065 58.4675 23.2581C58.4675 23.4172 58.5245 23.5537 58.6384 23.6673C58.7523 23.781 58.8928 23.8379 59.0599 23.8379ZM59.4586 31.125V25.1452H58.6498V31.125H59.4586ZM62.3332 31.125V27.9874C62.3332 27.3128 62.5212 26.7842 62.8971 26.4015C63.2731 26.0187 63.7838 25.8273 64.4294 25.8273C65.0066 25.8273 65.4509 25.9903 65.7623 26.3162C66.0736 26.6421 66.2293 27.1158 66.2293 27.7372V31.125H67.0382V27.6577C67.0382 26.824 66.816 26.1892 66.3717 25.7535C65.9274 25.3177 65.3294 25.0998 64.5775 25.0998C64.061 25.0998 63.6073 25.2002 63.2161 25.401C62.825 25.6019 62.5193 25.8842 62.2991 26.248V25.1452H61.5244V31.125H62.3332ZM70.733 31.1819C71.2191 31.1819 71.6387 31.0947 71.9918 30.9204C72.345 30.7461 72.6127 30.5036 72.795 30.1928V31.125H73.5696V27.4189C73.5696 26.6535 73.3608 26.0756 72.9431 25.6852C72.5254 25.2949 71.9254 25.0998 71.1431 25.0998C70.6723 25.0998 70.2242 25.1699 69.7989 25.3101C69.3736 25.4503 69.009 25.6492 68.7052 25.9069L69.0698 26.5095C69.3204 26.2897 69.6204 26.1172 69.9697 25.9922C70.3191 25.8671 70.6836 25.8046 71.0634 25.8046C71.6178 25.8046 72.0393 25.9391 72.3279 26.2082C72.6165 26.4772 72.7608 26.8695 72.7608 27.3848V27.7486H70.8583C70.0533 27.7486 69.4666 27.904 69.0982 28.2147C68.7299 28.5255 68.5457 28.9347 68.5457 29.4425C68.5457 29.9655 68.7432 30.3861 69.1381 30.7044C69.533 31.0227 70.0647 31.1819 70.733 31.1819ZM70.8583 30.5453C70.3799 30.5453 70.0077 30.4448 69.7419 30.244C69.4761 30.0431 69.3432 29.7684 69.3432 29.4198C69.3432 28.7074 69.8558 28.3511 70.8811 28.3511H72.7608V29.3288C72.6013 29.7229 72.3583 30.0242 72.0317 30.2326C71.7051 30.441 71.314 30.5453 70.8583 30.5453ZM76.3873 31.125V27.9874C76.3873 27.3128 76.5753 26.7842 76.9512 26.4015C77.3271 26.0187 77.8379 25.8273 78.4834 25.8273C79.0606 25.8273 79.5049 25.9903 79.8163 26.3162C80.1277 26.6421 80.2834 27.1158 80.2834 27.7372V31.125H81.0922V27.6577C81.0922 26.824 80.8701 26.1892 80.4258 25.7535C79.9815 25.3177 79.3834 25.0998 78.6315 25.0998C78.1151 25.0998 77.6613 25.2002 77.2702 25.401C76.879 25.6019 76.5734 25.8842 76.3531 26.248V25.1452H75.5785V31.125H76.3873ZM85.6073 31.1819C86.1161 31.1819 86.5756 31.0815 86.9857 30.8806C87.3958 30.6798 87.7186 30.3861 87.9541 29.9996L87.3503 29.5903C87.1528 29.8859 86.9022 30.1057 86.5984 30.2497C86.2946 30.3937 85.9642 30.4657 85.6073 30.4657C85.1744 30.4657 84.7852 30.369 84.4396 30.1758C84.094 29.9825 83.8244 29.7097 83.6308 29.3572C83.4371 29.0048 83.3403 28.5975 83.3403 28.1351C83.3403 27.6804 83.4371 27.2749 83.6308 26.9187C83.8244 26.5625 84.094 26.2878 84.4396 26.0945C84.7852 25.9012 85.1744 25.8046 85.6073 25.8046C85.9642 25.8046 86.2946 25.8785 86.5984 26.0263C86.9022 26.1741 87.1528 26.3958 87.3503 26.6913L87.9541 26.2821C87.7186 25.8956 87.3977 25.6019 86.9914 25.401C86.5851 25.2002 86.1237 25.0998 85.6073 25.0998C85.0149 25.0998 84.4852 25.2286 84.0181 25.4863C83.551 25.744 83.1846 26.104 82.9188 26.5663C82.6529 27.0286 82.52 27.5516 82.52 28.1351C82.52 28.7187 82.6529 29.2436 82.9188 29.7097C83.1846 30.1758 83.551 30.5377 84.0181 30.7954C84.4852 31.053 85.0149 31.1819 85.6073 31.1819ZM91.7856 31.1819C92.2641 31.1819 92.7027 31.0985 93.1014 30.9318C93.5001 30.765 93.8324 30.5225 94.0982 30.2042L93.6425 29.6812C93.4147 29.9389 93.1451 30.1341 92.8337 30.2667C92.5223 30.3994 92.1805 30.4657 91.8084 30.4657C91.1476 30.4657 90.6008 30.2743 90.1679 29.8916C89.735 29.5088 89.4958 29.0067 89.4502 28.3852H94.4627L94.4741 28.1351C94.4741 27.544 94.3488 27.0191 94.0982 26.5606C93.8476 26.1021 93.502 25.744 93.0615 25.4863C92.621 25.2286 92.1236 25.0998 91.5692 25.0998C91.0147 25.0998 90.5154 25.2286 90.0711 25.4863C89.6268 25.744 89.2774 26.104 89.023 26.5663C88.7686 27.0286 88.6414 27.5516 88.6414 28.1351C88.6414 28.7187 88.7743 29.2417 89.0401 29.704C89.3059 30.1663 89.6762 30.5282 90.1508 30.7897C90.6255 31.0511 91.1704 31.1819 91.7856 31.1819ZM93.6995 27.7827H89.4502C89.5034 27.1916 89.7255 26.7122 90.1167 26.3446C90.5078 25.977 90.992 25.7932 91.5692 25.7932C92.1539 25.7932 92.6419 25.977 93.033 26.3446C93.4242 26.7122 93.6463 27.1916 93.6995 27.7827Z"
          fill="#515151"/>
    <defs>
        <linearGradient id="paint0_linear" x1="46.9104" y1="21.1594" x2="-8.53551" y2="22.8395"
                        gradientUnits="userSpaceOnUse">
            <stop stop-color="#FF8737"/>
            <stop offset="1" stop-color="#FFE947"/>
        </linearGradient>
        <linearGradient id="paint1_linear" x1="46.9104" y1="18.4778" x2="-8.54026" y2="20.4776"
                        gradientUnits="userSpaceOnUse">
            <stop stop-color="#FF8737"/>
            <stop offset="1" stop-color="#FFE947"/>
        </linearGradient>
        <linearGradient id="paint2_linear" x1="26.4454" y1="24.7853" x2="22.7776" y2="7.41815"
                        gradientUnits="userSpaceOnUse">
            <stop stop-color="#FF7B3D"/>
            <stop offset="1" stop-color="#FF9A37"/>
        </linearGradient>
    </defs>
</svg>
