<svg width="36" height="36" viewBox="0 0 36 36" fill="none" xmlns="http://www.w3.org/2000/svg">
<path d="M34.9451 36H1.05468C0.472216 36 0 35.5278 0 34.9453C0 34.3628 0.472216 33.8906 1.05468 33.8906H34.9451C35.5276 33.8906 35.9998 34.3628 35.9998 34.9453C35.9998 35.5278 35.5276 36 34.9451 36Z" fill="#7171FF"/>
<path d="M7.45309 35.9999H3.23437C2.6519 35.9999 2.17969 35.5277 2.17969 34.9453V27.2109C2.17969 26.2417 2.96824 25.4531 3.93749 25.4531H6.74997C7.71922 25.4531 8.50777 26.2417 8.50777 27.2109V34.9453C8.50777 35.5277 8.03556 35.9999 7.45309 35.9999ZM4.28905 33.8906H6.39841V27.5625H4.28905V33.8906ZM6.74997 27.5625H6.75068H6.74997Z" fill="#7171FF"/>
<path d="M15.8906 35.9999H11.6719C11.0894 35.9999 10.6172 35.5277 10.6172 34.9452V24.6797C10.6172 23.7104 11.4057 22.9219 12.375 22.9219H15.1875C16.1567 22.9219 16.9453 23.7104 16.9453 24.6797V34.9452C16.9453 35.5277 16.4731 35.9999 15.8906 35.9999ZM12.7265 33.8906H14.8359V25.0312H12.7265V33.8906ZM15.1875 25.0312H15.1882H15.1875Z" fill="#7171FF"/>
<path d="M24.3281 35.9999H20.1094C19.5269 35.9999 19.0547 35.5277 19.0547 34.9452V20.8125C19.0547 19.8432 19.8432 19.0547 20.8125 19.0547H23.625C24.5942 19.0547 25.3828 19.8432 25.3828 20.8125V34.9452C25.3828 35.5277 24.9106 35.9999 24.3281 35.9999ZM21.164 33.8905H23.2734V21.164H21.164V33.8905ZM23.625 21.164H23.6257H23.625Z" fill="#7171FF"/>
<path d="M32.7656 36.0001H28.5469C27.9644 36.0001 27.4922 35.5279 27.4922 34.9454V13.7815C27.4922 12.8122 28.2807 12.0237 29.25 12.0237H32.0625C33.0317 12.0237 33.8203 12.8122 33.8203 13.7815V34.9454C33.8203 35.5279 33.3481 36.0001 32.7656 36.0001ZM29.6015 33.8907H31.7109V14.133H29.6015V33.8907ZM32.0625 14.133H32.0632H32.0625Z" fill="#7171FF"/>
<path d="M1.05468 22.6621C0.472216 22.6621 0 22.1899 0 21.6075C0 21.025 0.472216 20.5528 1.05468 20.5528C7.25663 20.5528 14.0093 18.2944 20.0685 14.1936C25.643 10.421 30.0848 5.47521 32.2552 0.624447C32.4932 0.0927467 33.1171 -0.145471 33.6487 0.0925358C34.1804 0.330402 34.4185 0.954281 34.1806 1.48598C31.8542 6.68535 27.1415 11.9538 21.2508 15.9405C14.8462 20.275 7.67365 22.6621 1.05468 22.6621Z" fill="#7171FF"/>
<path d="M34.9446 8.55537C34.4789 8.55537 34.0528 8.24459 33.9266 7.77336L32.4724 2.3466L27.0457 3.80073C26.4828 3.95162 25.9047 3.61763 25.754 3.055C25.6032 2.49236 25.9371 1.91404 26.4997 1.76329L32.9452 0.0362185C33.5081 -0.114601 34.0862 0.219381 34.2369 0.781948L35.964 7.22746C36.1147 7.79009 35.7809 8.36841 35.2183 8.51916C35.1268 8.54363 35.035 8.55537 34.9446 8.55537Z" fill="#7171FF"/>
</svg>
