<svg width="244" height="36" viewBox="0 0 244 36" fill="none" xmlns="http://www.w3.org/2000/svg">
<path d="M214.042 13.9851C215.048 13.1922 215.811 12.5532 216.61 11.9616C220.651 8.9678 225.059 9.58313 228 13.6064C228.497 14.2809 228.716 14.2217 229.26 13.7247C230.195 12.8787 231.148 12.0089 232.213 11.3522C236.94 8.42348 242.366 10.6954 243.561 16.0914C243.822 17.2569 243.946 18.4698 243.958 19.665C244.005 24.2858 243.94 28.9125 243.999 33.5334C244.017 34.7877 243.774 35.3024 242.36 35.2965C238.011 35.2728 238.017 35.3379 238.011 30.9419C238.005 27.2027 238.035 23.4693 237.964 19.73C237.917 16.9315 237.017 15.618 235.082 15.2098C233.52 14.8785 230.308 16.4641 229.586 18.0083C229.361 18.4935 229.379 19.1147 229.379 19.6768C229.361 24.3627 229.343 29.0486 229.39 33.7345C229.402 34.835 229.148 35.2669 227.929 35.2847C223.444 35.3498 223.444 35.3971 223.444 30.8887C223.444 27.534 223.468 24.1734 223.426 20.8187C223.414 19.8129 223.314 18.7893 223.089 17.8071C222.604 15.6772 220.841 14.7128 218.752 15.334C215.906 16.1742 214.681 17.819 214.681 20.8009C214.681 25.0431 214.64 29.2912 214.705 33.5334C214.723 34.7877 214.474 35.3024 213.066 35.2906C208.717 35.2669 208.717 35.332 208.717 30.9301C208.717 24.8479 208.764 18.7716 208.681 12.6893C208.664 11.1392 209.066 10.4174 210.681 10.6599C210.989 10.7073 211.32 10.7073 211.628 10.6599C213.237 10.3996 214.036 11.009 213.912 12.6952C213.906 13.0207 213.983 13.3342 214.042 13.9851Z" fill="#6CC972"/>
<path d="M12.0762 2.19894C15.5258 2.03327 18.4901 3.26984 21.1763 5.35247C21.9515 5.95596 22.0698 6.48253 21.4071 7.19252C21.2355 7.37593 21.0521 7.56526 20.9278 7.77826C19.922 9.49406 18.9279 10.0502 17.005 8.6125C14.9282 7.06236 12.3662 6.66594 9.76866 7.50609C8.35453 7.96167 7.30133 8.80775 7.05874 10.3697C6.80431 12.0204 7.55576 13.2037 8.93438 13.9906C11.4668 15.4402 14.2714 16.2863 16.9103 17.4933C20.1764 18.9842 22.7443 21.0964 23.0697 25.0014C23.5076 30.2849 20.4722 34.32 15.0228 35.5269C9.82783 36.6807 5.15351 35.4027 0.893379 32.2787C-0.278158 31.4208 -0.242657 30.7878 0.680372 29.7405C2.79861 27.3384 2.74535 27.297 5.55586 28.9891C7.60901 30.2198 9.79233 30.8943 12.2301 30.7464C14.8512 30.5866 16.6381 29.4329 16.9931 27.5041C17.4014 25.3268 16.5612 23.9601 13.8986 22.7117C11.384 21.5343 8.78054 20.5285 6.29546 19.2919C3.20095 17.7595 1.19514 15.3396 1.0413 11.7483C0.828294 6.77245 4.86359 2.58943 10.171 2.21077C10.8041 2.15752 11.4431 2.19894 12.0762 2.19894Z" fill="#6AC871"/>
<path d="M110.568 32.5982C108.391 34.0951 106.61 35.3671 104.35 35.7813C100.723 36.4439 97.3204 34.8228 96.0482 31.6989C94.5986 28.1312 95.782 24.5102 99.0954 22.5045C101.971 20.7651 105.219 20.1556 108.474 19.7711C109.953 19.5995 109.953 18.9723 109.651 17.9369C109.142 16.1975 108.089 15.1266 106.16 14.9905C103.924 14.8307 101.882 15.3869 100.018 16.5406C98.8351 17.2743 98.2079 16.9962 97.7286 15.7892C97.5215 15.2626 97.1961 14.7834 96.9003 14.2983C96.5512 13.7362 96.5038 13.3043 97.1902 12.9197C101.166 10.6951 105.314 9.39341 109.894 10.6122C113.32 11.5293 115.538 14.6769 115.71 19.2859C115.893 24.2144 115.745 29.1488 115.781 34.0832C115.787 34.9944 115.456 35.3612 114.562 35.2725C114.183 35.237 113.793 35.2133 113.426 35.2784C111.521 35.592 110.332 35.0535 110.568 32.5982ZM109.84 26.155C109.84 25.5871 109.829 25.0191 109.846 24.4511C109.864 23.7766 109.669 23.3447 108.876 23.4512C106.551 23.7648 104.243 24.1907 102.356 25.7113C101.291 26.5692 100.941 27.7466 101.273 29.1133C101.58 30.3972 102.456 30.9297 103.663 31.2137C106.894 31.9651 109.846 29.5807 109.84 26.155Z" fill="#6CC972"/>
<path d="M56.3047 24.6229C54.2161 24.6229 52.1274 24.6762 50.0388 24.6052C48.8258 24.5638 48.6779 25.0726 48.8909 26.0843C49.7666 30.2792 54.2338 32.4624 58.7957 30.8886C58.9732 30.8294 59.1508 30.7525 59.3223 30.6815C61.5767 29.7526 62.3222 30.1727 63.1387 32.5807C63.4286 33.4327 62.8902 33.5747 62.4169 33.835C57.778 36.4028 53.015 36.9175 48.388 34.0421C43.7906 31.1785 42.5185 26.5991 42.9622 21.5167C43.4474 15.9078 46.8141 11.8372 51.6837 10.5297C57.21 9.04462 62.2453 11.8668 63.8073 17.3396C64.3517 19.2388 64.5173 21.1854 64.3931 23.1556C64.328 24.2206 63.9375 24.7058 62.76 24.6525C60.6122 24.5519 58.4526 24.6229 56.3047 24.6229ZM53.938 20.7772C55.3344 20.7772 56.7248 20.7535 58.1212 20.789C58.9022 20.8067 59.2277 20.5701 59.2454 19.7122C59.2987 16.8486 57.3106 14.7423 54.4469 14.7363C51.7251 14.7304 49.6897 16.4226 48.8495 19.2448C48.5182 20.3571 48.5773 20.9014 49.95 20.8008C51.2695 20.7002 52.6067 20.7772 53.938 20.7772Z" fill="#6AC871"/>
<path d="M176.707 24.6222C174.553 24.6222 172.399 24.6636 170.251 24.6045C169.145 24.5749 168.991 24.995 169.21 25.9653C170.275 30.7222 175.162 32.7279 180.263 30.4086C181.31 29.9294 181.99 29.6809 182.671 30.9648C183.937 33.3551 183.99 33.3787 181.511 34.5029C175.133 37.3961 168.252 35.6448 165.122 30.3317C161.678 24.4862 163.057 16.2385 168.145 12.4282C171.447 9.95508 175.091 9.43441 178.89 10.9905C182.718 12.5643 184.221 15.8716 184.647 19.7115C185.191 24.6104 185.126 24.6163 180.322 24.6163C179.109 24.6222 177.908 24.6222 176.707 24.6222ZM174.346 20.7765C175.742 20.7765 177.133 20.7824 178.529 20.7706C179.091 20.7646 179.624 20.8534 179.695 19.9541C179.896 17.2384 177.79 14.7948 175.086 14.7297C172.281 14.6587 170.204 16.2089 169.293 18.9837C168.891 20.2085 168.962 20.9244 170.547 20.8001C171.808 20.6996 173.08 20.7765 174.346 20.7765Z" fill="#6AC871"/>
<path d="M154.217 21.5156C154.217 25.6276 154.193 29.7396 154.235 33.8457C154.246 34.8752 153.992 35.2598 152.874 35.2953C148.253 35.4373 148.253 35.4787 148.253 30.846C148.253 23.6988 148.205 16.5516 148.288 9.41033C148.306 7.88977 147.85 7.44603 146.365 7.52887C144.282 7.6472 142.188 7.51703 140.105 7.5762C139.111 7.59987 138.827 7.23304 138.78 6.26272C138.614 2.62404 138.579 2.62403 142.129 2.62403C148.649 2.62403 155.164 2.67136 161.684 2.58853C163.21 2.57078 163.962 2.91395 163.696 4.55284C163.625 4.98474 163.636 5.44031 163.696 5.87814C163.873 7.20345 163.347 7.65902 162.009 7.58803C160.181 7.48744 158.323 7.72411 156.513 7.51703C154.465 7.28628 154.116 8.12052 154.175 9.94282C154.312 13.7945 154.217 17.658 154.217 21.5156Z" fill="#6CC972"/>
<path d="M28.0338 22.4519C28.0338 20.677 27.9569 18.902 28.0575 17.1329C28.1344 15.8135 27.7262 15.21 26.3772 15.4526C24.5372 15.778 24.4662 14.6716 24.5608 13.3227C24.6436 12.1334 24.1467 10.5833 26.3003 10.9324C27.9688 11.1986 28.5663 10.4295 28.519 8.82015C28.4894 7.82025 28.7971 6.80853 28.7971 5.80271C28.7971 4.5484 29.1876 4.04549 30.5602 4.06915C33.9859 4.11649 33.9859 4.04549 33.9859 7.44752C33.9859 10.6839 33.9859 10.6839 37.169 10.6839C37.6128 10.6839 38.0624 10.7371 38.5002 10.672C39.8788 10.4827 40.3285 11.1276 40.151 12.4056C40.1273 12.589 40.145 12.7843 40.145 12.9736C40.145 15.4467 40.145 15.4467 37.7429 15.4467C33.9859 15.4467 33.9859 15.4467 33.9859 19.2274C33.9859 21.8839 33.9563 24.5464 33.9977 27.2029C34.0451 30.3328 35.3645 31.5753 38.3937 31.0369C39.7309 30.8002 40.1983 31.1019 40.3225 32.3503C40.3817 32.9124 40.5592 33.4626 40.719 34.007C40.9142 34.6578 40.8195 35.0483 40.0563 35.2613C37.7015 35.9239 35.3467 36.2552 32.9564 35.5334C30.0396 34.6578 28.2113 31.9421 28.0516 28.1377C27.9747 26.2444 28.0398 24.3393 28.0398 22.4401C28.0457 22.4519 28.0398 22.4519 28.0338 22.4519Z" fill="#6CC972"/>
<path d="M83.2205 15.6946C83.2205 11.0146 83.256 6.3405 83.1969 1.6605C83.1791 0.441691 83.4986 0.0216099 84.7766 0.00977679C89.1844 -0.0375557 89.1844 -0.0848826 89.1844 4.30521C89.1844 12.334 89.1785 20.3628 89.1903 28.3915C89.1903 29.6281 89.001 30.7227 90.847 31.2433C92.1013 31.5983 91.6812 33.5448 91.8705 34.7932C92.0362 35.876 90.9712 35.6807 90.3914 35.805C86.6995 36.6037 84.2145 34.9234 83.4749 31.2315C83.1081 29.4092 83.2501 27.5751 83.2383 25.7468C83.2028 22.3981 83.2205 19.0493 83.2205 15.6946Z" fill="#6CC972"/>
<path d="M69.8011 15.7538C69.8011 11.0738 69.8484 6.38784 69.7715 1.70784C69.7478 0.347029 70.2093 0.00978451 71.505 0.0157011C75.6171 0.0216176 75.6171 -0.0257137 75.6171 4.05671C75.6171 12.2157 75.6111 20.3805 75.623 28.5395C75.623 29.7405 75.623 30.6931 77.2678 31.2433C78.6345 31.6989 78.1908 33.6632 78.4038 34.953C78.5635 35.9352 77.3802 35.6807 76.8004 35.7991C72.783 36.6392 70.02 34.4797 69.8839 30.1724C69.736 25.3682 69.8484 20.558 69.8484 15.7478C69.8307 15.7537 69.8129 15.7538 69.8011 15.7538Z" fill="#6AC871"/>
<path d="M128.04 14.4757C128.952 13.5231 129.727 12.6179 130.602 11.825C131.454 11.0559 132.502 10.5471 133.626 10.3222C134.933 10.0619 136.738 9.73058 137.383 10.7601C138.134 11.967 137.182 13.6473 136.821 15.0851C136.631 15.8365 135.856 15.4815 135.336 15.4637C131.147 15.2981 128.431 17.9014 128.425 22.1317C128.419 25.9893 128.378 29.841 128.449 33.6986C128.472 34.9352 128.1 35.2961 126.857 35.302C122.609 35.3138 122.609 35.3671 122.609 31.0657C122.609 24.8711 122.65 18.6764 122.579 12.4818C122.562 11.0677 122.958 10.482 124.39 10.6832C124.887 10.7542 125.408 10.7364 125.905 10.6832C127.112 10.5589 127.65 11.0263 127.62 12.2806C127.608 12.9374 127.508 13.6592 128.04 14.4757Z" fill="#6AC871"/>
<path d="M195.528 14.6936C196.652 13.5222 197.427 12.6169 198.303 11.8182C199.155 11.049 200.202 10.5402 201.332 10.3154C202.64 10.061 204.444 9.72372 205.083 10.7591C205.835 11.9661 204.882 13.6464 204.515 15.0841C204.326 15.8296 203.551 15.4746 203.03 15.4569C198.841 15.2912 196.131 17.9004 196.126 22.1308C196.126 25.9884 196.078 29.84 196.149 33.6976C196.173 34.946 195.788 35.2951 194.552 35.2951C190.31 35.3069 190.31 35.3602 190.31 31.0529C190.31 24.8583 190.351 18.6636 190.28 12.469C190.262 11.0431 190.671 10.481 192.096 10.6763C192.593 10.7473 193.114 10.7295 193.611 10.6763C194.824 10.5461 195.368 11.0313 195.315 12.2738C195.285 12.9483 195.427 13.6227 195.528 14.6936Z" fill="#6AC871"/>
</svg>
