<svg width="80" height="80" viewBox="0 0 80 80" fill="none" xmlns="http://www.w3.org/2000/svg">
<path d="M50.456 78.606C29.2495 84.319 7.34668 71.9764 1.46451 50.654C-4.44866 29.2191 8.08379 7.33576 29.3409 1.46779C50.8376 -4.46542 72.6867 8.13816 78.5427 29.3692C84.4543 50.7975 71.8419 72.769 50.456 78.606ZM21.8997 36.2222C20.9408 36.4701 19.9868 36.7311 19.0654 37.0964C18.0347 37.5057 17.0074 37.9298 16.2344 38.768C15.587 39.471 15.5984 40.2244 16.249 40.9241C16.6437 41.3481 17.1231 41.6629 17.6368 41.9222C19.7503 42.9921 22.0334 43.5091 24.3377 43.9396C27.7052 44.5691 31.1102 44.8937 34.53 45.047C34.9703 45.0666 35.0453 45.215 35.0453 45.6162C35.0469 51.6016 35.0665 57.5853 35.0714 63.5707C35.0714 63.9312 35.1496 64.0518 35.5394 64.0486C38.4943 64.0225 41.4493 64.0176 44.4043 64.0257C44.781 64.0274 44.8755 63.923 44.8739 63.5479C44.8462 57.5331 44.838 51.5184 44.8119 45.5037C44.8103 45.1628 44.8853 45.0388 45.2506 45.0209C48.385 44.8692 51.503 44.5659 54.5965 44.0261C56.8177 43.6379 59.0159 43.1584 61.1131 42.3022C61.9839 41.9467 62.8287 41.5373 63.4989 40.854C64.1969 40.1429 64.2099 39.3747 63.5446 38.6392C63.1092 38.1581 62.5628 37.827 61.9872 37.5465C59.753 36.4603 57.3509 35.9433 54.9276 35.516C51.7346 34.9534 48.5122 34.637 45.2734 34.513C44.8918 34.4984 44.7728 34.394 44.7793 33.9944C44.8005 32.3537 44.7826 30.713 44.7777 29.074C44.7761 28.5619 44.7761 28.5635 45.2669 28.5619C49.4694 28.5505 53.6719 28.5342 57.876 28.5391C58.2511 28.5391 58.3196 28.4216 58.318 28.0759C58.2968 25.3702 58.2919 22.6646 58.2968 19.9589C58.2968 19.6197 58.2364 19.4908 57.8548 19.4925C45.8507 19.5349 33.8467 19.5659 21.8426 19.5887C21.5246 19.5887 21.4284 19.6637 21.4316 19.9948C21.4528 22.7249 21.4577 25.455 21.4496 28.1868C21.4479 28.5374 21.536 28.6353 21.8964 28.6336C26.125 28.6092 30.3536 28.6076 34.5821 28.5847C34.8985 28.5831 35.0029 28.6516 35.0012 28.9827C34.9898 30.7 34.9964 32.4173 35.0127 34.1347C35.0159 34.4168 34.9393 34.5147 34.6474 34.5277C33.1275 34.5929 31.6092 34.7136 30.0959 34.8702C27.335 35.1523 24.5937 35.5454 21.8997 36.2222Z" fill="#26A07B"/>
<path d="M21.9004 36.2233C24.5944 35.5464 27.3357 35.1534 30.0933 34.868C31.6083 34.7114 33.1249 34.5907 34.6448 34.5255C34.9367 34.5124 35.0134 34.4146 35.0101 34.1324C34.9938 32.4151 34.9873 30.6978 34.9987 28.9804C35.0003 28.6477 34.8976 28.5809 34.5796 28.5825C30.351 28.6053 26.1224 28.607 21.8938 28.6314C21.5351 28.6331 21.447 28.5352 21.447 28.1846C21.4552 25.4544 21.4486 22.7243 21.4291 19.9926C21.4258 19.6599 21.522 19.5865 21.84 19.5865C33.8441 19.5636 45.8482 19.5327 57.8523 19.4902C58.2339 19.4886 58.2942 19.6175 58.2942 19.9567C58.2877 22.6623 58.2942 25.368 58.3154 28.0737C58.3187 28.4194 58.2502 28.5368 57.8735 28.5368C53.671 28.5336 49.4685 28.5499 45.2644 28.5597C44.7735 28.5613 44.7735 28.5597 44.7752 29.0718C44.7784 30.7125 44.798 32.3531 44.7768 33.9922C44.7719 34.3901 44.8893 34.4961 45.2709 34.5108C48.5096 34.6364 51.732 34.9512 54.925 35.5138C57.3467 35.9411 59.7505 36.4581 61.9846 37.5443C62.5603 37.8232 63.1066 38.1559 63.542 38.637C64.2074 39.3725 64.1943 40.1407 63.4964 40.8517C62.8261 41.5351 61.9798 41.9444 61.1106 42.3C59.0134 43.1562 56.8151 43.6373 54.594 44.0238C51.5021 44.5637 48.3824 44.867 45.2481 45.0187C44.8828 45.0366 44.8078 45.1589 44.8094 45.5014C44.8339 51.5162 44.8436 57.5309 44.8714 63.5457C44.873 63.9208 44.7784 64.0235 44.4017 64.0235C41.4468 64.0154 38.4918 64.0219 35.5368 64.0464C35.1471 64.0496 35.0688 63.9289 35.0688 63.5685C35.0656 57.5831 35.0444 51.5994 35.0427 45.614C35.0427 45.2128 34.9693 45.0644 34.5274 45.0448C31.1077 44.8915 27.7043 44.5669 24.3351 43.9374C22.0308 43.5068 19.7478 42.9882 17.6343 41.92C17.1206 41.6607 16.6411 41.3459 16.2465 40.9219C15.5975 40.2222 15.5844 39.4687 16.2318 38.7658C17.0048 37.9275 18.0322 37.5019 19.0628 37.0942C19.9875 36.7321 20.9431 36.4712 21.9004 36.2233ZM23.0468 36.6538C22.0439 36.918 21.1584 37.1382 20.312 37.4823C19.6597 37.7481 19.0155 38.0303 18.4937 38.5228C17.9131 39.0708 17.9082 39.6547 18.4823 40.2124C18.8035 40.5239 19.1884 40.7441 19.5896 40.9349C21.0589 41.6346 22.6277 42.0032 24.2112 42.3114C28.1022 43.0698 32.0421 43.3845 35.9984 43.502C41.481 43.6667 46.9522 43.515 52.3941 42.7729C54.6511 42.4647 56.895 42.07 59.0542 41.31C59.9021 41.0116 60.7436 40.6821 61.3878 40.0151C61.8362 39.5503 61.8395 39.0366 61.4237 38.5489C61.1741 38.257 60.8594 38.0499 60.5251 37.8705C59.0509 37.0811 57.4413 36.7011 55.822 36.3717C52.2946 35.6541 48.72 35.354 45.1323 35.1681C44.8388 35.1534 44.7882 35.261 44.7898 35.5203C44.8029 37.4595 44.7931 39.4002 44.8176 41.3394C44.8224 41.7014 44.7099 41.7895 44.3675 41.8075C41.3766 41.9656 38.3858 41.9624 35.3933 41.8172C35.1145 41.8042 35.0166 41.7324 35.0183 41.434C35.028 39.6644 35.0166 37.8949 35.0069 36.1254C35.0052 35.8286 35.1308 35.4421 34.9514 35.2594C34.7492 35.0523 34.3611 35.2219 34.0577 35.2382C30.3119 35.4518 26.5888 35.8367 23.0468 36.6538Z" fill="#FCFDFD"/>
<path d="M23.0454 36.6537C26.5858 35.8367 30.3105 35.4518 34.0547 35.2415C34.3581 35.2252 34.7462 35.0556 34.9484 35.2627C35.1278 35.4453 35.0022 35.8334 35.0039 36.1286C35.012 37.898 35.0234 39.6674 35.0153 41.4368C35.0136 41.7352 35.1131 41.8053 35.3903 41.82C38.3828 41.9651 41.372 41.97 44.3645 41.8102C44.7069 41.7923 44.8194 41.7042 44.8146 41.3422C44.7901 39.4032 44.7999 37.4626 44.7868 35.5236C44.7852 35.2643 44.8358 35.1567 45.1293 35.1713C48.717 35.3573 52.2933 35.6573 55.819 36.3749C57.4383 36.7043 59.0479 37.0842 60.5221 37.8735C60.8564 38.0529 61.1712 38.26 61.4207 38.5519C61.8365 39.0395 61.8332 39.5532 61.3848 40.018C60.7406 40.685 59.8992 41.0144 59.0512 41.3128C56.892 42.0711 54.6497 42.4674 52.3911 42.7756C46.9492 43.5176 41.478 43.6676 35.9954 43.5046C32.0391 43.3855 28.1008 43.0724 24.2082 42.3141C22.6247 42.0059 21.0543 41.6357 19.5866 40.9377C19.1854 40.7469 18.8005 40.5268 18.4793 40.2153C17.9069 39.6576 17.9118 39.0738 18.4907 38.5258C19.0125 38.0333 19.6567 37.7496 20.309 37.4854C21.1586 37.1381 22.0425 36.9179 23.0454 36.6537Z" fill="#26A07B"/>
</svg>
