<svg width="170" height="36" viewBox="0 0 170 36" fill="none" xmlns="http://www.w3.org/2000/svg">
<path d="M169.923 17.1538C169.429 14.4446 167.986 12.9389 165.266 12.5914C162.393 12.224 159.508 12.5136 156.631 12.7362C156.409 12.7543 156.259 12.8176 156.268 13.0656C156.275 13.2574 156.282 13.4492 156.537 13.5017C156.77 13.5488 156.998 13.6212 157.228 13.6845C158.332 13.9903 158.455 14.1351 158.484 15.2517C158.584 19.2604 158.522 23.269 158.537 27.2758C158.542 28.6439 158.22 29.6194 156.734 29.8746C156.666 29.8872 156.597 29.918 156.535 29.9524C156.347 30.0592 156.284 30.2275 156.309 30.4356C156.344 30.7107 156.557 30.6817 156.743 30.6835C158.698 30.7016 160.654 30.7161 162.608 30.7342C162.863 30.736 163.111 30.7197 163.132 30.3958C163.15 30.1207 162.999 29.9524 162.727 29.8909C162.588 29.8583 162.453 29.8112 162.317 29.7696C161.203 29.4239 160.929 29.0837 160.907 27.9273C160.88 26.4722 160.876 25.0172 160.872 23.5603C160.872 23.4137 160.789 23.2237 161.01 23.1133C161.355 23.3034 161.682 23.5422 162.08 23.6472C165.945 24.6643 169.373 23.05 169.943 19.3653C169.941 19.3689 170.085 18.0424 169.923 17.1538ZM163.205 22.4944C162.989 22.4944 162.774 22.5071 162.561 22.4926C161.158 22.393 160.883 22.1107 160.882 20.7498C160.882 18.9382 160.878 17.1248 160.896 15.3133C160.905 14.4645 161.202 14.1188 162.02 13.898C165 13.0927 167.368 14.9658 167.46 18.2035C167.544 21.0828 166.141 22.5034 163.205 22.4944Z" fill="#F90077"/>
<path d="M138.265 13.1673C138.465 13.104 138.655 12.923 138.583 12.6732C138.52 12.4561 138.288 12.4615 138.1 12.447C136.672 12.3348 135.242 12.324 133.814 12.4235C133.53 12.4434 133.127 12.371 133.128 12.847C133.128 13.3483 133.532 13.2849 133.855 13.3121C134.884 13.399 135.103 13.7139 134.766 14.7074C133.465 18.5658 132.046 22.3808 130.554 26.1704C130.485 26.3441 130.487 26.6066 130.149 26.65C128.652 22.7934 127.202 18.9151 126.029 14.9391C125.799 14.1609 126.04 13.3049 127.231 13.303C127.519 13.303 127.763 13.1963 127.765 12.8578C127.766 12.4959 127.486 12.4597 127.215 12.4434C125.214 12.3203 123.212 12.3222 121.211 12.4416C120.945 12.4579 120.656 12.4742 120.651 12.8434C120.647 13.1709 120.864 13.256 121.153 13.3266C122.538 13.665 123.14 14.5355 122.975 15.9435C122.938 16.2728 122.869 16.604 122.771 16.9207C121.735 20.2416 120.446 23.4703 119.213 26.7206C119.206 26.7387 119.141 26.7332 119.022 26.7495C118.36 24.9886 117.673 23.2169 117.028 21.4288C116.203 19.1449 115.256 16.9026 114.667 14.5409C114.412 13.5202 114.526 13.4062 115.583 13.3048C115.878 13.2777 116.194 13.2578 116.218 12.8777C116.241 12.4669 115.907 12.4633 115.619 12.438C114.144 12.3095 112.665 12.3728 111.186 12.371C110.734 12.3692 110.282 12.4199 109.83 12.4488C109.686 12.4579 109.53 12.4778 109.482 12.6407C109.429 12.8144 109.505 12.9664 109.626 13.0913C109.765 13.2361 109.948 13.2813 110.141 13.3121C110.729 13.4116 111.132 13.7519 111.367 14.293C111.758 15.187 112.172 16.0738 112.528 16.9823C114.2 21.2623 115.892 25.5352 117.492 29.8424C117.83 30.7527 118.485 30.4577 119.042 30.5808C119.589 30.702 119.541 30.1573 119.649 29.875C120.962 26.4781 122.249 23.0703 123.552 19.668C123.72 19.2282 123.84 18.7613 124.183 18.3523C124.496 18.631 124.575 18.9658 124.693 19.2716C126.052 22.8043 127.434 26.3297 128.743 29.8804C128.996 30.5681 129.348 30.6622 129.963 30.5844C130.48 30.5192 130.666 30.2007 130.832 29.7736C132.695 24.9796 134.568 20.191 136.442 15.4024C136.809 14.4667 137.158 13.5148 138.265 13.1673Z" fill="#F90077"/>
<path d="M81.0741 12.5585C80.0093 12.4028 78.9318 12.4589 77.8615 12.4318C77.1944 12.4137 76.5273 12.4318 75.8602 12.4444C75.6126 12.4499 75.3613 12.4951 75.3486 12.8154C75.336 13.1448 75.5529 13.2715 75.8476 13.3041C75.9651 13.3167 76.088 13.3222 76.2019 13.3529C76.9432 13.5556 77.7621 14.3067 77.7675 14.8116C77.7965 17.7706 77.8218 20.7277 77.8344 23.6866C77.8362 24.2676 77.7802 24.8503 77.7495 25.4874C77.2577 25.234 76.992 24.8919 76.7099 24.5789C73.4594 20.9901 70.1673 17.4376 67.0017 13.7782C66.1014 12.7358 65.2119 12.2164 63.856 12.3847C63.0804 12.4806 62.2849 12.4245 61.4985 12.4444C61.2364 12.4517 61.023 12.5367 61.0303 12.8571C61.0375 13.1629 61.2454 13.2606 61.5021 13.2914C61.6666 13.3113 61.8348 13.3077 62.0011 13.3204C63.1075 13.3964 63.7927 14.0008 63.8632 15.112C64.1127 19.117 64.0187 23.1238 63.809 27.1288C63.7493 28.2581 63.5306 29.2969 62.1186 29.4561C62.0734 29.4616 62.03 29.4923 61.9885 29.5159C61.8059 29.619 61.7064 29.7729 61.739 29.9864C61.7697 30.1927 61.9378 30.2434 62.106 30.2669C62.388 30.3067 62.6736 30.3502 62.9575 30.352C64.2682 30.361 65.5807 30.3737 66.8914 30.3465C67.3343 30.3375 68.0376 30.5058 68.1189 29.9647C68.2057 29.3946 67.4826 29.353 67.0523 29.2444C66.2966 29.0544 65.9115 28.6128 65.8537 27.8509C65.832 27.565 65.7759 27.2826 65.7687 26.9967C65.7199 24.6585 65.6747 22.3221 65.6403 19.9839C65.6259 18.9686 65.6385 17.9515 65.6385 16.9363C65.7253 16.9236 65.8103 16.9091 65.8971 16.8964C66.3002 17.1607 66.5841 17.5461 66.9004 17.8972C69.9214 21.2435 72.9333 24.5951 75.9597 27.936C76.6467 28.696 77.3445 29.4489 78.1562 30.0841C78.525 30.3737 78.977 30.4895 79.3621 30.3176C79.6441 30.1927 79.4814 29.7548 79.4832 29.4598C79.5248 24.7128 79.5682 19.9658 79.6821 15.2188C79.7092 14.1348 79.9388 13.3584 81.17 13.2389C81.3688 13.219 81.6364 13.1159 81.6292 12.8625C81.6165 12.5132 81.282 12.5892 81.0741 12.5585Z" fill="#F90077"/>
<path d="M56.8435 12.4466C55.3195 12.3235 53.7954 12.3307 52.2714 12.4447C52.0111 12.4646 51.7851 12.5352 51.7905 12.8483C51.7959 13.1397 52.0111 13.241 52.2588 13.3062C53.5098 13.6392 53.6237 13.7984 53.7358 15.0797C53.8714 16.6289 53.8461 18.178 53.8533 19.729C53.8678 21.3053 53.7846 22.8762 53.7322 24.4507C53.6219 27.7444 50.9824 29.4076 48.3773 29.2067C45.519 28.9877 44.2879 27.1436 44.2354 25.0189C44.1505 21.5333 44.2879 18.0514 44.2499 14.5676C44.2427 13.9052 44.3493 13.4817 45.0689 13.3695C45.2695 13.337 45.463 13.2067 45.642 13.0908C45.7974 12.9913 45.9927 12.8682 45.9186 12.6456C45.8589 12.4665 45.66 12.4592 45.4901 12.4484C43.6804 12.3271 41.8689 12.3181 40.0574 12.4447C39.8116 12.461 39.5639 12.4972 39.5494 12.823C39.5332 13.1668 39.7573 13.3098 40.0466 13.2953C40.8674 13.2573 41.0482 13.8075 41.1169 14.4391C41.1928 15.1503 41.2524 15.8634 41.2759 16.5782C41.37 19.463 41.4802 22.3495 41.52 25.2361C41.5544 27.6033 42.8108 29.0728 44.8031 30.0971C46.2367 30.8337 47.7734 30.6907 49.2884 30.6726C52.8282 30.6292 55.1875 28.3778 55.4569 24.856C55.6557 22.2609 55.6774 19.6602 55.7552 17.0614C55.7841 16.1095 55.8727 15.1576 55.9595 14.2093C56.0065 13.6935 56.1999 13.2845 56.8381 13.3044C57.1057 13.3134 57.2882 13.1614 57.3027 12.8682C57.3172 12.5461 57.1039 12.4683 56.8435 12.4466Z" fill="#F90077"/>
<path d="M153.953 29.7944C153.44 29.7202 153.098 29.4108 152.823 28.9981C152.505 28.5204 152.228 28.0227 152.019 27.4888C151.211 25.4293 150.397 23.3698 149.593 21.3085C148.511 18.5378 147.438 15.7634 146.355 12.9927C146.257 12.7429 146.214 12.3412 145.82 12.4733C145.114 12.7085 144.395 12.8877 144.068 13.7455C143.086 16.3262 142.041 18.8816 141.012 21.4424C140.125 23.6503 139.241 25.86 138.328 28.0571C137.975 28.9059 137.538 29.6985 136.476 29.8505C136.203 29.8904 135.974 30.0876 136.048 30.4043C136.122 30.7174 136.417 30.6432 136.645 30.6432C138.313 30.6414 139.982 30.6396 141.649 30.6233C141.927 30.6215 142.341 30.7699 142.363 30.2795C142.381 29.8741 142.041 29.8306 141.723 29.7583C140.636 29.5139 140.226 28.895 140.524 27.8272C140.832 26.7287 141.235 25.6573 141.575 24.5679C141.674 24.2475 141.868 24.1932 142.16 24.1969C143.113 24.2059 144.068 24.1589 145.02 24.2005C146.026 24.2457 147.226 23.7842 147.985 24.4177C148.723 25.033 148.877 26.222 149.24 27.1775C149.802 28.6543 149.419 29.371 147.879 29.7981C147.62 29.8705 147.443 29.9845 147.459 30.2831C147.477 30.6287 147.725 30.6215 147.971 30.6215C148.972 30.6215 149.972 30.6215 150.974 30.6215C150.974 30.6143 150.974 30.607 150.974 30.5998C151.927 30.5998 152.881 30.6106 153.834 30.5925C154.078 30.5871 154.456 30.7681 154.503 30.2976C154.543 29.903 154.244 29.8379 153.953 29.7944ZM146.722 22.3437C145.462 22.3165 144.201 22.3328 142.941 22.3274C142.647 22.3256 142.329 22.3437 142.498 21.8695C143.184 19.9476 143.863 18.022 144.547 16.1C144.561 16.062 144.614 16.0367 144.719 15.9426C145.075 16.8239 145.418 17.6763 145.763 18.5269C146.201 19.6037 146.633 20.6859 147.087 21.7555C147.262 22.1645 147.244 22.3545 146.722 22.3437Z" fill="#F90077"/>
<path d="M8.89606 26.0997C8.62669 25.8662 8.32839 25.6653 8.04275 25.4518C6.49702 24.3026 6.22041 23.3108 7.0213 21.5572C7.57089 20.3555 8.01382 19.1412 8.08433 17.8019C8.14399 16.6636 8.44229 16.3759 9.57221 16.1677C10.402 16.0157 11.1993 15.8022 11.7923 15.1344C12.472 14.367 12.4883 13.5599 11.814 12.8052C9.1112 9.78292 6.40843 6.76062 3.70205 3.74195C2.71857 2.64343 1.72424 1.55396 0.64675 0.361328C0.62144 0.78843 0.818497 0.918732 0.941432 1.07618C3.15969 3.91207 5.30202 6.80587 7.41903 9.71777C8.35912 11.0099 9.31549 12.2876 10.2592 13.5762C10.6804 14.1517 10.5701 14.3906 9.85604 14.5046C9.14555 14.6168 8.67369 14.2802 8.30489 13.7173C7.06469 11.8243 5.82087 9.93132 4.57706 8.04012C4.44509 7.83924 4.30949 7.64017 4.17571 7.44109C4.17571 7.74151 4.28961 7.96773 4.40893 8.19033C5.4358 10.0996 6.44821 12.0162 7.49858 13.911C7.84027 14.5281 7.90716 15.0384 7.35395 15.5705C7.02672 15.8854 6.85678 16.327 6.7682 16.7776C6.64888 17.3839 6.55487 17.9974 6.44097 18.6055C6.10652 20.3646 5.0001 21.6911 3.95334 23.0502C2.39496 25.0772 2.2901 26.9756 3.599 29.198C3.93707 29.7717 4.34565 30.3074 4.55175 30.9516C4.62406 31.1797 4.75423 31.2484 4.97841 31.1959C6.42651 30.8557 7.84207 30.434 8.96295 29.3862C10.0423 28.3727 10.0079 27.0588 8.89606 26.0997ZM5.19535 26.3603C5.17727 26.7476 4.97479 27.0896 4.54633 27.0516C4.01843 27.0046 4.16306 26.6336 4.31492 26.2499C4.28418 26.0327 3.69663 25.5694 4.49028 25.5531C4.9531 25.5423 5.21885 25.8916 5.19535 26.3603Z" fill="#F90077"/>
<path d="M105.587 21.7326C104.55 20.7698 103.338 20.055 102.149 19.3039C101.241 18.7303 100.346 18.1385 99.6413 17.3096C99.0429 16.6074 98.7736 15.8075 99.1243 14.9225C99.6251 13.6629 100.694 13.1689 101.952 13.082C103.129 13.0024 104.259 13.1472 104.897 14.3669C105.083 14.7235 105.226 15.1162 105.537 15.3913C105.763 15.5903 106.047 15.6844 106.33 15.5415C106.594 15.4075 106.432 15.1705 106.415 14.9678C106.363 14.3506 106.291 13.7317 106.28 13.1146C106.267 12.4956 105.992 12.2151 105.378 12.1699C104.499 12.1029 103.622 12.0088 102.738 12.0541C102.214 12.0541 101.684 12.0016 101.167 12.0631C99.2545 12.2929 97.6509 13.0838 96.935 14.9804C96.2118 16.8934 96.6782 18.6307 98.083 20.1147C98.7971 20.8694 99.6739 21.3942 100.556 21.9172C101.579 22.5235 102.639 23.09 103.481 23.9496C104.201 24.6843 104.721 25.5295 104.512 26.6335C104.165 28.4649 102.796 29.6286 100.972 29.6521C98.9941 29.6775 97.8172 28.74 97.3779 26.7891C97.3562 26.6968 97.3526 26.5991 97.3237 26.5086C97.2333 26.2226 97.1031 25.9385 96.7451 25.9982C96.4161 26.0525 96.398 26.3638 96.389 26.6208C96.3673 27.2886 96.3673 27.9564 96.3655 28.6224C96.3619 29.8928 96.3546 29.9308 97.6093 30.2693C100.319 30.9986 102.95 30.9805 105.287 29.1617C107.827 27.1836 107.947 23.9224 105.587 21.7326Z" fill="#F90077"/>
<path d="M91.6889 13.3079C91.9728 13.25 92.2114 13.1613 92.1951 12.8265C92.1807 12.5135 91.9294 12.4646 91.6817 12.4483C91.2062 12.4175 90.7308 12.3723 90.2553 12.3723C88.8018 12.3741 87.3482 12.3144 85.8965 12.4374C85.6109 12.461 85.2855 12.4537 85.2981 12.8736C85.3108 13.2754 85.6235 13.2736 85.9146 13.3079C87.0988 13.4455 87.2795 13.6138 87.388 14.8028C87.5833 16.9437 87.4495 19.0919 87.5073 20.3805C87.5742 23.2381 87.5796 25.2415 87.482 27.2431C87.4079 28.7669 87.247 28.9641 85.8043 29.431C85.5494 29.5143 85.2855 29.5939 85.2999 29.936C85.3144 30.278 85.6163 30.2798 85.8296 30.2907C87.7568 30.4029 89.6858 30.3902 91.6148 30.2997C91.8553 30.2889 92.1789 30.2726 92.1933 29.9016C92.2096 29.498 91.895 29.4853 91.6112 29.4256C90.55 29.2048 90.3837 29.051 90.3312 27.9651C90.1197 23.6525 90.1414 19.338 90.2047 15.0236C90.2209 13.8653 90.5247 13.5468 91.6889 13.3079Z" fill="#F90077"/>
<path d="M28.3016 17.4997C27.103 16.8084 25.7724 16.5605 24.4309 16.3216C22.8725 16.0447 21.24 16.0103 19.8878 15.0059C19.4828 14.7055 19.5334 15.062 19.528 15.2846C19.4954 16.6111 19.998 17.6952 21.0141 18.5439C21.8638 19.2516 22.8364 19.7474 23.8398 20.1963C25.2933 20.8478 26.801 21.3798 28.1841 22.1834C29.3339 22.8512 30.1637 23.7452 30.2848 25.3378C30.4439 25.0699 30.509 24.9776 30.5578 24.8763C31.8757 22.1617 30.9103 19.0036 28.3016 17.4997Z" fill="#F90077"/>
<path d="M27.7085 23.4981C26.5026 22.642 25.1702 22.0032 23.921 21.2232C23.4473 20.9282 23.4292 21.2413 23.3678 21.5725C23.1436 22.785 23.4636 23.8908 24.0656 24.9205C24.6188 25.8634 25.2136 26.7828 25.8174 27.6949C26.913 29.349 27.6126 31.0592 26.696 33.0391C26.6906 33.0518 26.7159 33.0807 26.7394 33.1223C26.8208 33.097 26.913 33.0825 26.9889 33.0409C30.3082 31.2384 31.194 25.9756 27.7085 23.4981Z" fill="#F90077"/>
<path d="M16.2985 9.96462C16.9746 10.8261 17.658 11.6839 18.3432 12.5399C19.3899 13.8484 20.7729 14.5759 22.4036 14.8618C23.3907 15.0356 24.3887 15.0935 25.3866 15.1351C26.8022 15.2419 28.1834 15.4301 29.0295 16.8363C28.7945 15.2708 28.0695 14.0239 27.0282 12.8403C26.8492 13.4538 26.7407 13.9913 26.437 14.451C26.1875 14.8311 25.9001 15.1351 25.3848 14.9071C25.1136 14.5922 25.2257 14.2881 25.3143 13.9171C25.7898 11.9318 25.703 11.2767 23.9675 10.5293C22.1053 9.72754 20.1854 9.39636 18.1805 9.70583C17.5043 9.81079 17.0379 9.68411 16.5841 9.12851C15.8881 8.27612 15.0257 7.5866 14.0115 7.12331C13.2359 6.76859 12.4369 6.49351 11.5456 6.65458C13.6138 7.07444 15.0528 8.37928 16.2985 9.96462Z" fill="#F90077"/>
<path d="M20.1858 33.4655C20.0303 32.7434 19.9399 32.0087 19.7772 31.2884C19.3867 29.5474 18.2676 28.4742 16.5574 28.1322C13.5762 27.5368 11.2043 28.8307 8.85405 30.8088C10.9674 30.8378 12.3541 31.8657 13.5563 33.2321C13.7118 33.4076 13.9107 33.5542 14.1113 33.6773C15.0677 34.2654 16.2356 34.0826 16.8033 33.2701C17.248 32.6348 17.1974 31.7028 16.693 31.225C16.1578 30.7183 15.498 30.7038 14.8724 31.1852C15.0207 31.254 15.1454 31.1707 15.281 31.1345C15.7764 30.997 16.1886 31.1726 16.4815 31.558C16.7526 31.9127 16.7111 32.3254 16.505 32.7072C16.2681 33.1452 15.883 33.3642 15.3877 33.337C14.6555 33.2954 13.9938 32.6891 13.907 32.0105C13.8058 31.2214 14.2415 30.5808 15.0406 30.3401C16.0584 30.0324 17.2715 30.5319 17.9621 31.6377C18.3888 32.3199 18.7087 33.071 19.0559 33.8021C19.3451 34.412 19.6832 34.9803 20.2111 35.4146C21.1729 36.2091 22.6698 36.1982 23.4454 35.3567C23.2718 35.3712 23.1308 35.373 22.9934 35.3929C21.3085 35.6517 20.5419 35.1341 20.1858 33.4655Z" fill="#F90077"/>
<path d="M12.8468 12.8838C13.3115 13.3037 13.8357 13.6349 14.4775 13.6928C14.7415 13.7163 15.1085 13.6656 14.8228 13.2729C14.04 12.1961 13.8592 10.9148 13.532 9.68236C13.2608 8.66346 12.6606 7.96852 11.6536 7.62466C10.8961 7.36587 10.8274 7.4093 10.8383 8.40105C10.9703 10.0208 11.4711 11.6441 12.8468 12.8838Z" fill="#F90077"/>
<path d="M19.5205 25.1562C19.2023 25.2503 18.8696 25.292 18.5442 25.3625C17.1576 25.6593 15.7113 25.7444 14.4693 26.6077C16.2808 26.2222 18.1646 26.4502 19.9634 25.9561C20.8673 25.7082 21.5724 25.1798 22.1419 24.4305C22.9934 23.3103 22.8126 21.0318 21.8526 20.373C21.8996 20.6174 21.943 20.849 21.9864 21.0807C22.3552 23.0225 21.4061 24.6006 19.5205 25.1562Z" fill="#F90077"/>
<path d="M14.2253 16.5804C13.9162 16.394 13.56 16.3288 13.1984 16.3686C12.4174 16.4555 11.801 17.2789 11.8733 18.1169C11.9293 18.7666 12.2114 18.9747 13.0086 18.9548C13.363 18.9331 13.7155 18.9095 14.0536 18.7738C14.5055 18.5928 14.972 18.3865 15.0117 17.8382C15.0515 17.2663 14.6936 16.8627 14.2253 16.5804ZM13.4769 17.6916C13.1279 17.6246 12.6959 17.5721 12.7176 17.1269C12.7374 16.7107 13.1261 16.593 13.5094 16.6057C13.8583 16.6166 14.2163 16.7125 14.2307 17.1179C14.2452 17.5866 13.8222 17.6156 13.4769 17.6916Z" fill="#F90077"/>
<path d="M25.8217 10.9219C26.2249 11.7182 26.0387 12.6122 26.1254 13.5551C26.3605 13.1968 26.3587 12.8891 26.4002 12.5905C26.4599 12.1543 26.2375 11.5101 26.6244 11.3309C27.0637 11.1282 27.3656 11.7815 27.8664 11.9408C26.7727 10.7681 25.6608 9.61344 26.0604 7.79102C25.7241 8.23984 25.744 8.752 25.7205 9.22977C25.6916 9.8089 25.4782 9.8288 25.0136 9.64783C24.6249 9.49762 24.2398 9.2714 23.7409 9.34198C24.5038 9.82699 25.3987 10.0858 25.8217 10.9219Z" fill="#F90077"/>
<path d="M0 0C0.251556 0.229839 0.407195 0.371 0.561024 0.512161C0.524829 0.238888 0.434341 0.0271463 0 0Z" fill="#F90077"/>
<path d="M3.98742 7.30237C4.00371 7.28609 4.02181 7.2698 4.03809 7.2517C4.02181 7.2336 4.00552 7.21732 3.98923 7.19922C3.97294 7.21551 3.94218 7.2336 3.94218 7.24989C3.94218 7.26799 3.97113 7.28428 3.98742 7.30237Z" fill="#F90077"/>
</svg>
