<svg width="80" height="80" viewBox="0 0 80 80" fill="none" xmlns="http://www.w3.org/2000/svg">
<path d="M40 80C62.0914 80 80 62.0914 80 40C80 17.9086 62.0914 0 40 0C17.9086 0 0 17.9086 0 40C0 62.0914 17.9086 80 40 80Z" fill="#2775C8"/>
<path d="M42.2626 24.9019C42.2626 25.5167 42.0647 26.2361 42.3198 26.7135C42.5651 27.1714 43.3761 27.0798 43.9238 27.2793C46.4614 28.1982 48.0801 29.9542 48.7717 32.5621C49.0432 33.584 48.6197 34.1432 47.5732 34.153C46.8996 34.1579 46.2243 34.153 45.5507 34.153C45.0209 34.153 44.5713 33.9258 44.4388 33.4238C43.6638 30.4856 41.0036 30.0948 38.7211 30.2796C38.4071 30.3041 38.0932 30.3712 37.7874 30.448C35.7126 30.9663 34.7364 32.5131 35.155 34.6043C35.3937 35.7995 36.2472 36.3849 37.2986 36.7757C38.7783 37.325 40.3463 37.4542 41.8849 37.724C43.3123 37.9742 44.7103 38.3192 46.0347 38.9274C48.4137 40.0213 49.5729 41.9179 49.7593 44.4899C50.1092 49.3182 46.7835 52.258 42.9297 53.0625C42.377 53.1785 42.1906 53.3666 42.2283 53.9356C42.2838 54.7842 42.2479 55.6393 42.2413 56.4928C42.2348 57.4313 41.8326 57.8385 40.9104 57.845C40.2956 57.8499 39.6808 57.8499 39.0661 57.845C38.1799 57.8385 37.7711 57.4297 37.7613 56.5271C37.7515 55.6148 37.7368 54.7024 37.7695 53.7917C37.7842 53.36 37.6697 53.1884 37.2152 53.1131C35.1975 52.7829 33.3695 52.0324 31.9388 50.5052C30.8058 49.2953 30.1779 47.8368 29.8967 46.2247C29.756 45.4186 30.1926 44.9232 31.0118 44.9068C31.8048 44.8921 32.5978 44.8937 33.3908 44.9068C33.9679 44.9166 34.4094 45.188 34.5222 45.7685C35.1386 48.9029 37.3198 49.5912 39.6743 49.7204C40.9823 49.7923 42.2479 49.5978 43.3777 48.8718C44.8852 47.9039 45.5213 46.0219 44.9261 44.3329C44.6678 43.5988 44.1576 43.0968 43.4774 42.7534C42.1841 42.101 40.7747 41.877 39.3653 41.6579C37.7596 41.4078 36.1671 41.1086 34.6547 40.484C30.3855 38.7214 29.0579 33.2603 32.032 29.6926C33.291 28.1818 34.9375 27.3398 36.8195 26.9032C37.758 26.6857 37.7613 26.6988 37.7613 25.7129C37.7613 24.9787 37.758 24.2462 37.7629 23.5121C37.7678 22.5703 38.1717 22.1566 39.0922 22.1485C39.707 22.1419 40.3218 22.1419 40.9366 22.1485C41.8113 22.1583 42.2332 22.5883 42.2446 23.4778C42.2511 23.9536 42.2462 24.4294 42.2462 24.9052C42.2479 24.9019 42.256 24.9019 42.2626 24.9019Z" fill="#FCFDFE"/>
<path d="M13.1897 39.9868C13.1897 28.3534 20.6227 18.1392 31.7247 14.5159C32.6747 14.2053 33.2976 14.6369 33.314 15.6229C33.3238 16.1575 33.3172 16.6938 33.3156 17.2285C33.314 18.3371 33.0327 18.7671 32.0092 19.1644C28.9713 20.3416 26.2881 22.0683 24.035 24.4227C19.6711 28.9845 17.4032 34.4407 17.7482 40.7471C18.278 50.4316 23.211 57.1206 32.14 60.8747C32.9281 61.2066 33.3009 61.7004 33.314 62.5457C33.3238 63.1801 33.327 63.8145 33.314 64.4489C33.2943 65.322 32.6501 65.7929 31.8179 65.5068C23.0082 62.477 17.1465 56.5385 14.3064 47.6585C13.5102 45.1716 13.1603 42.6029 13.1897 39.9868Z" fill="#FCFDFE"/>
<path d="M66.8127 39.9852C66.8094 51.5614 59.4484 61.7657 48.4609 65.4201C47.2362 65.8272 46.6835 65.4332 46.6819 64.148C46.6803 63.633 46.6786 63.1163 46.6819 62.6013C46.6868 61.6562 46.9795 61.2213 47.8477 60.8845C52.918 58.9208 56.7915 55.5754 59.4893 50.8518C64.0871 42.8056 62.9425 32.1484 56.7424 25.2484C54.2718 22.4999 51.3353 20.4479 47.8837 19.1284C47.0384 18.8047 46.695 18.3109 46.6835 17.4181C46.6754 16.7837 46.6639 16.1477 46.6868 15.5149C46.7179 14.6712 47.3556 14.22 48.1551 14.4848C54.9291 16.7183 60.0828 20.9351 63.541 27.1745C65.7467 31.1493 66.8094 35.4381 66.8127 39.9852Z" fill="#FCFDFE"/>
</svg>
