<svg width="165" height="36" viewBox="0 0 165 36" fill="none" xmlns="http://www.w3.org/2000/svg">
<path d="M28.8348 1.97942L20.2011 32.3589C19.3703 35.2323 17.197 35.9974 14.4473 35.9974C11.6991 35.9974 9.52577 35.2323 8.69351 32.3589L0.0643736 1.97942C0 1.78816 0 1.6581 0 1.53264C0 0.893068 0.383177 0.446289 1.02231 0.446289H4.53834C5.05027 0.446289 5.49782 0.828806 5.75378 1.65963L13.1062 29.4869C13.4893 31.0185 13.8097 31.3383 14.4488 31.3383C15.0236 31.3383 15.4083 31.0185 15.7915 29.4869L23.1439 1.65963C23.3998 0.830336 23.8474 0.446289 24.3578 0.446289H27.8753C28.5145 0.446289 28.8976 0.893068 28.8976 1.53264C28.8976 1.65963 28.8976 1.78816 28.8348 1.97942Z" fill="url(#paint0_linear)"/>
<path d="M61.6331 19.7867H40.2135V20.6818C40.2135 28.2755 43.2176 31.0847 49.1001 31.0847C52.8093 31.0847 57.5407 30.8292 60.4805 30.3824H60.8008C61.3127 30.3824 61.8246 30.6379 61.8246 31.2759V33.4456C61.8246 34.2749 61.5687 34.7217 60.5448 34.9144C56.7753 35.653 52.9416 36.0163 49.1001 35.9993C41.7477 35.9993 34.5869 32.552 34.5869 20.6818V14.9364C34.5869 5.80953 39.6387 0.00292969 48.7813 0.00292969C58.1155 0.00292969 62.847 5.87379 62.847 14.9364V18.3836C62.847 19.2129 62.3994 19.7867 61.6331 19.7867ZM57.1576 14.9364C57.1576 7.72364 54.4079 4.91444 48.7813 4.91444C43.282 4.91444 40.2135 8.04343 40.2135 14.9364V15.5101H57.156V14.9364H57.1576Z" fill="url(#paint1_linear)"/>
<path d="M96.159 35.5526H93.089C92.7501 35.5514 92.4254 35.4164 92.1859 35.177C91.9464 34.9376 91.8115 34.6133 91.8107 34.275V13.2779C91.8107 6.83174 89.6374 4.85184 84.7787 4.85184C82.0918 4.85184 79.0877 5.87392 76.1465 7.34126V34.275C76.1465 34.9146 75.5717 35.5526 74.8682 35.5526H71.7354C71.0962 35.5526 70.5199 34.9773 70.5199 34.275V1.72438C70.5199 1.02208 71.0318 0.448309 71.7354 0.448309H74.931C75.6361 0.448309 76.1465 1.02208 76.1465 1.72438V2.93773C79.6625 0.959351 82.5409 0 86.3129 0C93.9841 0 97.4373 4.78911 97.4373 13.2764V34.275C97.4373 34.9788 96.861 35.5526 96.1575 35.5526H96.159Z" fill="url(#paint2_linear)"/>
<path d="M131.839 35.5506H128.641C127.936 35.5506 127.425 34.9768 127.425 34.2745V33.0612C123.909 35.0395 121.032 35.9974 117.26 35.9974C109.588 35.9974 106.136 31.2113 106.136 22.721V1.72389C106.136 1.02006 106.711 0.446289 107.414 0.446289H110.484C111.186 0.446289 111.763 1.02159 111.763 1.72389V22.721C111.763 29.1687 113.936 31.1471 118.795 31.1471C121.48 31.1471 124.484 30.125 127.427 28.6576V1.72389C127.427 1.08433 128.002 0.446289 128.705 0.446289H131.838C132.477 0.446289 133.053 1.02159 133.053 1.72389V34.273C133.053 34.9753 132.541 35.5491 131.838 35.5491L131.839 35.5506Z" fill="url(#paint3_linear)"/>
<path d="M152.046 35.9979C149.68 35.9979 145.077 35.8066 141.944 35.0416C141.112 34.8488 140.602 34.4663 140.602 33.764V31.5301C140.602 30.9563 141.112 30.5738 141.751 30.5738H142.009C145.077 30.9563 149.744 31.2761 152.046 31.2761C156.201 31.2761 158.375 30.1897 158.375 26.744C158.375 24.8284 157.224 23.6166 153.581 21.4454L147.123 17.6156C143.223 15.2548 140.602 12.5098 140.602 8.4888C140.602 1.85138 145.589 0 152.174 0C155.754 0 159.143 0.319784 162.147 0.829296C162.979 0.956291 163.362 1.40307 163.362 2.1069V4.21227C163.362 4.97883 162.915 5.29862 162.276 5.29862H162.084C159.845 5.10583 155.754 4.78758 152.174 4.78758C148.593 4.78758 146.227 5.23435 146.227 8.49033C146.227 10.4029 147.698 11.6163 150.638 13.3406L156.968 17.1046C162.274 20.2321 164.001 22.977 164.001 26.7425C164.001 33.2529 159.206 35.9994 152.046 35.9994V35.9979Z" fill="url(#paint4_linear)"/>
<defs>
<linearGradient id="paint0_linear" x1="14.4488" y1="-2.58936" x2="14.4488" y2="41.7305" gradientUnits="userSpaceOnUse">
<stop stop-color="#F8B342"/>
<stop offset="1" stop-color="#F2C35E"/>
</linearGradient>
<linearGradient id="paint1_linear" x1="48.7169" y1="-2.589" x2="48.7169" y2="41.7324" gradientUnits="userSpaceOnUse">
<stop stop-color="#F8B342"/>
<stop offset="1" stop-color="#F2C35E"/>
</linearGradient>
<linearGradient id="paint2_linear" x1="83.9786" y1="-2.58887" x2="83.9786" y2="41.7325" gradientUnits="userSpaceOnUse">
<stop stop-color="#F8B342"/>
<stop offset="1" stop-color="#F2C35E"/>
</linearGradient>
<linearGradient id="paint3_linear" x1="119.595" y1="-2.58936" x2="119.595" y2="41.7305" gradientUnits="userSpaceOnUse">
<stop stop-color="#F8B342"/>
<stop offset="1" stop-color="#F2C35E"/>
</linearGradient>
<linearGradient id="paint4_linear" x1="152.301" y1="-2.58887" x2="152.301" y2="41.731" gradientUnits="userSpaceOnUse">
<stop stop-color="#F8B342"/>
<stop offset="1" stop-color="#F2C35E"/>
</linearGradient>
</defs>
</svg>
